<svg xmlns="http://www.w3.org/2000/svg" viewBox="0 0 32.91 32.91"><defs><style>.cls-1{fill:#fff;}</style></defs><g id="レイヤー_2" data-name="レイヤー 2"><g id="レイヤー_1-2" data-name="レイヤー 1"><path class="cls-1" d="M32.84,9.62q.07,2.06.07,6.84t-.11,6.86A13.85,13.85,0,0,1,32.18,27,8.65,8.65,0,0,1,27,32.18a13.85,13.85,0,0,1-3.64.62q-2.09.11-6.86.11T9.59,32.8A12,12,0,0,1,6,32.1a7.85,7.85,0,0,1-3.2-2A8.57,8.57,0,0,1,.74,27a13.43,13.43,0,0,1-.63-3.64Q0,21.24,0,16.46T.11,9.59A13.43,13.43,0,0,1,.74,6,8.6,8.6,0,0,1,6,.73,14.27,14.27,0,0,1,9.59.11Q11.68,0,16.46,0t6.86.11A14.27,14.27,0,0,1,27,.73,8.65,8.65,0,0,1,32.18,6,15.17,15.17,0,0,1,32.84,9.62ZM29.31,26.15a15.66,15.66,0,0,0,.59-4c.05-1.07.07-2.59.07-4.55V15.28c0-2,0-3.53-.07-4.55a14.9,14.9,0,0,0-.59-4A5.31,5.31,0,0,0,26.15,3.6a14.47,14.47,0,0,0-4-.59c-1.08,0-2.6-.07-4.56-.07H15.28c-2,0-3.48,0-4.55.07a15.21,15.21,0,0,0-4,.59A5.31,5.31,0,0,0,3.6,6.76a14.9,14.9,0,0,0-.59,4c0,1.07-.07,2.59-.07,4.55v2.35c0,2,0,3.48.07,4.55a15.66,15.66,0,0,0,.59,4,5.58,5.58,0,0,0,3.16,3.16,15.21,15.21,0,0,0,4,.59c1.07.05,2.59.07,4.55.07h2.35c2,0,3.53,0,4.56-.07a14.47,14.47,0,0,0,4-.59A5.58,5.58,0,0,0,29.31,26.15ZM16.46,8a8.41,8.41,0,0,1,7.3,4.22,8.4,8.4,0,0,1,0,8.45,8.38,8.38,0,0,1-3.08,3.09,8.4,8.4,0,0,1-8.45,0,8.45,8.45,0,0,1-3.08-3.09,8.4,8.4,0,0,1,0-8.45,8.45,8.45,0,0,1,3.08-3.09A8.32,8.32,0,0,1,16.46,8Zm0,14A5.51,5.51,0,0,0,22,16.46,5.51,5.51,0,0,0,16.46,11,5.5,5.5,0,0,0,11,16.46,5.5,5.5,0,0,0,16.46,22ZM27.25,7.64a1.87,1.87,0,0,0-.58-1.39,1.93,1.93,0,0,0-2.8,0,1.87,1.87,0,0,0-.58,1.39,2,2,0,0,0,2,2A1.79,1.79,0,0,0,26.63,9,2.3,2.3,0,0,0,27.25,7.64Z"/></g></g></svg>