<svg xmlns="http://www.w3.org/2000/svg" viewBox="0 0 38.43 31.24"><defs><style>.cls-1{fill:#fff;}</style></defs><g id="レイヤー_2" data-name="レイヤー 2"><g id="レイヤー_1-2" data-name="レイヤー 1"><path class="cls-1" d="M12.09,31.24c14.5,0,22.43-12,22.43-22.44,0-.34,0-.68,0-1A15.88,15.88,0,0,0,38.43,3.7a15.6,15.6,0,0,1-4.52,1.24A8,8,0,0,0,37.37.58a15.76,15.76,0,0,1-5,1.91A7.9,7.9,0,0,0,18.72,7.88a7.58,7.58,0,0,0,.21,1.8A22.34,22.34,0,0,1,2.68,1.44,7.89,7.89,0,0,0,5.12,12a7.76,7.76,0,0,1-3.58-1v.11a7.9,7.9,0,0,0,6.33,7.73A8,8,0,0,1,4.31,19a7.9,7.9,0,0,0,7.36,5.48A15.81,15.81,0,0,1,1.88,27.8,14.6,14.6,0,0,1,0,27.69a22.29,22.29,0,0,0,12.09,3.55"/></g></g></svg>