<svg xmlns="http://www.w3.org/2000/svg" viewBox="0 0 85.53 95.26"><defs><style>.cls-1{fill:#f3e3b0;}.cls-2{fill:none;}.cls-3{fill:#ddb306;}.cls-4{fill:#923c06;}.cls-5{opacity:0.4;}.cls-6{fill:#983c00;}.cls-7{fill:#aa4e00;opacity:0.3;}.cls-8{fill:#fff;}</style></defs><g id="レイヤー_2" data-name="レイヤー 2"><g id="レイヤー_1-2" data-name="レイヤー 1"><rect class="cls-1" width="80.16" height="95.26"/><polygon class="cls-2" points="48.38 42.66 59.17 42.7 53.81 10.35 48.38 42.66"/><polygon class="cls-2" points="48.38 42.66 59.17 42.7 53.81 10.35 48.38 42.66"/><path class="cls-2" d="M31.12,19.65v-1c0-7.88-2.05-10.75-8.5-10.75h-2.1V31.12H23C29.14,31.12,31.12,28.11,31.12,19.65Z"/><path class="cls-2" d="M28.45,32.05c3.54,1.08,6.06,2.74,7.65,5.08L34.56,28A15,15,0,0,1,28.45,32.05Z"/><path class="cls-2" d="M23.21,32.77H20.52v25.1h2.84c6.24,0,8.49-3.3,8.49-11.91C31.85,36.14,29.88,32.77,23.21,32.77Z"/><path class="cls-2" d="M20.52,32.77v25.1h2.84c6.24,0,8.49-3.3,8.49-11.91,0-9.82-2-13.19-8.64-13.19Z"/><path class="cls-2" d="M22.62,7.89h-2.1V31.12H23c6.16,0,8.14-3,8.14-11.47v-1C31.12,10.76,29.07,7.89,22.62,7.89Z"/><path class="cls-2" d="M44.29,50.55c0,.14,0,.28-.08.42C44.24,50.83,44.26,50.69,44.29,50.55Z"/><polygon class="cls-2" points="48.38 42.66 59.17 42.7 53.81 10.35 48.38 42.66"/><polygon class="cls-2" points="43.59 53.9 43.59 53.9 43.59 53.9 43.59 53.9"/><path class="cls-3" d="M41.39,56.79c1.3.09,2.21-2.94,2.21-2.94v0h0c.22-.83.41-1.81.62-2.92,0-.14,0-.28.08-.42l6.54-34.73-18.33,0L34.56,28l1.54,9.1L37.81,47.3c.76,4,1.28,6.8,2.42,8.63A1.74,1.74,0,0,0,41.39,56.79Z"/><path class="cls-4" d="M71.48,57.93a4.57,4.57,0,0,1-3.4-2.26c-.75-1.08-1.4-4.69-1.4-4.69h0L58.92,6.38H52.61l-1.77,9.37v.07L44.29,50.55c0,.14,0,.28-.08.42-.21,1.11-.4,2.09-.62,2.92h0v0s-.91,3-2.21,2.94a1.74,1.74,0,0,1-1.16-.86c-1.14-1.83-1.66-4.64-2.42-8.63L36.1,37.13c-1.59-2.34-4.11-4-7.65-5.08a15,15,0,0,0,6.11-4L32.5,15.85,30.68,6.38H30.1L9.82,6.31V7.89h1a3.65,3.65,0,0,1,3.34,3,5.32,5.32,0,0,1,.08.68V54.28a5.55,5.55,0,0,1-.08.68,3.58,3.58,0,0,1-3.08,2.91H9.72v1.58H22.64c7.69,0,12.77-3.29,14.66-9.07a40.87,40.87,0,0,1,.56,4.32c0,2.29-1,3.15-4,3.23V59.5H50.6V57.93c-2.94-.07-4-.93-4-3.22a23,23,0,0,1,.14-2.51L48,44.52H59.59l1.21,6.56a25.67,25.67,0,0,1,.28,4.71c-.36,1.78-2.12,2.1-3,2.14h-2v1.58H72.49V57.93Zm-51-50h2.1c6.45,0,8.5,2.87,8.5,10.75v1c0,8.46-2,11.47-8.14,11.47H20.52Zm2.84,50H20.52V32.77h2.69c6.67,0,8.64,3.37,8.64,13.19C31.85,54.57,29.6,57.87,23.36,57.87Zm25-15.21,5.43-32.31L59.17,42.7Z"/><path class="cls-3" d="M9.44,65.57h2.82a2.92,2.92,0,0,1,3.09,3.17,2.57,2.57,0,0,1-2,2.8v0a2.81,2.81,0,0,1,2.29,3,3.21,3.21,0,0,1-3.24,3.49H9.44Zm2.29,5.14c1.14,0,1.44-.53,1.44-1.66,0-1.42-.3-1.67-1.44-1.65Zm0,5.56c1.37,0,1.58-.55,1.58-1.85,0-1.14-.28-1.79-1.58-1.78Z"/><path class="cls-3" d="M18.8,65.57h2.57c2.18,0,3.63.92,3.63,3.56a3.55,3.55,0,0,1-1.34,3.06L25,78.1h-2.3l-1.08-5.39h-.54V78.1H18.8Zm2.29,5.31h.46c.84,0,1.16-.84,1.16-1.74,0-1.35-.49-1.74-1.27-1.74h-.35Z"/><path class="cls-3" d="M28.16,65.57h5.18v1.94H30.45v3.2h2.13v2H30.45v3.41h3V78.1h-5.3Z"/><path class="cls-3" d="M35.89,65.57H38l.81,7.36h0l1.09-7.36H42l1,7.36h0l.89-7.36h1.64L43.89,78.1H41.82l-1.09-7.94h0L39.56,78.1h-2Z"/><path class="cls-3" d="M48.54,65.57h5.17v1.94H50.82v3.2H53v2H50.82v3.41h3V78.1H48.54Z"/><path class="cls-3" d="M56.93,65.57H59.5c2.18,0,3.62.92,3.62,3.56a3.54,3.54,0,0,1-1.33,3.06l1.35,5.91h-2.3l-1.08-5.39h-.54V78.1H56.93Zm2.29,5.31h.45c.85,0,1.17-.84,1.17-1.74,0-1.35-.5-1.74-1.27-1.74h-.35Z"/><path class="cls-3" d="M67.86,74.47c0,.71,0,1.94,1,1.94a1.09,1.09,0,0,0,1-1.22c0-2.23-4.15-2.74-4.15-6.45,0-1.89,1-3.42,3-3.42s2.85,1.57,2.9,3.82h-2c0-.7,0-1.88-.92-1.88-.54,0-.86.46-.86,1.14,0,2.13,4.15,2.85,4.15,6.5,0,1.91-1.09,3.44-3.15,3.44-2.44,0-2.93-2.14-2.93-3.87Z"/><path class="cls-3" d="M10.49,81.45h2.18l1,8.27H12.24L12,87.89H10.8l-.21,1.83H9.32Zm1,1.27h0l-.48,4h.94Z"/><path class="cls-3" d="M17,87.33c0,.46,0,1.28.65,1.28a.73.73,0,0,0,.68-.81c0-1.47-2.75-1.81-2.75-4.26a2,2,0,0,1,2-2.26c1.36,0,1.88,1,1.91,2.53H18.08c0-.47,0-1.25-.61-1.25-.36,0-.57.3-.57.76,0,1.4,2.74,1.88,2.74,4.29a2.05,2.05,0,0,1-2.08,2.27c-1.61,0-1.94-1.41-1.94-2.55Z"/><path class="cls-3" d="M23,87.33c0,.46,0,1.28.65,1.28a.72.72,0,0,0,.67-.81c0-1.47-2.74-1.81-2.74-4.26a2,2,0,0,1,1.95-2.26c1.36,0,1.89,1,1.92,2.53H24.06c0-.47,0-1.25-.6-1.25-.36,0-.57.3-.57.76,0,1.4,2.74,1.88,2.74,4.29a2.05,2.05,0,0,1-2.08,2.27c-1.62,0-1.94-1.41-1.94-2.55Z"/><path class="cls-3" d="M29.9,81.28c1.33,0,2.21,1,2.21,4.3s-.88,4.3-2.21,4.3-2.21-1-2.21-4.3S28.56,81.28,29.9,81.28Zm-.56,5.18c0,1.79.21,2.15.56,2.15s.55-.36.55-2.15V84.71c0-1.79-.2-2.15-.55-2.15s-.56.36-.56,2.15Z"/><path class="cls-3" d="M37.08,84.44c0-1.37-.17-1.88-.55-1.88s-.62.21-.62,3,.16,3,.62,3,.62-.77.64-2l1.28.06c0,1.44-.21,3.18-2,3.18s-2.15-1.58-2.15-4.3c0-3.16,1-4.3,2.15-4.3,1.74,0,2,1.61,2,3.12Z"/><path class="cls-3" d="M40.9,81.45h1.52v8.27H40.9Z"/><path class="cls-3" d="M45.76,81.45H48l1,8.27H47.52l-.22-1.83H46.08l-.21,1.83H44.6Zm1,1.27h0l-.47,4h.94Z"/><path class="cls-3" d="M51.48,82.72h-1.3V81.45H54.3v1.27H53v7H51.48Z"/><path class="cls-3" d="M56.3,81.45h1.51v8.27H56.3Z"/><path class="cls-3" d="M62.4,81.28c1.33,0,2.21,1,2.21,4.3s-.88,4.3-2.21,4.3-2.21-1-2.21-4.3S61.06,81.28,62.4,81.28Zm-.56,5.18c0,1.79.21,2.15.56,2.15s.56-.36.56-2.15V84.71c0-1.79-.21-2.15-.56-2.15s-.56.36-.56,2.15Z"/><path class="cls-3" d="M67,81.45h1.48l1.38,4.37h0V81.45h1.21v8.27H69.91l-1.62-5h0v5H67Z"/><g class="cls-5"><path class="cls-6" d="M9.44,65.57h2.82a2.92,2.92,0,0,1,3.09,3.17,2.57,2.57,0,0,1-2,2.8v0a2.81,2.81,0,0,1,2.29,3,3.21,3.21,0,0,1-3.24,3.49H9.44Zm2.29,5.14c1.14,0,1.44-.53,1.44-1.66,0-1.42-.3-1.67-1.44-1.65Zm0,5.56c1.37,0,1.58-.55,1.58-1.85,0-1.14-.28-1.79-1.58-1.78Z"/><path class="cls-6" d="M18.8,65.57h2.57c2.18,0,3.63.92,3.63,3.56a3.55,3.55,0,0,1-1.34,3.06L25,78.1h-2.3l-1.08-5.39h-.54V78.1H18.8Zm2.29,5.31h.46c.84,0,1.16-.84,1.16-1.74,0-1.35-.49-1.74-1.27-1.74h-.35Z"/><path class="cls-6" d="M28.16,65.57h5.18v1.94H30.45v3.2h2.13v2H30.45v3.41h3V78.1h-5.3Z"/><path class="cls-6" d="M35.89,65.57H38l.81,7.36h0l1.09-7.36H42l1,7.36h0l.89-7.36h1.64L43.89,78.1H41.82l-1.09-7.94h0L39.56,78.1h-2Z"/><path class="cls-6" d="M48.54,65.57h5.17v1.94H50.82v3.2H53v2H50.82v3.41h3V78.1H48.54Z"/><path class="cls-6" d="M56.93,65.57H59.5c2.18,0,3.62.92,3.62,3.56a3.54,3.54,0,0,1-1.33,3.06l1.35,5.91h-2.3l-1.08-5.39h-.54V78.1H56.93Zm2.29,5.31h.45c.85,0,1.17-.84,1.17-1.74,0-1.35-.5-1.74-1.27-1.74h-.35Z"/><path class="cls-6" d="M67.86,74.47c0,.71,0,1.94,1,1.94a1.09,1.09,0,0,0,1-1.22c0-2.23-4.15-2.74-4.15-6.45,0-1.89,1-3.42,3-3.42s2.85,1.57,2.9,3.82h-2c0-.7,0-1.88-.92-1.88-.54,0-.86.46-.86,1.14,0,2.13,4.15,2.85,4.15,6.5,0,1.91-1.09,3.44-3.15,3.44-2.44,0-2.93-2.14-2.93-3.87Z"/><path class="cls-6" d="M10.49,81.45h2.18l1,8.27H12.24L12,87.89H10.8l-.21,1.83H9.32Zm1,1.27h0l-.48,4h.94Z"/><path class="cls-6" d="M17,87.33c0,.46,0,1.28.65,1.28a.73.73,0,0,0,.68-.81c0-1.47-2.75-1.81-2.75-4.26a2,2,0,0,1,2-2.26c1.36,0,1.88,1,1.91,2.53H18.08c0-.47,0-1.25-.61-1.25-.36,0-.57.3-.57.76,0,1.4,2.74,1.88,2.74,4.29a2.05,2.05,0,0,1-2.08,2.27c-1.61,0-1.94-1.41-1.94-2.55Z"/><path class="cls-6" d="M23,87.33c0,.46,0,1.28.65,1.28a.72.72,0,0,0,.67-.81c0-1.47-2.74-1.81-2.74-4.26a2,2,0,0,1,1.95-2.26c1.36,0,1.89,1,1.92,2.53H24.06c0-.47,0-1.25-.6-1.25-.36,0-.57.3-.57.76,0,1.4,2.74,1.88,2.74,4.29a2.05,2.05,0,0,1-2.08,2.27c-1.62,0-1.94-1.41-1.94-2.55Z"/><path class="cls-6" d="M29.9,81.28c1.33,0,2.21,1,2.21,4.3s-.88,4.3-2.21,4.3-2.21-1-2.21-4.3S28.56,81.28,29.9,81.28Zm-.56,5.18c0,1.79.21,2.15.56,2.15s.55-.36.55-2.15V84.71c0-1.79-.2-2.15-.55-2.15s-.56.36-.56,2.15Z"/><path class="cls-6" d="M37.08,84.44c0-1.37-.17-1.88-.55-1.88s-.62.21-.62,3,.16,3,.62,3,.62-.77.64-2l1.28.06c0,1.44-.21,3.18-2,3.18s-2.15-1.58-2.15-4.3c0-3.16,1-4.3,2.15-4.3,1.74,0,2,1.61,2,3.12Z"/><path class="cls-6" d="M40.9,81.45h1.52v8.27H40.9Z"/><path class="cls-6" d="M45.76,81.45H48l1,8.27H47.52l-.22-1.83H46.08l-.21,1.83H44.6Zm1,1.27h0l-.47,4h.94Z"/><path class="cls-6" d="M51.48,82.72h-1.3V81.45H54.3v1.27H53v7H51.48Z"/><path class="cls-6" d="M56.3,81.45h1.51v8.27H56.3Z"/><path class="cls-6" d="M62.4,81.28c1.33,0,2.21,1,2.21,4.3s-.88,4.3-2.21,4.3-2.21-1-2.21-4.3S61.06,81.28,62.4,81.28Zm-.56,5.18c0,1.79.21,2.15.56,2.15s.56-.36.56-2.15V84.71c0-1.79-.21-2.15-.56-2.15s-.56.36-.56,2.15Z"/><path class="cls-6" d="M67,81.45h1.48l1.38,4.37h0V81.45h1.21v8.27H69.91l-1.62-5h0v5H67Z"/><path class="cls-7" d="M9.44,65.57h2.82a2.92,2.92,0,0,1,3.09,3.17,2.57,2.57,0,0,1-2,2.8v0a2.81,2.81,0,0,1,2.29,3,3.21,3.21,0,0,1-3.24,3.49H9.44Zm2.29,5.14c1.14,0,1.44-.53,1.44-1.66,0-1.42-.3-1.67-1.44-1.65Zm0,5.56c1.37,0,1.58-.55,1.58-1.85,0-1.14-.28-1.79-1.58-1.78Z"/><path class="cls-7" d="M18.8,65.57h2.57c2.18,0,3.63.92,3.63,3.56a3.55,3.55,0,0,1-1.34,3.06L25,78.1h-2.3l-1.08-5.39h-.54V78.1H18.8Zm2.29,5.31h.46c.84,0,1.16-.84,1.16-1.74,0-1.35-.49-1.74-1.27-1.74h-.35Z"/><path class="cls-7" d="M28.16,65.57h5.18v1.94H30.45v3.2h2.13v2H30.45v3.41h3V78.1h-5.3Z"/><path class="cls-7" d="M35.89,65.57H38l.81,7.36h0l1.09-7.36H42l1,7.36h0l.89-7.36h1.64L43.89,78.1H41.82l-1.09-7.94h0L39.56,78.1h-2Z"/><path class="cls-7" d="M48.54,65.57h5.17v1.94H50.82v3.2H53v2H50.82v3.41h3V78.1H48.54Z"/><path class="cls-7" d="M56.93,65.57H59.5c2.18,0,3.62.92,3.62,3.56a3.54,3.54,0,0,1-1.33,3.06l1.35,5.91h-2.3l-1.08-5.39h-.54V78.1H56.93Zm2.29,5.31h.45c.85,0,1.17-.84,1.17-1.74,0-1.35-.5-1.74-1.27-1.74h-.35Z"/><path class="cls-7" d="M67.86,74.47c0,.71,0,1.94,1,1.94a1.09,1.09,0,0,0,1-1.22c0-2.23-4.15-2.74-4.15-6.45,0-1.89,1-3.42,3-3.42s2.85,1.57,2.9,3.82h-2c0-.7,0-1.88-.92-1.88-.54,0-.86.46-.86,1.14,0,2.13,4.15,2.85,4.15,6.5,0,1.91-1.09,3.44-3.15,3.44-2.44,0-2.93-2.14-2.93-3.87Z"/><path class="cls-7" d="M10.49,81.45h2.18l1,8.27H12.24L12,87.89H10.8l-.21,1.83H9.32Zm1,1.27h0l-.48,4h.94Z"/><path class="cls-7" d="M17,87.33c0,.46,0,1.28.65,1.28a.73.73,0,0,0,.68-.81c0-1.47-2.75-1.81-2.75-4.26a2,2,0,0,1,2-2.26c1.36,0,1.88,1,1.91,2.53H18.08c0-.47,0-1.25-.61-1.25-.36,0-.57.3-.57.76,0,1.4,2.74,1.88,2.74,4.29a2.05,2.05,0,0,1-2.08,2.27c-1.61,0-1.94-1.41-1.94-2.55Z"/><path class="cls-7" d="M23,87.33c0,.46,0,1.28.65,1.28a.72.72,0,0,0,.67-.81c0-1.47-2.74-1.81-2.74-4.26a2,2,0,0,1,1.95-2.26c1.36,0,1.89,1,1.92,2.53H24.06c0-.47,0-1.25-.6-1.25-.36,0-.57.3-.57.76,0,1.4,2.74,1.88,2.74,4.29a2.05,2.05,0,0,1-2.08,2.27c-1.62,0-1.94-1.41-1.94-2.55Z"/><path class="cls-7" d="M29.9,81.28c1.33,0,2.21,1,2.21,4.3s-.88,4.3-2.21,4.3-2.21-1-2.21-4.3S28.56,81.28,29.9,81.28Zm-.56,5.18c0,1.79.21,2.15.56,2.15s.55-.36.55-2.15V84.71c0-1.79-.2-2.15-.55-2.15s-.56.36-.56,2.15Z"/><path class="cls-7" d="M37.08,84.44c0-1.37-.17-1.88-.55-1.88s-.62.21-.62,3,.16,3,.62,3,.62-.77.64-2l1.28.06c0,1.44-.21,3.18-2,3.18s-2.15-1.58-2.15-4.3c0-3.16,1-4.3,2.15-4.3,1.74,0,2,1.61,2,3.12Z"/><path class="cls-7" d="M40.9,81.45h1.52v8.27H40.9Z"/><path class="cls-7" d="M45.76,81.45H48l1,8.27H47.52l-.22-1.83H46.08l-.21,1.83H44.6Zm1,1.27h0l-.47,4h.94Z"/><path class="cls-7" d="M51.48,82.72h-1.3V81.45H54.3v1.27H53v7H51.48Z"/><path class="cls-7" d="M56.3,81.45h1.51v8.27H56.3Z"/><path class="cls-7" d="M62.4,81.28c1.33,0,2.21,1,2.21,4.3s-.88,4.3-2.21,4.3-2.21-1-2.21-4.3S61.06,81.28,62.4,81.28Zm-.56,5.18c0,1.79.21,2.15.56,2.15s.56-.36.56-2.15V84.71c0-1.79-.21-2.15-.56-2.15s-.56.36-.56,2.15Z"/><path class="cls-7" d="M67,81.45h1.48l1.38,4.37h0V81.45h1.21v8.27H69.91l-1.62-5h0v5H67Z"/></g><polygon class="cls-8" points="30.67 6.37 30.68 6.38 32.5 15.85 39.15 15.84 41.05 53.56 41.1 15.84 50.83 15.82 52.61 6.38 53.29 6.38 30.67 6.37"/><path class="cls-4" d="M85,92a1.9,1.9,0,0,1,.54,1.34A1.81,1.81,0,0,1,85,94.66a1.89,1.89,0,0,1-1.35.56,1.87,1.87,0,0,1-1.35-.57,1.88,1.88,0,0,1,0-2.7,1.83,1.83,0,0,1,1.33-.55A1.91,1.91,0,0,1,85,92Zm-2.5.18A1.63,1.63,0,0,0,82,93.31a1.59,1.59,0,0,0,.47,1.14,1.62,1.62,0,0,0,1.13.49,1.69,1.69,0,0,0,1.18-.48,1.57,1.57,0,0,0,.47-1.12,1.64,1.64,0,0,0-.46-1.17,1.62,1.62,0,0,0-1.17-.49A1.53,1.53,0,0,0,82.49,92.15Zm1.18.06c.6,0,.9.2.9.58a.57.57,0,0,1-.48.59l.48,1h-.51l-.43-.89H83.3v.89h-.46V92.21Zm-.37,1h.3c.34,0,.5-.1.5-.33s-.17-.34-.52-.34H83.3Z"/></g></g></svg>