<svg xmlns="http://www.w3.org/2000/svg" viewBox="0 0 51.35 100.38"><defs><style>.cls-1{fill:#fff;}</style></defs><g id="レイヤー_2" data-name="レイヤー 2"><g id="レイヤー_1-2" data-name="レイヤー 1"><polygon class="cls-1" points="43.01 1.36 43.01 2.46 45.69 2.46 45.69 89.49 45.69 97.79 35.96 97.79 35.96 98.88 46.79 98.88 46.79 89.49 46.79 1.36 43.01 1.36"/><polygon class="cls-1" points="1.09 89.49 1.09 2.46 10.56 2.46 10.56 1.36 0 1.36 0 98.88 17.58 98.88 17.58 97.79 1.09 97.79 1.09 89.49"/><path class="cls-1" d="M9.13,91.63V94H3.62V91.74A1.54,1.54,0,0,1,5.21,90a1.31,1.31,0,0,1,1.11.61,1.3,1.3,0,0,1,1.18-.69A1.57,1.57,0,0,1,9.13,91.63Zm-4.29.2v.86h.89v-.84a.44.44,0,0,0-.41-.48.44.44,0,0,0-.48.41.08.08,0,0,0,0,.07ZM7,91.77v.92h1v-.91a.47.47,0,0,0-.42-.5H7.43A.44.44,0,0,0,7,91.7S7,91.74,7,91.77Z"/><path class="cls-1" d="M9.13,86,7.08,87v.46H9.13v1.35H3.62V86.6a1.77,1.77,0,0,1,1.77-1.89,1.6,1.6,0,0,1,1.44.9l2.3-1.18Zm-4.29.66v.77H6v-.77a.56.56,0,0,0-.52-.59.55.55,0,0,0-.59.52A.09.09,0,0,0,4.84,86.66Z"/><path class="cls-1" d="M9.13,83.54H3.62V79.8H4.83v2.39h.92v-2H7v2h1V79.8H9.13Z"/><path class="cls-1" d="M9.13,73.7v1.11l-2.72.89,2.72.89v1.1L3.62,79.21V77.79l2.91-.72-2.91-.89v-1l2.91-.89-2.91-.71V72.2Z"/><path class="cls-1" d="M9.13,71.44H3.62V67.69H4.83v2.39h.92V68H7v2h1V67.69H9.13Z"/><path class="cls-1" d="M9.13,63.8l-2.05,1v.45H9.13v1.36H3.62V64.4a1.76,1.76,0,0,1,1.77-1.88,1.6,1.6,0,0,1,1.44.9l2.3-1.18Zm-4.29.67v.76H6v-.76a.56.56,0,1,0-1.11-.08A.11.11,0,0,0,4.84,64.47Z"/><path class="cls-1" d="M9.18,59.93A2.71,2.71,0,0,1,8.45,62l-.87-.87A1.78,1.78,0,0,0,8,59.92c0-.53-.18-.79-.5-.79a.43.43,0,0,0-.32.11A.61.61,0,0,0,7,59.6l-.09.67a1.94,1.94,0,0,1-.49,1.11,1.57,1.57,0,0,1-1.1.38,1.79,1.79,0,0,1-1.75-2,2.47,2.47,0,0,1,.66-1.86l.85.86a1.31,1.31,0,0,0-.32,1c0,.47.27.67.51.67a.34.34,0,0,0,.25-.11A.63.63,0,0,0,5.69,60l.09-.67a1.82,1.82,0,0,1,.46-1.08,1.55,1.55,0,0,1,1.2-.41C8.57,57.8,9.18,58.77,9.18,59.93Z"/><path class="cls-1" d="M9.13,51.72,8.31,52v1.7l.82.27v1.42l-5.51-2v-1l5.51-2ZM5.71,52.8l1.47.5v-1Z"/><path class="cls-1" d="M9.18,48.14a2.71,2.71,0,0,1-.73,2.09l-.87-.87A1.77,1.77,0,0,0,8,48.13c0-.53-.18-.79-.5-.79a.48.48,0,0,0-.32.11.61.61,0,0,0-.15.36l-.09.66a1.88,1.88,0,0,1-.49,1.11,1.53,1.53,0,0,1-1.1.38,1.79,1.79,0,0,1-1.75-2,2.46,2.46,0,0,1,.66-1.86l.85.85A1.36,1.36,0,0,0,4.76,48c0,.47.27.67.51.67a.38.38,0,0,0,.25-.11.63.63,0,0,0,.17-.38l.09-.67a1.82,1.82,0,0,1,.46-1.08A1.55,1.55,0,0,1,7.44,46C8.57,46,9.18,47,9.18,48.14Z"/><path class="cls-1" d="M9.18,43.51a2.71,2.71,0,0,1-.73,2.09l-.87-.87A1.76,1.76,0,0,0,8,43.51c0-.54-.17-.79-.49-.79a.44.44,0,0,0-.33.11.6.6,0,0,0-.14.36l-.1.67A1.81,1.81,0,0,1,6.43,45a1.52,1.52,0,0,1-1.11.38,1.78,1.78,0,0,1-1.74-2,2.47,2.47,0,0,1,.65-1.86l.86.85a1.39,1.39,0,0,0-.33,1c0,.47.27.66.51.66a.35.35,0,0,0,.26-.1.68.68,0,0,0,.16-.38l.09-.67a1.82,1.82,0,0,1,.46-1.08,1.61,1.61,0,0,1,1.2-.42C8.57,41.38,9.18,42.35,9.18,43.51Z"/><path class="cls-1" d="M8.56,37a2.24,2.24,0,0,1,0,3.08,2.84,2.84,0,0,1-2.19.55,2.83,2.83,0,0,1-2.18-.55,2.24,2.24,0,0,1,0-3.08,2.83,2.83,0,0,1,2.18-.55A2.89,2.89,0,0,1,8.56,37ZM5,38a.74.74,0,0,0,0,1l0,0c.16.12.35.2,1.36.2s1.18-.08,1.34-.2a.71.71,0,0,0,.09-1L7.71,38c-.16-.12-.34-.2-1.34-.2S5.18,37.87,5,38Z"/><path class="cls-1" d="M9.18,33.55a2.05,2.05,0,0,1-.62,1.53,2.84,2.84,0,0,1-2.19.56,2.83,2.83,0,0,1-2.18-.56,2.09,2.09,0,0,1-.62-1.53,2,2,0,0,1,1.8-2.09v1.38a.68.68,0,0,0-.59.71.65.65,0,0,0,.24.53c.16.12.35.21,1.36.21s1.2-.09,1.36-.21A.65.65,0,0,0,8,33.55a.68.68,0,0,0-.59-.71V31.45A2,2,0,0,1,9.18,33.55Z"/><path class="cls-1" d="M9.13,30.55H3.62V29.2H9.13Z"/><path class="cls-1" d="M9.13,24.81l-.82.26v1.69l.82.27v1.42l-5.51-2V25.4l5.51-2ZM5.71,25.89l1.47.49v-1Z"/><path class="cls-1" d="M4.83,21.05h4.3V22.4H4.83v1.35H3.62V19.68H4.83Z"/><path class="cls-1" d="M9.13,18.92H3.62V17.57H9.13Z"/><path class="cls-1" d="M8.56,13a2,2,0,0,1,.62,1.54A2,2,0,0,1,8.56,16a2.84,2.84,0,0,1-2.19.56A2.83,2.83,0,0,1,4.19,16a2,2,0,0,1-.62-1.54A2,2,0,0,1,4.19,13a2.82,2.82,0,0,1,2.18-.56A2.86,2.86,0,0,1,8.56,13ZM5,14a.74.74,0,0,0,0,1l0,0c.16.12.35.2,1.35.2s1.19-.08,1.35-.2a.71.71,0,0,0,.09-1L7.72,14c-.16-.12-.34-.2-1.35-.2S5.18,13.83,5,14Z"/><path class="cls-1" d="M9.13,8.31,6.36,10.07H9.13v1.36H3.62V10.24L6.39,8.48H3.62V7.12H9.13Z"/><path class="cls-1" d="M13.27,3.83a1.39,1.39,0,0,1-1-.42,1.94,1.94,0,0,1-.38-1.5A1.89,1.89,0,0,1,12.23.42a1.39,1.39,0,0,1,1-.42A1.36,1.36,0,0,1,14.7,1.23h-.95a.46.46,0,0,0-.47-.4.45.45,0,0,0-.37.16c-.08.11-.14.23-.14.93s.06.82.14.93a.45.45,0,0,0,.37.16.47.47,0,0,0,.47-.4h.95A1.36,1.36,0,0,1,13.27,3.83Z"/><path class="cls-1" d="M15.72,3.8V0h2.56V.86H16.64v.62H18v.83h-1.4V3h1.64V3.8Z"/><path class="cls-1" d="M21.38,3.8l-.67-1.41H20.4V3.8h-.93V0H21a1.2,1.2,0,0,1,1.29,1.12v.09a1.12,1.12,0,0,1-.61,1l.81,1.57ZM20.92.86H20.4v.76h.52a.38.38,0,1,0,0-.76Z"/><path class="cls-1" d="M25.08.86V3.8h-.92V.86h-.93V0H26V.86Z"/><path class="cls-1" d="M27.08,3.8V0H28V3.81Z"/><path class="cls-1" d="M30.23.86v.66h1.39v.82h-1.4V3.8H29.3V0h2.55V.86Z"/><path class="cls-1" d="M33,3.8V0h.92V3.81Z"/><path class="cls-1" d="M35.21,3.8V0h2.56V.86H36.13v.62h1.4v.83h-1.4V3h1.64V3.8Z"/><path class="cls-1" d="M41.37,3.43a1.39,1.39,0,0,1-1,.37H39V0h1.42a1.35,1.35,0,0,1,1,.37,1.84,1.84,0,0,1,.39,1.51A1.85,1.85,0,0,1,41.37,3.43Zm-.63-2.37a.49.49,0,0,0-.45-.21h-.4V3h.41a.47.47,0,0,0,.45-.21c.07-.11.1-.21.1-.85s0-.74-.11-.85Z"/><path class="cls-1" d="M21,54.12H19.68v1.81H21a.86.86,0,0,0,.95-.9.87.87,0,0,0-.84-.91Z"/><polygon class="cls-1" points="25.24 57.24 26.93 57.24 26.1 54.72 25.24 57.24"/><path class="cls-1" d="M16.23,43.88h-.61v6.25h.61c1,0,1.53-.47,1.53-1.89V45.76C17.76,44.43,17.33,43.88,16.23,43.88Z"/><path class="cls-1" d="M17.86,34.26a1.16,1.16,0,0,0-1.3-1.33h-.94v2.66h.94A1.16,1.16,0,0,0,17.86,34.26Z"/><path class="cls-1" d="M41.55,10.39c0-.25-.1-.49-.17-.72A4.23,4.23,0,0,0,41.14,9a5,5,0,0,0-1.53-2h0l0,0h-.08l-.05,0h-.13l-.06,0h-.16l-.09,0h0l-.15,0h0l-.14,0h0l-.19-.07h0c-.43,0-.95-.09-1.52-.12h0l-.48,0h0q-.58,0-1.23-.06h0l-.51,0h0c-1.05,0-2.16-.08-3.22-.1h0l-2.76,0H24.87c-.8,0-1.76,0-2.77,0h0c-1.05,0-2.16.06-3.21.1h0l-.52,0h0q-.64,0-1.23.06h0l-.47,0h0c-.58,0-1.1.08-1.52.12h0l-.17,0h-.15l-.14,0H14.4l-.07,0h-.12l-.05,0h0l0,0h0l0,0h0a4.94,4.94,0,0,0-1.56,2,4.12,4.12,0,0,0-.24.67,6.25,6.25,0,0,0-.17.72,12.38,12.38,0,0,0-.16,2h0v.43a.76.76,0,0,0,0,.14s0,0,0,.08,0,0,0,0v.33c0,.12,0,.24,0,.35v0c0,.07,0,.15,0,.22v0l0,.16v9.1h0V29h0V57.41l0,.6h0c0,.32,0,.65,0,1v1.09a2.28,2.28,0,0,0,0,.26v.05c0,.1,0,.21,0,.31v.08L12,61s0,.08,0,.12,0,.13,0,.2a1.23,1.23,0,0,0,0,.13s0,.13,0,.2a1.23,1.23,0,0,0,0,.13l.05.21,0,.12a2,2,0,0,0,.07.26l0,.08a3.57,3.57,0,0,0,.1.35.32.32,0,0,0,0,.09l.09.27a.61.61,0,0,0,0,.12,2.23,2.23,0,0,0,.08.24l.06.15.09.23.07.15a1.63,1.63,0,0,0,.11.23l.06.15.14.28a.54.54,0,0,1,0,.11c.07.13.14.27.22.4l0,.06c.06.12.13.24.2.36l.08.14.17.28.11.16.17.28.12.17a2.75,2.75,0,0,0,.19.28l.12.17a3.71,3.71,0,0,0,.23.32l.11.15c.23.31.48.63.74,1l0,0,.17.21.17.2.22.27.17.19.26.3.15.17.4.44,0,0,.2.2a3,3,0,0,1,.23.27h0l0,0h0l.12.19h0l0,.07h0a.87.87,0,0,1,.07.17h0a.76.76,0,0,1,.06.2h0v.05h0a.85.85,0,0,1,0,.17h0l0,.22v0c0,.07,0,.15,0,.23v0a1.23,1.23,0,0,0,0,.26v.33a6.78,6.78,0,0,1,0,.87c0,.15,0,.3,0,.45v1.16a1.37,1.37,0,0,0,0,.28v.08l0,.36v0a74.74,74.74,0,0,0,1.28,7.71h0c.05.3.12.6.18.9.15.74.3,1.47.44,2.2a2.33,2.33,0,0,1,.05.28c.06.28.11.55.17.82a.77.77,0,0,0,0,.15c0,.23.09.47.13.71l0,.14c.1.55.2,1.08.28,1.6h0c.07.47.14.92.2,1.35v.07l.06.52a.34.34,0,0,0,0,.14c0,.19,0,.37.05.55h0c0,.39.06.75.07,1.08v.47h0a2.12,2.12,0,0,1,0,.44.54.54,0,0,0-.29.15h0v0l0,0,0,0a.21.21,0,0,0-.06.1h0a.36.36,0,0,0,0,.11v.38a1.21,1.21,0,0,0,0,.14.45.45,0,0,0,0,.08h0l0,.07v0l0,.08a1.45,1.45,0,0,0,.17.26l0,0h0a.35.35,0,0,0,.07.09.74.74,0,0,0,.13.12h0l0,.71c-.23.06-.45.12-.67.2a1.19,1.19,0,0,0,.19.8c.15.27.9,1.69,1.76,1.69h8.72c.86,0,1.62-1.42,1.76-1.69s.26-.73.18-.8a6.73,6.73,0,0,0-.9-.13l0-.71h0l.12-.12.08-.09h0l0,0a1,1,0,0,0,.16-.26.3.3,0,0,0,0-.08v0a.21.21,0,0,1,0-.07h0a.24.24,0,0,1,0-.08l0-.14v-.38a.36.36,0,0,0,0-.11h0l-.06-.1,0,0v0h0v0h0a.71.71,0,0,0-.3-.15c0-.14,0-.28,0-.44h0v-.47c0-.33,0-.69.06-1.08h0c0-.18,0-.36,0-.55a.36.36,0,0,1,0-.14l.06-.51v-.08c.06-.43.13-.88.2-1.35h0c.09-.52.18-1,.28-1.59l0-.15c0-.24.09-.48.13-.71a.58.58,0,0,1,0-.14c.05-.28.1-.55.16-.83l0-.28c.15-.72.3-1.46.45-2.2l.18-.9h0c.55-2.77,1.07-5.5,1.27-7.71v0l0-.36v-.08a1.32,1.32,0,0,1,0-.28V74.28a3.17,3.17,0,0,0,0-.44c0-.33,0-.62,0-.88v-.63a1.79,1.79,0,0,1,0-.23v0a1.46,1.46,0,0,1,0-.22h0c0-.06,0-.12,0-.17h0v0h0l.06-.2h0a1.22,1.22,0,0,1,.07-.17h0l0-.07h0a1,1,0,0,1,.12-.19h0l0,0h0a3.33,3.33,0,0,1,.25-.28l.2-.2,0,0,.39-.43.16-.18.26-.3.17-.19.22-.27.17-.2.17-.21s0,0,0,0q.41-.5.75-1l.1-.15.24-.32.12-.16.19-.29.11-.17.18-.28s.07-.1.1-.16l.17-.28.08-.14c.08-.12.14-.24.21-.36l0-.06.21-.4.06-.11.13-.28.07-.14c0-.08.07-.17.11-.24l.06-.15.1-.23s0-.1,0-.14l.09-.24,0-.12.09-.28,0-.08c0-.12.08-.24.11-.35l0-.08a2.5,2.5,0,0,1,.07-.26l0-.12a1.42,1.42,0,0,0,.05-.22l0-.12a1,1,0,0,1,0-.21l0-.12,0-.21c0-.07,0-.08,0-.11a2,2,0,0,1,0-.24v-.09l0-.3v-.05a2.28,2.28,0,0,1,0-.26v-.1a1.48,1.48,0,0,1,0-.2.47.47,0,0,0,0-.12v-.67c0-.33,0-.65,0-1h0c0-.21,0-.41,0-.61V29h0V23.27h0V14a.78.78,0,0,1,0-.22v0c0-.12,0-.24,0-.35v-1h0A12.41,12.41,0,0,0,41.55,10.39ZM31.24,37V31.42h1.6v9.42H31.16l-2.69-6.08h0v6.08h-1.6V31.42h1.92L31.21,37Zm1.6,5.27v9.42H31.16l-2.69-6.08h0v6.08h-1.6V42.27h1.92l2.45,5.58h0V42.27ZM24.58,20.59H27c2,0,3.14.89,3.22,3.26v2.9C30.17,29.11,29.05,30,27,30H24.58Zm.26,25.46v1.59H22.5v2.49h3.19v1.59h-5V42.29h4.82v1.59H22.5v2.17Zm-4.1-5.19V31.45h4.82V33H22.5v2.17h2.34V36.8H22.5v2.48h3.19v1.59ZM17.15,20.59h1.94l2.44,5.58h0V20.59h1.6V30H21.47l-2.69-6.08h0V30H17.15Zm-3.29,0h1.76V30H13.86Zm0,10.85H16.4c2.17,0,3.23,1.05,3.23,2.82s-1.06,2.82-3.23,2.82h-.78v3.78H13.86ZM15.11,58.1a1.16,1.16,0,0,0,2-.65v0H18v0a2,2,0,0,1-2.09,1.86,2.14,2.14,0,0,1-1.54-.65c-.57-.58-.57-1.25-.57-2.36v-.1c0-1.11,0-1.78.57-2.36a2.12,2.12,0,0,1,1.54-.65A2,2,0,0,1,18,55.06v0h-.94v0a1.16,1.16,0,0,0-2-.65c-.27.32-.34.66-.34,1.84S14.83,57.79,15.11,58.1Zm1.2-6.39H13.86V42.29h2.45c2,0,3.14.89,3.21,3.26v2.9C19.45,50.82,18.32,51.71,16.31,51.71Zm5.63,7.57-1.21-2.53H19.68v2.51h-.95v-6H21A1.7,1.7,0,0,1,22.83,55a1.58,1.58,0,0,1-1.14,1.6L23,59.27Zm5.66,0-.4-1.2H25l-.4,1.2h-1l0,0,2.12-6h.75v0l2.13,6ZM33,54.13H30.15v1.75h2.41v.87H30.15v2.52H29.2v-6H33ZM31.42,30V20.59h4.82v1.59H33.18v2.18h2.33V26H33.18v2.48h3.19V30Zm6.3,24.12H36.13v5.15h-1V54.12H33.59v-.87h4.12Zm2-10.24H37.69v7.83H35.93V43.88h-2V42.29h5.86Z"/><path class="cls-1" d="M28.49,26.54V24.06c0-1.33-.44-1.89-1.53-1.89h-.61v6.24H27C27.92,28.42,28.49,28,28.49,26.54Z"/><path class="cls-1" d="M49.33,96.54H50a.55.55,0,0,1,.35.12.49.49,0,0,1-.16.85l.4.77h-.3l-.36-.74h-.35v.74h-.26Zm.26.77H50a.31.31,0,0,0,.22-.09.27.27,0,0,0,.08-.19.25.25,0,0,0-.09-.2.27.27,0,0,0-.19,0h-.42Z"/><path class="cls-1" d="M49.89,96.15a1.28,1.28,0,1,1-1.28,1.29h0a1.29,1.29,0,0,1,1.28-1.28m0-.18a1.47,1.47,0,1,0,1.46,1.47h0A1.47,1.47,0,0,0,49.89,96Z"/></g></g></svg>