<?xml version="1.0" encoding="utf-8"?>
<!-- Generator: Adobe Illustrator 25.2.3, SVG Export Plug-In . SVG Version: 6.00 Build 0)  -->
<svg version="1.1" id="レイヤー_1" xmlns="http://www.w3.org/2000/svg" xmlns:xlink="http://www.w3.org/1999/xlink" x="0px"
	 y="0px" viewBox="0 0 165.9 105.1" style="enable-background:new 0 0 165.9 105.1;" xml:space="preserve">
<style type="text/css">
	.st0{fill:#FFFFFF;}
</style>
<path class="st0" d="M27.9,43.2l-0.5,0.1h-0.2l-0.1,0.1l-0.3-0.2h-0.3l-0.3-0.4v-0.1l-0.3-0.2l-0.1-0.1l-0.2-0.3l-0.2-0.2l-0.1-0.3
	l-0.1-0.2v-0.8l0.1-0.1v-0.2l0.2-0.1l0.1-0.2l0.2-0.2l0.2-0.1h0.3l0.5-0.1H27l0.2,0.2h0.5h0.2h0.3l0.2-0.1v-0.3l0.2-0.3v-0.3
	l0.1-0.3v-0.1l-0.1-0.1l0,0l-0.1-0.3L28.3,38l-0.2-0.2l-0.2-0.2h-0.1l-0.3-0.1h-0.5l-0.3-0.3H26h-0.3l-0.2,0.1h-0.1l-0.3,0.1
	L25,37.3h-0.4l-0.2,0.2h-0.1L24,37.6l-0.3,0.1l-0.2,0.2l-0.3,0.1L23,38l-0.3,0.2l-0.3,0.1l-0.2,0.1L22,38.5l-0.1,0.1l-0.3,0.2
	L21.4,39h0.1L21,39.4l-0.2,0.1l-0.3,0.3v0.1l-0.4,0.4l-0.4,0.3l-0.1,0.3L19.4,41v0.1L19,41.3l-0.2,0.4v0.1l-0.4,0.4l-0.1,0.2
	l-0.2,0.2l-0.1,0.1l0,0l-0.3,0.5v0.1l-0.2,0.2V44l-0.3,0.3h-0.1l-0.1,0.6l-0.4,0.7v0.2l-0.1,0.2l-0.1,0.2v0.4L16.3,47v0.2l-0.1,0.5
	L16.1,48l0,0L16,48.6l-0.1,0.2l0.1,0.4v0.2l-0.1,0.1v0.4V50v0.3v0.2l-0.1,0.1l0.1,0.6l0.1,0.3v0.3l-0.1,0.2l0.2,0.4v0.2l0.1,0.5
	l0.1,0.2l0.2,0.3v0.1l0.2,0.3l0.1,0.2l0.1,0.1l0.3,0.4l0.1,0.2l0.3,0.2l0.1,0.1v0.2l0.4,0.1l0.2,0.1h0.3l0.1,0.1h0.3h0.3l0.3,0.1
	h0.2h0.1h0.4l0.2,0.1l0.4-0.1h0.1l0.3-0.1l0.1-0.1h0.1l0.3-0.1h0.2l0.2-0.1l0.1,0.1l0.3-0.3l0.2-0.1l0.3-0.1l0.2-0.1l0.1-0.2
	l0.4-0.2h0.2l0.3-0.3l0.2-0.2l0.1-0.1l0.2-0.3l0.3-0.2v-0.1l0.3-0.3l0.2-0.3l0.2-0.2l0.2-0.3l0.1-0.2l0.3-0.3l0.1-0.2l0.2-0.5
	l0.2-0.1l0.1-0.4l0.1-0.2l0.1-0.6l0.2-0.2h0.2l0.3,0.2l0.1,0.3l0,0l0.1,0.3v0.3l0.2,0.2l0.1,0.3v0.3l0,0L27.8,52l0.1,0.2v0.3v0.2
	v0.2L27.8,53v0.5v0.1l-0.1,0.3V54l-0.1,0.3v0.2l-0.2,0.3L27.3,55L27,55.4l-0.1,0.1l-0.2,0.2l0,0l-0.3,0.3v0.1l-0.3,0.3l-0.1,0.2
	l-0.2,0.2l-0.2,0.1l-0.2,0.2l-0.1,0.2l-0.3,0.1l-0.2,0.2l-0.2,0.2l-0.2,0.1l-0.1,0.1L24.2,58l-0.6,0.2l-0.2,0.2l-0.4,0.1l0,0
	l-0.4,0.2l-0.4,0.1L22,58.8l-0.3-0.1l-0.2,0.2L21.3,59h-0.4l-0.4,0.1l-0.1,0.1l-0.5-0.1h-0.4h-0.1L19,59.1l-0.2,0.1h-0.3h-0.2H18
	h-0.4h-0.1h-0.4L16.9,59L16.8,59L16.6,59l-0.4-0.2h-0.1H16l-0.4-0.1l-0.1-0.2h-0.4L15,58.5l-0.2-0.1L14.5,58l-0.2-0.1l-0.1-0.2
	l-0.4-0.2l-0.1-0.2l-0.2-0.1L13.3,57v-0.2l-0.4-0.3l-0.1-0.2l-0.1-0.1l-0.2-0.3l-0.1-0.4h-0.1l-0.2-0.4v-0.4L12,54.6l-0.1-0.4v-0.1
	h-0.1v-0.5v-0.5v-0.7l-0.1-0.3v-0.2v-0.4v-0.1L11.6,51l0.1-0.4v-0.1v-0.3l0.1-0.2l0.1-0.1l0.1-0.4v-0.3l0.1-0.4l-0.1-0.1l0.2-0.4V48
	l0.1-0.3l0.2-0.2l0.1-0.1V47l0.1-0.4l-0.1-0.1l0.3-0.4h-0.1l0.3-0.5v-0.2L13,45l0.1-0.2v-0.1l0.1-0.3l0.3-0.4v-0.1l0.2-0.4l0.1-0.3
	l0.1-0.2l0.1-0.1l0.2-0.2l0.1-0.3h0.2l0.2-0.5l0.1-0.1l0.2-0.3l0.2-0.2v-0.2l0.2-0.2l0.1-0.1l0.2-0.4l0.4-0.2v-0.1l0.4-0.4h0.1
	l0.2-0.4l0.1-0.2l0.4-0.2l-0.1-0.1l0.4-0.2l0.2-0.2l0.1-0.2l0.4-0.1l0.2-0.2l0.3-0.2l0.1-0.1l0.2-0.2l0.1-0.1l0.3-0.2h0.1l0.3-0.2
	l0.2-0.1l0.3-0.2l0.1-0.1l0.4-0.1l0.2-0.1l0,0l0.3-0.2l0.4-0.1h0.1l0.3-0.2h0.3l0.2-0.2l0,0l0.4-0.1l0.2-0.1h0.4l0.2-0.1h0.3
	l0.3-0.2l0.3,0.1l0.2-0.1l0.2-0.1h0.3h0.2h0.3V35l0.4-0.1l0.5-0.1l0.4,0.1h0.2l0.3,0.1l0.4,0.2H28l0.3,0.2h0.3l0.4,0.2l0.1,0.1
	l0.4,0.3l0.3,0.1H30l0.2,0.3l0.2,0.1l0.1,0.2l0.1,0.4l0.3,0.1l0.1,0.1v0.2l0.2,0.4l0.1,0.1l0.1,0.1v0.3l0.1,0.1l0.1,0.4l0.1,0.2v0.3
	v0.1v0.5l-0.1,0.1l0.1,0.3v0.3l-0.1,0.3L31.2,41l-0.1,0.3v0.1L31,41.7l-0.1,0.2l-0.2,0.4h-0.3l-0.1,0.3L30,42.7h-0.1L29.9,43
	l-0.5,0.2l-0.2,0.1L29,43.4l-0.2-0.1l-0.5,0.2h-0.4L27.9,43.2z M12.1,50.3L12,50.2v0.2l0,0L12.1,50.3L12.1,50.3z M12.1,53L12.1,53
	L12,53.3l0.1-0.1V53z M12.1,53.3L12.1,53.3L12.1,53.3L12.1,53.3z M12.6,52l-0.3-0.1v0.5l-0.1,0.2l0.3-0.2L12.6,52z M12.6,49.4
	l-0.3,0.2v0.1l0.1,0.2l0.2-0.2L12.6,49.4z M12.5,48l-0.1-0.1V48v0.2h0.2L12.5,48z M12.8,51.4h-0.3v0.2l0.2,0.1h0.1V51.4z M12.9,54.7
	l-0.2,0.1v0.2V55l0.2-0.1L12.9,54.7z M13,46.7h-0.2v0.1L13,46.7L13,46.7z M13.3,48.7h-0.2l-0.2,0.2l0.2,0.2l0.1-0.1L13.3,48.7z
	 M13.5,47L13,46.9v0.3l-0.1,0.2l0.2,0.2l0.3-0.1l0.1-0.1L13.5,47z M13.3,53.1h-0.2l0,0H13v0.2h0.1l0.2,0.1l0.2-0.1L13.3,53.1z
	 M13.6,51l-0.1-0.3h-0.4l-0.1,0.2V51l0.2,0.3l-0.2,0.2l0,0l0,0v0.2l0.1-0.1l0.2,0.2l0.2-0.1l0.2-0.1v-0.3l0,0L13.6,51z M13.2,54.8
	l-0.2,0.1L13.2,54.8L13.2,54.8z M13.2,53.1L13.2,53.1l-0.1,0.2h0.1L13.2,53.1L13.2,53.1z M13.2,51.5l-0.1,0.1l0.1,0.1l0,0V51.5z
	 M13.3,53.5l-0.1,0.1l-0.1,0.1l0.2,0.1l0.1-0.1L13.3,53.5z M13.5,47.8h-0.1l-0.2,0.1l0.2,0.1l0.1-0.1L13.5,47.8z M13.4,50.1
	L13.4,50.1l-0.2,0.1l0.2,0.2l0.1-0.1L13.4,50.1z M13.4,55.6l-0.2-0.1v0.3h0.1v0.1l0.2,0.1l0.1-0.1v-0.2L13.4,55.6L13.4,55.6z
	 M13.4,50.8L13.4,50.8L13.4,51l0.1,0.1V50.8z M13.7,52.5h-0.1l-0.1,0.1h0.2L13.7,52.5z M13.7,56.6L13.7,56.6l-0.2-0.1l0.2,0.2
	l0.1-0.1L13.7,56.6z M13.9,49.4h-0.2v0.2l0,0l0.2,0.1L13.9,49.4z M14,44.9L14,44.9l-0.2,0.4H14l0.2-0.1v-0.3h0.1l-0.2-0.2L14,44.9z
	 M14.3,53.1L14.2,53h-0.3l-0.1,0.3l0.3,0.2h0.1h0.2L14.3,53.1z M14.2,46.9l-0.3,0.1v0.2H14l0-0.2L14.2,46.9z M14,46.4l-0.1-0.1
	l-0.1,0.1l0.1,0.1l0.2-0.1L14,46.4z M14.2,56.9H14h-0.2l0.3,0.3l0.1-0.1L14.2,56.9z M14.4,55h0.1v-0.3l0.3-0.2l0,0H15h0.1l-0.1-0.1
	l-0.2-0.1l0,0l-0.1-0.1l0,0l0.2,0.1l0.2-0.1l-0.1-0.3l-0.2-0.1v0.1h-0.3l-0.2,0.1l-0.2,0.1L14,54.2l0,0l-0.2,0.1h0.1v0.2l0.1-0.1
	v0.2l0.2,0.2v0.1V55L14.4,55L14.4,55z M14.1,50.1l-0.2,0.1l0.3,0.3L14.1,50.1L14.1,50.1z M14.1,52.4h-0.1l-0.1,0.2H14L14.1,52.4z
	 M14.4,51.4L14,51.2l-0.1,0.3l0.1,0.1l-0.1,0.2l0.2,0.1h0.3v-0.2l0.1-0.1L14.4,51.4z M14,54.3L14,54.3l-0.1,0.2L14,54.3z M14.1,46
	l-0.2-0.1L14.1,46L14.1,46L14.1,46L14.1,46z M14.1,49.7L14.1,49.7L14,49.8l0.1,0.1l0.2-0.1L14.1,49.7z M14.6,47.2h-0.2l0.3-0.2
	l-0.1-0.3l-0.2-0.1l-0.1-0.1l-0.1,0.4l0.2,0.2l0.1,0.1h0.1v0.1l0.1,0.1l0.1-0.1L14.6,47.2z M14.8,56.9l-0.2-0.3l-0.4-0.1l-0.1-0.1
	l0.1,0.3l0.1,0.2l0.3,0.1L14.8,56.9z M14.3,56.2L14.3,56.2l-0.2,0.1l0.1,0.1l0.1-0.1V56.2z M14.3,52.6h-0.1v0.1l0.1,0.1l0.1-0.1
	L14.3,52.6z M14.8,52.1l0.2,0.2h-0.1l-0.1,0.1h0.1l0.1-0.1v-0.1l0,0l-0.1-0.3v-0.3l-0.2,0.2V52l-0.1,0l-0.2,0.2l-0.2,0.1l0.4,0.2
	l0.1,0.1h0.1L14.8,52.1z M14.8,46l-0.1-0.2l0.2-0.1l-0.1-0.2v-0.1h-0.1l0.1-0.1l0.3-0.1l0-0.3h-0.3h-0.2l-0.1,0.1l-0.1,0.1l0.1,0.2
	l0.2,0.1h-0.1v0.1v0.1l-0.1,0.1L14.8,46l-0.4-0.2l-0.2,0.3l0.2,0.2l0.2,0.2l0.3-0.2V46z M14.3,55L14.3,55l0.1-0.1l-0.3-0.1v0.1
	L14.3,55z M15.1,48.6L15.1,48.6l0.2-0.2v-0.1h0.1l0.1-0.1v-0.2h-0.2l0.1-0.2h-0.1l-0.4-0.2l-0.3,0.1L14.4,48v0.4v0.3v0.1l0.3,0.3
	l0,0v0.1l0.1,0.1h0.2V49l0.2-0.1L15.1,48.6z M14.6,51h-0.2H14.6L14.6,51z M14.8,48.7l0.3-0.1L15,48.4l-0.3-0.1h-0.2v0.1l-0.1,0.2
	h0.1L14.8,48.7z M14.8,43.3h-0.2l-0.1,0.2l0.1,0.2l0.2-0.1L14.8,43.3z M15,50.2h-0.2l-0.1,0.3l0.1,0.1v0.2h0.2v-0.1l0.1-0.1L15,50.2
	z M14.7,49l0.1-0.1h0.1l0,0L14.7,49L14.7,49z M14.9,56.8l-0.1-0.1v0.2l0.1,0.1H15L14.9,56.8z M14.8,52L14.8,52L14.8,52L14.8,52z
	 M14.8,54v0.2l0,0l0.1-0.2L14.8,54z M14.9,54.4l-0.1,0.2l0.1-0.1L14.9,54.4z M14.9,47L14.9,47l-0.1,0.1L14.9,47z M15,43.6l-0.1-0.1
	l-0.1,0.3l0.2,0.1l0.1,0.1L15,43.6z M15,49.6L15,49.6L15,49.6L15,49.6z M16.4,55.3l-0.2-0.2h-0.1h-0.3h-0.1l-0.3,0.4l-0.2-0.1
	l-0.1,0.2h-0.1l0,0H15V56l0,0l0.3,0.2l0.2-0.2V56l0.1-0.1v-0.3l0.3,0.3l0.2-0.2h0.1h0.1l0.3-0.1L16.4,55.3z M15.2,53.7L15.2,53.7
	l-0.1,0.2l0.2-0.1L15.2,53.7z M15.3,55.6l-0.2,0.1l0,0h-0.1l0,0L15.3,55.6L15.3,55.6z M15.2,48.1L15.2,48.1l-0.1,0.3h0.1L15.2,48.1z
	 M15.6,43.2L15.6,43.2l-0.4-0.1v0.4h0.2l0.2-0.1L15.6,43.2z M15.5,51.9L15.2,52h0.1L15.5,51.9z M15.5,57.2h-0.2H15.5L15.5,57.2z
	 M15.6,44.2h-0.3l-0.1,0.1l0.2,0.2h0.1L15.6,44.2z M15.5,43.9h-0.2v0.2h0.1h0.1V43.9z M15.6,47h-0.3v0.1l0.1,0.2l0.2-0.1L15.6,47z
	 M15.6,46.1L15.3,46l0,0l0.1,0.2L15.6,46.1L15.6,46.1z M15.6,46.6l-0.2,0.1l0.3,0.1L15.6,46.6z M15.4,41.4L15.4,41.4v0.2V41.4z
	 M15.6,56.8h-0.1v0.2h0.1V56.8z M15.6,52.2l-0.1,0.1l0.1,0.1h0.1L15.6,52.2z M15.9,42.4h-0.2l-0.2,0.2l0.2,0.1l0.1-0.1L15.9,42.4z
	 M15.8,57.7l-0.2,0.1l0.1,0.2L15.8,57.7z M15.9,53.8h-0.2v0.1v0.2L16,54L15.9,53.8z M15.9,47h-0.2v0.1v0.2l0.1-0.1L15.9,47z
	 M16.3,54.6H16l-0.1,0.1l0.2,0.2l0.2-0.1L16.3,54.6z M16.1,45.1L16,45.3L16.1,45.1L16.1,45.1z M16.4,44.6h-0.3l0,0H16l0.1,0.1
	l0.1,0.1h0.3l0.3-0.1v-0.2L16.4,44.6L16.4,44.6z M16.3,56.6l0.2,0.2l0.2-0.1l0.2-0.2v-0.3h-0.1l-0.5,0.1l-0.1,0.2L16.3,56.6
	l-0.1-0.2l-0.1,0.4V57l0.4-0.1L16.3,56.6z M16.2,43.5H16v0.1l0.1,0.1l0.1-0.1L16.2,43.5z M16.2,57.3l-0.1,0.1l-0.1,0.1l0.1,0.1
	l0.1-0.2L16.2,57.3z M16.2,56.6l-0.2,0.2h0.1L16.2,56.6z M16.3,42L16.2,42v0.2l0.1,0.1v-0.1L16.3,42z M16.2,56.5L16.2,56.5
	L16.2,56.5L16.2,56.5z M16.8,42.9v-0.1l0,0v-0.1l-0.3-0.1l-0.1,0.1l-0.1,0.1l0.1,0.2l0.2,0.3l0.3-0.2l0.1-0.1L16.8,42.9z M16.4,44.6
	L16.4,44.6L16.4,44.6z M16.4,58.5L16.4,58.5L16.4,58.5L16.4,58.5z M16.8,42.9L16.8,42.9L16.8,42.9l-0.2-0.1V43v0.1v0.2l0.2-0.1v-0.1
	l0,0V43L16.8,42.9z M16.9,55.5h-0.2v0.1l0.1,0.2h0.3L16.9,55.5z M17,42.1h-0.2l-0.1,0.2l0.1,0.2l0.3-0.2L17,42.1z M17.3,41.1
	L17.2,41l-0.1,0.2L17,41.1v0.3l0.1,0.2l0.2-0.1l0,0l0.2,0.1l0.1,0.1v-0.1l0.2,0.2l0.1-0.1l0.1-0.2l0.1-0.1L18,41.2l-0.2-0.1
	l-0.1,0.1L17.4,41v0.3L17.3,41.1z M17.2,58h-0.1L17,58.1l0.2,0.1V58L17.2,58z M17.5,57.7l-0.2-0.2l-0.1,0.4l0.2,0.2l0.1-0.1l0.1,0.1
	l0.1-0.2l0.1-0.1L17.5,57.7z M18.1,39.7v-0.3h-0.3l-0.1,0.1l-0.1-0.1l-0.1,0.1l-0.1,0.1l0.1,0.1l0,0l0,0h0.1l0.3,0.2L18.1,39.7
	L18.1,39.7z M18.7,56.8h-0.2l0.2-0.1h-0.1l-0.6-0.1h-0.1l-0.1,0.2l0.1,0.1L18,57L17.5,57l-0.1,0.2l0.1,0.1h0.3l0.3-0.1L17.9,57
	l0.2,0.1l0.1-0.2l0.3,0.5l0.2-0.4L18.7,56.8z M17.7,39.7L17.7,39.7l-0.2,0.2l0.2,0.1l0.1-0.1L17.7,39.7z M17.4,57.9L17.4,57.9
	l0.1-0.1v-0.1h-0.2L17.4,57.9z M17.7,39.4l-0.1,0.1v0.1L17.7,39.4L17.7,39.4z M18.4,57.9v-0.2l0.1-0.2h-0.2v0.1h-0.1l-0.3-0.1
	l-0.1,0.3l-0.1,0.2V58l-0.1,0.2h0.3H18l0,0l0.2-0.1l0.1-0.1L18.4,57.9z M17.7,58L17.7,58L17.7,58z M18.1,39.2L18.1,39.2l-0.2,0.1
	L18.1,39.2z M18,56.1v0.2h0.2L18,56.1z M18.3,38.8h-0.1h-0.1l0.2,0.2h0.1L18.3,38.8z M18.4,40.6l-0.3-0.1v0.3l0.1,0.2l0.3-0.1
	L18.4,40.6z M18.3,58.4L18.3,58.4l-0.1,0.2L18.3,58.4z M18.2,57.6h0.1l0,0H18.2z M18.6,38.4L18.6,38.4l-0.2-0.1l0.2,0.3L18.6,38.4
	L18.6,38.4z M18.6,56.7L18.6,56.7L18.6,56.7l-0.1,0.1l0.2-0.1L18.6,56.7z M18.8,57.8l-0.3-0.1v0.3l0.2,0.2l0.2-0.1V57.8z M18.8,39.2
	h-0.2v0.2v0.1l0.3-0.1L18.8,39.2z M19,57.1h-0.1v0.2l0.2,0.1L19,57.1z M19.3,56.8l-0.2,0.3l0.2,0.1h0.1l-0.1,0.1l0.1,0.1l0.3,0.1
	l0.2-0.1v-0.3h-0.2l0.2-0.1v-0.3h-0.1l0,0h-0.2L19.3,56.8l-0.2,0L19.3,56.8z M19.4,57.2h0.1l0,0l0.1-0.1h-0.1L19.4,57.2z M19.9,57.9
	L19.7,58v0.1l0.1,0.1l0.1-0.1V57.9z M20.1,56.3h-0.3l-0.1,0.1l0.1,0.2h0.2L20.1,56.3z M20,57.5L20,57.5l-0.2,0.1l0.1,0.1l0,0
	L20,57.5z M20.3,58.2L20.3,58.2l0.1-0.1V58l-0.1-0.1l-0.1,0.2L20.3,58.2L20,58.1l-0.2,0.2l0.2,0.1l0.2-0.1L20.3,58.2z M20.6,57.1
	v-0.2l-0.4-0.1L20,57.2l0.2,0.2l0,0l-0.1,0.1l0.1,0.1h0.3l-0.1-0.1l0.1-0.1h0.2L20.6,57.1z M20.3,37.8l-0.2-0.1L20,38l0.1,0.1
	l0.3-0.1L20.3,37.8z M20.2,57.4L20.2,57.4l0.2,0.1l-0.1-0.1H20.2z M20.4,36.9h-0.2v0.2l0.1,0.2l0.3-0.1L20.4,36.9z M20.9,38.2h-0.3
	h-0.1l-0.3,0.2v0.1l0,0v0.3l0.1,0.1v-0.1l0,0l0.3-0.3l0.2-0.1L20.9,38.2z M20.2,38.6v0.3l0.1-0.1L20.2,38.6L20.2,38.6z M20.7,56.2
	L20.7,56.2l-0.1-0.1L20.7,56.2z M21.4,37.5l-0.2,0.1l-0.1,0.2l0.1,0.1l0.1-0.1L21.4,37.5z M21.4,56h-0.1v0.1l0.1,0.1v0.3l0.1,0.1
	l0.1-0.2l-0.1-0.2h-0.1v-0.1L21.4,56z M21.9,56.9h-0.4L21.4,57l0.1,0.4l0.4-0.2L21.9,56.9z M21.9,36.4l-0.2-0.1v0.3h0.1h0.3
	L21.9,36.4z M22.2,58.3L22,58.2l-0.1,0.1l0.1,0.1L22.2,58.3L22.2,58.3z M22.4,37.2L22.2,37L22,37.3v0.1l0.2,0.2L22.4,37.2L22.4,37.2
	z M22.3,57.3L22.3,57.3l0.2-0.1l-0.1-0.1h0.1V57l-0.2-0.1L22.2,57v0.1L22.3,57.3L22.3,57.3l-0.2,0.2h0.3L22.3,57.3z M22.2,57.3
	L22.2,57.3L22.2,57.3L22.2,57.3z M22.6,57.9h-0.2v0.2l0.1,0.1l0.1-0.1L22.6,57.9z M22.9,37.4h-0.1l-0.2,0.2l0.3,0.1L22.9,37.4
	L22.9,37.4z M22.9,37.1h-0.2h-0.1l0.1,0.1h0.1L22.9,37.1z M23.1,36l-0.2,0.1l-0.1,0.1l0.2,0.1l0.1-0.1L23.1,36z M23.3,55.9L23.1,56
	L23.3,55.9L23.3,55.9z M23.6,55.6l-0.2-0.1l-0.1,0.2h0.2L23.6,55.6L23.6,55.6z M23.6,57.1h-0.1l-0.1,0.1l0.1,0.1l0,0L23.6,57.1z
	 M24.8,56.5v-0.3l-0.2,0.1v0.1l0,0l0,0l0,0l-0.1-0.3l-0.3,0.1l0,0V56l-0.2,0.2h-0.1l-0.1,0.1v0.1h-0.1l-0.1,0.1l0.1,0.3l0.1,0.1
	l0.3,0.2l0.2-0.2l0.2-0.2l0.1-0.1l0.1,0.1h0.1L24.8,56.5z M24.2,56.4v-0.2H24h-0.1h-0.1l-0.2,0.2v0.1l0.2,0.3l0.2-0.1L24.2,56.4z
	 M24.2,55.4L24,55.5l-0.2,0.2H24l0.2-0.1L24.2,55.4z M24.1,57.1H24v0.1v0.2l0.2-0.1L24.1,57.1z M24.5,54.7l-0.2-0.2l0.1,0.3l0,0
	L24.5,54.7z M24.4,56.5L24.4,56.5l0.1,0.2l0.1-0.1L24.4,56.5z M24.5,54.1l-0.1,0.1v0.1L24.5,54.1z M24.9,56.8l-0.2,0.1L24.6,57h0.1
	l0.2-0.1L24.9,56.8z M25.9,53.7h-0.2h-0.1l0.3,0.2H26L25.9,53.7z M26,52.4l-0.1-0.1l-0.1,0.2l0.1,0.1l0.3-0.1L26,52.4z M26,52.1
	L26,52.1l-0.2,0.1L26,52.1L26,52.1z M26.5,35.9h-0.1L26.3,36h0.2L26.5,35.9L26.5,35.9z M26.9,52.5l-0.3-0.1l-0.2,0.3l0.3,0.1
	l0.2-0.2L26.9,52.5z M27,42.2h-0.4l0.4,0.2V42.2z M26.8,51.2L26.8,51.2l-0.2,0l0.1,0.1v0.1l0.2,0.1v-0.1l0.1-0.1L26.8,51.2z
	 M26.8,50.7l-0.1,0.2l0.1,0.1V50.7z M27,51.7v-0.1h-0.1v0.2l-0.1,0.2l0.1,0.1H27L27,51.7z M27.2,53.5H27h0l0.1,0.2h0.2L27.2,53.5z
	 M27.3,52.3h-0.2L27,52.4l0.2,0.1v0.1h0.2v-0.2v0.1L27.3,52.3z M27.2,50.5h-0.2v0.1l0.1,0.2l0.2-0.1L27.2,50.5z M27.2,42.3l-0.1,0.1
	l0.2,0.1v-0.1L27.2,42.3z M27.4,50.3l-0.2,0.2h0.1L27.4,50.3z M27.6,35.8L27.6,35.8L27.4,36l0.2,0.2l0.1-0.2L27.6,35.8z M27.9,42.6
	H28l0-0.3h-0.2l-0.2,0.2l0,0L27.9,42.6z M28,42.6l0.2,0.1l0.1-0.1l-0.1-0.1h-0.1L28,42.6z M28.2,41l0.2-0.2h-0.1h-0.1L28.2,41z
	 M28.8,37.3l-0.1,0.2h0.1l0,0l0.2,0.2h0.2v-0.2l-0.2-0.1L28.8,37.3z M29.7,39.1l-0.2-0.4l-0.1-0.4v0.4v0.6l-0.1,0.1v0.3l-0.1,0.2
	h0.1l0.2-0.2h0.1l0.2-0.5L29.7,39.1z M29.6,38.4l-0.1,0.1v0.1h0.1L29.6,38.4z M30,37.2l-0.1,0.2l0.2,0.2l0.1-0.1L30,37.2z"/>
<path class="st0" d="M36,50.8l-0.1,0.3h-0.1l-0.2,0.5l0.1,0.1L35.5,52l-0.2,0.2l-0.1,0.1l-0.1,0.4L35,52.8l-0.2,0.2l-0.1,0.3
	l-0.2,0.1v0.3l-0.2,0.4l-0.2,0.3l-0.1,0.2v0.1l-0.2,0.2l-0.1,0.4l-0.2,0.1l-0.1,0.3L33.5,56l-0.1,0.2l-0.2,0.2L33,56.6L32.9,57
	l-0.1,0.1v0.1l-0.2,0.2l-0.1,0.2l-0.2,0.1l-0.2,0.5L32,58.5l-0.2,0.2l-0.3,0.1l-0.4-0.1l-0.3,0.1h-0.3h-0.1L30,58.7l-0.4,0.1
	l-0.3-0.1h-0.1L29,58.6l-0.1-0.3v-0.1l0.1-0.3l0.1-0.3v-0.3l0.1-0.2l0.1-0.1l0.2-0.5l0.1-0.2v-0.1l0.2-0.2l0.1-0.2l0.2-0.2l0.1-0.2
	l0.2-0.4l0.1-0.1l0.1-0.3l0.1-0.2l0.1-0.3l0.1-0.3l0.2-0.2l0.1-0.3l0.2-0.1v-0.3l0,0l0.1-0.2l0.2-0.2l0.1-0.3l0.2-0.5l0.1-0.1
	l0.1-0.4l0.1-0.3l0.2-0.2l0.2-0.3l0.1-0.5l0.1-0.2l0.1-0.3v-0.3l0.2-0.2v-0.1l0.1-0.1v-0.5h0.2l-0.3-0.7L33,47.2L32.8,47l-0.2-0.1
	h-0.4l-0.3,0.1l-0.5,0.2l-0.2-0.1h-0.2L31,46.9l0.1-0.1v-0.3l0.1-0.3l0.1-0.3l0.1-0.1l0.1-0.3l0.3-0.2l0.1-0.3l0.2-0.2l0.1,0.1
	l0.5-0.4l0,0h0.2l0.7-0.4l0.3,0.1v-0.1l0.3,0.1h0.2l0.1,0.1l0.4,0.2l0.2,0.1l0.1,0.1l0.3,0.2l0.1,0.2l0.3,0.2l0.1,0.3h-0.1l0.4,0.6
	v0.1l0.2,0.5l0.2,0.1v0.3L37,47l0.1-0.2l0.2-0.3l0.1-0.1l0.3-0.4l0.1-0.2l0.3-0.2l0,0l0.2-0.3l0.3-0.1l0.2-0.2h0.3l0.5-0.3l0,0
	l0.3-0.2l0.4-0.1h0.3h0.2l0.4,0.1h0.2l0.2,0.2H42L42,44.9h0.3l0.3,0.2l0.2,0.1l0.1,0.1l0.2,0.3l0.2,0.1l0.1,0.4l0.1,0.3l-0.1,0.3
	l0.1,0.3v0.1l-0.1,0.5v0.2l-0.1,0.3l-0.1,0.2l-0.1,0.2L42.8,49h-0.2l-0.4,0.2L42,49.3h-0.2l-0.3,0.1l-0.1,0.1L41,49.2h-0.2v-0.1
	l-0.4-0.1l-0.2-0.2l-0.3-0.2l-0.1-0.2l-0.2-0.2l-0.1-0.2L39.3,48v-0.6v-0.2l-0.1-0.1l-0.3-0.1l-0.1,0.1l0,0l-0.2,0.3l-0.2,0.1
	l-0.2,0.1L37.9,48v0.2l-0.3,0.2l-0.1,0.2l-0.2,0.2l-0.3,0.4l-0.1,0.3l-0.1,0.2l-0.1,0.1l-0.1,0.4l-0.2,0.2L36,50.8L36,50.8z
	 M30.1,58.3l-0.2-0.1l-0.1,0.1L30.1,58.3L30.1,58.3z M30.2,57.6H30v0.1l0.1,0.1L30.2,57.6z M31.3,56.6v-0.2H31h-0.3l-0.1,0.4
	l0.3,0.2v0.1v0.3l-0.1,0.1l-0.3,0.1l0.3,0.3h0.1l0.4-0.2l-0.1-0.3l0.2,0.1v-0.4l-0.2-0.2l0.3-0.1L31.3,56.6z M31.3,55.2l-0.2,0.3
	l0.2,0.2l0.2-0.3L31.3,55.2z M31.7,54.4h-0.1l-0.1,0.2l0.1,0.1h0.2L31.7,54.4z M31.7,46.3l-0.1-0.1v0.2v0.1h0.1L31.7,46.3z
	 M32.3,46.5h-0.2v0.1l0,0L32.3,46.5L32.3,46.5z M32.2,57.5L32.2,57.5l0.1-0.2h-0.1L32.2,57.5z M32.5,53L32.5,53v-0.2h-0.2l-0.1,0.2
	l0.2,0.1v0l-0.1,0.1L32.5,53L32.5,53z M32.5,52L32.5,52l-0.2,0.1l0.1,0.1h0.2L32.5,52z M32.5,53L32.5,53l0-0.2h-0.1l-0.1,0.2
	L32.5,53z M32.5,55.2L32.5,55.2L32.5,55.2l-0.1,0.1L32.5,55.2L32.5,55.2z M32.9,54.3h-0.3v0.2h0.3l0.2-0.1L32.9,54.3z M33,50.7
	L33,50.7h-0.2H33z M33.2,54.9L33.2,54.9L33,55.1l0.2,0.2l0.2-0.2L33.2,54.9z M34.2,51.7l-0.3-0.2l-0.1-0.3L33.7,51l-0.2,0.1
	l-0.2,0.2l0.1,0.3v0.1h0.3l-0.1,0.2l0.1,0.2l0.1,0.2l0.3-0.1l0.3-0.2L34.2,51.7z M33.3,50.2L33.3,50.2L33.3,50.2z M33.6,53.8
	l-0.2-0.1v0.2l0,0L33.6,53.8L33.6,53.8z M33.9,53.1L33.9,53.1L33.9,53.1l-0.1,0.2L33.9,53.1L33.9,53.1z M33.9,51.5L33.9,51.5
	l-0.1-0.1v0.3l0.3-0.1L33.9,51.5z M33.8,48v0.2h0.1L33.8,48z M34.1,53.8l0.1-0.2l0,0L34.1,53.8z M34.6,50.9h-0.2h-0.2l-0.1,0.2
	l0.1,0.3l0.2-0.1h0.1L34.6,50.9z M34.4,47.3L34.4,47.3l-0.2,0.1l0.1,0.1h0.1L34.4,47.3z M34.7,48.5h-0.3l-0.1,0.3l0.2,0.1h0.1
	L34.7,48.5z M35,46.8L35,46.8l-0.3-0.2h-0.2v0.3l-0.1,0.3l0.3,0.2l0.2-0.1L35,46.8z M35.1,50.4l0.1-0.2l-0.5-0.1l-0.1,0.3v0.1
	l0.2,0.2H35l0.2-0.2L35.1,50.4z M35,51.6h-0.2l0.1,0.1L35,51.6z M35.1,47.8h-0.2L34.9,48l0.2,0.1l0.1-0.1L35.1,47.8z M35.2,50.8
	L35.2,50.8L35.2,50.8L35.2,50.8z M36,48.1h-0.2l-0.2,0.1l0.2,0.1l0.2-0.1L36,48.1z M35.7,50.6L35.7,50.6l0.1-0.3L35.7,50.6z
	 M36.1,49.7H36L35.9,50l0.1-0.1L36.1,49.7z M37.3,47.7H37l-0.1,0.2V48H37l0.3-0.1L37.3,47.7z M37.7,47.5l-0.2,0.1l0,0L37.7,47.5z
	 M39.6,45.8l-0.2-0.1l-0.2,0.1v0.2l0.2,0.3l0.2-0.3V45.8z M40.4,46.1L40.2,46l0.1,0.1l0.1,0.2L40.4,46.1L40.4,46.1z M41.2,48.6
	L41.2,48.6l-0.1,0.1l0.1,0.1l0,0V48.6z"/>
<path class="st0" d="M52.8,47.1h-0.2h-0.3h-0.2L52,47.2h-0.2l-0.3,0.3H51l-0.2,0.2v0.2l-0.4,0.1l-0.2,0.2l-0.4,0.2l-0.1,0.2
	l-0.2,0.1v0.1L49,49l-0.3,0.2l-0.1,0.3l-0.1,0.1l0,0l-0.2,0.4l-0.3,0.2l-0.1-0.1l-0.3,0.5L47.4,51v0.2l-0.2,0.2v0.2L47,52l-0.1,0.2
	l-0.2,0.3v0.2l0,0l-0.1,0.3l-0.1,0.3l-0.1,0.4v-0.1l-0.1,0.5l0,0l-0.1,0.2l0.1,0.5V55l0.1,0.2l0.1,0.2l0.3,0.4l0.1,0.2l0.1,0.1h0.1
	l0.3,0.3l0.4-0.1l0.4,0.1h0.2l0.2-0.1l0.2-0.1h0.4h0.2l0.4-0.3H50h0.1l0.2,0.3l-0.1,0.1v0.4V57l-0.1,0.1l-0.1,0.2v0.2H50l-0.4,0.4
	L49.6,58l-0.2,0.1l-0.1,0.1l-0.2,0.1l-0.4,0.3l-0.3-0.1l-0.3,0.3V59l-0.5,0.1h-0.3l-0.3,0.1h-0.5l-0.3-0.1H46h-0.2h-0.3l-0.2-0.1
	L45.1,59l-0.2-0.3h-0.2l-0.3-0.2l0,0L44,58.3l-0.2-0.3l-0.1-0.1l-0.1-0.2v-0.3l-0.1-0.2l-0.4-0.4v-0.2L43,56.3v-0.2l-0.1-0.5
	l-0.1-0.2l0.1-0.3v-0.5v-0.3l0.1-0.3v-0.2l0.1-0.1l0.1-0.5V53l0.1-0.2l0.1-0.2l0.1-0.5h0.1l0.1-0.6l0.1-0.1l0.1-0.5l0.2-0.2h-0.1
	l0.1-0.3l0.2-0.3l0.1-0.3v-0.2l0.2-0.3l0.3-0.2l0.1-0.3l0.1-0.1l0.1-0.2l0.3-0.2l0.1-0.2l0.1-0.3l0.2-0.2h0.2l0.2-0.5V47l0.5-0.2
	v-0.1l0.1-0.2h0.4l0.2-0.4l0.3,0.1l0.2-0.3l0.2-0.2l0.2-0.1l0.1,0.1l0.5-0.3l0.2-0.1h0.3v0.1l0.6-0.3l0.1-0.1l0.4-0.1l0.1-0.1H51
	l0.3-0.1l0.2-0.1l0.2-0.1h0.4h0.1h0.5h0.4l0.3,0.1l0.3-0.1l0.3,0.3l0.3,0.2l0.1,0.1l0.3,0.2l0.1,0.1l0.2,0.1l0.1,0.4l0.2,0.2
	l0.1,0.1l0.3,0.1l0.1-0.2l0.2-0.2l0.2-0.2l0.1-0.3l0.1-0.1h0.1l0.4-0.3l0.3-0.3h0.2l0.2-0.1l0.4,0.1h0.9h0.2h0.3h0.5l0.1,0.1
	l0.1,0.2v0.3l-0.2,0.2l-0.2,0.2v0.2l-0.2,0.2l-0.1,0.2l-0.1,0.2l-0.3,0.4l-0.1,0.2l-0.1,0.1l-0.2,0.2l0.1,0.2l-0.3,0.3l-0.1,0.1
	l-0.2,0.3l0.1,0.2l-0.3,0.3l-0.2,0.3h-0.1l-0.3,0.5L57.1,50L57,50.2l-0.1,0.3l-0.2,0.2l-0.1,0.1l-0.1,0.4l-0.1,0.1l-0.2,0.3
	l-0.1,0.2L55.9,52l-0.1,0.2l-0.2,0.3l-0.1,0.2l-0.1,0.1L55.3,53l-0.1,0.2L55,53.6L54.8,54l-0.1,0.2l-0.1,0.2l-0.1,0.3V55l-0.1,0.3
	l0,0l0.1,0.4L54.4,56l0.1,0.1v0.2h0.3l0.2,0.2l0.3,0.1l0.1-0.1h0.2H56l0.4-0.1l0.2-0.1v-0.1l0.5-0.1l0.2,0.4v0.1v0.2L57,57l-0.2,0.3
	v0.1l-0.1,0.1l-0.2,0.3V58l-0.3,0.2L56,58.3h-0.1l-0.4,0.3l-0.3,0.3h-0.2l-0.3,0.2h-0.5H54l-0.4,0.1h-0.3L53.2,59H53h-0.2l-0.3-0.2
	h-0.3L52,58.6l-0.1-0.1l-0.1-0.2l-0.3-0.2l-0.1-0.3l-0.1-0.2L51,57.3L51,57.2l-0.1-0.5v-0.5v-0.2l0.2-0.4l-0.2-0.4v-0.2L51,55
	l0.1-0.4l0.1-0.2v-0.2l0.1-0.3l0.1-0.3v-0.3l0.2-0.2l0.1-0.2l0.1-0.2l0.2-0.2l0.1-0.5l0.2-0.1l0.1-0.3l0.2-0.1l0.2-0.3v-0.4l0.1-0.1
	v-0.2l0.4-0.4h0.2l0.1-0.4l0.2-0.2v-0.3l0.2-0.2h-0.1l0.4-0.6l0.2-0.5l-0.1-0.2l-0.3-0.2v-0.1l-0.3-0.2l-0.1-0.1l-0.2-0.2h-0.4
	L52.8,47.1L52.8,47.1z M43.7,55h-0.2l-0.1,0.1l0.1,0.2h0.2L43.7,55z M43.7,53l-0.1,0.1h0.1V53z M44.5,55.4l-0.3-0.1h-0.3h-0.1
	l0.1,0.2v0.3h-0.1l0.1,0.4l0.1,0.1h0.2h0.3l0.2-0.2V56l-0.1-0.4L44.5,55.4z M44.4,54.5v-0.4h-0.3L44,54l-0.2,0.4l0.3,0.3v0.1
	l0.3-0.2L44.4,54.5z M44.1,55.9l-0.3-0.1v0.3l0,0l0.1,0.2l0.2-0.2L44.1,55.9z M44.1,51.8l-0.2-0.1v0.2L44,52L44.1,51.8L44.1,51.8z
	 M44.7,52.8L44.7,52.8L44.7,52.8l0.3-0.2v-0.3h-0.2l-0.1,0.1l-0.2-0.1l-0.1,0.2l-0.1,0.1l-0.2-0.1L44,52.9l0,0.1l0.2,0.3l0.3-0.3
	v-0.4l0.1,0.1l0,0L44.7,52.8z M44.3,56.6l-0.3,0.1v0.1l0.1,0.1l0.2,0.1L44.3,56.6z M44.3,50.9L44.2,51l0.3,0.1l0.1-0.1l0.1-0.1
	L44.3,50.9L44.3,50.9L44.3,50.9L44.3,50.9z M45.3,54.4L45.3,54.4l-0.1,0.2v0.1h-0.3l-0.2-0.1l-0.1,0.2l-0.2,0.4h0.1l0.3,0.3l0.1,0.1
	l0.4-0.2l0.2-0.1l0,0l0,0l0.2-0.1v-0.1h-0.1l-0.1,0.1v-0.1v-0.1h0.1h0.2l-0.3-0.3l-0.1-0.1h0.1L45.3,54.4z M44.4,57.2l0.1,0.1
	L44.4,57.2L44.4,57.2z M44.8,53.9l-0.2-0.1L44.5,54h0.2L44.8,53.9L44.8,53.9z M44.7,52.5l-0.1-0.1l-0.1,0.1H44.7z M44.5,52.6
	l0.1,0.2l0,0l0.1-0.2L44.5,52.6z M44.7,50.4v-0.2V50.4z M44.8,52.4L44.8,52.4l-0.1,0.1h0.1V52.4z M45.2,53.2L45.2,53.2l0.1-0.3h-0.3
	l0,0h-0.1l-0.1,0.4v0.2L45.2,53.2L45.2,53.2z M45,53.2l0.2-0.1V53v-0.2h-0.2L45,53L45,53.2z M45.2,49.6H45l-0.1,0.2l0.1,0.1l0.2-0.1
	L45.2,49.6z M45.2,54.7l-0.1,0.2l0.1,0.3l0.2-0.1L45.3,55l0.1-0.2L45.2,54.7z M45.3,54.6L45.3,54.6L45.3,54.6L45.3,54.6L45.3,54.6z
	 M45.5,52.4l-0.3-0.1v0.2l0,0L45.5,52.4L45.5,52.4z M45.3,54.7L45.3,54.7L45.3,54.7z M45.9,53.1l0-0.1v-0.3l0,0l0.3-0.1L46,52.4
	l-0.1-0.1l-0.2,0.2l0.1,0.1h-0.1l-0.2-0.1l-0.2,0.2l0.2,0.5l0.2-0.1v0.1l0.1,0.1L45.9,53.1z M45.5,49.5L45.5,49.5l-0.2,0.1l0.1,0.1
	h0.2L45.5,49.5z M45.3,55.3L45.3,55.3L45.3,55.3L45.3,55.3z M45.5,49.9l-0.1,0.2h0.2v0.2l0.1-0.2h-0.1h0.2l-0.1-0.2L45.5,49.9z
	 M45.7,58.5h-0.2l-0.1,0.1l0.2,0.1l0,0L45.7,58.5z M45.7,51.5L45.7,51.5l-0.3,0.3V52l0.3-0.1L45.7,51.5z M45.7,55.6l-0.1,0.1
	l-0.1,0.1h0.3L45.7,55.6z M45.7,49l-0.2,0.1h0.1h0.2L45.7,49z M46,57.9L46,57.9L46,57.9v-0.2l0,0l-0.4-0.2v0.3v0.3h0.2L46,57.9
	L46,57.9z M45.8,56.4l-0.2,0.3l0.1,0.1l0.3,0.4h0.4l-0.1-0.3l0,0v-0.1v-0.4L45.8,56.4z M46,57.9L46,57.9l-0.2-0.2l-0.1,0.1l0.1,0.2
	L46,57.9L46,57.9z M46.8,49.3l-0.1-0.4h-0.3L46.3,49l0.1-0.3l-0.1-0.1l-0.1,0.1V49L46,49.2l-0.2,0.2l0,0l-0.1,0.1h0.2l0.1,0.2H46
	v-0.2l0.2-0.2l0.1,0.2l0.1,0.1l-0.1,0.1v0.2l0.2,0.2l0.2-0.2l0.1-0.1v-0.4h-0.1l0,0L46.8,49.3z M45.8,52.6L45.8,52.6L45.8,52.6
	L45.8,52.6z M46,49.4v-0.2l-0.3,0.1v0.1l0,0L46,49.4z M46.2,51.7L46,51.5v0.3l0.1,0.2l0,0L46.2,51.7z M46.2,49.2V49l0,0V49.2
	L46.2,49.2z M46.4,56.2L46.4,56.2L46.4,56.2l0,0.2L46.4,56.2L46.4,56.2z M46.4,56.9l0.4,0.1h0.3l-0.2,0l-0.2-0.1h0.1l-0.1-0.2
	l-0.1-0.2l-0.1,0.3l0.2,0.2l-0.1-0.1L46.4,56.9z M46.7,57.4L46.7,57.4l-0.1,0.1l0,0h0.1L46.7,57.4z M47,50.2l0.1-0.2l0.1-0.3h-0.1
	l-0.2,0.2l-0.1,0.2h-0.1L47,50.2L47,50.2z M46.8,50.1L46.8,50.1H47H46.8z M47.1,47.5L47.1,47.5l-0.2,0.1l0.1,0.1l0.2-0.1L47.1,47.5z
	 M47.4,47.5v0.1l-0.3,0.2l0.1,0.1l0.3-0.1L47.4,47.5z M47.3,56.7l-0.2,0.1l0.2,0.1h0.1L47.3,56.7z M47.5,49L47.5,49h-0.2H47.5
	L47.5,49z M48.2,49.1L47.9,49l-0.1,0.2l0.2,0.2l0.1-0.1L48.2,49.1z M48.2,57.1L48.2,57.1L48.2,57.1L48.2,57.1L48.2,57.1L48.2,57.1z
	 M48.7,47.6l0.1-0.2h-0.4l-0.2,0.3l0.1,0.4l0.4-0.3L48.7,47.6z M48.4,48.7L48.4,48.7l-0.1,0.2V49l0.2-0.1L48.4,48.7z M48.4,48.3
	l0.1-0.1h-0.1L48.4,48.3z M48.5,48.5L48.5,48.5L48.5,48.5L48.5,48.5z M48.7,56.7l0.1,0.2l0.2-0.1v-0.3L48.7,56.7L48.7,56.7z
	 M49.3,47.5L49.3,47.5L49,47.6l0.1,0.1h0.2L49.3,47.5z M49.8,46h-0.2l-0.2,0.1v0.3v0.1l0.3-0.1L49.8,46z M49.7,45.5L49.7,45.5
	l-0.2,0.1l0.1,0.1h0.1L49.7,45.5z M49.6,56.4L49.6,56.4l0.3-0.1L49.6,56.4z M50,46.2L50,46.2l-0.2,0.2l0.1,0.1l0.1-0.1L50,46.2z
	 M50,46.7h-0.1v0.2H50V46.7z M50.7,45.7h-0.3v0.1l0.3,0.2l0.2-0.1h0.1v-0.4h-0.1L50.7,45.7z M50.5,47h-0.1v0.2l0.1,0.1l0.1-0.2
	L50.5,47z M50.9,45.4l-0.3-0.1l-0.1,0.2l0.1,0.1h0.2V45.4z M52,46.4l0.3-0.3l-0.1-0.4l-0.5,0.1l-0.2,0.3v0.1l-0.2,0.2l-0.1-0.1
	l-0.1,0.2L51,46.8l0.4-0.2l0.3-0.1h0.2L52,46.4z M51.3,45.7l0.1-0.1H51v0.1l0.1,0.1l0,0l0.1,0.1l0,0h0.1L51.3,45.7z M51.4,46.9
	l-0.3-0.1l0.2,0.2h0.1V46.9z M51.2,45.9l0.1,0.2L51.2,45.9L51.2,45.9z M51.7,45.5L51.7,45.5l-0.3-0.1v0.2l0,0l-0.1,0.1l0.1,0.2h0.1
	l-0.1-0.2L51.7,45.5l0.1,0.1l0.3-0.1l0.2-0.2h-0.6L51.7,45.5z M51.9,57.5h-0.2l-0.1,0.2l0,0l-0.1,0.1l0.1,0.1h0.1l0,0l0.1-0.3
	L51.9,57.5z M51.7,45.5L51.7,45.5L51.7,45.5L51.7,45.5z M51.9,45.2L51.9,45.2h-0.2v0.1L51.9,45.2L51.9,45.2z M51.9,55.4L51.9,55.4
	L51.9,55.4L51.9,55.4z M52.4,57.2l-0.2,0.1L52.4,57.2L52.4,57.2z M52.3,56.3l-0.1,0.1l0.1,0.1h0.1L52.3,56.3z M52.2,45l0.1,0.2h0.3
	l-0.1-0.3L52.2,45L52.2,45z M53.1,54.6l-0.3-0.1l-0.1,0.2v-0.1l-0.1,0.1l-0.1-0.2h-0.1l-0.2,0.2l0.3,0.1h0.1l-0.1,0.2l0.3,0.1
	l0.2,0.1v-0.4h0.1L53.1,54.6z M52.7,54.7L52.7,54.7L52.7,54.7L52.7,54.7z M52.9,52.9h-0.2l0,0l0.1,0.2v-0.1L52.9,52.9z M52.7,46.4
	l0.2-0.1L52.7,46.4L52.7,46.4z M53.3,55.5h-0.2l-0.2-0.1l-0.2,0.5L53,56h0.2l-0.1,0.1l0.3,0.3l0.1,0.1v-0.7h-0.2L53.3,55.5z
	 M53,54.2L53,54.2h-0.2l0.1,0.1h0.3L53,54.2z M53.4,56.7h-0.3v-0.1h-0.2l0.1,0.1l0,0v0.1v0.1l0,0.1l0,0l0.1,0.1l0.3-0.2L53.4,56.7z
	 M53.1,56.7L53.1,56.7L53.1,56.7v0.2V56.7z M53.3,56.9H53V57l0.1-0.1L53.3,56.9z M53.3,51.4L53.3,51.4l-0.2,0L53.3,51.4z M53.4,46.7
	h-0.2l0.1,0.2h0.2L53.4,46.7z M53.4,46.1V46l-0.1,0.2L53.4,46.1L53.4,46.1L53.4,46.1z M53.8,52.6l-0.1-0.1v0.2l0.1,0.1V52.6z
	 M54,50.8h-0.2v0.2v0.1l0.2-0.2L54,50.8z M54.2,50.1l-0.1-0.2L54,50.2h-0.1v0.1h0.2v-0.1l0,0l0.3-0.1H54.2z M54.1,45.8H54l-0.1,0.2
	H54L54.1,45.8z M54.4,45.7h-0.2v0.1l0.1,0.1L54.4,45.7L54.4,45.7z M54.6,58L54.6,58l-0.2,0.1h0.1h0.1L54.6,58z M55,57.9l-0.4-0.1
	v0.1V58H55L55,57.9z M54.9,51.2h-0.1l-0.1,0.2h0.2l0.1,0.1L54.9,51.2z M55,50h-0.1h-0.1h-0.1l0.1,0.1l0,0l0.1,0.1h-0.1H55l0,0l0,0
	L55,50z M55.1,47.4L55.1,47.4h-0.2l0.3,0.3l0.1-0.1L55.1,47.4z M55.4,57.5L55,57.4l0.1,0.2h0.2h0.1L55.4,57.5z M55.4,49.7h-0.2
	l-0.1,0.2l0.1,0.2l0.3-0.1L55.4,49.7z M55.5,48.8l-0.2-0.1v0.2l0.1,0.2l0.2-0.1L55.5,48.8z M55.8,51.3h-0.2l-0.1,0.1l0.1,0.1h0.2
	L55.8,51.3z M56.3,57h-0.2L56,57.2l-0.5,0.2l0.4-0.2l0.4-0.1L56.3,57z M55.8,50.4L55.8,50.4l-0.2,0.2l0.1,0.1l0.2-0.1V50.4z
	 M56.2,50L56,49.9l-0.2,0.2l0.1,0.1l0.3-0.2L56.2,50z M56,51l-0.2-0.1v0.1l0.2,0.1L56,51L56,51z M56.2,50.5L56,50.4v0.2l0,0
	L56.2,50.5L56.2,50.5z M56.5,48.9l-0.2-0.1L56.1,49l0.3,0.2h0.1L56.5,48.9z M56.6,49.5l-0.2-0.1v0.1l0.1,0.1h0.1L56.6,49.5z
	 M56.6,48.9l0.2,0.1v-0.2l0.2-0.2l0.2-0.3l0.1-0.2l0,0L57,48.2v0.2l-0.2-0.1L56.6,48.9z M57.1,48.6L57.1,48.6L57.1,48.6L57.1,48.6
	L57.1,48.6z"/>
<path class="st0" d="M73.4,47L73,46.9h-0.2h-0.1h-0.3l-0.2-0.1h-0.4h-0.2l-0.4-0.1H71h-0.3l0,0h-0.4h-0.1l-0.5,0.1h-0.1l-0.4-0.1
	L69,46.8h-0.2l-0.1,0.1h-0.4L68,47.1L68,47.3l-0.2,0.4v0.1L67.6,48l-0.1,0.3l-0.3,0.2l-0.1,0.4L67,49.1v0.2l-0.3,0.3V50l-0.3,0.2
	v0.4l-0.2,0.2V51l-0.2,0.3l-0.1,0.2l-0.1,0.1v0.3l-0.2,0.3v0.1l-0.3,0.4l-0.1,0.1L65.1,53v0.5l-0.2,0.1l-0.1,0.2v0.3l-0.1,0.2
	l-0.1,0.2l-0.1,0.3L64.4,55h-0.2l-0.1,0.4L64,55.6l-0.1,0.3l0.1,0.3l-0.2,0.4l-0.2,0.2v0.1V57l-0.2,0.3v0.2l-0.2,0.3L63,58.1v0.3
	l-0.5,0.1l-0.1,0.1h-0.3l-0.3,0.1l-0.3-0.1l-0.3,0.1l-0.1,0.1h-0.4l-0.3-0.1H60v0.1l-0.4-0.3l-0.1-0.3l0.1-0.3l0.1-0.2v-0.2l0.3-0.3
	l0.1-0.3l0.1-0.2v-0.1l0.1-0.2l0.1-0.5l0.1-0.3l0.2-0.1l0.1-0.3l0.1-0.2l0.1-0.3l0.1-0.1l0.1-0.3l0.3-0.5v-0.2l0,0l0.1-0.1l0.2-0.6
	l0.1-0.1l0.1-0.3l0.1-0.1l0.2-0.3v-0.3l0.1-0.1l0.1-0.4v-0.1l0.2-0.3l0.1-0.3h0.1l0.1-0.3l0.1-0.2l0.1-0.2l0.1-0.3l0.2-0.3l0.1-0.1
	l0.1-0.5l0.1-0.1v-0.3l0.2-0.2l0.2-0.4l0.1-0.3l0.1-0.1l0.1-0.4v-0.1v-0.3h-0.1l-0.2-0.1h-0.4l-0.1-0.2l-0.5,0.2h-0.6l-0.1-0.2
	l-0.1-0.2v-0.2l0.1-0.2l0.3-0.2v-0.4v-0.1L63,45l0,0l0.6-0.2h0.2h0.3l0.1,0.1l0.3-0.1l0.3,0.1l0.2-0.1h0.3l0.2,0.1l0.2-0.4l0.2-0.1
	l0.1-0.3l0.1-0.3l0.2-0.2l0.1-0.4l0.1-0.2l0,0l0.2-0.5v-0.2l0.2-0.3l0.1-0.2l0.1-0.2l0.2-0.2l0.2-0.4l0.2-0.3l0.2-0.5L68,40l0.2-0.5
	l0.1-0.2l0.2-0.3V39l0.4-0.5l0.1-0.4l0.2-0.2l0.2-0.1v-0.1l0.3-0.3l0.2-0.1l0.3-0.3l0.1-0.1v-0.1l0.4-0.3l0.3-0.2h0.1l0.3-0.2
	l0.1-0.2l0.3-0.1h0.2H72h0.2l0.2-0.1h0.3l0.2-0.1H73l0.2-0.1h0.3H74h0.3l0.2-0.1L75,36l0.2,0.1l0.2-0.1l0.4,0.4H76l0.1,0.2h0.1
	l0.2,0.3l0.1,0.1l0.2,0.3l0.2,0.3l0.1,0.1v0.4l-0.1,0.1l0.2,0.3L77,38.9l0,0.1l-0.1,0.4l-0.2,0.2h-0.1l-0.2,0.3L76.2,40l-0.2,0.1
	l-0.4,0.1h-0.3h-0.2H75l-0.2-0.1l-0.1-0.1h-0.3l-0.1-0.2l-0.3-0.2l-0.2-0.1l-0.2-0.3L73.4,39l-0.1-0.3l-0.1-0.2L73,38.2l-0.1-0.2
	l-0.1,0.1l-0.2,0.1h-0.1l-0.2,0.2l-0.1,0.1l-0.3,0.4L72,39l-0.2,0.3l-0.1,0.1l-0.1,0.2L71.4,40l-0.1,0.2l-0.2,0.3L71,40.9l-0.1,0.2
	l-0.1,0.1l-0.2,0.6V42l-0.1,0.2l-0.3,0.3l-0.1,0.4l-0.2,0.3v0.1l-0.2,0.4l0,0L69.4,44l-0.2,0.1l-0.1,0.5v0.1l0.3,0.1h0.1h0.3h0.7
	l0.1,0.1l0.3-0.1l0.1,0.1l0.4-0.1l0.1,0.1l0.5-0.1h0.2l0.3,0.1l0.4-0.1L73,45l0.4-0.1h0.7h0.2l0.2-0.1l0.4,0.1l0.2,0.1l0.1-0.2
	l0.1-0.4l0.2-0.1l0.1-0.2l0.2-0.2l0.1-0.5l0.3-0.3v-0.1l0.3-0.5l0.2-0.3l0.1-0.2l0.1-0.2l0.2-0.3l0.1-0.2L77,41v-0.2l0.3-0.3v-0.3
	l0.2-0.3l0.2-0.2v-0.4l0.3-0.2v0.1l0.4-0.2h0.2H79h0.1l0.5,0.1l0.1-0.1l0.4,0.1l0.2-0.1l0.3,0.1l0.1-0.1l0.3,0.1l0.1,0.4l-0.1,0.1
	L80.9,40l-0.1,0.3l-0.2,0.5l-0.1,0.3l-0.1,0.3l-0.1,0.1l-0.1,0.3L80,42v0.1l-0.2,0.3l-0.1,0.2l-0.2,0.2L79.4,43v0.4L79,43.9
	l-0.2,0.2v0.2l-0.1,0.2l-0.1,0.1v0.3l0.1,0.2l0.3-0.1l0,0l0.3-0.1l0.4,0.1l0.4,0.1h0.4l-0.1-0.2l0.7,0.2l0.1,0.1l0.2,0.2l-0.1,0.3
	l-0.1,0.2l-0.1,0.1l-0.3,0.6l-0.1,0.2v0.1l-0.4,0.1h-0.1l-0.3,0h-0.2l-0.2-0.1h-0.4h-0.1h-0.1l-0.3-0.1l-0.5,0.1h-0.6l-0.1,0.1
	l-0.1,0.2l-0.3,0.3l-0.1,0.2v0.2L77,48l-0.3,0.5l-0.1,0.3L76.5,49l-0.2,0.2l0.1,0.1l-0.2,0.4L76,49.8l0,0.1l-0.1,0.1l-0.2,0.3
	l-0.2,0.3V51l-0.1,0.1l-0.2,0.4l-0.1,0.2L75,51.9v0.2l-0.1,0.2l-0.1,0.3l-0.2,0.1l-0.2,0.2l-0.2,0.8L74,53.9v0.3l-0.2,0.3l-0.1,0.2
	l-0.1,0.2h-0.1v0.5l0,0v0.3l0.1,0.4l0.1,0.1l0.1,0.3l0.2,0.1v-0.1l0.5,0.2h0.4l0.3,0.1h0.1l0.4-0.2h0.3h0.4l0.3-0.1l0.1,0.2v0.2h0.1
	l-0.2,0.4v0.1l-0.1,0.2l-0.2,0.3l-0.1,0.1l-0.3,0.4l-0.2,0.1v0.1l-0.3,0.1L75,58.8l-0.4,0.1l-0.2,0.1h-0.3l-0.4,0.1h-0.3l-0.3,0.2
	l-0.4-0.1L72.3,59l-0.1-0.2l-0.4,0.1v-0.1l-0.3-0.1h-0.2l-0.5-0.3l-0.3-0.3l-0.2-0.3l-0.1-0.2l-0.1-0.2l-0.1-0.2l0.1-0.2L70,56.7
	l-0.1-0.3l0.1-0.2v-0.1l-0.1-0.3l0.1-0.3v-0.2l0.1-0.1l0.1-0.3v-0.2l0.1-0.2l0.1-0.3l0.1-0.2v-0.1l0.2-0.4l0.1-0.2l0.1-0.2l0.1-0.4
	l0.2-0.3l0.2-0.2l0.2-0.3l0.1-0.2l0.2-0.4L72,51l0.2-0.3l0.1-0.5l0.3-0.3l-0.1-0.1l0.4-0.4l0.1-0.2L73,49v-0.1l0.3-0.4l-0.1-0.2
	l0.2-0.2l0.1-0.2l0.2-0.3v-0.2l0.2-0.2L74,47l-0.2-0.2L73.4,47z M63.1,55L63,54.9l-0.2,0.3l0.1,0.2l0.3-0.1L63.1,55z M63.4,53.3
	v-0.2L63.1,53l-0.2,0.3l0.1,0.1l0.1,0.2l0.4-0.1l0.1-0.1L63.4,53.3z M63.1,51.1L63.1,51.1l-0.2,0.3l0,0H63L63.1,51.1z M63.3,51.5
	L63.3,51.5L63,51.6l0.1,0.2l0.2-0.1L63.3,51.5z M63.8,51.9h-0.3v0.3l0.2,0.1l0.2-0.2L63.8,51.9z M63.9,54.1L63.9,54.1l-0.3,0.2
	L63.9,54.1L63.9,54.1z M64.3,51.2L64.2,51L64,50.9l-0.2,0.3l0.2,0.3h0.4L64.3,51.2z M63.9,49.2L63.9,49.2L63.9,49.2L63.9,49.2z
	 M64.3,48.7l-0.1-0.1v0.2L64.3,48.7l0.1,0.1L64.3,48.7z M64.3,53.1L64.3,53.1L64.3,53.1L64.3,53.1z M64.7,49.1h-0.1l-0.1,0.2
	l-0.1,0.1l0.1,0.2l0.2-0.2L64.7,49.1z M64.4,45.7L64.4,45.7L64.4,45.7L64.4,45.7z M64.8,51.3h-0.2l-0.1,0.2l0.1,0.1l0.2-0.2
	L64.8,51.3z M64.9,50l-0.4,0.1v0.2l0.1,0.2h0.4L64.9,50z M64.9,50.9l-0.3-0.2v0.1L64.9,50.9L64.9,50.9L64.9,50.9z M64.9,49.5h-0.2
	v0.2l0.1,0.1h0.2L64.9,49.5z M64.7,47.5L64.7,47.5l-0.1,0.1l0,0L64.7,47.5L64.7,47.5z M65,50.6h-0.2l-0.2,0.1l0.2,0.1l0.2-0.1
	L65,50.6z M65.1,51.8l-0.2-0.1l-0.1,0.2l0.2,0.1l0.2,0V51.8z M65.1,46.9l-0.2-0.1L65.1,46.9l0.1,0.2h0.2L65.1,46.9z M65.2,45.4h-0.3
	v0.3h0.1l0.1-0.1L65.2,45.4z M65,47.9l0.2-0.1v-0.2L65,47.9z M65.2,48.4L65.2,48.4L65,48.5l0.1,0.1h0.1L65.2,48.4z M65.7,46.9
	l-0.2-0.1L65.7,46.9v-0.3v-0.3h-0.4l-0.3,0.2l0.2,0.3l0.1,0.1l0,0l0.1,0.1l0.1,0.4l0.1-0.2L65.7,46.9z M65.3,46.1h-0.2v0.2h0.1
	l0.2-0.1L65.3,46.1z M65.3,47.2L65.3,47.2L65.3,47.2L65.3,47.2z M65.8,45.8L65.8,45.8L65.8,45.8l0.2-0.1v-0.3l-0.4,0.2h-0.1h-0.1
	l0.1,0.1l0.2,0.1L65.8,45.8L65.8,45.8L65.8,45.8L65.8,45.8z M66.3,48.9l-0.4-0.1l-0.3-0.1l-0.2,0.4l0.3,0.1h0.1l0.2,0.2H66l0.1-0.2
	L66.3,48.9L66.3,48.9z M65.7,45.8L65.7,45.8L65.7,45.8l0.1,0.1l0,0h0.1l0,0l-0.1-0.2L65.7,45.8l-0.2,0L65.7,45.8z M66.2,46.6h-0.3
	l0.1,0.3l0.1,0.1l0.1-0.1L66.2,46.6z M66.4,47.3L66.4,47.3l-0.1-0.2h-0.1l-0.1,0.2v0.1v0.1l0,0l-0.1,0.1h0.2l0.1,0.2l0.1-0.1
	l-0.1-0.1h0.1v-0.1l0.1-0.1L66.4,47.3z M66.4,47.3L66.4,47.3l-0.2,0.1v0.1L66.4,47.3L66.4,47.3z M66.4,46.9h-0.2l0.1,0.1l0.1,0.1
	L66.4,46.9z M66.2,48.5L66.2,48.5l0.3-0.1v-0.2l-0.1-0.2L66.2,48.5z M66.2,47.6L66.2,47.6l0.1,0.1v-0.1H66.2z M66.4,45.2L66.4,45.2
	L66.4,45.2v0.2l0.1-0.1L66.4,45.2z M66.5,44.4l-0.1-0.1l-0.1,0.2v0.1l0.2,0.1L66.5,44.4z M66.3,49.6L66.3,49.6L66.3,49.6L66.3,49.6z
	 M66.6,43.8L66.4,44h0.1h0.1L66.6,43.8z M66.8,44.8l-0.2-0.1l-0.1,0.2h0.1L66.8,44.8L66.8,44.8z M67,47.5h-0.1h-0.2l0.1,0.2l0.2-0.1
	V47.5z M67,43.1L66.8,43l-0.1,0.1l0.1,0.2l0.2-0.1V43.1z M67.3,46.4L67.3,46.4L67.3,46.4l-0.2,0.3l0,0l-0.2,0.4l0.1,0.1v-0.1
	l0.1-0.3l-0.1,0.1l0.2-0.2L67.3,46.4L67.3,46.4z M67.6,44.4l-0.3-0.1h-0.1L67,44.6l0.1,0.2l0.2,0.1l0.2-0.1h0.1L67.6,44.4z
	 M67.7,43.6h-0.2l-0.1,0.2l0.2,0.1h0.1V43.6z M67.4,47.2L67.4,47.2l0.1-0.2l0,0L67.4,47.2z M67.7,45.6l-0.1-0.1l-0.1,0.2h0.2V45.6z
	 M68.1,44.4h-0.3v0.3l0,0h-0.1l-0.1,0.1L67.5,45l0.2,0.5l0.2-0.1l0.3-0.2v0.1l0.3-0.1l-0.1-0.3h-0.2V45l-0.2-0.2l0.3-0.1L68.1,44.4z
	 M68.1,42.3L68.1,42.3L68.1,42.3L67.8,42l-0.1,0.2l-0.1,0.2l0.3,0.3l0.1-0.1h0.1l0.2-0.1L68.1,42.3z M67.8,46.3h-0.1v0.2h0.1l0,0
	L67.8,46.3z M67.8,43.2l-0.1,0.1L67.8,43.2L67.8,43.2z M68,42.3L68,42.3l-0.1,0.2v0.1l0.2-0.2L68,42.3z M68.3,43.4H68L68,43.7
	l0.2,0.2v-0.1L68.3,43.4z M68.2,45.4l-0.1,0.1l0,0L68.2,45.4z M68.3,42.2L68.2,42v0.1l0.1,0.1h0.1v0.1h0.1l0.1,0.1l0.3-0.1l-0.2-0.2
	h-0.1l-0.1-0.1L68.3,42.2L68.3,42.2L68.3,42.2z M68.3,40.8L68.3,40.8L68.2,41h0.1L68.3,40.8z M68.3,45.2L68.3,45.2V45V45.2z
	 M68.7,40.9L68.7,40.9L68.6,41l0.1,0.2l0.1-0.1L68.7,40.9z M68.9,39.5L68.9,39.5l-0.2,0.1l0,0l0.3,0.1L68.9,39.5z M69,41.4L69,41.5
	l0.1,0.3l0.3-0.5L69,41.4z M69.3,46.4h-0.2H69.3L69.3,46.4L69.3,46.4z M70.1,45.9L70.1,45.9v-0.3v0h-0.2l0,0h-0.1v0.1h-0.2v-0.1
	h-0.1v0.1L69.3,46v0.1l0.3-0.1h0.2H70h0.1L70.1,45.9z M69.4,40.7l-0.2,0.1V41h0.1L69.4,40.7z M69.5,45.6L69.5,45.6L69.5,45.6
	L69.5,45.6L69.5,45.6z M69.7,45.6l-0.1,0.2h0.1L70,46h0.1v-0.3l-0.2-0.1l0,0h-0.1L69.7,45.6z M70.1,39l-0.2,0.1l-0.2,0.2l0.3,0.2
	l0.2-0.3L70.1,39z M70.1,38.8l0.2,0.1l-0.1-0.3L70,38.6l-0.1,0.2L70.1,38.8z M70.1,41.8L70.1,41.8L70.1,41.8L70.1,41.8L70.1,41.8z
	 M70.2,46.1h-0.1H70.2L70.2,46.1z M70.3,40.4l-0.2-0.1v0.2v0.1h0.3L70.3,40.4z M70.3,39.3l-0.2-0.1v0.2l0.1,0.1l0.1-0.1L70.3,39.3z
	 M70.6,55.1l-0.2-0.1v0.2v0.1h0.1L70.6,55.1z M70.6,56.5l-0.2-0.1l-0.1,0.2l0.2,0.2L70.6,56.5L70.6,56.5z M70.6,39.9L70.6,39.9
	L70.4,40l0.1,0.1h0.1L70.6,39.9z M70.6,54.9L70.4,55l0.1,0.1L70.6,54.9z M70.8,37.5h-0.3l0.2,0.1L70.8,37.5z M70.7,38l0.2-0.2
	l-0.3,0.2L70.7,38z M71.2,38.3L71,38.1l-0.1,0.2v-0.1l-0.1,0.2l0.2,0.2v-0.1l0.2,0.2l0.3-0.3L71.2,38.3z M71,38.4L71,38.4l-0.2,0.1
	l0.1,0.1l0,0L71,38.4L71,38.4z M71.3,45.8L71.3,45.8L71,45.9l0,0.1h0.2h0.3h0.2l0.1,0.1v-0.1h0.1l-0.2-0.3h-0.2l-0.3-0.1L71.3,45.8z
	 M71.2,57.9H71l0,0.1l0.1,0.1l0.1,0.1h0.2L71.2,57.9z M71.4,56.1l-0.2-0.2L71,56.3l0.3,0.4l0.2-0.3L71.4,56.1z M71.2,38.5H71v0.1
	v0.1l0.1-0.1L71.2,38.5z M71.4,55.4l-0.2-0.1l-0.1,0.1l0.1,0.1L71.4,55.4L71.4,55.4z M71.2,45.8l0.2,0.2h0.1l0.1-0.1l0,0v-0.1
	L71.2,45.8L71.2,45.8z M71.4,53.9L71.4,53.9L71.4,53.9l0,0.2l0.2-0.1L71.4,53.9z M71.5,54.9l-0.2-0.1V55l0.1,0.2l0.2-0.1L71.5,54.9z
	 M71.6,36.9h-0.2L71.4,37h0.2l0.1,0.1L71.6,36.9z M71.5,46.4l-0.1,0.1L71.5,46.4L71.5,46.4z M71.7,45.2l-0.3,0.1l0.3,0.1V45.2z
	 M71.8,46.2l-0.3-0.1v0.3L71.8,46.2L71.8,46.2z M71.8,37.4l0.4-0.2l0.1-0.3v-0.1l-0.2,0.1L72,37l-0.4,0.2L71.8,37.4z M72.2,53.4
	l-0.1-0.2l-0.3-0.1l-0.1,0.2v0.4l0.2,0.2l0.4-0.3L72.2,53.4z M72.2,46H72l-0.1,0.1l0.1,0.1h0.2L72.2,46z M72.2,57.6h-0.1l0.1,0.2
	h0.1L72.2,57.6z M72.2,45.8l0.1-0.2L72,45.6L72.2,45.8z M72.4,54.1L72.3,54l-0.1,0.2l0.1,0.1h0.2L72.4,54.1z M72.7,53.1h-0.2
	L72.4,53l-0.2-0.1l-0.1,0.2l0.2,0.2l0.1-0.1l0,0l0.2,0.2l0.1-0.1L72.7,53.1z M72.7,51.1l-0.1,0.3l-0.1,0.1l-0.1,0.2v0.1l0.3-0.2
	L72.7,51.1z M72.5,53.1l-0.1,0.1L72.5,53.1L72.5,53.1z M73.3,36.6h-0.2h-0.4L72.6,37l0.1,0.1l0.1,0.1H73v-0.1l0.3,0.2l0.1-0.1v-0.3
	v-0.1L73.3,36.6z M72.8,55.4L72.8,55.4l-0.1,0.2h0.2L72.8,55.4z M72.8,54.4h-0.2l0.1,0.1v0.1h0.1l0,0v-0.1h0.1L72.8,54.4L72.8,54.4
	L72.8,54.4L72.8,54.4z M72.8,36.8l-0.2,0.1v0.1l0,0h0.1l0.2,0.1L72.8,36.8z M72.8,49.8L72.8,49.8L72.6,50l0.1,0.1l0.3,0.1L72.8,49.8
	z M73.4,37.6h-0.2v0.1h0.2L73.4,37.6z M73.6,45.7h-0.2l-0.1,0.1l0.1,0.2h0.2L73.6,45.7z M73.7,37l-0.3,0.1l0.1,0.3l0.2-0.1L73.7,37z
	 M73.7,45.2l0.2-0.1L73.7,45.2l-0.1-0.1L73.7,45.2z M73.7,38.5L73.7,38.5l0,0.2L73.7,38.5z M74.3,38.5l-0.2,0.2v-0.3L74,38.5v0.1
	h0.1h0.1l0.1,0.1h-0.1V39l0.1-0.1l0,0l0.1,0.1h0.1v-0.2v-0.2h-0.1L74.3,38.5z M74.3,38.2h-0.2L74,38.3h0.1L74.3,38.2L74.3,38.2z
	 M74.3,49.5h-0.1v0.1l0.2,0.1L74.3,49.5z M74.5,37.2V37h-0.4v0.3l0.2,0.1h0.3L74.5,37.2z M74.4,38.8L74.4,38.8V39h0.1L74.4,38.8z
	 M74.9,51l-0.1,0.2l0.1,0.1L74.9,51z M75.1,49.4L75,49.3l-0.1,0.1l0.2,0.1l0.2-0.1L75.1,49.4z M75.1,46.8L75,46.7L75.1,46.8L75,47
	l0.2-0.1L75.1,46.8z M75.2,37.8L75.2,37.8L75,37.9l0.1,0.1l0.1-0.1L75.2,37.8z M75.5,48.6l-0.2-0.1l-0.2,0.3l0.2,0.1l0.1,0.2v0.1
	l0.2-0.4L75.5,48.6L75.5,48.6z M75.5,45.4l-0.3-0.1l0.2,0.3l0.1-0.1L75.5,45.4z M75.4,37.3l-0.2-0.1v0.1l0.2,0.1L75.4,37.3z
	 M75.7,39.2h-0.2l0.1,0.2h0.2L75.7,39.2z M76,46.2v-0.3h-0.2l0,0h-0.1l-0.1,0.2l0.1,0.4l0.4-0.1L76,46.2z M75.7,37.6L75.7,37.6
	l-0.2,0.1l0.1,0.1h0.2L75.7,37.6z M75.9,45.6h-0.1l-0.1,0.2h0.1l0.1-0.1V45.6z M75.9,39.1L75.9,39.1L75.9,39.1l-0.1-0.4l-0.1,0.1V39
	l-0.1,0.1l0.1,0.2h0.2L75.9,39.1z M76.1,48.1l-0.3-0.2l-0.1,0.2l0.1,0.2l0.2-0.1L76.1,48.1z M76.1,38L76.1,38l-0.2,0.1v0.1l0.1,0.1
	L76.1,38z M76.2,48.5L76.2,48.5l-0.2,0l0.1,0.2L76.2,48.5z M76.4,47.1l-0.2,0.1l0.1,0.1h0.3L76.4,47.1z M76.3,37.3L76.3,37.3l0,0.3
	h0.2L76.3,37.3z M76.5,45.3h-0.2l-0.1,0.3l0.1,0.1l0.3-0.2V45.3z M76.7,44.8l-0.2-0.1l0.1,0.2l0.1,0.1L76.7,44.8L76.7,44.8z
	 M76.7,46.6L76.7,46.6l-0.1,0.2l0.1,0.1v-0.1L76.7,46.6z M77,43.3l-0.2,0.1v0.2l0.2-0.1V43.3z M77,44.1l-0.1,0.1l-0.1,0.2l0.3-0.1
	L77,44.1z M77.1,45.5L77,45.4v0.1l0.1,0.2L77.1,45.5L77.1,45.5z M77.2,41.4L77.2,41.4L77,41.5l0,0h0.2L77.2,41.4z M77.8,42.3
	L77.8,42.3l-0.4-0.1l-0.1,0.1v0.3l0.3,0.1l0.1-0.1L77.8,42.3z M77.6,41.4h-0.2l-0.1,0.2l0.1,0.1l0.2-0.1L77.6,41.4z M77.6,44.4
	l-0.2-0.1v0.2h0.1h0.2L77.6,44.4z M77.8,40.2L77.8,40.2L77.8,40.2L77.8,40.2z M78.3,40.8L78,40.6l-0.2,0.1V41l0.1,0.1l0.3-0.2
	L78.3,40.8z M78.2,41.5h-0.2L78,41.7l0.1,0.2l0.1-0.2L78.2,41.5z M78.2,42.3L78.2,42.3L78,42.4l0.2,0.1h0.1L78.2,42.3z M78.5,39.6
	h-0.2v0.2l0,0h0.2V39.6z M78.7,42.1l-0.2,0.1l-0.1,0.1l0.2,0.2h0.2L78.7,42.1z M79,45.7l-0.3-0.1l-0.2,0.1v0.4l0.3-0.2l0.3,0.1
	L79,45.7z M78.6,40.5l0.4,0.3l0.2-0.1l0.1,0.1l0.3-0.4v-0.2L79.4,40V40l-0.3-0.1H79h-0.3l-0.1,0.4L78.6,40.5z M78.9,39.8l-0.3-0.1
	l-0.1,0.2l0.1,0.1l0.1-0.1l0,0l0.3,0.1L78.9,39.8z M79.1,42.1l0.1-0.3l0,0L79,41.9l-0.1-0.1v0.3H79.1L79.1,42.1z M79,43.1l0.1-0.2
	l0,0L79,43.1z M79.5,46.4l-0.2-0.1v0.2h0.2V46.4z M79.9,45.7h-0.4l-0.2,0.4l0.1,0.1L80,46L79.9,45.7z M79.7,45.3L79.7,45.3l-0.1,0.2
	h0.2L79.7,45.3z M79.9,40.2l-0.1-0.1L79.9,40.2l0.2,0.1L79.9,40.2z M80.7,45.7L80.7,45.7l-0.3,0.2l0.1,0.1h-0.2h0.1v0.2l0.2-0.1V46
	h0.1l0.2-0.1L80.7,45.7z"/>
<path class="st0" d="M90.2,55l0.3,0.1l0.3-0.1l0,0l0.5-0.1h0.3l0,0l0.3-0.1l0.3-0.1l0.1,0.1l0.3-0.2l0.2-0.2l0.3-0.1l0.1-0.1h0.2
	l0.2-0.2l-0.1-0.3l0.4-0.1h0.1v-0.1l0.4-0.3l0.2-0.3l0.1-0.1l0.1-0.2l0.1-0.1l0.2-0.2l0.2-0.4l0.1-0.1l0.2-0.1l0.1-0.4h0.3l0.1-0.5
	l0.1-0.1v-0.2l0.2-0.2l0.1-0.2l0.3-0.4v-0.2l0.2-0.3v-0.1l0.2-0.1l0.2-0.6v-0.1l0.3-0.4l0.1-0.2l0.2-0.3l0-0.4l0.1-0.1v-0.3l0.3-0.3
	l0.1-0.2l0.3-0.4l0,0l0.1-0.2l0.3-0.7l0.1-0.3l0.2-0.1v-0.2l0.4-0.3v-0.1l0.1-0.2l0.4-0.5l0.1-0.1l0.1-0.3l0.2-0.4l0.2-0.2l0.3-0.4
	v-0.1l0.3-0.4l0.1-0.1l0.3-0.4h-0.1l0.4-0.3v-0.1v-0.1l0.5-0.3h0.1l0.3-0.3l0.4-0.1l0.3,0.1l0.1,0.1l0.5-0.1l0.2,0.2l0.1,0.1
	l0.1,0.3l-0.2,0.3l-0.2,0.1v0.3l-0.3,0.4l-0.2,0.3l-0.2,0.4l0.1,0.2l-0.5,0.5h-0.1l-0.2,0.4l-0.1,0.3l-0.2,0.3v0.1l-0.3,0.6
	l-0.1,0.1v0.3l-0.4,0.1v0.6l-0.1-0.1l-0.2,0.6l-0.1,0.4l-0.2,0.2l-0.2,0.1v0.3l-0.2,0.5l-0.1,0.2h0.1l-0.4,0.6v0.1l-0.2,0.2
	l-0.1,0.3v0.3v0.2l-0.3,0.4v0.3l-0.1,0.2v0.1l-0.2,0.4l-0.1,0.2l-0.2,0.3l-0.1,0.3l-0.1,0.3l-0.1,0.2L99,52.2v0.1L99,52.5l-0.3,0.4
	L98.6,53v0.1l-0.3,0.5l0.1-0.1l-0.3,0.4L98,54.1l-0.2,0.3l-0.1,0.1l-0.1,0.3l-0.1,0.1l-0.2,0.4l0,0l-0.1,0.1l-0.2,0.5L96.8,56h-0.1
	l-0.2,0.4v0.1l-0.2,0.1l-0.2,0.4L96,57l-0.1,0.1l-0.2,0.2l-0.2,0.1l-0.1,0.2l-0.1,0.1L95,57.9L94.9,58l-0.2,0.1l-0.1,0.1l-0.2,0.1
	l-0.3,0.2L94,58.5h-0.1l-0.2,0.2H93l-0.1,0.1h-0.2L92.4,59h-0.2l-0.1,0.1h-0.4h-0.1l-0.4,0.1L91.1,59l-0.3,0.2h-0.5h-0.2l-0.3-0.1
	h-0.4h-0.2H89h-0.2h-0.3L88.2,59h-0.3h-0.1l-0.4-0.2h-0.2l0,0l-0.4-0.2h-0.1l-0.3-0.2L86.3,58l-0.2-0.2l-0.2-0.1v-0.4l-0.2-0.1
	l-0.1-0.3l-0.1-0.1h-0.1L85.2,56v-0.2v-0.2v-0.4l0.1-0.4v-0.1l0.2-0.4v-0.3l0.1-0.2l-0.1-0.1l0.4-0.3l0.1-0.1l0.3-0.2l0.2-0.2V53
	h0.2l0.5,0.1l0.2,0.2l0.1,0.2l0.1,0.3l0.1,0.2l0.4,0.4h0.1l0.3,0.3l0.1,0.1l0.3,0.1h0.1l0.2,0.1h0.4h0.4L90.2,55L90.2,55z
	 M86.6,54.3l-0.2,0.1v0.1l0,0l0.1,0.1L86.6,54.3z M86.7,56.8L86.7,56.8V57V56.8z M86.7,57.9L86.7,57.9L86.7,57.9z M86.8,54.6
	L86.8,54.6l-0.1-0.2l-0.1,0.4l0.2,0.2l0,0l0.1,0.3l0.3-0.2v-0.2L87,54.8v-0.1L86.8,54.6z M86.8,54.8l0.1,0.2l0.2-0.1l0,0l-0.3-0.2
	V54.8z M86.9,56.7h-0.1l0.1,0.3H87L86.9,56.7z M87.5,55.8l-0.3-0.1v0.1v0.4l0.1,0.2l0.1-0.2h0.3L87.5,55.8z M87.6,57.3l-0.3,0.1v0.3
	l0.2,0.1h0.1L87.6,57.3z M87.5,55.3h-0.1v0.1v0.1l0.1,0.1V55.3z M87.7,54.9L87.7,54.9L87.7,54.9L87.7,54.9z M87.7,54.5l0.2,0.1
	l-0.2-0.2l0,0L87.7,54.5z M88.1,56.8L87.7,57v0.2v0.2l0.4-0.3L88.1,56.8z M88.3,55.6l-0.1-0.1v0.1l0.2,0.3l0.1-0.2L88.3,55.6z
	 M88.4,57.8L88.4,57.8l-0.2,0l0.1,0.2L88.4,57.8L88.4,57.8z M88.8,57.3l-0.2-0.1l0.1,0.2h0.1L88.8,57.3z M89.1,56.6l-0.2,0.1v0.2
	h0.1l0.2,0.1L89.1,56.6z M89,55.8l0.1,0.2L89,56.1l0.2,0.2l-0.1,0.1l0.1,0.1l0.1-0.1v-0.1h-0.1l0.2-0.1l0.1-0.1v-0.2l-0.1-0.1
	l-0.3-0.1L89,55.8L89,55.8z M89.2,58.4l-0.1-0.1L89,58.5h0.2l0,0L89.2,58.4z M89.5,56.6h-0.2l-0.2,0.1l0.2,0.1h0.2V56.6z M89.4,58.6
	l-0.1-0.1h-0.1L89.4,58.6L89.4,58.6L89.4,58.6z M89.3,56.3L89.3,56.3L89.3,56.3L89.3,56.3z M89.7,58.1l-0.2-0.1v0.1h0.1L89.7,58.1z
	 M103,53.3l-0.1,0.6l0.1,0.2l0.1,0.3l0.1,0.2h0.2l0.3,0.3l0.1,0.1l0.4,0.2h0.4h0.2l0.3,0.2l0.5-0.2l0.2-0.1l0.2-0.1l0.1-0.1l0.2-0.1
	l0.2-0.2l0.2-0.2v-0.1L107,54l0.2-0.4v-0.2l0.2-0.5v-0.4v-0.1v-0.3l0.1-0.2v-0.4l-0.2-0.5l-0.1-0.2v-0.2l-0.1-0.4L107,50l-0.1-0.3
	v-0.3l-0.3-0.2l-0.1-0.2l-0.1-0.1l-0.2-0.2l-0.1-0.2v-0.1l-0.2-0.2l-0.5-0.1l-0.1-0.2l-0.3-0.1l-0.4-0.1l-0.3-0.1v-0.3l-0.4-0.2
	l-0.2-0.3l-0.1-0.3l-0.1-0.4l0,0v-0.3v-0.2v-0.2l0.2-0.2l0.3-0.3l0.1-0.1l0.1,0.1l0.3,0.2l0.2,0.2l-0.1,0.1l0.4,0.1l0.2,0.1l0.2,0.1
	l0.4,0.2l0.3-0.1h0.2l0.1-0.1h0.3h0.9l0.2-0.1h0.1l0.3-0.2l0.3-0.3l0,0l0.3-0.4l0.2-0.2l-0.1,0.1l0.3-0.4l0.1-0.2l0.3-0.1v-0.5
	l-0.1-0.1l0.1-0.2l0.1-0.4v-0.5V42v-0.1l-0.2-0.8l-0.1-0.1v-0.2l-0.1-0.3v-0.1l-0.1-0.1l-0.2-0.3l-0.2-0.2l0,0l-0.2-0.2l-0.3-0.2
	v-0.1l-0.3-0.2l-0.2-0.2l-0.2-0.1l-0.3-0.2l-0.2,0.1l-0.3-0.3h-0.2l-0.3-0.1l-0.2-0.1l-0.4-0.1l-0.3-0.2l-0.3-0.1h-0.3l-0.3-0.1
	h-0.2l-0.4-0.1l-0.1,0.2l-0.8-0.3l-0.1,0.1h-0.7l-0.4-0.1l-0.2,0.1l-0.4-0.1l-0.3,0.1H101l-0.4-0.1l-0.3,0.1l-0.2,0.1l-0.3-0.2
	L99.5,38l-0.3,0.1h-0.1l-0.4,0.2l-0.3,0.1l-0.1-0.2l-0.5,0.4l0,0l-0.3,0.1L97.1,39l-0.2,0.1l-0.2,0.2l-0.2,0.1l-0.2,0.2h-0.1
	l-0.3,0.2L95.7,40v0.1l-0.3,0.2l-0.1,0.2L95,40.7l-0.1,0.1L94.8,41v0.2l-0.3,0.3l-0.1,0.1l-0.1,0.3L94.2,42l0.1,0.2L94,42.6
	l-0.1,0.1V43v0.2l-0.1,0.2l-0.1,0.2V44l0.1,0.2l-0.1,0.5l0.1,0.4l0.1,0.1l0.1,0.2l0.1,0.3l0.1,0.3l0.1,0.1l0.1,0.3l0.2,0.3v0.2
	l0.1,0.1l-0.5,0.3l-0.1,0.1h-0.3l-0.1,0.1l-0.3-0.1l-0.2,0.1h-0.3h-0.2l-0.2-0.1h-0.1l-0.3,0.1l-0.4-0.2l-0.1-0.1l-0.5-0.2L91,46.8
	l-0.2-0.1l-0.1-0.2l-0.3-0.2l-0.1-0.3h-0.1L90,45.5l-0.1-0.2v-0.5l-0.1-0.1l-0.1-0.6V44l-0.1-0.6l0.1-0.1l-0.1-0.2l0.1-0.3v-0.2
	v-0.1v-0.2v-0.3v-0.1l0.1-0.2v-0.2v-0.1l0.1-0.3l0.2-0.3v-0.1l0.1-0.2l0.1-0.1l0.1-0.3l0.2-0.2l0,0l0.2-0.3l0.2-0.2v-0.2l0.3-0.3
	l0.1-0.2h0.1l0.2-0.3l-0.1-0.2l0.4-0.1l0.2-0.2v-0.1h0.1l0.4-0.4h0.2l0.2-0.2v-0.1l0.4-0.1l0.2-0.3l0.3-0.1l0.3-0.2l0.1-0.2l0.4-0.1
	h0.1l0.4-0.2h0.1l0.5-0.3l0.2-0.1v0.1l0.5-0.3l0.5-0.1l0.2-0.1h0.4l0.6-0.2h0.3l0.6-0.2l0.3,0.1l0.2-0.1l0.2,0.1l0.6-0.2l0.4,0.1
	l0.1,0.1h0.7l0.5-0.2l0.4,0.2h0.3v-0.3l0.8,0.3h0.3l0.6,0.1h0.4h0.1h0.5l0.3,0.2h0.5l0.1,0.1h0.5h0.1l0.5,0.2h0.4l0.3,0.2l0.2,0.1
	l0.3,0.1h0.2l0.2,0.1l0.3,0.1l0.2,0.2l0.4,0.2v0.1h0.4l0.3,0.3l0.2-0.1l0.2,0.3l-0.1-0.1l0.4,0.4h0.2l0.2,0.3l0.1,0.1l0.2,0.3
	l0.1,0.1l0.1,0.1l0.2,0.3l0.1,0.1h0.1l0.1,0.1l0.1,0.3l0.1,0.2l0.1,0.1v0.2l0.2,0.3v0.1l0.1,0.3l0.1,0.1l0.1,0.2l-0.1,0.3l0.2,0.2
	v0.2v0.2l0,0v0.4l0.1,0.2l-0.1,0.3l-0.1,0.2l-0.1,0.1v0.5v0.3v0.2l-0.2,0.4l-0.1,0.1l-0.1,0.3l-0.1,0.3l-0.1,0.2l-0.1,0.1l-0.2,0.5
	l-0.2,0.2l-0.1,0.1l-0.2,0.2l-0.2,0.1l-0.2,0.3l-0.2,0.2l-0.2,0.1l-0.3,0.2h-0.2l-0.2,0.2l0,0l-0.6,0.2l-0.2,0.2h-0.3l-0.3,0.2
	l-0.1-0.1l-0.4,0.3h-0.5l0.1,0.3v0.1l0.2,0.2l0.2,0.2l0.2,0.1l0.1,0.1l0,0l0.4,0.4l0.1,0.3v0.1l0.1,0.3l0.2,0.2l0.2,0.2l0.1,0.3
	l0.2,0.3v0.1l0.2,0.3v0.1l0.1,0.7v0.1l0.1,0.5l-0.1,0.2l0.1,0.1l-0.1,0.6v0.1v0.4l-0.2,0.2l-0.1,0.3l-0.1,0.3v0.2l-0.1,0.2l-0.1,0.3
	l-0.1,0.2l-0.2,0.3l-0.2,0.2l-0.1,0.1l-0.2,0.1v0.2l-0.3,0.3l-0.2,0.2l-0.2,0.1l-0.3,0.2l-0.1,0.1l-0.2,0.2l-0.3,0.1h-0.1l-0.3,0.2
	H107h-0.4l-0.4,0.2h-0.2h-0.2l-0.3,0.1h-0.1h-0.1l-0.4,0.1h-0.2l-0.2-0.1l-0.3,0.1h-0.1l-0.4-0.1l-0.2,0.1l-0.4-0.2H103v0l-0.6-0.2
	l-0.2-0.2l0,0l-0.4-0.1l-0.2-0.2l-0.1-0.2l-0.2-0.1l-0.1-0.3l-0.2-0.1l-0.2-0.3l-0.2-0.4l-0.1-0.1v-0.2l-0.1-0.3v-0.5l-0.1-0.3v-0.3
	l-0.1-0.2l0.2-0.4l0.1-0.2l-0.1-0.2l0.3-0.3v-0.2l0.2-0.3l0.2-0.1h0.1l0.3-0.2l0.4-0.1l0.2-0.1l0.4,0.2l0.2,0.4L103,53.3z
	 M89.9,58.8l-0.1-0.2l-0.1,0.2H89.9z M90.2,56.8h-0.1l-0.2,0.2v0.1l0.2,0.2l0.1,0.1l0.1-0.2l0.2-0.1v-0.1L90.2,56.8z M90.1,55.6
	h-0.2v0.1l0.1,0.1l0.1-0.1L90.1,55.6z M90.2,43.2L90.2,43.2L90,43.3L90.2,43.2L90.2,43.2L90.2,43.2z M90.4,57.4l-0.2,0.1l0.1,0.2
	L90.4,57.4z M90.6,42.4l-0.1-0.1v-0.1l-0.1,0.2l0.2,0.1L90.6,42.4l-0.1,0.2l0.1,0.1h0.3v-0.3l-0.2-0.1L90.6,42.4z M90.6,57.8
	l-0.2,0.1l0.1,0.1L90.6,57.8z M91,57.3l-0.2-0.1l-0.3,0.1l-0.1,0.2l0.3,0.3l0.2-0.1l0.2-0.1L91,57.3z M90.7,44.2l-0.2-0.1v0.3
	l0.1,0.3l0.2-0.2L90.7,44.2z M91,42.1l0.1-0.3l0.1-0.2l-0.1-0.4L91,41l-0.1,0.5v0.1l-0.2,0.1l-0.1,0.4L91,42.1z M90.8,56.1L91,56
	l-0.2-0.1L90.6,56L90.8,56.1z M90.6,42.4L90.6,42.4L90.6,42.4L90.6,42.4z M90.9,56.9h0.2l0.2-0.1h0.2l0.1-0.4l-0.1-0.2V56l-0.3-0.1
	h-0.2v0.3h-0.2l-0.2,0.2v0.2l0.1,0.3l-0.1,0.1l0.2,0.1H91L90.9,56.9z M90.8,45.6l-0.1,0.1v0.2L90.8,45.6z M90.8,56.9L90.8,56.9v-0.1
	l0,0V56.9z M91.5,56.2L91.5,56.2h-0.4H91l0.2,0.2h0.3L91.5,56.2z M91.4,39.8L91.4,39.8L91.1,40l0.1,0.2l0.1-0.2L91.4,39.8z
	 M91.5,58.2l-0.3,0.1v0.1h0.3L91.5,58.2z M91.5,44.4h-0.2l-0.1,0.3v0.1l0.4-0.1L91.5,44.4z M91.5,46h-0.2v0.1l0.1,0.1l0.2-0.1
	L91.5,46z M91.5,42.1L91.5,42.1l-0.2,0.1l0.2,0.3l0.1-0.1L91.5,42.1z M92.8,40.9h-0.3l-0.2,0.2l-0.1,0.3h-0.1l-0.1-0.3h0.2l0.2-0.3
	v-0.2l0,0l-0.1-0.1h0.1l-0.1-0.2h-0.1V40h-0.3l0,0l-0.2-0.1l-0.3,0.2v0.1h-0.1v0.3v0.3l0.4,0.4H92v0.1l0.1,0.3h0.1h0.1l0.4,0.1
	l0.2-0.1l0.1-0.1L92.8,40.9z M92,57l-0.2,0.1L91.5,57v0.2l0.2,0.3h0.2l0.1-0.1L92,57z M92.4,45.7l-0.2,0.1l0,0l-0.1-0.1h-0.3h-0.2
	L91.5,46l0.3,0.2H92l0.2,0.2h0.2v-0.1v-0.1l-0.1-0.2l0.1-0.1L92.4,45.7z M91.6,40.2L91.6,40.2l-0.1,0.2l0,0L91.6,40.2L91.6,40.2z
	 M91.9,43.2l-0.3,0.1v0.2l0.1,0.1l0,0l0,0l-0.1,0.2l0.2,0.1l0,0l0.1,0.1H92l0.2-0.1l0.1-0.1l0.2-0.1v-0.3h-0.5v0.1H92L91.9,43.2z
	 M91.9,43.5h-0.2v0.1l0.1,0.1l0.1-0.1L91.9,43.5z M91.9,45L91.9,45l-0.1,0.2h0.1l0.1-0.1L91.9,45z M92.4,42.8l-0.1-0.3h-0.2h-0.3
	l-0.2,0.3v0.2L92,43h0.2h0.2L92.4,42.8z M92.1,44.5L92.1,44.5l-0.2,0.1l0.2,0.1l0.2-0.1L92.1,44.5z M92.1,41.1L92.1,41.1L91.9,41
	v0.2L92.1,41.1z M92,58.5h-0.1H92L92,58.5z M92.3,40.2l-0.2-0.1l0,0L92,40L92,40.2l0.1,0.1L92,40.5l0.3,0.1l0.1-0.1v0v-0.1l-0.1-0.1
	l0,0L92.3,40.2z M92.2,45.8L92.2,45.8L92,46.2h0.2l0.1-0.1V46L92.2,45.8z M92.1,41.4L92.1,41.4L92.1,41.4l0,0.1L92.1,41.4L92.1,41.4
	z M92.4,39.6h-0.2l-0.1,0.2l0.2,0.1l0.2-0.1L92.4,39.6z M92.3,39.4l-0.2-0.1v0.2h0.1L92.3,39.4z M92.2,41.4L92.2,41.4L92.2,41.4
	L92.2,41.4L92.2,41.4z M92.4,44.4L92.4,44.4l-0.1,0.2l0,0h0.2L92.4,44.4z M92.7,42h-0.4l-0.1,0.2l0.2,0.3l0.4-0.2L92.7,42z
	 M92.7,44.6L92.7,44.6L92.7,44.6h-0.2h-0.1v-0.1l-0.2,0.3l0.1,0.1l0.5-0.2L92.7,44.6z M92.5,38.4h-0.2l0.1,0.2l0.2,0.1v0.1
	L92.5,38.4L92.5,38.4L92.5,38.4z M92.9,42.6l-0.3-0.1l-0.1,0.4h0.1l-0.2,0.3l0.2,0.2h0.1l0.3-0.1V43l0.1,0.1L92.9,42.6z M92.8,56.1
	L92.8,56.1l-0.3,0.2l0.2,0.1h0.2L92.8,56.1z M92.7,41.1L92.7,41.1l-0.2,0.1l0.1,0.1l0,0L92.7,41.1z M92.7,44.6L92.7,44.6h-0.1v0.2
	h0.1L92.7,44.6z M93,46.4h-0.1l-0.1,0.1l0.2,0.1l0.1,0.1L93,46.8l0.2-0.1v-0.1l-0.1-0.1h-0.1L93,46.4z M93,39.6h-0.2v0.1h0.1
	l0.2,0.1L93,39.6z M93,38.9L93,38.9l-0.2,0.2H93L93,38.9z M93.1,40.9h-0.2V41l0.1,0.1H93L93.1,40.9z M93.2,55.2l-0.2,0.1L93.2,55.2
	L93.2,55.2z M93.3,45.1l-0.2,0.1L93,45.3l0.1,0.1l0.2-0.2L93.3,45.1z M93.3,55.4h-0.2v0.1l0.1,0.1L93.3,55.4z M93.3,43.3l-0.1,0.3
	l0.1,0.1l0.1-0.1v-0.2L93.3,43.3z M93.4,40.2l-0.2,0.1v0.2l0.1-0.1L93.4,40.2z M93.6,45.5L93.6,45.5l-0.1,0.2h0.2L93.6,45.5z
	 M94,39.7h-0.2V40v0.1h-0.3v0.1l-0.1,0.3l0.1,0.1l0.1,0.1l0.3-0.2l0.1-0.3v-0.1l0.2-0.1L94,39.7z M93.7,56.6L93.7,56.6l-0.2,0.2h0.2
	L93.7,56.6z M93.7,38.3h-0.1l0.1,0.2h0.1V38.3z M93.8,41.7l-0.1-0.1l-0.1,0.1l0.1,0.2L93.8,41.7z M93.8,37.9L93.6,38v0.1h0.1h0.3
	L93.8,37.9z M94,54.7l-0.2-0.1l-0.1,0.2l0.2,0.2L94,54.7L94,54.7z M93.9,55.6L93.9,55.6l-0.2,0.1h0.2H94L93.9,55.6z M93.9,40
	L93.9,40l0.1,0.1l0,0L93.9,40z M94.1,37.3l0.1-0.2V37L94,37.2L94.1,37.3z M94.4,38.8h-0.2L94.1,39l0.1,0.1l0.2-0.1L94.4,38.8z
	 M94.4,37.8L94.4,37.8l-0.2,0.1l0,0V38l0,0l0,0l0,0h0.3L94.4,37.8L94.4,37.8z M94.3,37.2L94.3,37.2L94.3,37.2l-0.1,0.3L94.3,37.2
	L94.3,37.2z M94.3,40.4L94.3,40.4l-0.1,0.2l0,0L94.3,40.4L94.3,40.4z M94.8,56.6l-0.1-0.2l-0.1-0.1l-0.2-0.1l-0.2,0.1l0.2,0.5
	l0.2-0.1L94.8,56.6z M95.1,54h-0.3h-0.2v0.1h-0.3v0.3l0.2,0.2l0.2,0.3l0.1-0.1l0.3-0.1v-0.2l0.1,0.1l0.2-0.1v-0.1h0.2v-0.2l0,0
	l0.2,0.1l0.3-0.1l0.3-0.1l-0.2-0.4h-0.3h-0.3v0.2L95.7,54L95.5,54v0.2v-0.1L95.3,54l-0.1,0.3L95.1,54z M94.6,38.9l-0.1-0.1v0.1v0.1
	h0.2L94.6,38.9z M95.7,37.7h-0.5V38h-0.1v0.1l0,0l0,0l-0.1,0.2l0.1,0.1l-0.2,0h-0.1l0,0h-0.1l0.1,0.1v0.1L95,39l0.2-0.3v-0.1h0.1
	l0.2-0.1l-0.2-0.1l0.4-0.1L95.7,37.7z M94.9,38.4L94.9,38.4L94.9,38.4l0,0.2L94.9,38.4L94.9,38.4z M95,39.2L95,39.2l-0.2,0.2
	l0.1,0.1L95,39.2z M95.2,53.3L95.2,53.3l-0.1,0.2h0.1h0.1L95.2,53.3z M95.3,38L95.3,38l-0.2,0.1h0.1l-0.1,0.1h0.1v0.1L95.3,38z
	 M95.8,38.8l-0.4-0.2l-0.1,0.2L95.2,39v0.2l0.4-0.2L95.8,38.8L95.8,38.8z M95.4,37.2l-0.1,0.1l0.1,0.1l0.1-0.1L95.4,37.2z
	 M95.6,52.3h-0.1l0,0l0.1-0.1h-0.1l-0.1,0.2h0.1v0.1l0.1,0.1L95.6,52.3z M95.8,36.3l-0.1,0.1l-0.1,0.1h0.1L95.8,36.3L95.8,36.3z
	 M95.6,54.1L95.6,54.1L95.6,54.1L95.6,54.1z M95.8,37.2l-0.2,0.1v0.1l0.2,0.2l0.1-0.1L95.8,37.2z M96.8,52.6h-0.1l0.1-0.2l0.2,0.3
	l0.2-0.1l-0.1-0.5h-0.3v0.1L96.7,52l-0.1-0.3l-0.2-0.1l-0.3,0.3L96,52.1l-0.1,0.2l-0.1,0.1l-0.1,0.1l0.1,0.3l0.3,0.1l0.1,0.1
	l0.2-0.2l0,0l0.1,0.1h0.2L96.8,52.6z M95.9,36.7L95.9,36.7L95.9,36.7L95.9,36.7L95.9,36.7l0.2,0.1h0.1l0.3-0.1v-0.2l-0.2-0.1h0.1
	v-0.1h-0.1l-0.1,0.2v0.1L95.9,36.7z M95.9,36.7L95.9,36.7L95.9,36.7L95.9,36.7z M96.6,37.9l-0.2,0.1L96.2,38l0.1-0.1v-0.1l-0.2-0.2
	V38v0.1l0,0l0.2,0.1h0.2L96.6,37.9z M96.2,38.1L96.2,38.1L96.2,38.1L96.2,38.1z M96.6,52.7l0.1-0.1h-0.1L96.6,52.7L96.6,52.7z
	 M96.6,50.5l-0.1,0.1v0.1l0,0h0.1L96.6,50.5z M97.4,51.2h-0.3H97l-0.1,0.3h-0.1l0,0h-0.1l0,0h-0.1v0.1h-0.1l0.1,0.1v0.2l0.3,0.2
	l0.3-0.2l0,0l0.3-0.2L97.4,51.2z M96.8,51.5L96.8,51.5h-0.2v0.1l0,0L96.8,51.5L96.8,51.5z M97.1,53.5v-0.3l-0.3,0.1l-0.1,0.2
	l0.2,0.3L97.1,53.5z M96.9,52.2l-0.1,0.2l0,0L96.9,52.2L96.9,52.2z M97.1,37.7L97.1,37.7L97.1,37.7L97.1,37.7L97.1,37.7L97.1,37.7
	l0,0.1l0,0.2l0.2-0.1L97.1,37.7L97.1,37.7L97.1,37.7z M98,36.6h-0.1l-0.2,0.1l-0.3,0.2l-0.1-0.1l-0.1-0.1l-0.2,0.2l0.4,0.1l0,0
	l0.3,0.1l0.3,0.1v-0.1v-0.2l0.2-0.1L98,36.6z M97.2,53.9H97v0.2h0.1L97.2,53.9z M97.2,52.7L97.2,52.7L97,52.8V53l0.2-0.1L97.2,52.7z
	 M97.5,50v-0.1l-0.2,0.2L97.5,50z M97.5,37.5h-0.1l-0.1,0.1v0.1h0.2L97.5,37.5z M97.7,53.2l-0.2-0.1l0,0l0.1,0.1H97.7z M97.9,48.6
	l-0.2-0.1l-0.1,0.2l0.2,0.1h0.1L97.9,48.6z M97.9,37.9h-0.2l0.1,0.2l0.1,0.1L97.9,37.9z M97.7,36.8L97.7,36.8l0.1-0.1L97.7,36.8
	L97.7,36.8z M98.2,49.1h-0.1L98,49.3h0.1h0.2L98.2,49.1z M98.2,35.7L98,35.8l0.1,0.1h0.2L98.2,35.7z M98.2,50.9L98,50.8v0.3
	L98.2,50.9L98.2,50.9z M98.5,51.7l-0.1-0.1l-0.1,0.1l0.1,0.1L98.5,51.7L98.5,51.7z M98.3,47.4L98.3,47.4L98.3,47.4L98.3,47.4z
	 M98.7,37.7h-0.1l-0.2,0.2V38L98.7,37.7L98.7,37.7z M98.5,36.2l0.2,0.1l-0.1-0.2L98.3,36v0.1L98.5,36.2z M98.5,37.4L98.5,37.4
	l-0.2,0.1l0.1,0.2l0.2-0.2v0.1h0.2v-0.3h-0.2L98.5,37.4L98.5,37.4z M98.4,50.1l0.1,0.2l0.1,0.1v0.2l0.1-0.2l0.1-0.2l0.1-0.2h-0.1
	l-0.2,0.3h-0.1l0.1-0.1l0.1-0.2L98.4,50.1L98.4,50.1z M98.9,48.5l-0.2,0.1l-0.2,0.2l0.1,0.2h0.2l0.2-0.1L98.9,48.5z M98.7,50.3
	L98.7,50.3L98.7,50.3L98.7,50.3L98.7,50.3z M99,48.2V48l-0.3,0.1v0.1l0,0l0.1,0.1l0,0l0.1,0.2L99,48.2L99,48.2L99,48.2z M99,48.1
	h-0.2l-0.1,0.1v0.1l0.1,0.1h0.1l0.1-0.1L99,48.1z M99,50.6l-0.1-0.1l-0.2,0.2l0.1,0.1H99L99,50.6z M99,37.5L99,37.5L99,37.5L99,37.5
	L99,37.5L99,37.5z M99.3,48.1l-0.2-0.3L99,48.1l0.2,0.3l0.3-0.1L99.3,48.1z M99.3,46.4l-0.2,0.1v0.2l0.1,0.1h0.1L99.3,46.4z
	 M99.2,35.5l0.1,0.1h0.2l-0.1-0.1h0.2l0.1-0.2l-0.2,0.1L99.2,35.5z M99.7,37l-0.2,0.1v0.1h0.1L99.7,37z M99.7,46.8l-0.2,0.1l0.1,0.2
	v0.1l0.1-0.1V46.8z M99.7,48.6h-0.1v0.1l0.2,0.1h0.1L99.7,48.6z M100.1,36.2H100l-0.1,0.1l0.1,0.1L100.1,36.2L100.1,36.2z
	 M100.4,44.9l-0.2-0.4l-0.2,0.2L100.4,44.9z M100.3,44.1l-0.1-0.2l-0.1,0.3L100.3,44.1L100.3,44.1L100.3,44.1z M100.3,46.7h-0.2v0.1
	l0.1,0.1L100.3,46.7z M100.6,35.8h-0.2l-0.1,0.1l0.2,0.1h0.2L100.6,35.8z M100.6,45.3l-0.3-0.1l0.1,0.2L100.6,45.3L100.6,45.3z
	 M100.5,35.5l0.1-0.2v-0.1h-0.3L100.5,35.5z M100.8,44.5L100.8,44.5l0.1-0.1v-0.2l-0.2,0.1L100.8,44.5l-0.2,0.1l0.1,0.1h0.1V44.5z
	 M100.7,36.8h0.2H100.7L100.7,36.8z M101,55h-0.1l-0.1,0.1l0,0l0.2,0.1l0.1-0.1l0.1,0.1v-0.1h0.1l-0.2-0.1L101,55L101,55z
	 M101.4,42.9l-0.2-0.1l-0.2,0.3h0.1l0.1,0.4l-0.3,0.1v0.2l0.1,0.2l0.4-0.1l0.1-0.1l0.2-0.1l0.1-0.2v-0.2l0,0L101.4,42.9z
	 M101.2,44.4L101.2,44.4l-0.2,0.1l0.1,0.1h0.1L101.2,44.4z M101.1,35.9l0.2,0.2l0.2-0.2l-0.1-0.1h-0.2H101L101.1,35.9z M101.4,55.6
	l-0.1,0.1l-0.1,0.2l0.3-0.1L101.4,55.6z M101.6,42.6v-0.1l-0.2,0.2l-0.1,0.1h0.1l0.3-0.1L101.6,42.6z M101.8,55.8l-0.3-0.2l-0.1,0.3
	l-0.1,0.2h0.5l0.1-0.2L101.8,55.8z M101.6,44.2h-0.2l-0.1,0.2l0.1,0.1l0.2-0.1V44.2z M101.4,44.2l0.2-0.3L101.4,44.2L101.4,44.2z
	 M102.3,56.3H102l-0.3,0.2l0.3,0.2h0.4L102.3,56.3z M102.5,41.6v-0.2h-0.2v0.1l-0.2,0.1v-0.1l-0.1-0.2l-0.1,0.2h0.2l0,0l0.3,0.3
	l0.2-0.1L102.5,41.6z M102,57h-0.2v0.2L102,57L102,57z M102.1,36l-0.2,0.1V36v0.1L102,36L102.1,36z M102,41.5L102,41.5L102,41.5
	L102,41.5z M102.1,42.8L102.1,42.8L102.1,42.8l0,0.2L102.1,42.8L102.1,42.8z M102.3,41.8l-0.2-0.1l-0.1,0.1l0.3,0.1h0.1L102.3,41.8z
	 M102.8,57.3h-0.2l-0.1,0.2l0.2,0.1l0.1-0.1L102.8,57.3z M103,37l-0.1,0.2l0.1,0.1l0.2-0.1L103,37z M103.2,58.3l-0.1,0.2l0.1,0.1
	V58.3z M103.2,40.6l0.2-0.2l0.1-0.2L103.2,40.6L103.2,40.6z M103.3,57.4h-0.1v0.3h0.1L103.3,57.4z M103.9,35.7l-0.1-0.1v0.3h0.1
	L103.9,35.7z M103.9,40.5l-0.1,0.1L103.9,40.5L103.9,40.5z M104.2,56.7L104.2,56.7l-0.4,0.2l0.3,0.2l0.3-0.2L104.2,56.7z
	 M104.4,36.1l0.2-0.1h-0.2l-0.2-0.1l-0.1,0.1L104.4,36.1z M104.5,46.6h-0.2l0.1,0.2l0.1-0.1L104.5,46.6z M104.5,36.6h-0.2H104.5
	L104.5,36.6L104.5,36.6L104.5,36.6z M104.4,58.5l-0.1,0.1h0.1L104.4,58.5z M104.6,46.5v-0.2h-0.2L104.6,46.5z M105.2,36.9h-0.2
	H105.2L105.2,36.9z M106,56.5l-0.5-0.2l-0.1,0.4l-0.1,0.1l0.1,0.1h0.2h0.3L106,56.5z M106.4,56.4h-0.3v0.2l0.1,0.2h0.3L106.4,56.4z
	 M106.9,55.7l-0.2,0.1h-0.2l-0.2,0.2l0.2,0.2l0.1,0.1h0.1l0.2,0.2l0.2-0.3v-0.2l0.1-0.1l-0.1-0.1h-0.3L106.9,55.7z M107.3,46.7H107
	l0.1,0.1l0,0h-0.2l-0.4,0.1l0.2,0.1h0.1h0.2l0,0l0.2-0.1V46.7z M107,47.9h-0.2l-0.1,0.1l0.1,0.1h0.1L107,47.9z M107.1,56.2
	L107.1,56.2V56h-0.1L107.1,56.2z M107,46.5v0.2h0.2v-0.2L107,46.5z M107.4,57.5H107v0.3l0.3,0.1l0.2-0.1L107.4,57.5z M107.2,48.5
	l-0.1-0.2v0.2l0,0h0.3L107.2,48.5z M107.2,47L107.2,47L107.2,47L107.2,47L107.2,47z M107.4,47.3L107.4,47.3l-0.2,0.3h0.1l0.3-0.1
	L107.4,47.3z M107.5,56.2L107.5,56.2L107.5,56.2L107.5,56.2z M107.7,46.9l-0.1,0.2l0.1,0.1h0.2v0.1l0,0l0.3,0.3l0.2-0.2l0,0l0.1-0.4
	l-0.1,0.1l-0.3-0.1l-0.2,0.2v-0.3L107.7,46.9z M107.9,51.7h-0.1l0.1,0.2h0.1L107.9,51.7z M108,51l-0.1,0.1v0.1L108,51z M108.2,53.2
	h-0.2l0,0l0.2,0.1V53.2z M108.6,55l-0.2-0.1l-0.1,0.2l-0.2,0.2l0.2,0.2l0.2,0.2l0.3-0.4L108.6,55z M108.5,56l-0.2-0.1V56L108.5,56
	L108.5,56z M108.9,53.3L108.9,53.3l-0.4,0.2l0.1,0.1l-0.3-0.1v0.5h0.1l0.3-0.2v-0.2h0.1l0.2,0.2L108.9,53.3z M108.8,52.4h-0.3
	l-0.1,0.1l0.2,0.3l0.1-0.2L108.8,52.4z M108.6,38.8l-0.1-0.1l-0.1,0.2l0.2,0.1h0.1L108.6,38.8z M109.6,46.6l-0.5-0.2l-0.2,0.1
	l-0.2,0.1v0.2l-0.1,0.3l-0.1,0.2l0.1,0.2l0.1,0.3l0.4-0.3l0.2-0.1l0.2,0.1V47l0.1-0.1L109.6,46.6z M108.7,38.4h-0.2l0.2,0.2
	L108.7,38.4z M108.8,52.9h-0.1l0.2,0.2L108.8,52.9z M109.2,46l-0.3,0.1l0.1,0.2l0.1,0.1l0.2-0.1L109.2,46z M109.6,52.8h-0.2
	l-0.1,0.1l0.2,0.1h0.1V52.8z M109.8,51.3h-0.1l0.1,0.2L109.8,51.3L109.8,51.3L109.8,51.3z M110.1,46.2L110.1,46.2l0.1,0.2
	L110.1,46.2L110.1,46.2z M110.7,45.4l-0.2,0.1l0.1,0.1L110.7,45.4z M111,46.8h-0.2l0.1,0.3l0.2-0.2L111,46.8z M112.3,43.6l-0.3-0.1
	l-0.1,0.1l0.2,0.3v-0.1L112.3,43.6z"/>
<path class="st0" d="M118.2,59.3l-0.3,0.1l-0.4-0.1l-0.1,0.1l-0.4-0.1l-0.1-0.2h-0.5l0.1-0.1h-0.6l-0.2-0.1l-0.3-0.2l-0.1-0.1
	l-0.3-0.2l-0.1-0.1l-0.2-0.2l-0.2-0.1l-0.1-0.2l-0.3-0.2l-0.1-0.2l-0.2-0.2l-0.1-0.3l0.1-0.1l-0.3-0.4v-0.2v-0.1l-0.2-0.5v-0.1
	l-0.2-0.3v-0.2v-0.3v-0.4l-0.2-0.1l0.2-0.5v-0.1l0.1-0.3l0.1-0.3V53v-0.5l0.1-0.2l0.1-0.2v-0.2v-0.3l0.2-0.4V51V51l0.3-0.5h0.1
	l0.1-0.5l0.2-0.2l0.1-0.1l0.2-0.3L115,49h0.2l0.1-0.5h-0.1l0.3-0.3l0.2-0.3l0.1-0.2l0.1-0.1l0.2-0.2l0.4-0.4l0.1-0.1l0.2-0.1
	l0.1-0.1l0.2-0.4l0.3-0.1l0.2-0.2l0.1-0.1l0.3-0.2l0.4-0.2h0.1l0.4-0.2l0.2-0.2l-0.1-0.1h0.6l0.2-0.2h0.1l0.2-0.2l0.3-0.2h0.3h0.2
	l0.3-0.1l0.2-0.1h0.3l-0.1-0.1h0.5l0.5,0.2l0.2-0.2h0.4l0.3,0.2v-0.1l0.3,0.1l0.4,0.2l0.4,0.1l0,0l0.2,0.1l0.4,0.2l0.2,0.2l0.3,0.1
	l0.1,0.1l0.1,0.1L126,46l0.2,0.3l0.2,0.1v0.2l0.1,0.4h0.1v0.4v0.3v0.1l0.1,0.4l-0.1,0.3l-0.1,0.1l0.1,0.5l-0.1,0.2l-0.1,0.2v0.3
	l-0.1,0.3l-0.1,0.2l-0.1,0.3v0.1L126,51l-0.2,0.3l-0.2,0.2l-0.1,0.1l-0.3,0.1l-0.1,0.1l-0.2,0.2h-0.2l-0.3,0.3l-0.3,0.2h-0.3h-0.3
	l-0.2-0.1l-0.3,0.2h-0.1l-0.3,0.1l-0.2-0.1l-0.7-0.1l-0.6-0.1h-0.2h-0.2l-0.4-0.2l-0.2-0.3l-0.2-0.1l-0.2-0.1v-0.2l-0.2-0.2
	l-0.1-0.1l-0.1-0.3v-0.2l-0.1-0.2l-0.1-0.1v-0.2l0.2-0.3l0,0h0.3l0.5,0.2l0,0l0.5,0.2h0.2v-0.1l0.5,0.1l0.4,0.1l0.2-0.2h0.3l0.1-0.2
	h0.2l0.2-0.2l0.5-0.2l0.2-0.1l0.3-0.3l0.1-0.2v-0.2h0.1l0.1-0.3l-0.1-0.4l-0.1-0.2v-0.4l-0.1-0.2l-0.1-0.2l-0.3-0.3l-0.1-0.1h-0.3
	h-0.2l-0.4-0.1l0,0l-0.4,0.1h-0.2l-0.2,0.1l-0.2,0.1H121l0,0l-0.4,0.3l-0.7,0.4l-0.1,0.3l-0.2,0.2l-0.2,0.1l-0.2,0.1l-0.2,0.2
	l-0.2,0.4l-0.1-0.1l-0.2,0.5l-0.1,0.1l-0.1,0.2L118,50l-0.1,0.1l-0.1,0.4l-0.1,0.2l-0.2,0.4l-0.1,0.2l-0.2,0.3v0.3l-0.2,0.3v0.2
	l-0.1,0.2v0.3l-0.1,0.4v0.1v0.4l-0.2,0.1l0.2,0.3v0.3l-0.1,0.1l0.2,0.6v0.2l0.1,0.2l0.2,0.3l0.2,0.2l0.2,0.1l0.2,0.2l0.1,0.2
	l0.3,0.1h0.4h0.1l0.4,0.1h0.4l0,0l0.3-0.1l0.2-0.1h0.3l0.3-0.1l0.1-0.1l0.2-0.1l0.4-0.3l0.2-0.1l0.1-0.1h0.3l0.3-0.3l0.2-0.1
	l0.4-0.4h0.2l0.3,0.1l0.2,0.2v0.2l0.1,0.1l-0.1,0.5l0.1,0.4l-0.1,0.3h-0.1v0.2v0.2l-0.2,0.2l-0.1,0.2v0.1l-0.4,0.4l-0.1,0.1
	l-0.2,0.2l-0.1,0.1l-0.4,0.2l-0.2,0.2l-0.3,0.2h-0.1l-0.4,0.1l-0.3,0.1l-0.1,0.1l-0.5,0.1l-0.4,0.1h-0.1l-0.2,0.2h-0.8l-0.2-0.1
	L118.2,59.3z M114.1,52.2H114H114.1l0.1,0.1L114.1,52.2z M114.2,52.9v-0.1V52.9L114.2,52.9z M114.6,54.6h-0.2l-0.2,0.3l0.2,0.1
	l0.1-0.1V54.6z M114.5,53.3h-0.2v0.1v0.1l0.1-0.1L114.5,53.3z M114.7,50.6h-0.2l-0.1,0.2l0.1,0.1l0.3-0.1L114.7,50.6z M115.2,54
	L115.2,54l-0.4-0.1l-0.1,0.1v-0.1h-0.2v0.3l0.1-0.1l0.2,0.3l0.2,0.2l0.1-0.3v0.1v0.1l0.3-0.1v-0.2l-0.2,0.1v-0.1L115.2,54z
	 M115,53.6l-0.3-0.1v0.3l0.1,0.1h0.2L115,53.6z M114.7,54v0.1V54L114.7,54z M114.9,49.9L114.9,49.9l-0.2,0.1l0.1,0.1V50L114.9,49.9z
	 M115.2,54.9h-0.3l-0.1,0.3l0.2,0.1l0.1-0.1h0.4L115.2,54.9z M115,51.4l-0.1,0.1h-0.1l0,0v0.1l0.2,0.1l-0.1-0.1L115,51.4z
	 M115.3,51.8L115.3,51.8L115.3,51.8l0.1-0.1l-0.2,0.1l0,0l0,0l-0.1,0.2l-0.1,0.2v0.2l0.1,0.4l0.6-0.2l-0.2-0.4h0.1L115.3,51.8z
	 M115.3,49.6l-0.2,0.1l0.2,0.1V49.6z M116,51.6l0.2-0.2l-0.1-0.2L116,51h-0.1h-0.1l0,0v-0.4l-0.4-0.1l-0.1,0.1l-0.1,0.3h0.2l0.2,0.1
	v0.1l-0.1,0.2l0.2,0.3h0.1l-0.2,0.2l0.1,0.1l0.1,0.3L116,52L116,51.6z M115.2,51.8L115.2,51.8L115.2,51.8L115.2,51.8L115.2,51.8z
	 M115.7,49.1h-0.2l-0.1,0.2l0.2,0.1l0.2-0.1L115.7,49.1z M115.9,55.1h-0.2v0.2l-0.1,0.2l0.2,0.2l0.2-0.1l-0.1-0.2l0.1-0.1
	L115.9,55.1L115.9,55.1z M115.7,53h-0.2l-0.1,0.1l0.1,0.2l0.1-0.1L115.7,53z M115.5,51L115.5,51l0.3-0.1l-0.1-0.1L115.5,51z
	 M115.6,55.2l0.2,0.1l0,0L115.6,55.2L115.6,55.2z M115.9,51.6L115.9,51.6l-0.1-0.1l-0.1,0.1H115.9z M116,48.3h-0.1l-0.1,0.2l0.1,0.2
	l0.2-0.2L116,48.3z M116,49h-0.2l0.1,0.3L116,49z M116.2,51.4H116v0.2l0.1,0.1l0.1-0.2L116.2,51.4z M116.1,52L116.1,52L116.1,52
	L116.1,52z M116.4,50.7h-0.2v0.1L116.4,50.7L116.4,50.7z M116.2,54.8L116.2,54.8v0.3V54.8L116.2,54.8z M116.6,51.3l-0.2-0.1h-0.1
	l0.2,0.2L116.6,51.3L116.6,51.3z M116.3,52.6L116.3,52.6l0.1-0.1l-0.1-0.1L116.3,52.6z M116.8,47.9L116.8,47.9L116.8,47.9l-0.1,0.2
	l-0.1,0.2l-0.3,0.2l0,0l0.3-0.2l0.1-0.1l0.1-0.1l0.1,0.1L117,48v-0.1l0.1-0.1l-0.1-0.1H117v-0.1L116.8,47.9z M116.8,50L116.8,50
	l0.2-0.2v-0.1v-0.3h-0.2l-0.2-0.1l-0.1,0.2V50v0.2l0.1,0.1l0.1,0.1v0.1h0.1l0,0l0.3-0.1L116.8,50L116.8,50z M116.4,52.2L116.4,52.2
	l0.1-0.1l0,0l0.2-0.3h-0.2h-0.1l-0.1,0.1l0.1,0.2h-0.1L116.4,52.2z M116.7,50L116.7,50l0.2-0.2l-0.3-0.1h-0.2l-0.1,0.2V50l0.2,0.1
	L116.7,50z M116.5,52.1L116.5,52.1L116.5,52.1z M116.6,50.1L116.6,50.1L116.6,50.1l0,0.2l0.1-0.1L116.6,50.1z M116.8,56.7l-0.2-0.1
	h-0.1l0.4,0.3h0.1L116.8,56.7z M116.7,51.4v0.1V51.4L116.7,51.4z M116.9,47.7L116.9,47.7L116.9,47.7l-0.2,0.1v0.1l0.1,0.1
	L116.9,47.7L116.9,47.7z M117.5,57.5H117l-0.2,0.3l-0.1,0.1v0.1l0.5,0.2l0.3-0.3L117.5,57.5z M117.1,57.7L117.1,57.7l-0.2,0.1
	l0.1,0.1l0.1-0.1L117.1,57.7z M117.4,48.4L117.4,48.4h0.2v-0.2h-0.2V48.4L117.4,48.4l-0.3,0v0.3l0.1,0.2l0.3-0.2L117.4,48.4z
	 M117.4,49.2L117.4,49.2L117.4,49.2L117.4,49.2l0.3,0.1v-0.1L117.4,49.2l0.1-0.1l0.1-0.1v-0.2L117.4,49.2z M117.4,49.2L117.4,49.2
	l0.1-0.1L117.4,49.2z M117.7,46.6h-0.2l0.1,0.1L117.7,46.6L117.7,46.6z M117.8,47.6v0.2l0,0l-0.1,0.1l-0.1-0.1v0.2l0.1,0.1l0,0
	l0.1,0.1l0.1,0.2v-0.2l0.4-0.2l-0.1-0.3l0,0l-0.1-0.1l0.2,0.2l0.2-0.1l0.2-0.2l-0.2-0.3l-0.2,0.1l-0.2,0.2H117.8z M117.9,48
	l-0.2-0.1l-0.1,0.1l0.1,0.1l0,0v0.1h0.1L117.9,48L117.9,48z M118.1,46.3l-0.1,0.1l-0.1,0.1h0.1l0,0L118.1,46.3z M118.9,46.3h-0.1
	l-0.2,0.1l-0.1,0.2l0.1,0.1l0.1,0.2l0.2-0.2h0.2L118.9,46.3z M119.3,46.6L119.3,46.6l-0.2-0.1l0,0H119l-0.1,0.4l0.2,0.3l0.1-0.1
	l0.2-0.1l-0.1-0.1l0.2-0.1v-0.2L119.3,46.6L119.3,46.6z M119,47.2L119,47.2L119,47.2l0.2-0.2l-0.1-0.2H119v0.2L119,47.2z
	 M119.3,46.6l-0.2-0.1l0,0l0,0v0.1v0.1h0.1L119.3,46.6z M119.8,50.5l-0.2,0.2h0.1L119.8,50.5z M119.8,45.9L119.8,45.9l-0.1,0.3h0.1
	V45.9z M120,57.2l-0.2-0.1v0.2h0.1L120,57.2z M120.3,57.7h-0.2v0.2l0.1,0.1l0.1-0.1L120.3,57.7z M120.6,51l-0.2-0.1l-0.1,0.1
	l0.1,0.1h0.2L120.6,51z M120.6,51.3L120.6,51.3l-0.2,0.1L120.6,51.3l0.1,0.3l0.3-0.3l-0.1-0.1l-0.2-0.1L120.6,51.3L120.6,51.3z
	 M120.6,57.1L120.6,57.1l-0.1,0.2l0.4-0.1l-0.1-0.2L120.6,57.1z M120.8,46.1l-0.3,0.1v0.1l0.1,0.1l0.2-0.1L120.8,46.1z M121.2,45.9
	L121,46h0.1L121.2,45.9L121.2,45.9z M121.2,46.2L121.2,46.2v0.2h0.1v-0.1L121.2,46.2z M121.7,50.8L121.7,50.8L121.7,50.8l-0.2-0.1
	l-0.1,0.1l0.1,0.1h0.3L121.7,50.8z M121.8,46.2l-0.3-0.1l0.1,0.3l-0.2,0.1l0.3-0.2h0.1V46.2z M122,56.4l-0.1-0.2l-0.2,0.2l-0.1,0.2
	l0.2,0.2l0.2,0.1v-0.4L122,56.4z M122,51L122,51l-0.2,0.1L122,51L122,51L122,51z M122.1,45.4l-0.3-0.1l0.1,0.2l0.1,0.1l0.2-0.2
	L122.1,45.4z M122.4,45.8h-0.2l-0.2-0.1l-0.1,0.2l0.3,0.1h0.1L122.4,45.8z M122.7,45.2l-0.1,0.1h-0.1l-0.1,0.3h0.3l0.2-0.1h0.1
	L122.7,45.2z M122.8,51.4l-0.1-0.1l-0.2,0.2l0.2,0.2l0.1-0.1V51.4z M122.7,50.8L122.7,50.8l-0.2,0.1l0.1,0.1h0.1L122.7,50.8z
	 M122.9,51.1l-0.1-0.1l-0.1,0.2l0.1,0.1h0.1l0.1,0.1h0.2L123,51l-0.1-0.1L122.9,51.1L122.9,51.1z M123.4,51.7l-0.2,0.1h0.2
	L123.4,51.7z M123.7,44.9h-0.2l-0.1,0.2h0.2L123.7,44.9z M123.7,51.5h-0.3v0.3l0.3-0.1V51.5z M124.2,47.5H124v0.1l0.1,0.1
	L124.2,47.5L124.2,47.5z M124.5,47.2l-0.1-0.4h0.2l-0.2-0.4h-0.2l-0.2,0.3l0.3,0.2l0.1,0.3L124.5,47.2z M124.3,45.5h-0.2v0.2h0.2
	l0.1-0.1L124.3,45.5z M124.6,49.4l-0.2-0.2l-0.1,0.3l-0.1,0.2l0.3,0.1l0.3-0.2L124.6,49.4z M124.4,51.7l-0.1-0.2l-0.1,0.3v0.1
	L124.4,51.7L124.4,51.7z M124.3,50.5l-0.1,0.1l0.1,0.2l0.1-0.1L124.3,50.5z M124.7,47.7l-0.2-0.1l-0.1,0.2l0.2,0.1l0.1-0.1
	L124.7,47.7z M124.7,48.7L124.7,48.7l-0.2,0.3l0.3-0.1L124.7,48.7z M124.7,48.4L124.7,48.4L124.7,48.4l0-0.4l-0.1,0.1v0.2v0.2
	L124.7,48.4z M124.7,48.3v-0.2V48.3L124.7,48.3z M124.8,46.5l-0.2-0.2l-0.1,0.3l0.1,0.2h0.1L124.8,46.5z M125,51.4l-0.2-0.1
	l-0.1,0.1l0.1,0.1h0.1L125,51.4z M125.2,49.7h-0.4V50l0.3,0.2l0.2-0.1l0.2-0.1L125.2,49.7z M125.2,48.3H125H125.2l-0.1-0.3l-0.2-0.1
	v0.2l0.1,0.2l0,0H125.2L125.2,48.3z M125.1,50.6L125.1,50.6l-0.2,0.3h0.1l0.3,0.1L125.1,50.6z M125.2,46.5l-0.1-0.1l-0.1,0.3
	l0.1,0.1h0.3L125.2,46.5z M125.6,47.3v0.2v0.1v0.1h0.1l0.1,0.1h-0.2l-0.1,0.1l-0.1,0.2l0.2,0.1l0.2,0.1l0.1-0.2v-0.4l0,0l-0.1-0.3
	v-0.2L125.6,47.3z M126,50.1L126,50.1l-0.2,0.2h0.2L126,50.1z"/>
<path class="st0" d="M132.8,59.5l-0.5-0.1l-0.2-0.1l-0.2,0.1l-0.6-0.2l-0.1-0.1H131l-0.2-0.2l-0.2-0.1h-0.4l-0.3-0.2l-0.1-0.1
	l-0.1-0.1l-0.3-0.2l-0.2-0.1l-0.2-0.2l-0.2-0.2v-0.1l-0.2-0.2l-0.1-0.1l-0.2-0.3v-0.1l-0.2-0.3l-0.1-0.3l-0.1-0.2v-0.2v-0.1
	l-0.1-0.6v-0.3v-0.2l0.1-0.2l-0.2-0.3l0.1-0.4l0.1-0.3l0,0V53l0.1-0.2v-0.2v-0.2l0.1-0.4v-0.1l0.2-0.4l0.1-0.2l0.1-0.1l-0.1-0.3
	l0.3-0.4l0.1-0.2l0.2-0.3v-0.1l0.2-0.2l0.1-0.4l0.3-0.3l0.1-0.2l0.1-0.2l0.3-0.1l0.1-0.4l0.3-0.3l0.2-0.1l0.2-0.2l0.1-0.2l0.2-0.2
	h0.2l0.3-0.3l0.1-0.1l0.3-0.2v0.1l0.3-0.4l0.3-0.2l0.3-0.2h0.2l0.2-0.2l0.2-0.2l0.2-0.1l0.2,0.1l0.2-0.3V45l0.5-0.1h0.3l0,0l0.4-0.1
	v-0.1h0.2l0.5-0.1h0.1h0.3h0.2l0.4,0.1h0.3h0.2l0.3-0.1h0.3l0.1,0.1h0.4h0.1l0.4,0.2h0.2l0.2,0.2h0.1l0.3,0.2l0.2,0.1l0.2,0.3
	l0.2,0.1l0.1,0.3h0.1l0.1,0.4l0.1,0.2V47l0.1,0.2v0.2l0.1,0.3v0.1l0.1,0.2l0.1,0.4l-0.1,0.5h0.1l-0.2,0.6v0.3l-0.1,0.2l-0.1,0.2v0.3
	l-0.2,0.3l0.1,0.1l-0.3,0.3l-0.1,0.1l-0.1,0.2l-0.3,0.1l-0.3,0.2l-0.1,0.2l-0.2,0.1l-0.1,0.1l-0.5,0.2l-0.2,0.1l-0.1,0.1l-0.8,0.1
	h-0.2v0.1h-0.9H136l-0.3-0.1h-0.3l-0.2-0.1l-0.3-0.2h-0.2V52l-0.3-0.3l-0.2-0.2l0,0l-0.2-0.3V51l-0.1-0.1v-0.2l-0.1-0.3l0,0l0.1-0.3
	l0.2-0.1l0.2,0.1h0.3l0.2,0.2l0.4,0.1l0.1,0.1h0.3v0.1l0.4-0.1l0.2-0.1l0.2-0.1l0.5-0.1l0.5-0.2l0.2-0.2l0.2-0.2l0.2-0.2l0.1-0.3
	h0.2v-0.3l0.1-0.4v-0.3v-0.2l-0.1-0.3l-0.1-0.1l-0.2-0.3l-0.1-0.1l-0.4-0.1l-0.1-0.2l-0.3,0.1l-0.3-0.1h-0.2h-0.2l-0.2,0.1l-0.2-0.1
	l-0.3,0.2h-0.2l-0.3,0.2H135l-0.2,0.2l-0.3,0.2l-0.1-0.1l-0.2,0.3L134,48l-0.1,0.2l-0.1,0.2l-0.4,0.1l-0.2,0.3l-0.1,0.2l-0.2,0.4
	l-0.2,0.2v0.2l-0.3,0.3l-0.1,0.3l0.1,0.2l-0.3,0.3l-0.1,0.3l-0.2,0.3v0.1l-0.1,0.1l-0.1,0.3l-0.1,0.4v0.1l-0.2,0.4v0.6v0.1l-0.2,0.2
	l0.2,0.4v0.5l0.1,0.3l0.1-0.1v0.5l0.2,0.3l-0.1-0.1L132,56v0.2l0.5,0.1h0.1l0.3,0.2h0.2h0.3h0.4h0.2l0.1,0.1l0.4-0.1h0.1h0.2
	l0.2,0.1l0.5-0.3l0.1-0.1l0.1,0.1l0.4-0.4l0.2-0.1l0.3-0.2l0.2-0.1l-0.1-0.1l0.6-0.4h0.4l0.2,0.1l0.1,0.4l0.1,0.2l-0.1,0.4l0,0
	l0.1,0.1l-0.2,0.4l-0.1,0.2v0.1l-0.2,0.3l-0.1,0.2l-0.1,0.1l-0.2,0.2l-0.4,0.4l-0.1-0.1l-0.4,0.4l-0.1,0.1l-0.3,0.1l-0.1,0.3h-0.3
	h-0.2l-0.4,0.4h-0.4h-0.2h-0.2l-0.5,0.1l-0.1,0.1l-0.2-0.2l-0.6,0.2L132.8,59.5z M128.3,53.3h-0.1l-0.1,0.2h0.1L128.3,53.3z
	 M128.3,52.9h-0.1v0.2h0.1L128.3,52.9z M128.5,56.2h-0.1l-0.1-0.1l0.2,0.2L128.5,56.2L128.5,56.2z M129.3,52l-0.4-0.1l-0.1,0.2v0.3
	h0.2l0.3-0.2V52z M128.9,50.7l-0.1,0.1l-0.1,0.1h0.1h0.1L128.9,50.7z M128.9,57.2L128.9,57.2L128.9,57.2z M129.6,53.5l-0.2-0.1
	l-0.2-0.1l-0.3,0.2v0.2l0.1,0.1l0.1,0.3h0.2l0.2-0.2l0.2-0.1l0.1-0.1L129.6,53.5z M129.2,56.9h-0.1l-0.1,0.2h0.1h0.1L129.2,56.9z
	 M129.2,56.7l-0.1-0.1v-0.1v0.1L129.2,56.7L129.2,56.7z M129.5,56.8l-0.2-0.1h-0.1l0.1,0.2l0.2,0.2l0,0l0.1,0.2h0.3l0.1,0.1l0.1-0.1
	l0.2,0.2l0.2-0.1l-0.2-0.4l-0.1,0.1l-0.1-0.3h-0.2v0.1L129.5,56.8l0,0.2L129.5,56.8z M129.8,51.4l-0.2-0.1l-0.1,0.3h0.2h0.2
	L129.8,51.4z M129.7,52.7l-0.2,0.1l0,0L129.7,52.7z M130.2,52.5l-0.2-0.1l-0.2,0.1l-0.1,0.1l0.1,0.4l0.1,0.1l0.2-0.1l0.2-0.1
	L130.2,52.5z M130.4,55.5l-0.4-0.2l-0.1,0.3l-0.2-0.1v0.3l0.2,0.2v-0.1l0.1,0.1l0.3,0.2l0.2-0.1h0.2l-0.1-0.3l-0.1-0.2l0,0
	L130.4,55.5z M130.1,49.6l-0.1-0.1v0.2l-0.2,0.2l0.1,0.1h0.3L130.1,49.6z M130.4,51.1l-0.3-0.2l-0.1,0.3l0.2,0.2l0.3-0.2V51.1z
	 M130.3,53.2l-0.1,0.1l0.1,0.1L130.3,53.2L130.3,53.2z M130.6,55.3h-0.2v0.1h0.1l0,0L130.6,55.3z M130.6,54.5l-0.2,0.1l0.2,0.1
	l0.1-0.1L130.6,54.5L130.6,54.5z M130.8,56.5h-0.2v0.2h0.1h0.2L130.8,56.5z M131.3,49.6h-0.2l-0.2-0.2l-0.1,0.2v0.1v0.1L131,50h0.3
	v-0.1l0.1-0.1L131.3,49.6z M130.9,56.6l0.1,0.3l0.1,0.2l0.1-0.3v-0.2H130.9z M131.1,47.9l-0.1-0.1V48l0.1,0.1h0.2L131.1,47.9z
	 M131.1,51.6L131.1,51.6l0.1-0.1h-0.1L131.1,51.6z M131.2,58.5L131.2,58.5L131.2,58.5L131.2,58.5l0.1-0.1L131.2,58.5z M132.2,57.3
	l-0.2-0.1l0.1-0.2h-0.5l0,0h-0.1l-0.1-0.1l-0.2,0.2l0.2,0.2l0.2,0.1l0.1-0.2h0.2l-0.1,0.1l0,0l0,0h-0.1l0.1,0.1l0,0v-0.1h0.1
	l0.3,0.2l0.2-0.1v-0.1L132.2,57.3z M131.5,57.5h-0.2v0.1l0.1,0.1L131.5,57.5z M131.6,57L131.6,57l-0.2,0.1l-0.1,0.2l0.2,0.1h0.1
	L131.6,57z M131.6,48h-0.1v0.2h0.1L131.6,48z M132,58.7l-0.2-0.1l-0.1,0.2h0.1L132,58.7L132,58.7z M132,58.8h-0.2l0,0H132L132,58.8z
	 M132.2,49.4l-0.1-0.1l-0.1,0.1h0.1L132.2,49.4L132.2,49.4z M132,57.4L132,57.4L132,57.4L132,57.4z M132.1,56.8L132,57l0.2-0.1
	L132.1,56.8z M132.1,57.3L132.1,57.3L132.1,57.3L132.1,57.3z M132.6,46.5l-0.1-0.2l0.1,0.3l0.2-0.1L132.6,46.5z M132.8,56.9h-0.1
	l-0.1,0.1l0.3,0.1L132.8,56.9z M132.7,58.6h-0.1v0.1L132.7,58.6L132.7,58.6z M133.5,58.1l-0.3-0.1l-0.1-0.4h-0.2l-0.2,0.3l0.3,0.3
	l0.3-0.1v0.1l0.2,0.2l0.1-0.1V58.1z M133.1,58.7l-0.3-0.2v0.1l0.1,0.2L133.1,58.7l0,0.1h0.2h0.1v-0.3h-0.2L133.1,58.7z M133.2,58.3
	l-0.2,0.1l0.1,0.2h0.2L133.2,58.3z M133.2,58L133.2,58L133.2,58L133.2,58z M134.1,47l-0.1,0.2l0.2-0.3l0.3-0.2v-0.1l-0.2-0.1
	l-0.1-0.1l0,0v-0.1h-0.2v0.2l0,0l-0.1,0.1l-0.2,0.2l-0.2,0.3l0.2,0.3l0.3-0.2h0.2l0.2-0.2L134.1,47z M133.8,57.5h-0.2h-0.1l0.2,0.2
	v-0.1L133.8,57.5z M134.1,46.4l-0.1,0.1v0.1L134.1,46.4L134.1,46.4z M134.3,46.1L134.3,46.1l-0.1,0.1L134.3,46.1L134.3,46.1
	L134.3,46.1z M135.2,51.5l-0.2,0.1v0.1l0.2,0.1l0.1-0.1l0.1,0.1v-0.1h-0.2L135.2,51.5z M136.2,57.2H136V57l-0.1-0.2h-0.1l-0.4,0.3
	l0.2,0.1v0.1h0.2l0.2-0.1v0.1v0.3l0.4-0.1L136.2,57.2z M135.4,56.5l0.2,0.1l0.1-0.2L135.4,56.5z M135.6,51.9L135.6,51.9l-0.2,0.1
	l0.1,0.1h0.2L135.6,51.9z M135.9,56.9L136,57l0.2-0.1v-0.3h-0.1L135.9,56.9z M136.5,57.7h-0.2v0.1v0.1L136.5,57.7L136.5,57.7z
	 M136.8,56.5L136.8,56.5l0.1,0.2L136.8,56.5z M137.1,51.3l-0.1-0.2l-0.1,0.5l0,0l-0.1,0.2l0.1,0.2l0.2-0.2l0.1-0.1h0.1L137.1,51.3z
	 M136.9,51.6h0.2l0,0H136.9z M137.1,54.8L137.1,54.8L137.1,54.8L137.1,54.8z M137.2,51.1h-0.1v0.1l0.1,0.1l0.1-0.1L137.2,51.1z
	 M137.5,50.3L137.5,50.3h-0.2l-0.1,0.2L137.5,50.3L137.5,50.3z M137.4,51.7l-0.1,0.2l0,0L137.4,51.7z M137.5,55.7l-0.2-0.2v0.3
	l0.1,0.1L137.5,55.7L137.5,55.7z M137.5,56.2V56V56.2L137.5,56.2z M138.1,50.6v-0.1l0,0l-0.3,0.2l-0.2,0.2l0.3,0.2l0.2-0.1h0.1V50.6
	z M138.6,51.2l-0.3-0.2l-0.3,0.1l-0.1,0.1l-0.1,0.4l-0.1,0.2l0.2-0.1h0.1l-0.3,0.1l0.4-0.1h0.1v0.1l0.3-0.1l0.2-0.2l0.1-0.1
	L138.6,51.2z M138,51.7L138,51.7h0.2h0.1H138z M138.2,51.9h-0.2v0.2l0.1,0.2l0.2-0.2L138.2,51.9z M139,50.6l-0.2-0.1l0.2-0.2v-0.1
	l0.2,0.1l0.2-0.1l0.1,0.1l0.2-0.2l0.1-0.2v-0.2l-0.1-0.2h-0.2l-0.1-0.1l-0.1,0.4l0,0v-0.5H139l-0.2,0.1l-0.1,0.1l-0.1,0.1v0.1
	l0.3,0.2h-0.3l-0.1,0.2l-0.1,0.2l0.2,0.1l0.2,0.1l0,0l-0.1,0.2h0.3h0.2L139,50.6z M138.9,49.6l-0.1-0.1v0.1l0.3,0.1L138.9,49.6z
	 M138.9,50.5L138.9,50.5l-0.1,0.1L138.9,50.5z M139.2,48.9l-0.2-0.1V49l-0.2,0.1l0.3,0.1l0.1-0.1L139.2,48.9z M139.1,50.2l0.1-0.1
	h-0.3v0.1v0.1l0.1-0.1L139.1,50.2L139.1,50.2L139.1,50.2z M139,50L139,50L139,50l0.1-0.2L139,50z M139.5,46.8l-0.2,0.1h-0.1l0.3,0.2
	v0.1L139.5,46.8z M140.1,50.1L140.1,50.1L140.1,50.1l0,0.1l0.1-0.1L140.1,50.1z"/>
<path class="st0" d="M148.4,50.9l-0.1,0.3h-0.1l-0.2,0.5l0.1,0.1l-0.3,0.4l-0.2,0.2l-0.1,0.1l-0.1,0.4l-0.1,0.2l-0.2,0.2l-0.1,0.3
	l-0.2,0.1v0.3l-0.2,0.4l-0.2,0.3l-0.1,0.2v0.1l-0.2,0.2l-0.1,0.4l-0.2,0.1l-0.1,0.3l-0.1,0.2l-0.1,0.2l-0.2,0.2l-0.2,0.2l-0.1,0.5
	l-0.1,0.1v0.1l-0.2,0.2l-0.1,0.2l-0.2,0.1l-0.2,0.5l-0.2,0.1l-0.2,0.2l-0.3,0.1l-0.4-0.1l-0.3,0.1h-0.3h-0.1l-0.3,0.1l-0.4,0.1
	l-0.3-0.1h-0.1l-0.3-0.1l-0.1-0.3v-0.1l0.2-0.3l0.1-0.3v-0.3l0.1-0.2l0.1-0.1l0.2-0.5l0.1-0.2v-0.1l0.2-0.3l0.1-0.2l0.2-0.2l0.1-0.2
	l0.2-0.4L143,55l0.1-0.3l0.1-0.2l0.1-0.3l0.1-0.3l0.2-0.2l0.1-0.3l0.2-0.1v-0.3l0,0l0.1-0.2l0.2-0.2l0.1-0.3l0.2-0.5l0.1-0.1
	l0.1-0.4l0.1-0.3l0.2-0.2l0.2-0.3l0.1-0.5l0.1-0.2l0.1-0.3v-0.3l0.2-0.2v-0.1l0.1-0.1v-0.5h0.2l-0.3-0.7l-0.3-0.3l-0.3-0.2L145,47
	h-0.4l-0.3,0.1l-0.5,0.2l-0.2-0.1h-0.2l-0.1-0.2l0.1-0.1v-0.3l0.1-0.3l0.1-0.3l0.1-0.1l0.1-0.3l0.3-0.2l0.1-0.3l0.2-0.2l0.1,0.1
	l0.5-0.4l0,0h0.2l0.7-0.4l0.3,0.1v-0.1l0.3,0.1h0.2l0.1,0.1l0.4,0.2l0.2,0.1l0.1,0.1l0.3,0.2l0.1,0.2l0.3,0.2l0.1,0.3h-0.1l0.4,0.6
	v0.1L149,47l0.2,0.1v0.3l0.2-0.3l0.1-0.2l0.2-0.3l0.1-0.1l0.3-0.4l0.1-0.2l0.3-0.2l0,0l0.2-0.3l0.3-0.1l0.2-0.2h0.3l0.5-0.3l0,0
	l0.3-0.2l0.4-0.1h0.3h0.2l0.4,0.1h0.2l0.2,0.2h0.4l-0.1,0.1h0.3l0.3,0.2l0.2,0.1l0.1,0.1l0.2,0.3l0.2,0.1l0.1,0.4l0.1,0.3l-0.1,0.3
	L156,47v0.1l-0.1,0.5v0.2l-0.1,0.3l-0.1,0.2l-0.1,0.2l-0.4,0.5H155l-0.4,0.2l-0.2,0.1h-0.2l-0.3,0.1l-0.1,0.1l-0.5-0.2h-0.2v-0.1
	l-0.4-0.1l-0.2-0.2l-0.3-0.2l-0.1-0.2l-0.2-0.2l-0.1-0.2l-0.2-0.2v-0.6v-0.2l-0.1-0.1l-0.3-0.1l-0.1,0.1l0,0l-0.2,0.3l-0.2,0.1
	l-0.2,0.1l-0.2,0.3v0.2l-0.3,0.2l-0.1,0.2l-0.2,0.2l-0.3,0.4l-0.1,0.3l-0.1,0.2l-0.1,0.1l-0.1,0.4l-0.2,0.2l-0.2,0.4L148.4,50.9z
	 M142.5,58.4l-0.2-0.1l-0.1,0.1L142.5,58.4L142.5,58.4z M142.6,57.7h-0.2l-0.1,0.1l0.1,0.1L142.6,57.7z M143.7,56.7v-0.2h-0.3h-0.3
	l-0.1,0.4l0.3,0.2v0.1v0.3l-0.1,0.1l-0.3,0.1l0.3,0.3h0.1l0.4-0.2l-0.1-0.3l0.2,0.1v-0.4l-0.3-0.2l0.3-0.1L143.7,56.7z M143.7,55.3
	l-0.2,0.3l0.2,0.2l0.2-0.3L143.7,55.3z M144.1,54.5H144l-0.1,0.2l0.1,0.1h0.2L144.1,54.5z M144.1,46.4L144.1,46.4L144.1,46.4
	l-0.1,0.2h0.1L144.1,46.4z M144.7,46.6h-0.2v0.1l0,0L144.7,46.6L144.7,46.6z M144.6,57.6l0.1,0.1v-0.2h-0.1L144.6,57.6z M145,53
	L145,53l-0.1-0.2h-0.2l-0.1,0.2l0.2,0.1v0.1l-0.1,0.1l0.3-0.1L145,53z M144.9,52l-0.1-0.1l-0.1,0.2l0.1,0.1h0.2L144.9,52z M144.9,53
	L144.9,53l0-0.2h-0.1l-0.1,0.2L144.9,53z M145,55.2L145,55.2L145,55.2l-0.1,0.1L145,55.2L145,55.2z M145.3,54.3H145v0.2h0.3l0.2-0.1
	L145.3,54.3z M145.5,50.7L145.5,50.7h-0.2H145.5z M145.6,54.9h-0.1l-0.1,0.1l0.2,0.2l0.2-0.2L145.6,54.9z M146.6,51.7l-0.3-0.2
	l-0.1-0.3l-0.1-0.2l-0.2,0.1l-0.2,0.2l0.1,0.3v0.1h0.3l-0.1,0.2l0.1,0.2l0.1,0.2l0.3-0.1l0.3-0.2L146.6,51.7z M145.7,50.2
	L145.7,50.2L145.7,50.2z M146,53.9l-0.2-0.1v0.2l0,0L146,53.9L146,53.9z M146.3,53.1L146.3,53.1L146.3,53.1l-0.1,0.2L146.3,53.1
	L146.3,53.1z M146.3,51.6L146.3,51.6l-0.1-0.1v0.3l0.3-0.1L146.3,51.6z M146.2,48.1v0.2h0.1L146.2,48.1z M146.5,54l0.1-0.2l0,0
	L146.5,54z M147,51.1h-0.2h-0.2l-0.1,0.2l0.1,0.3l0.2-0.1h0.1L147,51.1z M146.9,47.4L146.9,47.4l-0.2,0.1l0.1,0.1h0.1L146.9,47.4z
	 M147.1,48.6h-0.3l-0.1,0.3l0.2,0.1h0.1L147.1,48.6z M147.4,47L147.4,47l-0.3-0.2h-0.2V47l-0.1,0.3l0.3,0.2l0.2-0.1L147.4,47z
	 M147.6,50.5l0.1-0.2l-0.5-0.1l-0.1,0.3v0.1l0.2,0.2h0.2l0.2-0.2L147.6,50.5z M147.4,51.8h-0.2H147.4L147.4,51.8z M147.5,48h-0.2
	l-0.1,0.2l0.2,0.1l0.1-0.1L147.5,48z M147.6,51L147.6,51L147.6,51L147.6,51z M148.4,48.2h-0.2l-0.2,0.1l0.2,0.1l0.2-0.1L148.4,48.2z
	 M148.1,50.8L148.1,50.8l0.1-0.3L148.1,50.8z M148.5,49.9h-0.1l-0.1,0.2l0.1-0.1L148.5,49.9z M149.7,47.9h-0.3l-0.1,0.2v0.1h0.1
	l0.3-0.1L149.7,47.9z M150.1,47.7l-0.2,0.1l0,0L150.1,47.7z M152.1,45.9l-0.2-0.1l-0.2,0.1V46l0.2,0.3L152.1,45.9L152.1,45.9z
	 M152.8,46.2l-0.2-0.1l0.1,0.1l0.1,0.2L152.8,46.2L152.8,46.2z M153.7,48.7L153.7,48.7l-0.1,0.1l0.1,0.1l0,0V48.7z"/>
<path class="st0" d="M39,68.2h5.7v1.5h-4v1.5h3.5v1.5h-3.6v1.6h4.1v1.5H39V68.2z"/>
<path class="st0" d="M54.8,68.3l-2.5,3.7l2.6,3.8h-1.9l-1.7-2.6l-1.7,2.6h-1.9l2.6-3.8l-2.5-3.7h1.9l1.6,2.4l1.6-2.4L54.8,68.3z"/>
<path class="st0" d="M58.2,68.3h3.1c0.4,0,0.8,0.1,1.2,0.2c0.3,0.1,0.6,0.3,0.9,0.5c0.2,0.2,0.4,0.5,0.6,0.8
	c0.1,0.3,0.2,0.7,0.2,1.1l0,0c0,0.4-0.1,0.8-0.2,1.1c-0.1,0.3-0.4,0.6-0.7,0.8c-0.3,0.2-0.6,0.4-1,0.5c-0.4,0.1-0.8,0.2-1.2,0.2
	h-1.2v2.2h-1.7L58.2,68.3z M61.2,72.1c0.4,0,0.7-0.1,1-0.3c0.2-0.2,0.3-0.5,0.3-0.8l0,0c0-0.3-0.1-0.6-0.3-0.8
	c-0.3-0.2-0.6-0.3-1-0.3h-1.3v2.3L61.2,72.1z"/>
<path class="st0" d="M67.4,68.3H73v1.5h-4v1.5h3.6v1.5H69v1.6h4.1v1.5h-5.7L67.4,68.3z"/>
<path class="st0" d="M76.6,68.3h3.4c0.8,0,1.6,0.2,2.2,0.8c0.4,0.5,0.7,1.1,0.7,1.7l0,0c0,0.5-0.1,1.1-0.4,1.5
	c-0.3,0.4-0.7,0.7-1.2,0.8l1.8,2.7h-1.9l-1.6-2.4h-1.3v2.4h-1.6V68.3z M79.9,71.9c0.3,0,0.7-0.1,0.9-0.3c0.2-0.2,0.3-0.5,0.3-0.8
	l0,0c0-0.3-0.1-0.6-0.3-0.8c-0.3-0.2-0.6-0.3-1-0.3h-1.6v2.2L79.9,71.9z"/>
<path class="st0" d="M86.5,68.3h1.7v7.5h-1.7L86.5,68.3z"/>
<path class="st0" d="M92.1,68.3h5.7v1.5h-4v1.5h3.5v1.5h-3.6v1.6h4.1v1.5h-5.7L92.1,68.3z"/>
<path class="st0" d="M101.3,68.3h1.5l3.5,4.6v-4.6h1.6v7.5h-1.4L103,71v4.8h-1.6L101.3,68.3z"/>
<path class="st0" d="M115.1,76c-0.5,0-1.1-0.1-1.5-0.3c-0.9-0.4-1.6-1.1-2-2c-0.2-0.5-0.3-1-0.3-1.5l0,0c0-1,0.4-2,1.1-2.7
	c0.3-0.4,0.8-0.7,1.2-0.8c0.5-0.2,1-0.3,1.6-0.3c0.3,0,0.7,0,1,0.1c0.3,0.1,0.5,0.1,0.8,0.2c0.2,0.1,0.4,0.2,0.7,0.4
	c0.2,0.1,0.4,0.3,0.6,0.5l-1,1.2c-0.3-0.3-0.6-0.5-0.9-0.6c-0.6-0.3-1.3-0.3-1.9,0c-0.3,0.1-0.5,0.3-0.7,0.5
	c-0.2,0.2-0.4,0.5-0.5,0.7c-0.1,0.3-0.2,0.6-0.2,0.9l0,0c0,0.3,0.1,0.6,0.2,0.9c0.1,0.3,0.3,0.5,0.4,0.8c0.2,0.2,0.4,0.4,0.7,0.5
	c0.3,0.1,0.6,0.2,0.9,0.2c0.4,0,0.8-0.1,1.1-0.2c0.3-0.2,0.6-0.4,0.9-0.6l1,1.1c-0.2,0.2-0.4,0.4-0.6,0.6c-0.2,0.2-0.4,0.3-0.7,0.4
	c-0.3,0.1-0.5,0.2-0.8,0.3C115.8,76,115.4,76,115.1,76z"/>
<path class="st0" d="M121.5,68.3h5.7v1.5h-4v1.5h3.6v1.5h-3.6v1.6h4.1v1.5h-5.7L121.5,68.3z"/>
<polygon class="st0" points="82.9,26 83.8,27.7 85.7,28 84.3,29.3 84.6,31.2 82.9,30.3 81.2,31.2 81.6,29.3 80.2,28 82.1,27.7 "/>
<polygon class="st0" points="74.4,26.9 74.9,28 76.1,28.2 75.2,29.1 75.4,30.3 74.3,29.7 73.3,30.3 73.5,29.1 72.6,28.2 73.8,28 "/>
<polygon class="st0" points="91.5,26.9 92.1,28.1 93.3,28.2 92.4,29.1 92.6,30.3 91.5,29.7 90.4,30.3 90.6,29.1 89.8,28.2 91,28.1 
	"/>
<polygon class="st0" points="67.4,27.5 67.8,28.2 68.5,28.4 68,28.9 68.1,29.7 67.4,29.3 66.7,29.7 66.8,28.9 66.3,28.4 67.1,28.2 
	"/>
<polygon class="st0" points="98.5,27.6 98.8,28.3 99.6,28.4 99,28.9 99.2,29.7 98.5,29.3 97.8,29.7 97.9,28.9 97.3,28.4 98.1,28.3 
	"/>
<path class="st0" d="M51,18.4l1.3-0.5l5.1,5.4l-1.5,0.5l-1.1-1.2l-2.7,1l-0.1,1.6l-1.4,0.5L51,18.4z M53.9,21.7l-1.6-1.8l-0.1,2.4
	L53.9,21.7z"/>
<path class="st0" d="M58.5,16l1.5-0.4l2.4,2.4l1.1-3.2l1.6-0.4l1.5,6.6l-1.4,0.3l-1-4.3L63,20.4l0,0L60.4,18l1,4.3L60,22.6L58.5,16z
	"/>
<path class="st0" d="M69.1,13.8l5.1-0.6l0.2,1.3L70.7,15l0.2,1.4l3.2-0.4l0.2,1.3L71,17.7l0.2,1.4l3.7-0.4L75,20l-5.1,0.6L69.1,13.8
	z"/>
<path class="st0" d="M77.9,13l3.1-0.1c0.7-0.1,1.4,0.2,2,0.6c0.4,0.4,0.6,1,0.6,1.5l0,0c0,0.5-0.1,1-0.4,1.4c-0.3,0.4-0.6,0.6-1,0.8
	l1.8,2.4h-1.8l-1.5-2.1h-1.2v2.2h-1.5L77.9,13z M81,16.2c0.3,0,0.6-0.1,0.8-0.3c0.2-0.2,0.3-0.4,0.3-0.7l0,0c0-0.3-0.1-0.5-0.3-0.7
	c-0.3-0.2-0.6-0.2-0.9-0.2h-1.5v1.9L81,16.2z"/>
<path class="st0" d="M87,13l1.5,0.1l-0.3,6.8l-1.5-0.1L87,13z"/>
<path class="st0" d="M94.8,20.6c-0.5-0.1-0.9-0.2-1.3-0.4c-0.4-0.2-0.7-0.5-1-0.9c-0.3-0.4-0.5-0.8-0.6-1.2
	c-0.1-0.5-0.2-0.9-0.1-1.4l0,0c0.1-0.5,0.2-0.9,0.4-1.3c0.2-0.4,0.5-0.7,0.9-1c0.4-0.3,0.8-0.5,1.2-0.6c0.5-0.1,1-0.2,1.5-0.1
	c0.3,0,0.6,0.1,0.8,0.2c0.2,0.1,0.5,0.2,0.7,0.3c0.2,0.1,0.4,0.2,0.5,0.4c0.2,0.2,0.3,0.3,0.4,0.5l-1.1,1c-0.2-0.3-0.5-0.5-0.7-0.7
	c-0.3-0.2-0.6-0.3-0.9-0.3c-0.3,0-0.5,0-0.8,0.1c-0.3,0.1-0.5,0.2-0.7,0.4c-0.2,0.2-0.4,0.4-0.5,0.6c-0.1,0.2-0.2,0.5-0.2,0.8l0,0
	c-0.1,0.3-0.1,0.6,0,0.8c0.1,0.5,0.4,1,0.9,1.3c0.2,0.1,0.5,0.2,0.8,0.3c0.3,0.1,0.7,0,1-0.1c0.3-0.1,0.6-0.3,0.9-0.5l0.8,1.1
	c-0.2,0.2-0.4,0.3-0.6,0.4c-0.2,0.1-0.4,0.2-0.7,0.3c-0.2,0.1-0.5,0.1-0.8,0.1C95.4,20.7,95.1,20.6,94.8,20.6z"/>
<path class="st0" d="M103.8,15.1l1.3,0.3l1.3,7.3l-1.5-0.4l-0.3-1.6l-2.8-0.7l-1,1.4l-1.5-0.4L103.8,15.1z M104.4,19.4L104,17
	l-1.4,2L104.4,19.4z"/>
<path class="st0" d="M110.8,17l1.3,0.5l1.6,5l1.4-4l1.4,0.5l-2.3,6.4L113,25l-1.6-5.2l-1.5,4.2l-1.4-0.5L110.8,17z"/>
<path class="st0" d="M82.9,102.7c-21.4,0-41.6-6.1-55.7-16.8h-12C8.2,85.9,2.4,80.1,2.4,73V32c0-7.1,5.8-12.8,12.9-12.8h13.8
	C43.2,8.5,62.8,2.4,82.9,2.4s39.7,6.1,53.8,16.8h13.8c7.1,0,12.9,5.8,12.9,12.9v41c0,7.1-5.8,12.9-12.9,12.9h-12
	C124.6,96.6,104.3,102.7,82.9,102.7z M15.3,20.6C9,20.6,3.9,25.8,3.8,32.1v41c0,6.3,5.2,11.4,11.5,11.4h12.4l0.2,0.2
	c13.8,10.6,33.8,16.6,55,16.6s41.2-6.1,55-16.6l0.2-0.2h12.4c6.3,0,11.4-5.1,11.4-11.4V32c0-6.3-5.1-11.4-11.4-11.5h-14.3l-0.2-0.1
	C122.2,9.9,102.8,3.8,82.9,3.8S43.7,9.9,29.8,20.5l-0.2,0.1H15.3z"/>
<path class="st0" d="M82.9,105.1c-21.5,0-42.1-6.1-56.5-16.8H15.3C6.9,88.3,0,81.5,0,73V32c0-8.4,6.9-15.3,15.3-15.3h13
	C42.8,6.1,62.7,0,82.9,0s40.2,6.1,54.7,16.8h13c8.4,0,15.3,6.9,15.3,15.3v41c0,8.4-6.9,15.3-15.3,15.3h-11.2
	C125,99,104.4,105.1,82.9,105.1z M15.3,17.4C7.2,17.4,0.6,24,0.6,32.1v41c0,8.1,6.6,14.7,14.7,14.7h11.4l0.1,0.1
	c14.3,10.6,34.8,16.7,56.2,16.7s41.9-6.1,56.2-16.7l0.1-0.1h11.4c8.1,0,14.7-6.6,14.7-14.7V32c0-8.1-6.6-14.7-14.7-14.7h-13.2
	l-0.1-0.1C122.9,6.7,103.1,0.6,82.9,0.6S43,6.7,28.6,17.3l-0.1,0.1H15.3z"/>
<g>
	<path class="st0" d="M67.7,89l2.5-2.1c0.2-0.2,0.4-0.4,0.6-0.5c0.2-0.2,0.3-0.3,0.4-0.4c0.1-0.1,0.2-0.3,0.2-0.4
		c0-0.1,0.1-0.3,0.1-0.4c0-0.3-0.1-0.6-0.3-0.7c-0.2-0.2-0.4-0.2-0.7-0.2c-0.3,0-0.6,0.1-0.8,0.2c-0.2,0.2-0.5,0.4-0.8,0.8l-1.2-0.9
		c0.2-0.3,0.4-0.5,0.6-0.7c0.2-0.2,0.4-0.4,0.6-0.5c0.2-0.1,0.5-0.2,0.7-0.3c0.3-0.1,0.6-0.1,0.9-0.1c0.4,0,0.7,0.1,1.1,0.2
		c0.3,0.1,0.6,0.3,0.8,0.5c0.2,0.2,0.4,0.4,0.5,0.7c0.1,0.3,0.2,0.6,0.2,1v0c0,0.3,0,0.6-0.1,0.8c-0.1,0.2-0.2,0.5-0.4,0.7
		c-0.2,0.2-0.4,0.4-0.6,0.7c-0.3,0.2-0.5,0.5-0.9,0.7L70,88.8l3.3,0l0,1.4l-5.6,0L67.7,89z"/>
	<path class="st0" d="M79.9,90.4c-0.5,0-1-0.1-1.4-0.3c-0.4-0.2-0.8-0.5-1.1-0.8c-0.3-0.3-0.5-0.8-0.7-1.2c-0.2-0.5-0.2-1-0.2-1.5v0
		c0-0.5,0.1-1.1,0.2-1.5c0.2-0.5,0.4-0.9,0.7-1.2c0.3-0.4,0.6-0.6,1.1-0.8c0.4-0.2,0.9-0.3,1.4-0.3c0.5,0,0.9,0.1,1.4,0.3
		c0.4,0.2,0.8,0.5,1.1,0.8c0.3,0.3,0.5,0.8,0.7,1.2c0.2,0.5,0.2,1,0.2,1.5l0,0c0,0.5-0.1,1.1-0.2,1.5c-0.2,0.5-0.4,0.9-0.7,1.2
		c-0.3,0.4-0.6,0.6-1.1,0.8C80.8,90.3,80.4,90.4,79.9,90.4z M79.9,88.9c0.3,0,0.5-0.1,0.7-0.2c0.2-0.1,0.4-0.3,0.5-0.5
		c0.1-0.2,0.3-0.5,0.3-0.7c0.1-0.3,0.1-0.6,0.1-0.9v0c0-0.3,0-0.7-0.1-0.9c-0.1-0.3-0.2-0.5-0.3-0.8c-0.1-0.2-0.3-0.4-0.5-0.5
		c-0.2-0.1-0.4-0.2-0.7-0.2c-0.3,0-0.5,0.1-0.7,0.2c-0.2,0.1-0.4,0.3-0.5,0.5c-0.1,0.2-0.2,0.5-0.3,0.7c-0.1,0.3-0.1,0.6-0.1,0.9
		l0,0c0,0.3,0,0.7,0.1,1c0.1,0.3,0.2,0.5,0.3,0.8c0.1,0.2,0.3,0.4,0.5,0.5S79.6,88.9,79.9,88.9z"/>
	<path class="st0" d="M86.4,89l2.5-2.1c0.2-0.2,0.4-0.4,0.6-0.5c0.2-0.2,0.3-0.3,0.4-0.4c0.1-0.1,0.2-0.3,0.2-0.4
		c0-0.1,0.1-0.3,0.1-0.4c0-0.3-0.1-0.6-0.3-0.7c-0.2-0.2-0.4-0.2-0.7-0.2c-0.3,0-0.6,0.1-0.8,0.2c-0.2,0.2-0.5,0.4-0.8,0.8l-1.2-0.9
		c0.2-0.3,0.4-0.5,0.6-0.7c0.2-0.2,0.4-0.4,0.6-0.5c0.2-0.1,0.5-0.2,0.7-0.3c0.3-0.1,0.6-0.1,0.9-0.1c0.4,0,0.7,0.1,1.1,0.2
		c0.3,0.1,0.6,0.3,0.8,0.5c0.2,0.2,0.4,0.4,0.5,0.7c0.1,0.3,0.2,0.6,0.2,1v0c0,0.3,0,0.6-0.1,0.8c-0.1,0.2-0.2,0.5-0.4,0.7
		c-0.2,0.2-0.4,0.4-0.6,0.7c-0.3,0.2-0.5,0.5-0.9,0.7l-1.2,0.9l3.3,0l0,1.4l-5.6,0L86.4,89z"/>
	<path class="st0" d="M96.5,84.4l-1.3,0.3l-0.3-1.4l2.2-0.6l1.1,0l0,7.6l-1.6,0L96.5,84.4z"/>
</g>
</svg>
