<svg xmlns="http://www.w3.org/2000/svg" width="182.831" height="93.456" viewBox="0 0 182.831 93.456"><g transform="translate(5.672)"><path d="M758.706-702.951l1.677,4.274a26.722,26.722,0,0,0,4.8-4.643l2.055,1.228a43.637,43.637,0,0,1-6.076,5.4l1.168,2.976c.3.762.648.728,3.311-.317,1.627-.638,3.433-1.449,5.333-2.4l.821,2.093c-1.814.867-3.2,1.463-5.1,2.207-3.289,1.29-4.173,1.535-4.946,1.372a2.235,2.235,0,0,1-1.517-1.579l-3.81-9.713Zm8.481-.363a14.278,14.278,0,0,0-2.4-2.025l1.005-.913a15.869,15.869,0,0,1,2.42,1.948Zm1.651-1.459a15.05,15.05,0,0,0-2.394-2.061l.981-.835a10.751,10.751,0,0,1,2.37,1.9Z" transform="translate(-756.421 718.878)" fill="#fff"/><path d="M776.38-709.281l1.5.72a8.778,8.778,0,0,1-2.8,7.243l-1.886-1.21a6.03,6.03,0,0,0,2.311-4.33l-10.482,3.026-.58-2Zm-3.949,4.918.365,1.264c1.226,4.364.825,6.384-1.812,8.9l-2.129-1.242a5.615,5.615,0,0,0,2.169-3.319,8.375,8.375,0,0,0-.5-3.7l-.363-1.248Z" transform="translate(-748.344 717.255)" fill="#fff"/><path d="M782.64-710.921l1.561.931a21.846,21.846,0,0,1-1.874,5.857,46.167,46.167,0,0,1,5.546,3.363l-1.292,2.123a49.659,49.659,0,0,0-5.275-3.547,18.7,18.7,0,0,1-5.367,5.75l-1.681-1.792a16.5,16.5,0,0,0,7.313-10.343l-7.775,1.551-.407-2.047Z" transform="translate(-739.345 715.604)" fill="#fff"/><path d="M794.634-710.583a16.984,16.984,0,0,1-2.53,8.15,14.333,14.333,0,0,1-6.27,4.755l-1.457-1.82a12.506,12.506,0,0,0,5.484-3.756,21.665,21.665,0,0,0-3.971-2.159l1.14-1.732a20.678,20.678,0,0,1,3.951,1.98,12.379,12.379,0,0,0,1.152-4.127l-4.994.582a13.34,13.34,0,0,1-3.808,4.775l-1.653-1.425a11.813,11.813,0,0,0,4.432-7.079l2.277.251c-.088.351-.179.7-.365,1.32l5.247-.61Z" transform="translate(-731.003 714.078)" fill="#fff"/><path d="M796.416-706.363a23.958,23.958,0,0,1-4.785,2.518l-1.38-1.986a23.175,23.175,0,0,0,10.283-7.424l1.99,1.206a29.289,29.289,0,0,1-3.754,3.86l.361,9.191-2.422.094Z" transform="translate(-722.374 713.255)" fill="#fff"/><path d="M804.287-712.624l-.1,2.855c-.112,3.16-.289,4.569-.789,5.947a8.372,8.372,0,0,1-3.551,4.115l-1.553-1.9c2.841-1.8,3.4-3.092,3.535-8.226l.1-2.871Zm4.123-.3-.363,10.315a10.142,10.142,0,0,0,4.037-5.638l1.778,1.571a11.644,11.644,0,0,1-6.732,7.263l-1.5-1.272.433-12.322Z" transform="translate(-714.279 713.501)" fill="#fff"/><path d="M818.816-711.247l1.206,1.362a21.959,21.959,0,0,1-3.569,5.01,45.957,45.957,0,0,1,4.266,4.888l-1.878,1.629a49.4,49.4,0,0,0-3.947-4.98,18.716,18.716,0,0,1-6.86,3.849l-1.059-2.219a16.513,16.513,0,0,0,10.11-7.634l-7.877-.885.231-2.073Z" transform="translate(-705.543 714.216)" fill="#fff"/><path d="M829.714-707.112a17.034,17.034,0,0,1-4.87,7.008,14.376,14.376,0,0,1-7.412,2.641l-.839-2.175a12.484,12.484,0,0,0,6.354-1.928,21.464,21.464,0,0,0-3.13-3.252l1.611-1.308a20.711,20.711,0,0,1,3.164,3.08,12.318,12.318,0,0,0,2.345-3.585l-4.934-.953a13.338,13.338,0,0,1-5.074,3.4l-1.146-1.856a11.783,11.783,0,0,0,6.36-5.411l2.095.929c-.193.307-.381.614-.746,1.148l5.189,1Z" transform="translate(-696.675 715.07)" fill="#fff"/><path d="M824.1-699.274c6.691,1.354,9.882-.132,12.851-5.985l1.553,1.89c-3.284,6.2-7.024,7.863-14.559,6.471Zm6.774-5.2a33.1,33.1,0,0,0-4.791-3.255l1.346-1.806a21.517,21.517,0,0,1,4.838,3.2Z" transform="translate(-688.464 717.001)" fill="#fff"/><path d="M843.777-703.148l1.322,2.654c-2.588,5.594-5.935,7.287-12.5,6.34l-.383-2.366c5.568,1.168,8.664-.225,10.59-4.765l-9.145-3.5.746-1.95Zm4.713,1.065a1.967,1.967,0,0,1-2.542,1.124,1.977,1.977,0,0,1-1.11-2.54,1.977,1.977,0,0,1,2.538-1.108A1.97,1.97,0,0,1,848.49-702.082Zm-2.7-1.017a.938.938,0,0,0,.542,1.186.933.933,0,0,0,1.2-.536.942.942,0,0,0-.538-1.2A.943.943,0,0,0,845.788-703.1Z" transform="translate(-680.14 719.817)" fill="#fff"/></g><g transform="translate(0 50.364)"><path d="M782.015-680.127v.415l.185.183-.415.325-.046.506-.187.325-.092.415-.459.092-.6.6-.415.046-.323.138-.184-.046-.508.046-.277-.092-.462.046-.323-.092-.323-.369-.277-.092-.231-.092-.277-.461-.046-.277-.185-.367-.136-.415.044-.369.092-.646.046-.092.185-.785.323-.185.092-.231.231-.185.092-.277-.231-.415-.092-.369-.323-.277-.323-.323-.136-.231-.415-.231-.415-.185-.325-.185-.275-.046-.323-.092h-.508l-.371-.185h-.184l-.69-.046-.461.139-.187.046-.367.138-.233.092-.508.323-.136.046-.279.138-.275.323-.461.415-.046.231-.185.369-.046.277-.185.277-.046.415.231.369-.277.462-.046.046.185.552.046.415v.325l.046-.046.231.415.046.508.231.461.185.275.046.139.277.323.136.415.279.231.369.415.231.092.136.461.323.277.141.277.275.369.371.092.369.646.09.138.14.046.229.415.187.277.092.046.185.415.231.415.459.323.14.277.044-.092.279.506.185.415-.048.279.464.415.229.185.094.459.136.325.138-.046.139.736.094.233.044.552.138.185.092.554v.046l-.185.554.508.692-.09.461v.277l.136.231-.136.554-.233.554.185.508-.139.231.139.277-.185.415-.185.69-.046.233v.229l-.323.092-.185.6-.138.554v.321l-.277.277.048.092-.464.323-.092.415-.323.277.046.138-.506.369-.092.046-.185.369-.323.231-.371.323-.229.092-.371.185-.367.369-.185.092-.371.231-.367.138h-.092l-.415.277-.323.185-.461.092-.415.185-.231.138-.369.092h-.277l-.323.185H768.4l-.092.092-.785.046-.231-.046-.138.231-.506-.092h-.6l-.738.046-.508-.092h-.692l-.371-.092-.275-.138-.464.092-.413-.092-.415-.139-.461.046-.369-.277-.415-.185-.323-.092-.508-.092-.185-.185-.415-.185-.323-.138-.369-.185-.323-.185V-656l-.231-.092-.6-.277-.139-.046-.369-.415-.231-.185-.136-.323-.464-.323-.275-.231-.184-.231-.233-.323-.09-.185-.092-.231-.323-.413-.233-.325-.044-.185-.231-.367-.048-.14-.136-.275-.185-.415.044-.461-.323-.415.048-.277-.185-.323v-.415l.136-.231-.367-.369.139-.554.092-.092-.092-.461.185-.462-.092-.461.136-.785-.183-.139.367-.554.138-.415-.138-.185.508-.505.048-.141.275-.231.048-.323.415-.554.183-.136.185-.233.277-.229.187-.369.415-.046.321-.231.187.046.367-.369.185-.092.508-.092.323-.048.185.094.371-.277.6.092h.646l.231.277.646-.046.323.139.369.183-.092.046.692.233.139.183.136.094.371.508.185.275.139.233-.046.229.231.508.092.092-.185.508-.231.415-.556.046-.415.185-.229-.046-.415.138-.461.185-.185.046-.277.369-.323.277-.185.092-.231.323-.185.415-.231.369v.138l-.231.6-.092.231-.139.185.046.692v.231l.092.6-.046.231.092.185.092.277.231.369v.6l.185.183.046.187v.413l.508.415.323.187v.09l.323.323.554.185.229.277.187-.046.369.508.508.046H763l.323.138.6.138.279.092.092.231.967-.323.323.138.048-.092.552.092.415.138.692-.323.187-.185.321-.185.508-.046.138-.046.508-.415.231-.046.323-.415L769.7-659l-.046-.092.646-.552.277-.415.092-.185.183-.277v-.139l.187-.141.229-.508.048-.644.185-.277.092-.046v-.277l.183-.784v-.231l-.044-.184.185-.323-.092-.462v-.369l-.185-.138.044-.6.092-.277-.275-.415-.092-.369-.048-.415-.275-.554v-.323l-.185-.415-.231-.277-.231-.413-.277-.141-.092-.508-.046-.046-.323-.462v-.09l-.231-.508-.508-.369-.092-.231-.046-.092-.461-.508-.185-.231-.138-.277-.323-.415-.185-.138-.185-.277-.231-.185-.231-.231-.369-.462-.138-.415v-.092l-.369-.138-.046-.646-.277-.277-.185.046-.275-1.015-.048-.092v-.6l-.275-.323v-.231l-.185-.462.092-.321-.233-.6-.138-.14.138-.6-.044-.231.136-.692v-.277l-.092-.231.233-.415v-.415l.323-.369v-.277l.275-.323v-.554l.233-.185.185-.138.231-.461.275-.369.185-.092.231-.323-.09.185.69-.785h.046l.461-.462.277-.092.139-.136.369-.187.231-.229.461-.046.415-.141.138-.275.369-.092.6-.046.094-.048.369-.092.508-.09.552.044.323-.044h.279l.277.136.367-.136.556.044.323.092.415.046.275.094.369.046.048.136.552.046.508.233.231.046.231.229h.323l.369.185.415.277.369.139.415.323.231.279.138.09.277.139.369.461v-.046l.505.6.185.185-.044.185.459.461-.092.046.325.462.275.277.14.462v.369l.139.231.044.231-.044.646.136.552v.187Zm-27.083,15.779-.231-.046-.048.231.048.046.231-.046Zm-.092,3.092-.092.092v.092h.044l.092.046Zm.277-3.83h-.185l-.092.185.185.138.092-.138Zm.415-1.707-.141.046-.092.185-.092.046-.231.231.279.138.229-.046v-.231l.138-.046Zm.415,5.63-.415-.141-.233.279.233.323.275-.277Zm1.013-5.953h-.6l-.092.277.229.231.6-.277Zm.325.369-.187.092-.138.185.325-.092Zm1.382,8.03-.415.044v.046l-.277-.185h-.415l-.508.415.415.185.277.369.092.092.092.046.187.138.044.092.323-.323.14-.185-.14-.277.092-.138Zm-1.246-11.445h-.136l-.14.094.048.138.275-.092Zm0,5.215-.136-.092-.092.185.044.092.277-.046Zm.554,1.338-.508.092-.275-.231.044.6v.185l.371.277.413-.231Zm-.415,1.431-.275-.046-.048.138.139.185.138-.231Zm.092.6-.323.092-.044.183.229.233.094-.185Zm.048-6,.092-.323-.279-.046-.138.325.092.136-.046.139h.138l.048-.046.092-.046Zm-.141,9.412.277.415h.046l.046.046.138.046.369-.231-.092-.231.139-.139-.046-.138v-.138l-.185-.092v.185l-.644-.092-.14.323Zm.462-12.089H757.7l-.092.279.275.092.185.136.092-.09.048-.325h-.233Zm.231,10.7-.369-.136-.231.462.231.182.369-.046Zm-.092-6.413-.323-.185-.092.277.185.185.092-.139Zm-.092-2.167-.138.046.046.09Zm.969.736v-.185h-.277l-.323-.185-.092.046-.323.508.415.231.092.092h-.046l-.367.277.136.462.323.277.138.185.277-.415.231-.185.185-.369-.046-.046-.508-.185.231-.092Zm-.921,4.753v-.138l-.048.092Zm.321,2.352-.321-.275v.323h.321Zm.6,2.492h-.508l-.277.277.231.323.14.139-.371.231.231.092.14-.323.044.046.508.138.415-.184-.139-.369v-.138l-.369-.092Zm-.508-9.089.094.092.229-.092-.092-.046Zm.323-3.323-.092-.09-.092.185.046.092-.138.092.092.137.138-.09.046.09.046-.137h.138l.231-.185-.369.139.046-.092Zm.046.279v-.046h-.092Zm.323,9.412-.185-.092-.138.136.323.233.139-.094Zm.323,1.105h-.138l-.139.092.231.277.092-.182Zm.231,2.723-.323-.138-.138.415.277.231.277-.046Zm.092-1.938-.231.092v.092l.138.231.138-.138Zm.508-11.487-.277-.048-.092.325.138.09.277-.09Zm.323,13.7-.092-.046-.138.092.046.092.323-.046Zm.923-12.781-.185.046-.369-.046-.231.187-.185.321.092.046.046.277.182-.136h.094l.092.044.229-.09.187-.233Zm-.6,11.9-.185-.046-.138.323.185-.046h.185Zm-.092-11.443-.185.046v.046l.229.141.048-.046Zm.092,12.5h-.138l-.046.046.185.231.092-.046Zm1.8.831H763l.187-.092v-.092l.323-.369v-.092l.277-.323-.048-.046-.044-.092-.694-.139h-.277l-.09-.231-.554-.092-.277-.277-.369-.046-.138.138v.139l-.277.415.277.323.09-.092.048-.323.277.092.508-.092.139.092-.048.092.092.138.048.185-.14.277-.044.323.092-.092.367.277H762.4l.279.185Zm-1.475-13.289-.277.046.092.185Zm-.046,11.674v.231l.138.092.044-.277Zm.784-12.825-.094-.046-.136.229.092.141.138-.046Zm.229.644-.09-.046-.233.141.233.183.139-.09Zm-.229,12.227h-.094l.233.277.139-.046Zm.185-12.594-.231.046.138.136Zm.136,13.148v.046l.233.231-.141-.092-.044.046.044.092.048.139.415.184.275.046.092-.046.187-.277.136-.415-.367.046-.185.046-.323-.277h-.048l-.367-.231Zm.323,1.015h.092l.048-.046Zm.141-.646h-.048l.092-.092Zm.277.508.046-.046v-.092Zm1.106-1.015-.136.046-.092.092.092.185.229-.092Zm.738,1.246-.367-.138.044.185.277.138Zm-.231-.969-.044-.046.136.369.464-.092-.14-.138Zm.556.415-.14.092-.044.092.136.092.185-.092Zm.09.646-.046-.092-.092.138.092.185h.139Zm.046-22.653-.092.044.139.092Zm.6,20.945-.279.046-.136.139.229.323.323-.184Zm.044,1.061.141-.046.367-.277-.138-.139h-.413l-.371.046Zm-.231-22.793.046.138v-.138Zm.138.415-.046.138h.094Zm.048-4.059.185-.231v-.092Zm.275,27.544-.183.092.183.046Zm.325-25.606-.279.461.279.185.229-.185Zm.875-3.369v-.323l-.459.092h-.187l-.184.369-.185.277.369.092.554-.092Zm-.459,26.76h-.187l-.138.092.046.231.231-.046Zm.044-24.36-.092.231.048.277.136-.231Zm.969-3.553H767.8l-.185.231-.231.139.277.508.646-.323Zm.185,7.382-.369-.046-.231.277.231.231.323-.092Zm.923,1.338-.185-.092h-.461l-.231.369.231.231.323.277-.508.046h-.231l-.046.092-.139-.139-.138.323-.092.323.323.231.231-.046h.138l.323-.185.092.277.369-.046-.046-.554-.369.046.092-.369.092-.185.369-.231Zm-.969,20.624-.369-.138v.415l.277-.092.415-.046Zm0-26.391-.185.046-.139.231h.508Zm.554-3.046-.138-.277-.277.415.369.139.139-.185Zm-.185,1.2h-.046v.185h.092Zm.461.415-.184.092-.231.138.231.138.277-.092Zm-.184,5.259h-.185l-.046.187.046.046.092.044Zm.046-5.351-.231-.138.046.277.277-.138Zm.046,26.575.185-.046v-.277l-.369.231Zm.277.185h-.277l-.185.231.415.554.185-.231Zm1.015.692-.092.046-.138.138-.046-.415-.369.046-.185.277-.231.138.785.046.185.185.231-.185Zm-.554-27.775h-.138l-.231.231.461.092Zm-.046,10.889-.185-.046-.092.139.092.185.231-.092Zm0,15.871h-.138l-.046.185h.277Zm.69-.462.048-.138h-.646l-.046.138-.138.092.046.046v.092l.092.138.138.415v.139l.277-.139v-.277l.277-.138Zm-.459-.046h-.138l-.046.046-.092.138.092.046.185-.092Zm.092-17.394-.277-.092-.046.231.046.185.369-.046Zm-.139,18.224.185-.231.092-.046v-.046l-.369.046.092.231Zm.415-17.9-.092-.046-.369.323.692.138Zm-.231-.785-.139.046-.046.092v.277l.415-.092Zm.231,16.748-.277.046v.139l.231.092.231-.092Zm-.231,2.815-.046.092h.092Zm1.292-2.677-.092-.323-.277.139-.138.185-.185.277-.415.277-.185.138.092.092.323-.138.321.092.141-.138-.048-.046.14-.092.138-.046.323-.046Zm-.277-13.564h-.092l.046-.092-.415-.046-.233.092.141.231-.092.046-.231.369.415.138.508-.092Zm-.415-4.107-.279.092-.09.092.138.185.231-.092Zm-.279,18.271.094.046.139-.046-.046-.139.138.231.183-.138-.092-.323-.182.092Zm.6-14.164-.323.046-.138.138.046.046.415-.046Zm-.094-3.83-.136-.092-.138.185.231.138h.184Zm.415,18.317-.183-.369-.415.462.369.508.554-.277Zm-.415-27.775-.044-.046.092.231Zm.187,28.7h-.187l-.044.185.092.138.231-.185Zm.136-18.363-.136-.092-.187.323.323.138.185-.092Zm.185,3.969h-.413l-.094.413.14.187.046.369.554-.323Zm0,.139-.367.138.275.137.14.048v-.231l-.092.136Zm.094-1.661-.187-.092-.137.185.137.138.14-.138Zm.092-13.1-.139-.092-.233.092.092.323.415-.139Zm-.187,12.827-.044-.046-.048.046.048.185Zm.141-.508-.185.046.044.277.141-.046Zm.275,16.979h-.136l-.279.185.323.138.184-.046Zm.923-2.953-.6-.046V-659l-.136.138-.415.046-.139.369.139.141.229.275.141-.046.046-.046.046.046.275-.046v-.415l.092.092h.138l.508-.139-.09-.277-.046-.231-.323-.09Zm-.967-1.844-.048-.046v.046Zm.692-25.285h-.325l-.09.277-.141-.046-.136.139.044.092.233-.046.046.277.415-.323Zm.69,17.442-.6.09v.138l.048.046h-.092v-.508h-.694l-.044.046h.092l.367.785.185-.09h.231v-.187l.325.277.323-.277Zm-1.015,11.579-.231.138-.136.138.459-.046Zm-.09-29.99-.141-.046h-.044l-.048.092.141.094.231-.046Zm.415,16.611-.185-.277v.092l-.048-.14-.415.048v.508l.463-.231.092.09.138-.044Zm-.185,3.136-.277.048-.138.183.138.138.136.046Zm-.048,7.659-.275-.09v.321l.182.094Zm-.229,1.154-.046.046h.182l-.044-.046Zm.277-11.164h-.277v.321l.229.233.185-.187-.092-.138h.279l-.048-.09h-.231Zm0,2.813-.231.046-.046.046.185.323.092-.185Zm-.092,8.72-.185.046v.323l.136-.092-.044-.046.136.046Zm-.048-27.683H772v.138h.046Zm-.044,23.9.136-.277L772-662.64l.046.415Zm.044,3.275.048.046v-.092Zm.048.046.044.046v.231l.048.092-.092.092-.048-.323h.048Zm.044-15.5h-.044l.229.369v-.046Zm.048,11.489-.092.185.229.092Zm.185-2.769-.233.046.092.323v.046Zm-.185-5.259v.185l.044-.046Zm.231,2.259h-.231v.277l.092-.044h.044l.094-.046Zm-.231,10.15.044.046v-.046Zm.137-5.259h-.092v.231h.092Zm.138,2.677h-.138l-.044.184.231-.046Zm1.846-9.045h-.046l.046-.046-.09-.321.459.321-.508-.506-.136-.323-.185-.185-.187.046-.415-.092-.044-.231-.185-.138-.371-.185-.092.092-.231.323v.231l.138.506.508.141.092.231.233.183.183.369.048.279.229-.141-.092-.229.231-.138.048-.046v.092l.185.229.552-.183Zm-1.661,13.519-.229-.138-.046.323.09.138h.185Zm.971-9.135-.323-.046.183-.046-.092-.508-.367.092-.371-.092.187.739-.046-.046h-.185l-.185.138.277.185.184-.092.09.184-.136.092.136.046v-.092h.048l.092.046.323.231.229-.323Zm-1.108-2.907.044.046v-.046Zm.229,6.368-.136-.046-.048.323.279-.092Zm.831,3.967-.323.185h-.185l-.183.277-.233.185.415.139h.279v-.231l.185-.231Zm-.69-7.2-.046-.046h.046Zm.275,1.154-.321-.231.185.369h.137Zm.463-21.916-.233-.046-.323-.046-.044.185-.138.323.231.323.275-.092h.233l.183-.136Zm-.738,20.763v.092l.046-.046Zm.09.277v.046l.048-.092Zm0,7.659.14.046.231-.231v-.046h-.279Zm1.063-10.658-.141-.323-.231.141h-.321l-.231.229-.092.187.092.229.415.185.323-.139.136.092Zm-.648-3.505h-.09l-.14.139.231-.046Zm-.044.739-.138.185.275.138.092-.138v-.277Zm.552,6.412-.367.046-.14.323.325.092.044.092-.369.461-.139.231.279.046.367.323.325-.277.323-.046.044-.461-.323-.369-.277-.138H773.9l.092-.092Zm-.044,5.536-.508-.185.044.277.092.138L773.8-659Zm-.094-1.013-.136-.046-.233.229.233.185.044-.092.138-.182Zm-.277-9.689v.044l.141-.09h-.092Zm.323,1.613-.138-.046-.136.508.275-.185Zm.462.692-.277.046-.044.277v.184h-.048l.141.369.044.046-.136.046-.14-.046-.046.092v.046l-.092.139.138.185.14-.046h.044l.092-.046.048-.046.092-.046-.048-.046v-.138l.231.092.185-.138.139-.185-.046-.138.046-.046-.046-.138h-.092l-.044-.185-.279-.138Zm-.277,6.736-.185-.138-.138.138.092.233v.046l.046.044h.185l-.044-.044.229-.092Zm-.275-3.413.138-.138-.138-.046Zm.646-21.778-.323.092-.048.138-.044.092-.14.046.185.092.092-.185.185.139.231-.092Zm-.094,26.575-.369-.229-.092.275.185.141v.046l.233.09.138-.046-.048-.136h-.046l.094-.048Zm-.321-10.656.321-.14-.229-.09Zm.136,3.459.092.092.048-.139Zm.371-4.705-.323.183.275.048Zm.092,2.4-.279-.183-.137.275.183.138.141-.046Zm-.048,9.874-.323.046v.138l.187.046Zm.048-7.751.136-.092-.092-.185-.136.138Zm.323,7.474-.141.094-.231.182.231.046.233-.092Zm-.141-1.523-.183.046.092.048v.185l.09-.138Zm.369-3.875-.185-.185-.323.323.464.231.044-.139v.092l.508-.046-.092-.323h-.277l-.092.139Zm.092,2.677-.369-.046-.231.508.231.229.277-.09.046-.092.046-.508v-.092l.187.367.459-.229.048-.092.136-.323-.6-.277.231-.139.141-.185.275-.323.046-.046.138.139.231-.046-.182-.231H776.2l.046-.046-.413-.138v-.138l-.141.092-.182-.092-.092-.138-.187-.138-.046.138.14.138-.094.092-.277.461h-.092l.415.554.048.046-.094.184-.092.277Zm-.277-23.07-.231-.092-.044.185.044.092.231.046Zm.092,22.378h-.092l-.138.092H775l.092-.046Zm.138,2.444.369-.413-.277-.046.048-.187-.323.092-.048-.046v.046h-.138l.094.233.044.046v.183h-.092l.092.092.048.186.044-.046v.183l.185-.136Zm.092-.46-.275-.094h-.048v.279l.14.09h.183Zm-.231.6.138-.14v-.092h-.231v.092l.092.094Zm.692-7.014-.369-.231-.044-.369h-.231v.277l.044.185h.138l.048.231.185.415.323-.323Zm-.369-.231-.092-.046v.138l.092-.046Zm.14,3.553-.14-.046-.044.046.092.092.136-.046Zm-.048,1.154-.092-.046-.044.046Zm-.092-23.855.233.185h.136ZM775.6-663.7l-.141.277h.092Zm.044,3.736h-.136l-.048.139.185.094.046.046Zm.187-7.843-.187.092-.044.138.231.185Zm.092,1.569-.323.092.136.092Zm-.092,2.538-.141-.046.141.138Zm.459-2.031-.185-.185-.09.323-.185-.046-.048.185.184.138.092-.092v-.046l.046.092.415.046Zm-.185-.923-.09-.092-.185.231.185.092.323.046Zm.092,3.138-.092-.046.046.185Zm0-1.385-.046.046.046.046Zm.233-20.255-.233-.185v.323l.046.185.138-.231Zm1.013,4.753-.277-.048-.092.233.185.092h.231Zm.6-3.553-.323-.046.139.277.046.231Zm.969,4.707-.231-.279h-.323v-.321l-.092-.14.646.048-.138-.51-.369.094-.046.277-.646-.046-.092.369.231.554.323-.138v.229l.231.233h.554Zm-.692-2.123h-.092l-.231.092.138.138Zm-.092,1.615-.092-.139-.046.277.138.044Zm.277-3.83-.369.046.138.092.092.323.092-.231Zm0-.462-.185-.046-.092.138.185.185.185.046Zm.462,3.092-.185.046-.092.138.138.139.231-.139Zm.138-.277-.277.092.231.138h.136Zm-.046-3,.046.231.508-.046-.461-.277Zm.462,2.538-.325.046v.139l.048.138.231-.046Zm-.185,1.2-.141.141.094.092.138.185Zm.462,1.156-.277-.046-.046.139.138.277.231-.048v.141l.275.046v-.279l-.09-.046.09-.044-.136-.185H779.8Zm.046-3.923-.231.508.185.323.554-.277-.369-.554Zm.046,1.707-.231.046-.046.184.09-.046.187-.046Zm.139,3.6h-.092l-.138.229.231-.046Zm.369-2.123-.187.277.048.229.185.554.415-.875v-.231l-.141-.046h-.044v.046Zm.415.185-.187.139-.092.183.048.186.136-.231Zm-.139-.231.044-.046h-.044Zm.831-1.015-.092-.046v.277l.092.185Z" transform="translate(-753.594 688.247)" fill="#fff"/><path d="M775.291-663.077l-.092.231-.277.415-.185.369-.183.277-.187.231-.136.508.09.277-.231.277-.231.231-.229.277-.231.646-.092.137-.14.187-.044.462-.371.508-.231.321-.136.369-.141.046-.275.508-.048.508-.092.231-.275.277-.185.323-.14.185.048.646-.279.277-.092.231-.229.415-.187.231-.092.323-.136.369-.187.277-.321.415-.6.046h-.415l-.369.046-.185.046-.415-.092-.415.046h-.644l-.279.092-.415-.092-.277-.046-.415-.092-.185-.461-.138-.138.415-.646.185-.231.187-.046.136-.692.139-.277.046-.185.138-.369.231-.277v-.229l.277-.417.323-.369.046-.323.231-.275.092-.325.415-.136.046-.787v-.136l.415-.415.229-.738.141-.138.092-.369.138-.231.185-.323.231-.461.229-.508v-.323l.233-.231.369-.415v-.323l.136-.185.325-.185.046-.646.229-.323.187-.277v-.231l.229-.185.279-.369.136-.461.048-.415.277-.275.183-.141.092-.554-.092-.229.371-.233.136-.552.14-.415.323-.277h.136l.187-.738.136-.231.092-.046.139-.415.277-.554-.136-.046.552-.6.092-.369-.136-.185.508-.554h.092l.229-.738.277.046-.09-.6.321-.646-.046-.321.185-.325-.092-.09.185-.462v-.325l-.185-.6-.367-.185-.279-.323-.323-.092-.231-.046-.369.046-.321.046h-.323l-.371.229h-.184l-.139-.183-.185-.415.048-.231.183-.554.369-.554.138-.277.185-.185.415-.462.048-.046.552-.369.231-.092.692-.139.185-.231.369-.092.508.046.369.046.323-.138.508.231.092-.092.554.323-.046.138.6.185.231-.046.138.461.277.231.185.323.046.138.321.369v.6l.231.231v.829l-.09.461.046.508v.279l-.092.275-.094.508v.369l-.136.277-.092.692-.092.185v.323l-.323.6-.139.415v.231l-.138.185-.231.554.044.138-.275.369v.046l-.233.415-.09.323-.139.231-.231.415H778.2l-.046.508-.323.415-.185.277-.138.462-.231.185-.139.508-.231.044.092.6.231.323.092-.046.231.371.367.136.187.092.6.415.369.184.369-.046H780l.275.185.464-.231h.6l.138-.138.413-.185h.231l.371-.231.459-.277.048.094.459-.556-.044-.185.644-.369.092-.138.279-.323.044-.413.508-.277.185-.462.187-.231.044-.094.323-.552.046-.138.369-.646.139-.461.046-.185.231-.462.138-.185-.046-.6.231-.461.185-.092-.046-.461.092-.508.046-.185v-.461l.092-.461.231-.139-.187-.646-.09-.369v-.229l-.138-.6-.323-.275-.139-.092-.323-.369-.046.136-.462-.369-.413-.183h-.325l-.323-.046-.231.046h-.552l-.371.09-.277.233-.231-.092-.508.413-.323.048-.136-.094-.141-.367v-.415l.048-.092.185-.646v-.231l.044-.277.231-.323.233-.277.136-.046.323-.508h.048l.367-.323.371-.277.182.139.692-.462.415-.092.185.046.415-.231h.692l.231.046.369.092h.554v.046l.459.092.279.046.321.046.187.139.461.277.183.138.464.231.415.231.137.277.048.139.323.185.323.508v-.092l.277.646h.092v.413l.415.694-.048.275.048.415.136.508.279-.046-.233.969v.646l-.046.369.046.231-.092.369-.139.692-.136.231-.048.415v.139l-.092.092-.275.877v.554l-.323.323-.184.6-.187.369.046.185-.323.369-.092.231-.459.554.044.136-.367.554-.092.092-.092.508-.461.277-.092.415-.277.139-.185.369-.369.279-.092.044-.323.277-.185.508-.461.092-.323.461-.277.277-.046-.046-.461.462-.277-.046-.369.461-.138.046-.508.369h-.092l-.415.092-.323.415-.321.046h-.141l-.6.277-.048.138h-.508l-.092.046-.459.139-.231.092-.325-.138-.6.046.046-.139-.694-.138-.69.046-.369-.046-.279-.138-.044-.092-.646-.277-.277-.138-.369-.138-.185-.369-.185-.185-.092-.185-.369-.277-.185-.231-.185-.185-.321-.046h-.187ZM766.2-652.788h-.048l-.046.092-.046.185h.14l.09-.092Zm2.075-1.108-.508-.138-.139.277-.138.092-.138.139.138.185.138-.092.185.092.508-.185Zm-.6.139h-.046l-.138.277.138.046.092-.046Zm0,1.246h.092l-.092-.046Zm.461-1.385-.184-.046-.185.092.185.277.277-.185Zm.231-2.123-.185.046.231.138Zm.092-1.246h-.092l-.138.094.046.229.231-.09Zm.323-1.062-.185-.136h-.048l-.044.183.138.325.138-.092.046-.046Zm.554,4.615.046-.092.046-.185h-.554v.231l-.325.092-.044.277.323.092.092-.092v.092l.231-.046v-.046h.046l.092-.231h.046Zm-.279.969-.413.184.046.046h.275Zm-.137-4.246-.231.185.185.187Zm-.092-1.106v.046l.229.275Zm.184,3.228h-.138v.138l.09.092Zm-.138,1.108v.231l.277.138.046-.092-.092-.046.185-.092.046-.092v-.092h-.185l-.139.092.092.185h-.141l.048-.277Zm.415-2.905-.092-.048-.233.185.092.325.233-.233Zm.6-1.338.325-.092-.092-.323v-.231l-.556.046-.092.231-.229.182.229.277-.09.185.183.277-.275-.09v.321l-.046.231.508-.137v-.279l.136-.183Zm-.552,5.305-.092.092.139-.092Zm.277-6.507-.141.048-.09.138.183.138.094-.046Zm.046,3.553h-.046l-.231.092.231.185.185-.092Zm0-4.382.229-.092-.415-.369v.323Zm.969,3.459.046.046-.187-.415-.044-.046h.092l.092.138v-.229l-.185.046-.508-.233-.139.277-.138.185.229.231v.046l.092.185.187-.092h.046l.09-.046v.046l.233.092-.048-.185h.141Zm-.233-2.859-.275-.092h-.048v-.323l-.092-.046-.183.229-.092.279.092.183.231-.137.185.231.275-.046Zm-.459,1.152-.185.046h-.046l.092.187.231-.092Zm.092,3.6-.185.092-.092.231.185.185.136-.046Zm.139-2.352-.231.183-.092.138h.092l-.048.138.14.185.275-.092-.136-.092-.139-.138.092-.138Zm.229,1.982-.229-.092-.279.184.233.231.275-.184Zm-.323-4.474-.044.185h.092Zm.279,1.523-.185.09.136.279Zm-.048,1.521.185-.046v-.046h.141l-.141-.369-.275.139.046.141.092.09Zm.233-5.167-.14-.092-.136.277.092.185.185.231.138-.092v-.138l-.138-.092.138-.046Zm-.233,4.659h.141v-.044Zm.556-.831-.231-.046-.092-.09v.275l.092.048h.275Zm.185-.229h-.233l.048.046.044.183.279-.046Zm.554-3.646h-.323l-.139.092.183.415.233-.277Zm0,2.169-.323.092-.092.092.229.231h.141Zm-.138-3.138-.048-.231-.184.462Zm.459,3.921.231-.09.092-.046-.415-.138h.092l.279-.138v-.51l-.279-.044-.229-.138-.092.415.044.277.185.138-.136-.046v.092l-.415-.046v.275l.185.233.323-.187v-.092Zm.415-2.767-.229.092h-.415l-.279.461.371.323.459-.185Zm-.6,2.721h.048v-.183h-.092Zm.508-4.8-.183.092.046.185v.138l.229-.184Zm.233,2.677-.185.369.367.092.185-.138.138-.415-.461-.231Zm.231-4.984-.279.046-.044.139.044.092.371-.092Zm.044-.692.048-.185-.185.185Zm1.754.14-.415-.046-.185-.094v-.185l-.367-.137-.279.508-.185.275-.092.369-.275.233.415.275.229-.185.371-.139.229-.184.046-.183.233-.092.415-.094Zm-.646,3.367-.369-.046.325-.138v-.323l.275.184-.044-.092.275-.415.046-.231-.369.046-.231.415-.185-.277h-.367l-.141.369-.139.092.187.046.277.369.09-.046-.231.415.323.138.141-.138Zm-.644,2.492h-.048l.048.046Zm.185-.184-.141-.046-.044.231.092.046Zm.044-5.538-.136.185.136.187.231-.233Zm.138,4.661-.182-.092.044.323.138.092.048-.231Zm.369-15.917.094-.231-.048-.231-.138-.046-.415-.046.046.138.277.323.185.229Zm-.046,11.073v-.094l-.183-.092v.6l.183.141H774v-.046Zm.141,1.8-.187-.046.046.231.185.139Zm.921-.646-.185.046-.369-.277-.183.369-.14.231.231.092.139.231.461-.092.092-.277Zm-.369-2.307h-.415l-.044.279.136.136.138-.136Zm.139-.462-.277.14.094.231.459-.046Zm-.09,1.477h-.187l.231.141Zm.09-3-.139.185h.092l.231-.092Zm.277.508-.231-.092-.136.231.09.092-.046.092.184.138.187-.092-.048-.138h.141Zm.048-.6-.048-.277-.092.323Zm.508,1.892-.371.046-.277.369.369.092.279-.092Zm-.233-3.738-.139-.046-.231.092.277.323.185-.138Zm.323,4.753-.277-.138v.046l-.277-.14-.044.692.321.138.277-.323.092-.275Zm.415-2.031-.046-.323h-.415l-.185.231-.323.231.508.369.138.138.323-.231Zm-.554,4.2-.184-.092-.092.185-.09.369.459-.185Zm.185-2.167h-.046l-.277-.092-.046.229.184.187.139-.048Zm.277-4.2-.369-.092v.231l.185.277.277-.231Zm.092-.923-.277.046.185.138Zm.092,5.03-.277-.092.046.275.185.092.092-.092Zm.046.415-.092-.048-.231.094.231.229Zm.323-6.738.046.462-.461.461-.046.185.185.185.092-.046.369-.231.046-.185.046-.369h-.092Zm-.231,8.212-.231.092.046.277Zm1.569-5.674h-.6l-.185.277.092.185-.277-.046v.231l-.138-.046v.461l-.046.138-.185-.185v.231l-.415.323.554.369.092-.138.277-.462L777-669.49l.092-.046.046-.139.185-.231.092-.6Zm-1.338-.6-.138.185-.092.185Zm-.185,3.138.046.138-.046.139.461.046ZM777-679.641l-.415-.092.046.231.138.231.185-.046Zm.692,15.363-.323-.184.092.323-.184-.046-.092-.138-.092.138-.323.092.415.185.231.415.323.138v-.231l-.231-.554h.184Zm-.092-8.12-.092-.277-.369-.323-.046.092-.185-.046v.277l.277.508.415-.139-.046-.138Zm-.323,8.212-.139-.046-.138.138.185.185.185-.092Zm.644-8.12-.275-.185-.046.092v.231l.277.138h.044l.141.138.275-.185-.136-.277h-.185l-.046.092Zm.094.969-.138-.185-.046.415.046.185Zm.321,8.628-.367-.092-.092.323.185.138.092-.092Zm0-16.748h-.229l-.046.323.185.138Zm.464,2.536-.231-.092-.233.14.233.092.231-.046Zm-.231,3.738-.184.554.092.138.092-.092.138-.461Zm.231,10.52.136-.046-.321-.277v.369Zm.184-16.056h-.14l-.044.092-.048-.046-.044.321.044.187.233.046-.048-.277.233-.092Zm-.184.092v.139l.136.092-.044-.231Zm.692,16.425h-.233l.187.138Zm.046-1.984-.187-.046-.044.277.277-.046Zm.137.646-.183.046-.092.138.275.046Zm1.294.185-.187-.185.231.046-.09-.092-.048-.092-.136.092.044.046-.092.046h-.6l.048.092.323.231h.092l-.092.046.229.231.371.046Zm-.323.646-.371-.046-.044.185-.141.231h.092v.046l.233.092.275-.092Zm-.138.138h-.277l-.048.231h.371Zm.6-.969.141-.185-.277.139Zm2.215-14.856h-.184l-.552.185-.279-.046.554.323.141.044.092-.044Zm.139,14.763h-.323l.048.092h.275Zm.277-14.948.138-.231-.231-.185v.185l-.323.185Zm1.154,13.01h-.323l-.277.323-.367.138.275.231.323.184.185-.277.185-.231Zm-.692,2.123-.092-.046-.09.138.321.138Zm.323-2.582-.09-.094-.187.323v.279l.369-.141Zm.323-.556-.046.094-.046.046-.092.275.415-.229Zm.138,3.276-.044-.046-.233.138.277.138.092-.046Zm.692-.508-.554.046.092.323.092.231.369-.231Zm.369-14.9-.369.185.092.092h.369Zm.185,14.117-.462-.139v.231l.231.231.277.046Zm-.046-.369-.277-.09.046.229.092.138.277-.184Zm.323-3.413-.277.185.508-.092-.046-.369Zm.969-11.12-.369.138-.325-.092-.367.415.415.231.277-.138.277.046Zm-.369,12.55h-.231l-.185.229.369.185.229-.185Zm.369-2.123-.277.046-.138.185.092.231h.323Zm.969-.231-.141-.369-.229-.138-.371.138-.044.139-.092.508.277.185.275-.092.233-.139Zm-.648-1.661-.136.185.044.092Zm.971-7.659-.185-.046v.277h.044l.14-.092Zm1.154.323-.279-.048-.092.187.141.275.044-.044Zm0,7.428-.279.092.048.185h.323Zm.092-.877-.14-.185-.183.231.231.415.229-.323Zm-.048-2.354-.231-.046.094.323.229-.185Zm.6,4.061-.137.092.044.139Z" transform="translate(-742.113 695.004)" fill="#fff"/><path d="M780.227-667.944l.048-.323.044-.185-.044-.554.136-.231v-.185l.046-.6.138-.231.046-.231-.092-.369.369-.6.138-.369.231-.415-.046-.554.323-.462.185-.138.046-.277.415-.554.046-.415.323-.275.231-.187.092-.138.415-.462.136-.415.233-.183.184-.279.183-.183.279-.369.044-.138.6-.462v-.138l.6-.369.139-.323.369-.092.046-.046.415-.508.461-.138-.044.138.6-.554.369-.092.323-.323.415-.092.371-.046.413-.323.462-.139.231-.046.185.046.461-.138.415-.185.138-.046.552-.046.092-.092.694.046.369-.092.183.138h.833l.415.092.554.046.229-.092.231.092.508.277.141.046.367.231.323.138.325.231.275.138.092.231.323.231.233.323.229.415.187.184.044.277.277.508.138.277.139-.138.185.877-.092.828.092.369.14.138-.14.556-.092.275.138.462h.094l-.094.877-.231.323-.046.369.046.231-.183.508-.094.415.138.092-.323.6-.092.185-.185.554v.138l-.323.231-.092.554-.231.323-.092.138-.323.369-.046.508v.137l-.275.461-.464.369-.185.371-.139.229-.367.277-.233.371-.136.09-.187.231-.459.554-.277.231-.139.046-.369.461-.279.139-.183-.046-.415.508-.092.185-.461.231-.323.185h-.092l-.461.415-.461.092-.185.231-.323-.046-.415.277-.415.046-.185.092h-.462l-.415.323-.323.092-.321.046-.048.231-.6-.092-.231.092-.552-.185-.371.231-.185.046-.508-.092-.183.046-.6-.231-.371.092h-.185l-.69-.323-.141.046-.229-.185-.554-.231-.231-.231.046.138-.6-.461-.185-.277-.323-.323-.092-.231h-.046l-.277-.415-.184-.231-.183-.6-.094-.231-.184-.277-.136-.229.044-.694-.138-.139.046-.552.138-.415-.138-.461Zm1.292-3.553h-.139l-.046.323.046.046.185-.139Zm.692-.508h-.185l-.139.138.185.139.185-.092Zm.369,1.246h-.323l-.231.369.415.415.415-.369Zm.646-2.4v-.461l-.138.185-.048.139H782.9l-.092.323-.046.046.092.323-.415.415.462-.185.136-.046.187-.369.138-.138Zm-.138-.184-.048.046-.09.138-.138.185.229.185.187-.185Zm.231-1.292-.279-.046v.185l.048.185.277-.138Zm0,6.322-.185.046-.046.231Zm1.108-1.477-.048-.231-.09.046-.046-.092.092-.046-.138-.231v-.646l-.415.185-.046.277.138.231.139.277.277.138Zm-.277,1.754-.323.185.229.183.233-.09v-.325Zm0-1.984.092-.046-.046-.277v-.046h-.141l-.092.185Zm.554-5.215-.092-.506-.233.182-.275.508.138.14h.046l.462-.233Zm-.415,5.261-.092.046.092.046Zm10.335-5.722.044-.552-.231-.279-.044-.415-.233-.229-.323-.369-.275-.092-.369-.046-.138.046-.323-.139h-.6l-.233.092-.321.138-.185.09-.461.094-.231.138-.139-.138-.505.461-.094.185-.646.462-.369.229-.185.092-.231.14-.185.415-.323.136-.462.554-.138.279-.229.367-.464.692.048.138-.371.462-.044.323-.464.231-.092.692-.136.231.044.139-.323.415-.044.323-.231.692h.182l-.275.739-.092.277-.092.185-.048.738h.14l-.184.6.277.046-.048.923.092.323.048.277.138.139.229.461.556.277.459.185v-.092l.554.138.185-.138.508.092.138-.046.277.139.323-.369.369-.092.046-.092.323-.138.277-.367.556-.187.229-.138.046.046.369-.462v-.138l.6-.415.183-.229.371-.415-.138-.187.646-.413.323-.231.136-.461.279-.323.092-.369v-.323l.369-.415h-.046l.321-.461.092-.461.371-.415v-.508l.136-.369-.185-.323.371-.508.092-.185.044-.738-.136-.185.136-.461v-.692Zm-9.83,5.261.092-.185-.136-.092Zm.325-.877-.277.092.185.092Zm.967-6.043-.229.046h-.092v.367l.277-.136Zm.646.738.048-.325-.233.048-.275-.048-.231.508.182.369.648-.136Zm-.231-1.015-.277.229.185.233Zm1.2-.231.092-.048-.185-.183v-.046l-.094.092-.046-.325-.183.094v.138l-.092.092-.187.046.139.231-.139.092.462.508.233-.461Zm-.233-.51-.183.233v.046h.136Zm.046.51h.187v-.092h-.187v-.092l-.185.136Zm.094-.923-.187-.185-.044.185Zm.413,1.477h-.462l.048.138.136.323.185-.187Zm0-.831-.185-.185-.044.413.136.14.231-.092Zm1.061,14.717-.415.092.048.185h.275Zm.277-15.086-.229.185-.371.092.508.646.279-.231.229-.231V-678l.092.046h.323l-.136-.231-.187-.046v.046l-.046-.323h-.138l.046-.415-.231.046v.277l.185.092Zm-.277-.415.463-.277-.094-.138-.092.092-.508.231Zm.923,14.763-.185.138-.138.092-.136.046-.14.461.277.415.231.231.277-.092.092-.092.323-.092v-.139l.369-.184-.138-.508h-.323l-.046-.138h-.139l-.138-.046.277-.277.138-.185-.508.185-.138.092Zm-.046.277-.139-.138-.138.323h.092l.279-.046Zm-.092-14.3-.092.138.092-.092Zm.738,14.394-.092-.092-.138-.046-.046-.092-.369.415.138.184-.185.092-.138.369v.046h.415l.092-.046.231-.139.092-.092.092-.277Zm-.323-14.948-.323-.185-.046.415.141.136.136-.136Zm1.2-.831-.09.046v-.092l-.092-.277-.277-.046-.138.185-.646.046-.182.277.044.185.277.323.462.277.185-.092.231.092.369-.138.046-.185.554.046.092-.231h-.231l.046-.046-.092-.185-.185-.092-.138.185-.233-.092Zm-1.29,15.548v-.046l-.136-.046Zm1.2-14.948v-.554l-.415.092-.092.323.138.139-.185.138.185.092Zm-.092,14.117-.092-.461-.277.369Zm.831-.461-.508-.229-.231.367.554.369.231-.185.138-.185Zm-.277,2.215-.185-.046.092-.046-.046-.138h-.092l-.046.046.046.185h.092l.138.046Zm-.138-16.194.046.046v-.046Zm.046.046.136.092-.09.138Zm.415,15.133-.187-.185-.229.185.229.185.233-.092Zm-.187-14.994.094-.046-.138-.046-.048.046Zm2.817-.369-.233-.092.233-.046.138-.046-.138-.231-.233-.092h-.323l-.367-.092.185.184-.046.231.229.139h-.229l-.138.138-.185-.092.323-.046-.231-.462h-.415l-.048.277.092.185h.233l-.325.231-.044-.092.136-.046-.136-.231.044-.277-.044-.231h-.323l-.185.046.044-.092-.229-.046-.046.185.092.092-.092.139-.092.277.139.138.046.138-.092-.046-.092.277h.231l.046.138.09.046.415-.185.092.138-.044.092.459.046.185.092.048-.046.138-.185.044.092.141.092-.048.092.185.231.048.138.415-.461.138-.323-.138-.185-.369-.046-.046-.138-.14-.092.231-.046.048.185.136.046.14-.092Zm-2.031-.646-.138.138h.046l.092-.092Zm.136.923-.275-.092.046.231.136-.046Zm.323,10.981h-.229l-.231.277.231.184.185-.138Zm0-11.535-.183-.185-.092.369.185.231.138-.046v-.277Zm.279,11.858-.369.183.138.092Zm0,.183-.279.279.092.092h.187v.275l.229.14-.136.046v.09l.136.092h.141l-.048-.229.279-.092-.092-.277.092-.325-.415-.092-.046-.183h-.046v-.046Zm0,3.461.229-.277h-.323l-.044.277.044.046-.136.046.044.092Zm.092-15.548-.092.138.138.046h.09Zm.136,12.873h.092v-.046Zm.879.6-.464-.136-.044.09h-.092l-.138.417.044.044.231.323.185-.092v-.092l.048.046.139-.321Zm-.694.415.187.046.044-.046.185.139-.044-.275-.277-.094Zm.187-.921-.092.136-.046.139Zm.136-1.938-.044-.046-.138.185v.044l.323.094Zm.092-1.523-.136-.139-.092.231v.185l.277-.139Zm.048-8.582-.092.139h.044l.092.323.279-.231Zm.508,8.351-.233.092-.183.139.323.231.185-.092Zm-.14,2.354-.092-.092-.183.092.231.277.136-.139Zm.323-10.058-.182-.185.231.554Zm.185,11.258-.092.046-.136.092.092-.185-.185.046v.229l.046.279Zm-.229.138-.092.09.046.092Zm.185-11.627-.141-.092-.09.231.231.138.136-.138Zm.323,7.751-.231.138.183.046Zm.136-7.7-.275.044-.048.141.094.138.136-.138Zm-.092-1.984-.136.277.321.046-.044-.231Zm1.108,1.708h-.137v-.092l.044-.092.048-.231-.508-.231-.508.138.229.692.415.136.092-.182.094-.046-.048.092.092.136.323-.09Zm-.923,6.089-.044-.046-.048.277h.092Zm.464-2.4.275-.367-.231-.369-.185-.417-.367-.183.092.183.138.417-.048.321v.323l.048.138-.048.185.325-.185Zm-.371,4.615-.136.277.231-.139Zm1.384.508-.09-.046-.048.046v-.046l.092-.277-.092-.277-.367-.138-.277-.046-.187.369-.459.231.275.554.277.231.231.046.185-.092.231-.323.185.092.323-.046ZM796.239-675v-.046l-.233-.046-.044.092v.094Zm.044-3.505.092-.046.187-.231-.092-.323-.231-.138-.233.508Zm.187,4.151-.323-.138-.048.461.185.046.464-.231Zm.044,1.984-.323-.046-.092.139.185.323.187-.185Zm-.323-7.8.048.277h.275Zm.508,9.689h-.229l-.141.277.046.185.323-.139Zm.138-6.874h-.415l-.046.321.231.233.371-.233Zm-.183,8.166-.279.231.187.046.137-.231Zm-.048-3.369-.185-.046v.139l.048.046.184-.046Zm.048,1.431-.14-.046-.092.277.092.138.277-.185Zm-.092-7.566-.092.092.136-.046Zm.229,3.551-.277.139-.044.185.229.138.138-.229Zm.831,3.784.046-.185.231-.554v-.231l-.138-.046-.369.092-.321.046v.277l-.233.046-.323.369.323.462.325-.139.183.139.046.092Zm-.6-8.166-.138-.185-.046.092Zm.048,9.781.044-.138-.231.138.138.092Zm1.29-3.553-.185-.046-.138-.415-.231-.046h-.277l-.092.139-.139-.461-.321.231v.231l.136.277.277-.138-.046.092-.046.185.092.277.231.277.323-.231.048-.138.182.138.233-.092Zm-1.108,1.661v-.369l-.183.046-.092.6.185.138.136-.046Zm.415-6.182-.369-.046.092.185.323.092Zm-.231,4.151-.046.138.094-.046Zm.323,3.646-.323-.231-.046.369.187.138.09.046h.046l.046-.277Zm.325-1.061h-.508l-.092.138.275.185.233-.185Zm-.556-7.659v.231l.138-.139.231.139-.092-.185v-.046Zm.6,2.354h-.044v-.277l-.325-.092v.183l.184.138v.048l-.092-.048-.092.187.277.136.138-.046Zm.046,3.044-.138-.046-.092.277.048.046Zm.415-3-.323.046.092.092.231.09Zm.185,2.675h-.367l-.141.092.233.184.137-.046Zm-.185-1.659.092.046.092-.046-.046-.141Zm.231.923h-.231l.231.136Z" transform="translate(-726.836 695.027)" fill="#fff"/><path d="M796.872-673l-.554.046-.046-.185-.646.185h-.044l-.508-.046-.6-.046-.138-.415.183-.323.233-.415.09.046.325-.6.136-.415.231-.231-.092-.138.831-.185.277-.046.231.092h.415l.6-.046.231-.092h.508l.508-.046.229-.046.048-.184.646-.831.092-.231.185.092.092-.692.231-.415v-.461l.231-.462.231-.231v-.321l.138-.279.231-.369.092-.092.044-.6-.09.046.09-.554.185-.415v-.461l.094-.323-.279-.231.185-.646-.229-.369.092-.415-.231-.415-.141-.369-.044-.185.044-.231.141-.6.6-.092.508-.092.463.185.323-.092.644.138v-.092l.464.231.229.231.694.139.185.046.229.323.187-.046.09.508.231.277.046.185.231.508.092.092v.415l.046.277v.738l-.138.139.092.461-.046.231.046.183-.323.969-.046.233-.139.275-.138.508-.185.323-.185.462-.046.231-.369.046-.046.831-.092.046-.229.6-.048-.092-.275.785.092.138.183.185.185-.185.556.138.229.139.461-.046.556-.092.275.092.233-.046.506.046.231-.092.092.6v.277l-.092.092-.323.461-.139.138-.092.462-.277.369-.231.092-.323.092-.231.277-.369-.046-.415.046-.369-.046h-.139l-.323.09-.554-.044-.321-.046-.231.139-.464-.139-.508.231-.136.185-.279.415v.183l-.367.461-.141.233-.136.183.092.233-.556.6-.09.229-.138.369-.323.279-.185.275-.094.369-.229.277-.279.692-.275.277-.185.277-.185.415-.138.277-.138.369-.138.138-.369.6-.138.231-.092.139-.138.461-.323.185-.277.554-.185.415-.138.321-.277.371-.046.323-.046.139-.092.461-.138.415-.044.229.136.831.046-.046.369.508.185.231.187.138.275.046.323.046h1.015l.138-.046.554-.092.046.046.184-.092.321-.092.415.231.048.231.044.462.094.185-.323.323-.187.231-.182.369.09.185-.506.323-.323.185-.323.277-.138.092-.369.138-.138.092-.369.277-.277.046-.877.138h-.646l-.369.046-.459-.046-.048.185-.69-.323-.185-.046-.138-.139h-.648l-.367-.231-.185-.092-.231-.277-.185-.139-.231-.231-.415-.369-.138-.369v-.231l-.231-.369-.231-.092.046-.738.185-.277-.185-.6-.138.138.277-.829-.046-.508-.046-.279.369-.552.185-.739.229-.094.048-.644-.185-.046.508-.6-.14-.323.508-.323-.09-.092.415-.461.231-.185.229-.508.046-.185.048.046.136-.461.323-.415h.048l.277-.554.275-.323.092-.231-.044-.231.367-.508.048-.229.367-.417.185-.185.231-.508.14-.229.092-.325.275-.369v-.046l.185-.275.371-.462.183-.461-.046-.139L797.1-673Zm-4.615,14.163-.229.046.185.184Zm0-2.536-.092-.046v.136Zm.141-.554-.092-.141-.092.369Zm.275,1.2-.229.184.136.231.233-.136Zm.092-.415.048.187.044-.233.094-.323-.094-.046Zm.371,3.6h-.185v.139l.229.185.141.138.044-.185Zm1.338-1.015-.6.092-.092.092-.229.323.185.185.323.231.415-.323Zm-.323-.554-.141-.139-.275.369.092.139.415-.139Zm-.141-6.182h-.138l-.092.092.138.092.233-.046Zm.6.554-.092-.231h.048l.044-.046v-.139l.14.185.044-.185v-.231l-.229.185-.141-.046v.231l.048.046-.279.369-.229.323.136.139.14.046.367-.323Zm.048,1.984-.415-.046-.184.229.459.279Zm-.185-2.215h.044v-.046Zm.321,4.336h-.277l.048.187.136.09.092-.046Zm.046.738-.183-.092-.14.323.277.277.231-.092Zm.833-3.138.183-.09-.367-.092-.279-.092-.092.369-.136.139.229.136-.415.092-.136.279.231.136-.187.279.187.137h.044l.092.092.141-.092-.048-.044v-.046l-.092-.233.323-.275-.092-.138.141.092.092.139Zm-.6-.136-.279.046-.044.138.183.092h.048Zm.092,4.613h-.277l-.094.184h.279Zm-.277-3.6.136.092v-.046Zm.229,1.8-.185.325.092.09.323.046-.092-.508Zm.138-.923-.275.138.136.323.185-.231Zm.462,3.738-.369.046-.138.046-.229.323v.046l.736-.046Zm-.092-16.794-.323-.185-.092.461.231.092h.233Zm-.185,12.089-.185.736.185-.692Zm.323-3.323h-.138l-.136.092h.229l.138.046Zm.092,7.059-.138.231.231.138Zm1.156-8.9h-.417l-.138.185-.323.046-.277.461.556.092.183-.046.046-.277.139.231.461-.231Zm-.833,2.861-.231-.046.048.138.136.092.092.046Zm.369,1.059-.323-.046.092.233h.231Zm.231-5.213h-.139v.185h.279Zm.692-5.4.139-.138-.139-.231h.231l-.231-.046-.136-.046-.094.046-.415-.046-.138.138.233.415.321-.092Zm-.092,5.72h-.554l-.092.323.279.138.415.046Zm-.044-.877-.141.046-.138.139.138.092v-.046Zm1.382-.831v-.277l-.508-.092-.323.046-.459.369-.141.369.185.231v.231l.231.461.6.092.415-.277.185-.323.138-.552Zm-.969,1.708-.369-.138.092.323.092.139.046-.139Zm-.138,1.938.185-.369-.185-.092-.231.461v.185Zm0,9.043h-.183l.09.138Zm.461-13.566-.046-.321-.183.183-.233.461Zm.415-3.321-.046-.092-.092.138v-.046l-.554-.046-.046.323.231.138.231.092h.046l.046-.323.046.046.138-.185Zm0,6.043-.369-.092.092.231.138.185.092-.138v.138h.092l.185-.277h-.139l.092-.092-.139-.139Zm-.185-5.859.046-.138-.046.046Zm1.108,1.154-.369-.138-.138-.046-.046.092-.046-.092h-.138l.415-.138-.046-.415.092-.139-.461-.138-.231-.046-.139.231v.139l.185.138.092.323-.046.046-.046.323.323-.185-.184.277.323.367.6-.367Zm-.738-1.754h-.139l-.185.139.323.185.138-.231Zm-.185,6.459-.046.185.138-.139Zm.139-4.89h.046l-.092-.046Zm.138,1.292-.046-.14-.092.14.138.139.185.092Zm0,4.705.139-.231-.046.046Zm.462-7.243-.231.046-.092.138.046.092h.231Zm.552-.692-.275.046.369.138Zm.6,2.584-.231.09v-.321l-.138.139-.139.183.277.14v-.14l.136.14Zm-.187.967-.09-.044-.185.277.323.229.185-.323Zm.648-1.429h-.323l.046.046.136.092v.092Zm.415-4.43h-.048l-.367-.185.046.369.046.046.231-.046v-.092l.092.046Zm.554,1.938-.415-.046-.187-.092-.182.231-.138.277.277.231.367-.046h.185Zm-.138-1.846-.185.092-.279.277-.275.185.415.277.367-.185.048-.092Zm0,2.861h-.231l-.185.185.185.461.275-.323Zm.231-1.2h-.279l-.136.092.229.046.187-.046Zm.459-3.369v-.277l-.139-.046-.185.187-.136.644h.044l-.182.369-.092.369.367-.092v.369l.092.138.415-.138-.092-.369h-.183l.09-.508h-.09v-.277l.138-.046Zm-.323,1.754-.092.092h-.231l.279.323h.092Zm-.092-3.046-.044-.092-.138.415.182-.09Zm.325,4.015-.14.046v-.046h-.185l-.09.046.09.323.092.092.279-.185Zm-.325-2.215.325-.138v-.09l-.185-.14v.14Zm.325.415v-.277l-.325.046v.185l.185.231Zm-.14,1.846h-.092l-.092.231v.092l.325-.277Zm-.044-1.615-.048-.046v.046Zm.044,0h-.044l.044-.046Zm.323,2.953-.323-.185-.044.231.185.138.138-.092Zm-.323-2.953.092.046.048-.046Zm.556-3.321-.277-.048-.048.094.233.321.185-.046Zm-.092.969-.233.508.556-.141-.371-.644.092.229Zm0,0-.048-.094-.044.141Zm0-4.476.367.092.323-.046-.183-.231.323.046-.508-.231-.279-.092ZM803.1-679l-.092-.046-.231.277.231.139.275-.185Zm.092-3.09H803.1l-.277.231v.136l.136.094h.279l-.279.277.279.323.369-.233v-.461l-.369-.046Zm-.048,6.551h-.321l.092.185.092.231v-.277Zm.464-8.028-.556.185-.185.092.415.185.185-.092Zm-.141,9.274-.185-.046-.139.185.048.185.231-.092Zm1.015-.231-.277-.046-.138.231.138.323.277-.138Zm3-.738-.046.092.092.046v-.138Z" transform="translate(-715.563 689.982)" fill="#fff"/><path d="M827.529-680.818l-.233.554-.044.092-.185.139-.231.552-.048.186-.183.367-.325.556-.044.138-.138.6-.277.279-.138.275v.138l-.369.6-.185.369-.092.369-.139.323v.139l-.323.646-.137.323v.277l-.415.508-.233.462-.185.554.046.277-.229.323-.233.369-.046.277-.092.369-.323.784-.229.367-.187.279-.136.6h-.092l-.371.74-.044.321.044.141-.367.6-.233.231-.044.646-.231.508-.415.231-.092.415-.092.277-.323.6.046.277-.508.231-.139.6-.092.277-.371.092-.136.646-.185.415-.231.275-.185.325-.415.415-.139.323.508.092.046.046.462.136.367-.046.323.046.233.185.367-.092.463.092.323.094h.736l.279-.046.275.229.74-.092.044-.09h.646l.508.136h.048l.6-.046.738-.044.231.044.554-.09h.877l.554-.046.092.183.785-.369.508.046.367-.046-.092-.183.923.046.323-.092.048-.046.508-.046.459-.094.323-.229h.415l.369-.279.231-.137.739-.184h.046l.231-.323.508-.092.323-.187.138-.183.415-.139.231-.277.092-.092.277-.092.277-.231.323.092.092.231-.046.323-.046.138v.461l-.046.229-.046.141-.094.367v.233l-.229.323-.046.367-.092.141-.231.229-.092.508-.092.184.092.048-.462.644h-.092v.508l-.508.277h.046l-.692.692-.323.231-.136.277-.371.231-.092.185-.646.231-.321.323-.415.138-.556.092-.459.277-.646.184-.277.046-.464.138-.552.046-.138.092-.877.092h-.923l-.369.046-.139.046h-.6l-.415-.092h-.415l-.138.046-.552-.092-.463-.138-.277.092-.323-.138-.554-.092h-.277l-.275-.092-.74-.231-.138.046-.321-.185-.646-.092-.277-.046-.415-.231h.044l-.69-.092-.323-.138-.185-.139-.185-.185-.554-.046-.508-.231.046-.092-.508-.046-.554-.277-.138-.092-.138.046-.323-.277-.692.046-.415-.046-.277.461-.231.092-.139.277-.277.138-.508.139-.231.185-.277.231-.415.138-.367.277h-.231l-.233.092-.508.092.048.277h-.785l-.508.046-.415.185-.277-.046-.461.138-.185.185-.554-.092-.277-.092-.462.092-.829-.139-.415.092-.092-.139-.648.046-.646-.185-.231-.231-.461-.092-.459-.046-.231-.092-.323-.277-.277-.185-.371-.369-.182-.138-.092-.139-.277-.369-.279-.415-.185-.323-.044-.369.044-.369-.183-.323v-.508l-.092-.554.231-.231.044-.508.092-.275v-.233l.371-.413.092-.323.415-.279.231.046.277-.367.367-.185.277-.323.279-.092.459-.092.277-.138.369-.092h.554l.415-.231.554.231.323.092.415-.046.231-.046.185-.092.462.138h.231l.554.185.046-.046.692.185.185.231.554-.046.323.092.415.092v.044l.692.14.185.138.554.046.321-.092.554-.092.092-.369.185-.231.141-.323.275-.092.092-.554.139-.323.185-.508-.044-.138.413-.369-.046-.369.233-.231v-.369l.367-.508.231-.139.092-.646.138-.323.046-.277.231-.369h-.092l.369-.69v-.187l.092-.413.461-.6.185-.136-.046-.692.231-.231.139-.092.138-.692.231-.185.231-.277.046-.692.138-.323.231-.462.229-.554.14-.415.138-.508.415-.277.046-.415.138-.231.185-.554.044.092.279-.738.231-.415v-.185l.369-.275.185-.648.275-.183.141-.554.182-.277.092-.184.092-.323.231-.325.369-.229.139-.554.184-.231.231-.231.092-.323.277-.277.231-.369.185-.323.187-.138.275-.092.277-.6.277.046.187-.554.183-.231.138-.046.231-.415h.092l.6-.508.139-.185h.185l.461-.461.046-.185.462-.185.415-.184.231-.09.277-.187v.046L827.9-687l.462-.323.138-.138.277-.09.323.044.231-.136.462-.092.275-.048.185-.046.415.046.554-.092.325-.182.275.092.556-.184.644.321.369-.046.417.092.136.048.646.139.046.136.6-.046.369.325.277-.094.554.323.277.323.138-.09.137.183.463.6.415.138.092.048.231.367.185.277.459.369.092.323.14.231.231.369.044-.046.185.646v-.046l.138.231.141.738-.048.369.092.185-.044.323v.184l-.048.508v.646l-.092.136-.231.325-.044.552-.231.371-.141.415-.185.275-.275.233-.048.321-.415.231v.092l-.6.415-.229.231-.415.138-.187.231-.459-.046-.231.092-.6.092H835l.046.185-.692-.415-.462.092v-.138h-.646l-.367-.277-.048-.138-.508-.138-.459-.692-.233-.231-.182-.044-.092-.6-.092-.461v-.462l.044-.508.14-.323.092-.369.231-.277.185-.139.508-.138h.323l.552-.092.508.092h.185l.508.185.092.046.185-.046.461-.092.323-.323v-.185l.044-.6v-.277l-.044-.369-.138-.046.182-.415-.459-.369-.277-.231-.046-.139-.185-.046-.415-.231-.692-.323-.461.139-.369-.185-.185.092-.231.046-.277-.046-.139.046-.277.046-.275.185-.187-.046-.369.277-.415.139-.182.046-.233.277-.136.185-.187.138-.229.138-.139.231-.14.185-.275.231-.233.277-.229.185-.138.277-.141.138-.275.415Zm-25.885,20.438-.229.138.136.141Zm.508,4.338-.136-.046-.048.138h.233Zm.371-1.8-.323-.046-.048.415v.185l.508-.277Zm.275.969h-.367l-.231.462.415.185.367-.277Zm-.367-3.09.508-.508.229-.371-.321.092-.323.046-.277.415Zm.323,2.536.321.185-.229-.323Zm.413-1.384h-.185l-.044.231.092.092.136-.046Zm.646-2.121H803.4l-.136.183-.231.508.415.415.367-.461v-.092l.048-.183.044-.046v-.187l.092.233.323-.233.048-.367h-.092l.044-.048H804l-.415.141Zm-.459,3.967-.231-.185.09.415h.141l.092.231.044-.046v-.138h.048l-.048-.092v-.046Zm.321,1.431-.321-.185-.092.185.277.092.231.092Zm-.136-.6-.185-.231-.048.277.184.184.048-.092Zm0-4.382.323-.046v-.233h.044v-.046h-.367Zm.275,4.382-.139.046-.092.092.138.092.092-.092Zm.231-5.72-.183.092-.048.044.092.187.185-.092Zm-.138,3.505.048.508.136.323.094.138.229.231.138.277.369.139v.184l1.061-.046.415.046-.046.139.461-.092h.323l.692-.415.185.046.277-.092.184-.139.462-.323.277-.046.323-.369.277-.231.369-.552-.323-.187h-.185l-.554-.275-.508-.141-.369-.092-.277-.092-.277-.136-.231.044-.323-.185-.415.141-.323-.187h-.69l-.415.046h-.141l-.6.323-.183.233-.415.182v.508Zm.323,2.4L803.9-656v.231l.138.185.141-.092Zm-.138-.692-.136-.092.044.231.138.138.233-.046Zm.279-3.321-.233.09.277.092Zm.69-1.385-.183.046v.184l-.185.046.185.138.09-.138.092-.046Zm.785,6.228.508.092-.046-.185-.09-.046-.556-.138-.092.277.092.092Zm.046-.923-.09.092.09.185.231-.138-.092-.138Zm.462.877.277.138h.138l.231-.046-.277-.323v-.138l-.185-.046-.046.231h-.046Zm.369-.231v-.046l-.231.092.277.046Zm.923.508-.092.139-.138.092.138-.046.046.185Zm.646-5.492-.139.046-.138.187.185.046h.138Zm.046,3.969-.279.277.048.277Zm.508-.185v-.138l-.231.138.139.092.138-.046Zm.277-.323v.092l.092.092.275-.139Zm.508.554.231-.185.277-.184-.648.369Zm.875-2.953-.229-.185v.277l.136.094.141-.094Zm-.229,2.354.277-.046-.048-.231Zm.552-2.4-.136.046v.233l.277-.046Zm.692.646h-.229l.136-.092-.092-.415.14.094h.044l-.044.136.323.325.459-.141v-.367l.092-.094-.136-.046v-.275l-.141.046v.136l-.323-.136v-.046l.185-.187.048-.229-.277-.046-.138.229.231.187-.279-.048-.136.277-.231.046.183-.182-.092-.233-.275.046v.231l.138.185h-.138l.138.369.136.138-.136.554-.138.415.508-.277.139-.09Zm-.367-.6v-.046l-.046.046Zm1.2,1.661-.185-.138-.367-.046-.048.185-.367.231.415.323.136.231.279-.231.367-.231Zm-.136-1.661-.141-.092v.138l.185.141Zm.459,2.584-.185-.139-.09.323.136.092.138-.139Zm.233.508-.141-.046v.046l-.136-.138-.094.323.371-.138Zm.552-1.477-.321-.046-.094.092.231.323.231-.138Zm-.185-2.4-.184.046v.046l.048.136.185.046Zm.415.367-.277-.092-.046.369.187.046h.092l-.048.092h.141l.323.046-.187-.231-.092-.136-.044.046Zm.277-1.984-.092-.09-.415.508-.046.231.046.092.139.136h.048l.136.138.415-.321.048-.415v-.279l-.279.046Zm.046,4.2h-.323l-.092.277.231.138h.139Zm.508-4.059-.185.138-.09.139h.183l.233.277.183-.092-.138-.277-.092-.092-.044.046Zm.277-.831-.277.092.14.138Zm.092,1.8-.321.046.182.092Zm0,.321-.185.092.046.094.046.138-.185-.138.048.413.183.141.233-.141v-.231l-.094-.044Zm.187-4.982h-.279l-.046.139.138.231.092-.138Zm.09,6.092-.185-.14v.233l.046.09.231-.09Zm.508-6.322-.231.277.092-.046-.415.554-.044.185.508-.046.136-.138-.185-.415.231-.139Zm.231,4.8-.6-.092-.139-.09-.09.277.09.69.508-.323.185-.046Zm-.321-2.813-.371-.185-.046.277.139.185.138-.231Zm.044-.969-.415-.046.046.231.138-.092.092.046Zm.877,5.028h-.138l-.415-.046v.231l-.323.141.461.6.415-.323.231.233.369-.233-.046-.092-.277-.323-.092-.231h-.046l-.092.138Zm.092-8.212h-.323l.046.231.092.231.369-.138Zm.554,1.984-.508.092-.185.277-.138.323.231.185-.092.046-.092.138.231.139.185-.139v-.277l-.092.046.092-.139h.323Zm-.138,2.861-.185-.508h.046l.185-.277-.138-.185-.185-.046-.138.231.185.231-.369.139-.092.369.046.185.185.369.508-.277Zm-.461-6.83-.046.279.046.09.184.046Zm.092,4.892.046-.092-.138.046Zm.461-5.49-.277-.092-.092.369.092-.046h.277Zm-.323,6.874.046.046v-.092Zm.323-6.136-.231.138-.046.09.185.279.138-.323Zm-.046,10.056-.138.046-.092.092.185.092Zm.277-1.613-.415-.046v.092l.092.415.323-.14Zm.6-7.753-.136-.231-.415.094-.277.229-.138.138.138.231.415.231.554-.185Zm-.69-2.029-.231-.092v.321h.046l.092.141Zm.092,3.736-.277.092.185.046Zm.139-.785-.323.046.231.231.139-.138Zm.459,3.461v-.231l.233-.092.415-.277-.092-.277.092-.185-.323-.185-.325-.369-.552.231-.184.323.184.092.139.415h.138l.138.185h-.185l-.415.369.415.369.415-.138Zm-.413,2.954-.277-.046.092.185-.138.046.229.231.14.046v-.233h.139Zm-.185-.369v-.046l-.092.183Zm1.292-9.458h-.092l.369-.277-.415-.139-.092.185.139.231h-.323l-.415.275.552.415.415-.044Zm-.694,6.643.048-.138h-.185Zm1.156-4.153h-.046l-.094-.044.231-.417-.183-.044-.048-.415.187-.231-.092-.094h-.094l-.044.048-.048-.094h-.275l.183-.136-.229-.138h.092l-.046-.187-.141.14v-.046l-.321.461.229.231-.229.462.229.275v.14l.233.136-.233.279.415.367.185.323.048.092.323-.138.367-.231-.275-.321-.048-.141.233-.092.046-.139-.371-.229v.229h-.183Zm-.554-4.89-.187-.046-.136.323.136.092.141-.046Zm0,1.477-.187-.046-.136.415.229-.185Zm.092,2.446-.231-.046.185-.092.092-.141Zm.092,12.087-.046-.138-.184.231.092.184.323-.138Zm.229-12.041v-.046l-.136.046-.185-.046.046.09Zm.51,2.536-.415-.092-.231-.046.092.231-.231.231.415.277.554-.185Zm-.231,1.984-.323-.046-.048.369.323-.185Zm-.048,6.643-.183.092-.141.139.233.141.09-.141Zm.14-15.409-.14-.092-.183.092.275.369.187-.046Zm.231,2.077-.231-.092-.184.323.369.138h.183Zm-.092,5.4-.279.138.092.046.279.185Zm-.139-2.031h.044v-.231h-.092v.046Zm.277.969-.233-.092-.044.185h.185Zm.138,1.108-.092.184.323-.554-.046-.046Zm.185,1.015h-.277v.185l.185.185.044-.231Zm.875-10.427-.136-.138-.141-.046v-.277l-.415-.092.048.231v.046l-.231.369-.141.184.323.277.464-.092.229-.138Zm-.277,7.151.048-.136-.554.044-.233.277.371.51.459-.415Zm-.459,10.012-.046-.184-.233.369.279.046.092.046Zm.136-8.766-.182.092-.185.185.231.185.229-.231Zm.556,9.182-.277-.138h-.323l-.048.092-.231.508.094.046.369.415.092-.185.367-.369Zm-.092-12.456-.464.046-.136.136.277.094.415.046Zm-.141-5.307-.138-.046-.185-.138-.044.092.044.139.323.092Zm-.044,6.413-.231-.183-.092.275.136.094.231-.094Zm.644-5.305h-.136l-.046-.138-.185.046-.323.369v.138l-.048.277h-.185v.231l.141.138h.044v.046l.231-.092.048.231.185-.092.044-.185h-.229l.367-.139-.044-.508h-.046l.183-.092-.044-.046.044-.046Zm.048,1.754-.463-.046-.229-.046-.231.231-.048.277.279.369.413-.046.231-.231.048-.277Zm-.508,17.486-.279-.138-.092.138.141.415.182-.185Zm-.279-18.178.279-.092-.092-.323-.187.092Zm.138,16.748v-.185l-.138.231v.277l.323-.231Zm.464-14.44-.464-.185-.044.462v.369l.369-.369.323.508.275-.046-.231-.554-.275-.094Zm1.382-5.123-.092-.182v-.048l-.09-.231-.277-.092-.094.092-.185-.092-.231.138-.277.092v-.231l-.323-.138-.136.323.136.138.231-.046-.138.277-.136.323v.277l.415.277.185.185h.138l.277.092.506-.323v-.231l.277-.277Zm-1.477,8.628-.185.094.185.275Zm.048-6.643.139-.046-.092-.185h-.094l-.092.231Zm.231-4.52-.092-.141-.187.279Zm-.048,2.213h-.044l-.048.046h.092Zm.277,6.83.046-.185-.323-.277-.044.185Zm.046,13.471-.09.046-.141.046.185.323.139-.231Zm.831-20.161-.367-.279h-.094l-.415.461.371.231.09.138.415-.415Zm-.183,2.49-.323-.185-.371.369.323.415h-.044l-.092.046.044.138h-.136l-.094.138.139.231.184-.046.694.138.277-.323-.277-.462-.279-.046.048-.092Zm-.415,4.984-.092.136.092.046.182.138v-.413Zm.231-2.031-.187.092-.044.092-.048.277.279.138.044-.138v-.048l.092-.183Zm-.231-2.077.044-.046v.138Zm.136-.277.323-.092v-.092l-.229-.092-.094.231-.092.046h.092l-.092.231.187-.138Zm-.092.369v.138l.048-.046Zm.464-7.013-.141-.231-.275.462.367-.141Zm-.092,5.4H821.9l-.094.092.138.046.233.046Zm.69,2.169-.275.092-.092.185-.094.046-.092.369.046.138.046-.415.371.046.183-.138Zm-.231-8.4-.277-.138.092.415.185.138.048-.046Zm.048,2.907-.279-.094v.094l.279.138Zm-.185,5.766-.048.046.233-.185Zm.413-5.353-.229.046-.185.14.321.321.187-.185ZM823.329-656l-.321-.092-.371.508.323.138.323-.092Zm-.092-18.363-.136-.046-.185.185-.094.554v.139ZM823.1-682.3h-.092l-.048.092.231.138Zm.782.6-.459-.138-.14.185-.046-.185-.229.046-.048.185h.323v.277l.277.369.139-.323Zm-.6,2.767-.231-.138-.044.233.136.367.185-.138Zm-.046-2.444-.184.092.048.277.136.046.092-.138Zm.046-.277v.046h.046Zm.233,23.622-.187.046v.185h.187l.044-.046Zm1.152-23.253-.415-.185-.229-.138-.048.277-.185.369.046.092-.277.415.046.044h-.046l-.185.279.185.277.231-.277-.046-.138v-.046l.6.046-.138-.554.323.092Zm-.736,5.213-.187-.046-.046.139.138.231.277-.092Zm.321-1.2-.415.046-.092.231.279.094.183-.14Zm-.415-3.6h.046v-.046Zm.415,5.167-.229.138-.187.092.277.138.277-.092Zm.461-6.736v-.231h-.046l.139-.185-.139-.138-.277-.046-.092.092.231.277-.506-.092-.092.785.459.046.277-.185Zm-.508,3.874h-.139l-.092.187.231.229.138-.044Zm.092-4.105-.138.092-.046.092.325.046Zm.323.046.046-.046h-.138Zm.369,5.4h-.046l.046-.046-.185-.044-.185.136.138.231.046.048.185-.14Zm.184-3.967-.323-.138-.092.185v.046l-.092.138.185.185.046-.139.046-.185.092.138.138-.138Zm.139-1.523h-.323l-.092.369.139.092.092-.046Zm-.231.831-.139.046-.046.046.092.231.277-.231Zm.231,2.63-.277.046-.092.229.092.233.325-.092Zm.092-4.846-.138.138h.231l.277-.185-.138-.231Zm.185,5.582h-.229v.325l.09-.046.046.229.139-.046.138-.321-.046-.141-.138.046Zm.092-4.105-.277-.138.185.231.138.138Zm.231,1.384-.415-.046-.092.277.185.138.277-.092Zm.046-2.677-.461.046-.046.323.185.231.415-.231Zm-.138,2.261-.323-.185.185.277.138-.046Zm-.046,2.259-.046.141.092.046.231-.092Zm.415-2.167-.046-.046-.185.277.092.138v.092l.277.231.185-.138-.092-.277-.141-.138Zm1.477-1.707-.048-.369-.136-.138-.323-.185-.046.508.046.369-.046.231.323.508.323-.323.138-.277.139.092.182-.046v-.185l-.044-.046.277-.092v-.138l-.369-.138.044.092.048.277h-.185l.136-.185-.229-.231-.092.461Zm.139.277.092.046.092-.185Zm.6-1.384-.231.092v.046l-.138.138.369-.092Zm-.092.415-.094-.046-.092.185.141.046.138-.046Zm.461-1.154-.233-.046-.044.138.044.139h.185Zm.275.185-.092.138.233.185.185-.277Zm.415-1.29.233-.187.138-.092-.138-.092-.092.046-.508.185Zm-.323.552-.044.046v.323l.231-.185Zm.371-.277-.371.187.323.136h.092Zm.736.138-.459-.277-.092.231.275.277.277-.092Zm.831-1.061-.229-.092-.231.233.367.136.279.046Zm1.615.141-.185-.141-.369.141-.046.229.323.185h.231Zm.738.136-.323-.046-.138.323.092.094-.092.09-.046.231h-.459l-.141.323h.185l.323-.046.323-.092.415.092.092-.136-.138-.417h.138Zm-.967,7.061h-.092v.136l.044.51.048-.048Zm.6,2.121-.275.231.136.092.138.046.092-.046.046-.139-.138-.046Zm.462-9.92-.229.141-.187.136.139.231.277-.046Zm.092,7.338-.277.044.139.187-.046.275.279.092.183-.183v-.092l.231-.279Zm.277-6.138-.183.046-.094.185.369.046Zm.969-.138-.185-.046.323.138.092-.044Zm1.984,1.292-.187-.046.141-.092-.323-.231H836.2l-.048.139v-.046l-.183.185.138.138.185-.046h.046l.277-.046-.138.369.231-.046.275.092Zm-.323,2.446-.046-.046-.277.277v.092l.185.092.231-.138Zm.6,3.276-.092-.092-.185.231.137.136.279-.183Zm.508-4.892-.185-.046-.092.185.184.323.044-.046.323-.046v-.369l-.229.046-.046.046Zm.046-.508h-.094l-.044.277.138-.046Zm.462,3.876-.185-.046v.185l.092.046Zm-.092-2.492.275.369.048-.138-.048.046-.275-.508Zm.552-.785h-.044l.044.092.279.277Zm.371,2.354-.233.046v.184l.141.185.136-.046Z" transform="translate(-706.627 688.154)" fill="#fff"/><path d="M828.76-675.7l.415-.138h.415l.462.138h.508l.369-.092.139.231.644-.092v-.092l.415.692-.09.138-.277.462-.185.323-.046.138v.415l-.508.508-.092.275v.048l-.323.367-.277.833-.277.277-.185.138-.231.644h-.231l-.231.6-.046.369v.277l-.461.508-.092.231-.231.231-.092.462-.185.092-.185.461-.185.323v.046l-.231.692-.323.277-.092.046-.137.369-.094.461-.369.323-.092.277-.183.415-.233.277.185.369-.552.413.185.141-.74.782-.09.325-.092.275-.048.369-.092.277.048.046.092.325-.048.506.14.231.275.323h.464l.183-.092.369.323.646-.231.141.138.459-.323.323-.231.508.231.092.277.048.277v.138l-.141.277h-.138l-.136.092h.136l.092-.046-.046.092-.092.138-.277.139-.139.461-.138.139-.092.277-.185.185-.462.277-.369.231-.367.046-.464.369h-.044l-.738.138-.323.139-.648.138-.321-.046-.323-.092-.323.138-.323-.092-.277-.185-.231.139-.6-.369-.277-.092-.046-.092-.415-.323-.323-.231.046-.046-.323-.323-.185-.6-.277-.138-.046-.831.138-.369h.185l-.138-.738-.092-.138.185-.461.092-.275.046-.369-.046-.141.184-.459.046-.323.231-.279.231-.229.046-.554.277-.415h-.046l.323-.738.277-.323.046-.092.277-.231.369-.692.046-.323.092-.461.367-.369-.044-.231.508-.554.092-.323.092-.277.231-.231h.092l.323-.415.136-.415.048-.554.277-.139.139-.415.136-.183.323-.415.092-.279.14-.321.275-.187.231-.508v-.459l.508-.554-.09-.185.323-.415v-.277l.367-.323.277-.277.138-.277.233-.231.275-.185.14-.139.506-.092Zm-8.166,14.765-.138-.048-.046.323h.046l.231-.046Zm.323-.969-.092-.048.046.048-.277.554h.092l.231-.046-.138-.094.323-.046Zm.692,2.075-.231-.136-.185.413.046.231.461-.185Zm.092-2.4-.138.183-.141.233.048.137-.231.325v.415l.183-.14.048-.185.459-.323Zm-.138,5.4-.141-.046.141.092Zm.782-1.754-.09-.277-.138.139-.508-.139-.092.369-.046.277.323.369-.092-.046h-.046l-.185-.046v.138l.046.138.046.092.231.138.415.185.046.046-.092-.046-.092.139v.046l-.141-.092-.044.231.185.185.139-.092.185-.185-.048-.185.187.092.229.092.092-.462-.459-.185h-.139l-.138.185-.187-.323-.136-.046.415-.277v-.092Zm-.644.692h-.046l-.185.092.046.138.138.046v-.092Zm.277-1.338-.231-.138-.138.277.185.092h.136Zm.185-5.259-.139-.046-.185.231.185.092h.092Zm0,5.9-.139-.092-.094.231.048.046h-.048l-.09.277.231.046.092-.046-.046-.231h-.046l.139-.092Zm.877-.784h-.046l-.048-.508-.508.092-.275.415.182.184.371.046.136-.138.092.046Zm-.508-4.29-.277-.046-.046.185.185.138.231-.138Zm.462,1.892-.369-.325v.508l.229.187.325-.279Zm-.277,2.4.136.092.14-.092Zm.415-1.013-.279.229.14.138Zm.229-2.492-.183.046-.138.184.184.09.092-.09Zm-.092,4.059-.229.046.229.138Zm.187-1.061.046.138-.277.323.369.369.415.138-.277-.738-.185-.415Zm.138,1.246-.325.092.14.139Zm.461-3.969h-.046l.183-.275v-.094l-.275.094-.185-.184-.323.369-.092.136v.415l.092.138v.094l.046.046.092.229.185.046.044-.275.092-.094h-.044l.092-.185.182-.183Zm-.187.233.141-.233-.185-.136v.275l-.277.323.046.092h-.138l-.046.092.046.094.229.183.092-.183.048-.046V-662l.092-.138.046-.044Zm-.092-.969-.229.092.092.229Zm.464,5.305-.464-.277-.092.369.233.231.367-.185Zm-.277-9.828-.231.185.185.092Zm.229,7.843-.229-.046.092-.138-.187.185.048.048v.09l.138.092.185-.139Zm.048,2.307-.092.046-.185.277h.229l-.092.092.048.092.092-.185.136.046Zm-.048-6.459-.183.092.09.138Zm.185,2.261h-.044l-.141.092.092.046h.141Zm-.044-6.784v-.092l-.048.138Zm.367,4.846-.229.046v.231l.092.046v-.138Zm0,.692-.183.046.139.277h.044Zm.415-.231-.508-.138.048.138.277.277.09-.231Zm-.415-4.753.323-.046.048-.415h-.138l-.233.139-.044.369Zm.233.369-.185-.138-.048.231.092.231.092-.138Zm.183,9.32-.183-.046-.14.046.187.185.184-.046Zm.233-9.781-.185.231.092.277Zm-.048-.692-.044.415.044.277.371-.231Zm0,3.876.092-.138-.044.046Zm.646,7.336-.323.092.185.231Zm.14-10.335-.279.185-.044.139.136.046Zm.044-1.569-.185-.092-.139.231.323.231.185.046Zm.415-1.431-.185-.09-.183.229.275.141h.048Zm.048,3.369v-.231h-.233v.277l.141.046-.048.046-.183-.092-.092.369.136.139.279-.185-.048-.138.185-.231.138-.231h-.092Zm-.279.785.092-.139h-.046Zm.046,8.72v.138l.185-.138Zm.461-13.425-.229.046-.187.229.279.233.136-.279.046-.229.141.323.092-.187.6-.09-.415-.461-.462-.138-.092.554Zm-.092.923-.185-.046-.138.136.094.138.275-.182Zm-.277,3.136-.046.092h.138v-.046Zm.556,9.135-.323-.185-.233.369.6.092Zm-.415-9.274-.092.092.092.046Zm.415,9.735-.279.138.186.185Zm0-12.92-.092-.092-.048.325.092.182.14-.182Zm.367.508-.275-.185-.185.185.229.323.231-.182Zm.323,11.858h.185l-.275-.139h-.092l-.187-.554h-.046l-.092.139-.183.323.136.138.231-.092.092.277-.044.138Zm-.6-10.058v.138l.09-.046.325-.6-.279-.185Zm.644-4.844-.229.046-.14.323.277.229.231-.136Zm.738,2.123-.415-.231.046.044-.462.371.279.323.183.139.325-.187.09-.138Zm-.692,12.225.092.046.092-.092Zm.923-11.766-.462.14-.046.229.369.092.139-.138Zm.692-2.905-.044-.277-.279.092h-.323l-.046.092-.275.415.321.231.187.185.183-.138.461-.092Zm-.6,1.844.231.187.092-.369.138-.185-.231-.141Zm.508-.967.092.138.323-.415-.138-.046Zm1.475-2.307-.136-.046-.092-.046-.046.231.185.185.231-.046Zm5.769-9-.046.277-.092.646.048.323-.325.277L836-682.3l-.092.277-.136.461-.279.413-.185.141-.231.321-.277.094-.183.321-.277.141-.694.046-.321.092-.323-.092-.279.092-.552-.092-.139-.187-.415-.229-.231-.138-.046-.14-.141-.229-.044-.508-.277-.14.046-.644-.046.046.185-.877-.046-.092.231-.554.185-.323.046-.369.6-.6.277-.323.138-.092.369-.231.367-.323.048-.046.69-.231h.141l.323-.046.367-.046.6.185.14.138.275.231.141.046.183.231.141.415-.048.323.092.277.185.646Zm-2.815,2.49-.044-.09-.415-.231-.277.554.092.369.552-.14.279-.229Zm.464-.736-.415-.138-.048.184.279.323h.229Z" transform="translate(-687.138 689.912)" fill="#fff"/><path d="M825.812-666.861l.046-.229L826-667.5l.138-.046.323-.74.231.094.182-.554.094-.139.508-.277.277-.185.415-.138.369.092.275-.138.279.092h.369l.275.139.279.277h.369l.367.508.048.138.044.369.323.415h-.092l.279.554-.048.415-.183.321-.141.415-.138.323-.229.046-.231.461-.462.092-.279.369.092.369.323.323.277.185.279.092.459.092.415.092.14.092.644-.046h.694l.136-.092.739-.092-.092.046.831-.369.233-.092.367-.231.277-.231.092-.231-.046-.046.323-.369.277-.323v-.6l.137-.369-.09-.6v-.275l-.138-.231-.092-.461-.369-.738-.231-.092-.046-.508-.231-.231-.185-.231-.044-.092-.415-.508-.187-.231-.185-.185-.323-.461-.138-.185-.323-.277-.183-.462-.092-.046-.508-.739-.092-.277.092-.323-.371-.138-.136-.692v-.185l-.141-.506.092-.233-.092-.321v-.369l-.046-.415.187-.092.136-.74h.048l.044-.459.279-.277.136-.323.231-.369.141.046.182-.508.139-.092.415-.323.187-.323.415-.092.275-.369.185-.138.369-.231.185-.046.6-.231h.139l.784-.369.321.092.279-.185h.323l.646-.092.275-.046h.6v.046h.784l.459.046h.138l.325.138.875.231h.323l.185.138.464.231.229.092.554.369.048.185h.275l.323.277.323.415.092.139.277.323.136.138.233.6.046-.092.138.554.092.09v.833l-.092.185-.092.413-.046.508-.185.462h-.046l-.231.415-.415.138-.277.277-.044.323h-1.063l-.462-.092-.413-.323-.094-.09-.092-.556-.184-.231-.044-.508v-.785l-.508-.367-.187-.323-.136-.279-.141-.183-.231-.092-.229-.187-.323-.229-.556-.046-.136-.046-.279-.139-.459.231-.048.185-.875-.046-.14.138-.367.231-.231.183-.046.325-.187.136-.229.694-.092.046.046.6.046.233.046.321.09.138.092.277.187.323.092.231.231.277v.185l.369.277.277.369.09.231.14.277.508.369.044.231.231.231.415.323.141.185.367.784.185.185.187.323.136.323.14.138.136.738-.044.277.367.692.139.184v.231l.046.831h.046l-.046.69-.136.046-.048.738-.044.231-.185.461-.048.231-.367.554-.279.369-.229.277-.092.185-.231.185-.279.277-.185.231-.323.277-.459.185-.185.231-.692.277-.323.231-.415.139-.323.185h-.369l-.415.231h-.323l-.415.139-.231-.046-.508.277-.461-.046v-.138l-.415.138-.6.138-.371-.046-.508-.231-.277.092-.367-.138h-.092l-.415-.139-.554-.046-.277-.277L829-661l-.279-.138-.275-.231-.233-.139-.321-.323-.462-.277-.092-.231-.277-.277-.231-.138-.092-.415-.508-.461.046-.046-.369-.692-.046-.092-.046-.554-.138-.046.046-.644v-.461Zm1.661.094-.369-.048-.046.323.046.233.69-.187Zm.736,1.567-.09-.323-.046-.092-.461-.09h-.462l-.046.229.138.187.231-.048v.185l.092.185.323.185.277-.092.277-.138Zm-.552,1.846-.323-.185.044.231h.094Zm1.015-5.536-.139-.092-.138.046Zm.092,3.551-.092-.046-.046.231-.231.185.369.277h.044l.094-.462h-.094Zm.367-1.752-.323-.046-.044.229.138.187.138-.046Zm.14-.554h-.14l-.183.275.275-.046.048.046Zm-.048,4.659.187.092.185-.046Zm.787-2.813-.187.092-.367.09.183.231.325-.185Zm.459-2.079-.275-.044-.092.09.044.187.279-.139Zm1.663,6.184h-.371l-.044.185.183.277.277-.184Zm.967-13.84-.044-.14-.092-.046.092.369-.048.279.092-.187Zm.279-1.292-.187-.046-.185.508.092.182.279-.092Zm0,15.5H833.1l.139.277Zm.092-14.858-.187.048-.092.185.092.136.277-.183Zm.183,13.981h-.275l-.14.138.14.092v.092h.092l.044.046v-.092h.231Zm.277-15.64-.323-.279-.136.556.275.139.185-.185Zm-.136-.738-.094.185v.139l.508-.046Zm.183,2.584-.231.046.048.229Zm.739-1.663-.369-.09-.139-.138-.321.644.321.187h.139v.046l.185.138.323-.138-.092-.323-.231-.046Zm-.277,5.261-.136-.461-.415-.092.09.415.277.277Zm.138-6.366-.323-.046-.184.231.325.139h.09Zm-.323,2.307-.184-.092v.321l.092.094.14-.141Zm.556,14.117-.279-.138-.323.184.323.369.415-.138Zm.736-12.271-.231-.141-.415-.092-.09.415-.556.138.141.141.044.506.138.231.277-.277.138-.092v-.138l.185.185.185-.323.184-.138ZM834.4-663.215l.275.231.046-.092v-.185Zm.921,1.892-.277.046v.046l-.138-.046-.184.139.231.138.046-.184.092.323.139-.139Zm.231-17.994-.369-.046-.185.138-.092.323.092.369h.046l-.046.046.138.092.231-.185-.092-.046.277-.092.092-.139Zm-.508.785.231-.092-.046-.092Zm.277,16.332.462-.277.046-.508-.046-.138h-.092l-.139.184-.508.185Zm0-15.225.046.046.231.183.046-.183h.138l.138-.046.046-.233-.277-.044.046-.185.185-.185-.277-.138v.231l-.185-.046-.277-.094-.046.325.046.136.046.094Zm.185,1.106-.369-.09v.229l.138.233h.185Zm-.323-1.429v.09l.046.094.231-.461Zm.6,5.9h-.323l-.231.185.231.185.231-.231Zm-.415-5.536h.277l.046-.323-.092-.046ZM835.917-664l-.323.046-.138.231.231.185.185-.139Zm.139-8.4-.139.092-.231-.046.323.231h.046Zm.138,1.569-.369-.092-.046.323h-.092l.277.369.231.462.277-.231-.092-.231v-.415Zm-.231-5.767v.092l.046-.323Zm0,.092.046.046v-.046Zm.415-4.061h-.185v.092l.092.046Zm.323,8.074h-.277l-.046.231.231.092.092-.046Zm0,3.184-.277.046.321.323h.048Zm.323-2.077-.415-.046v.369l.185.139.231-.231Zm.277-8.12-.14-.092-.044-.323-.323.092-.048.231.048.092-.048.231.187-.046v-.185l.277.046v.046l.231.046Zm-.184.554-.323.138.277.138.231-.092Zm1.754,12.366-.371-.138.048.138-.464-.092-.092.046-.367.369.459.413.279-.185.229.185.323-.413Zm-.879-4.892-.044-.092-.185.323h.138l.138-.092Zm.048,8.351H837.9l-.138.184.092.139h.136Zm.369-7.243-.092-.046-.185.231-.048.231.092.323.233-.277v-.231l.09-.046Zm.415-9.874-.415-.185-.233.185Zm.323,11.858-.185.044.136.14.187-.14Zm.275,3.228-.092.139-.09.369.09.138.185-.231.14-.369Zm1.015-1.89-.229.136-.046-.046.138.279.092-.14Zm.464-12.181-.323-.092v.185l.138.185.092-.092Zm2.628,2.906-.046-.229-.138-.141-.415.141.092.415.046.459.277-.231.138-.044Z" transform="translate(-681.05 694.772)" fill="#fff"/><path d="M841.9-673l-.554.046-.044-.185-.648.185h-.044l-.508-.046-.6-.046-.138-.415.185-.323.231-.415.092.046.323-.6.136-.415.231-.231-.092-.138.833-.185.275-.046.231.092h.417l.6-.046.233-.092h.506l.508-.046.231-.046.046-.184.646-.831.092-.231.185.092.092-.692.231-.415v-.461l.231-.462.231-.231v-.321l.138-.279.231-.369.092-.092.046-.6-.092.046.092-.554.183-.415v-.461l.094-.323-.277-.231.183-.646-.229-.369.092-.415-.231-.415-.138-.369-.046-.185.046-.231.138-.6.6-.092.508-.092.462.185.323-.092.644.138v-.092l.464.231.229.231.694.139.185.046.229.323.187-.046.092.508.229.277.046.185.233.508.09.092v.415l.046.277v.738l-.136.139.09.461-.046.231.046.183-.323.969-.046.233-.136.275-.141.508-.185.323-.183.462-.048.231-.367.046-.048.831-.092.046-.229.6-.046-.092-.277.785.092.138.185.185.183-.185.556.138.229.139.461-.046.556-.092.277.092.231-.046.508.046.229-.092.092.6v.277l-.092.092-.323.461-.138.138-.09.462-.279.369-.229.092-.325.092-.231.277-.367-.046-.415.046-.371-.046h-.136l-.323.09-.556-.044-.321-.046-.231.139-.463-.139-.508.231-.136.185-.279.415v.183l-.367.461-.141.233-.136.183.092.233-.554.6-.092.229-.139.369-.323.279-.185.275-.092.369-.231.277-.277.692-.277.277-.185.277-.185.415-.139.277-.136.369-.141.138-.367.6-.141.231-.092.139-.138.461-.323.185-.277.554-.183.415-.14.321-.277.371-.046.323-.044.139-.092.461-.14.415-.044.229.136.831.048-.046.367.508.185.231.187.138.277.046.323.046h1.015l.136-.046.554-.092.046.046.185-.092.323-.092.415.231.046.231.046.462.092.185-.323.323-.185.231-.185.369.092.185-.508.323-.321.185-.325.277-.138.092-.369.138-.138.092-.367.277-.279.046-.877.138h-.646l-.367.046-.461-.046-.046.185-.692-.323-.184-.046-.138-.139h-.648l-.367-.231-.185-.092-.231-.277-.185-.139-.231-.231-.415-.369-.139-.369v-.231l-.231-.369-.231-.092.046-.738.185-.277-.185-.6-.139.138.277-.829-.046-.508-.046-.279.369-.552.185-.739.229-.094.048-.644-.185-.046.508-.6-.138-.323.508-.323-.092-.092.415-.461.231-.185.229-.508.048-.185.046.046.136-.461.325-.415h.046l.277-.554.275-.323.092-.231-.044-.231.367-.508.048-.229.369-.417.183-.185.233-.508.138-.229.092-.325.275-.369v-.046l.185-.275.371-.462.185-.461-.048-.139-.367-.231Zm-4.613,14.163-.231.046.185.184Zm0-2.536-.092-.046v.136Zm.139-.554-.092-.141-.092.369Zm.277,1.2-.231.184.139.231.231-.136Zm.09-.415.048.187.044-.233.094-.323-.094-.046Zm.371,3.6h-.184v.139l.231.185.138.138.044-.185Zm1.338-1.015-.6.092-.092.092-.229.323.185.185.323.231.415-.323Zm-.323-.554-.138-.139-.277.369.092.139.415-.139Zm-.138-6.182h-.141l-.092.092.141.092.231-.046Zm.6.554-.09-.231h.046l.044-.046v-.139l.141.185.044-.185v-.231l-.229.185-.139-.046v.231l.046.046-.279.369-.229.323.136.139.141.046.367-.323Zm.048,1.984-.415-.046-.185.229.461.279Zm-.184-2.215h.046v-.046Zm.321,4.336h-.275l.046.187.136.09.092-.046Zm.048.738-.185-.092-.138.323.275.277.231-.092Zm.831-3.138.185-.09-.369-.092-.279-.092-.092.369-.136.139.229.136-.415.092-.137.279.231.136-.187.279.187.137h.046l.09.092.141-.092-.048-.044v-.046l-.092-.233.325-.275-.092-.138.139.092.092.139Zm-.6-.136-.279.046-.044.138.185.092h.046Zm.092,4.613h-.277l-.094.184h.279Zm-.277-3.6.136.092v-.046Zm.229,1.8-.183.325.09.09.325.046-.092-.508Zm.14-.923-.277.138.136.323.185-.231Zm.459,3.738-.367.046-.141.046-.229.323v.046l.736-.046Zm-.092-16.794-.323-.185-.092.461.231.092h.233Zm-.185,12.089-.183.736.183-.692Zm.325-3.323h-.14l-.137.092h.229l.141.046Zm.092,7.059-.141.231.231.138Zm1.154-8.9h-.415l-.14.185-.323.046-.275.461.554.092.184-.046.044-.277.138.231.462-.231Zm-.831,2.861-.233-.046.048.138.136.092.092.046Zm.367,1.059-.323-.046.092.233h.231Zm.231-5.213h-.138v.185h.279Zm.692-5.4.141-.138-.141-.231h.231l-.231-.046-.136-.046-.094.046-.415-.046-.136.138.231.415.321-.092Zm-.092,5.72h-.554l-.092.323.279.138.415.046Zm-.044-.877-.139.046-.14.139.14.092v-.046Zm1.382-.831v-.277l-.508-.092-.323.046-.459.369-.14.369.185.231v.231l.231.461.6.092.415-.277.185-.323.138-.552Zm-.969,1.708-.369-.138.092.323.092.139.048-.139Zm-.136,1.938.183-.369-.183-.092-.233.461v.185Zm0,9.043h-.185l.092.138Zm.459-13.566-.044-.321-.185.183-.231.461Zm.415-3.321-.044-.092-.092.138v-.046l-.556-.046-.046.323.231.138.231.092h.046l.046-.323.048.046.136-.185Zm0,6.043-.369-.092.092.231.141.185.092-.138v.138h.09l.185-.277h-.138l.092-.092-.138-.139Zm-.185-5.859.048-.138-.048.046Zm1.108,1.154-.369-.138-.138-.046-.044.092-.048-.092H843.7l.415-.138-.046-.415.092-.139-.462-.138-.229-.046-.141.231v.139l.185.138.092.323-.046.046-.046.323.323-.185-.185.277.325.367.6-.367Zm-.738-1.754h-.138l-.182.139.321.185.139-.231Zm-.185,6.459-.044.185.136-.139Zm.139-4.89h.046l-.092-.046Zm.138,1.292-.046-.14-.092.14.138.139.187.092Zm0,4.705.139-.231-.044.046Zm.462-7.243-.231.046-.092.138.048.092h.229Zm.554-.692-.277.046.369.138Zm.6,2.584-.231.09v-.321l-.138.139-.138.183.277.14v-.14l.138.14Zm-.185.967-.092-.044-.185.277.323.229.185-.323Zm.646-1.429h-.323l.046.046.138.092v.092Zm.415-4.43h-.046l-.369-.185.046.369.046.046.231-.046v-.092l.092.046Zm.554,1.938-.415-.046-.185-.092-.185.231-.139.277.277.231.369-.046h.183Zm-.138-1.846-.185.092-.277.277-.277.185.415.277.367-.185.048-.092Zm0,2.861h-.231l-.185.185.185.461.275-.323Zm.231-1.2h-.277l-.139.092.229.046.187-.046ZM847.4-679v-.277l-.141-.046-.182.187-.138.644h.046l-.185.369-.092.369.369-.092v.369l.09.138.415-.138-.09-.369H847.3l.092-.508H847.3v-.277l.138-.046Zm-.323,1.754-.092.092h-.233l.279.323h.092Zm-.092-3.046-.046-.092-.139.415.185-.09Zm.323,4.015-.141.046v-.046h-.182l-.092.046.092.323.092.092.277-.185Zm-.323-2.215.323-.138v-.09l-.185-.14v.14Zm.323.415v-.277l-.323.046v.185l.182.231Zm-.141,1.846h-.09l-.092.231v.092l.323-.277Zm-.044-1.615-.046-.046v.046Zm.044,0h-.044l.044-.046Zm.325,2.953-.325-.185-.044.231.185.138.138-.092Zm-.325-2.953.092.046.048-.046Zm.556-3.321-.277-.048-.046.094.231.321.185-.046Zm-.092.969-.231.508.554-.141-.371-.644.092.229Zm0,0-.048-.094-.044.141Zm0-4.476.369.092.323-.046-.185-.231.323.046-.508-.231-.279-.092Zm.508,5.674-.092-.046-.231.277.231.139.277-.185Zm.092-3.09h-.092l-.277.231v.136l.139.094h.277l-.277.277.277.323.369-.233v-.461l-.369-.046Zm-.048,6.551h-.321l.092.185.092.231v-.277Zm.463-8.028-.556.185-.183.092.415.185.183-.092Zm-.14,9.274-.183-.046-.14.185.048.185.231-.092Zm1.015-.231-.275-.046-.141.231.141.323.275-.138Zm3-.738-.046.092.092.046v-.138Z" transform="translate(-670.24 689.982)" fill="#fff"/></g><g transform="translate(48.362 26.954)"><path d="M801.717-699.821l2.109,4.284,4.725.691-3.422,3.33.8,4.707-4.224-2.226-4.228,2.218.811-4.705-3.416-3.336,4.726-.682Z" transform="translate(-760.41 699.821)" fill="#fff"/><path d="M789.88-698.664l1.35,2.742,3.024.442-2.19,2.131.514,3.012-2.7-1.424-2.706,1.42.519-3.011-2.186-2.135,3.025-.437Z" transform="translate(-769.844 700.986)" fill="#fff"/><path d="M811.081-698.644l1.35,2.741,3.024.442-2.19,2.131.514,3.012-2.7-1.424-2.706,1.42.519-3.011-2.186-2.135,3.025-.437Z" transform="translate(-748.506 701.005)" fill="#fff"/><path d="M780.5-697.925l.864,1.755,1.935.283-1.4,1.364.329,1.928-1.73-.912-1.732.908.333-1.927-1.4-1.366,1.936-.28Z" transform="translate(-777.697 701.729)" fill="#fff"/><path d="M818.877-697.89l.864,1.755,1.935.283-1.4,1.364.329,1.928-1.73-.912-1.732.909.332-1.927-1.4-1.366,1.936-.279Z" transform="translate(-739.073 701.765)" fill="#fff"/></g></svg>