<svg xmlns="http://www.w3.org/2000/svg" width="191.507" height="84.92" viewBox="0 0 191.507 84.92"><g transform="translate(11.188 0)"><path d="M863.566-702.951l1.677,4.274a26.713,26.713,0,0,0,4.8-4.643l2.055,1.228a43.73,43.73,0,0,1-6.073,5.4l1.168,2.976c.3.762.648.728,3.309-.317,1.629-.638,3.433-1.449,5.333-2.4l.821,2.093c-1.814.867-3.2,1.463-5.1,2.207-3.287,1.29-4.173,1.535-4.944,1.372a2.228,2.228,0,0,1-1.517-1.579l-3.812-9.713Zm8.481-.363a14.291,14.291,0,0,0-2.4-2.025l1.005-.913a15.87,15.87,0,0,1,2.42,1.948Zm1.653-1.459a15.061,15.061,0,0,0-2.4-2.061l.983-.835a10.792,10.792,0,0,1,2.368,1.9Z" transform="translate(-861.281 718.878)" fill="#fff"/><path d="M881.239-709.281l1.5.72a8.772,8.772,0,0,1-2.795,7.243l-1.886-1.21a6.022,6.022,0,0,0,2.311-4.33l-10.48,3.026-.58-2Zm-3.949,4.918.367,1.264c1.224,4.364.823,6.384-1.814,8.9l-2.129-1.242a5.617,5.617,0,0,0,2.169-3.319,8.38,8.38,0,0,0-.5-3.7l-.363-1.248Z" transform="translate(-853.203 717.255)" fill="#fff"/><path d="M887.5-710.921l1.563.931a21.788,21.788,0,0,1-1.876,5.857,46.179,46.179,0,0,1,5.548,3.363l-1.294,2.123a49.646,49.646,0,0,0-5.275-3.547,18.67,18.67,0,0,1-5.365,5.75l-1.681-1.792a16.51,16.51,0,0,0,7.311-10.343l-7.775,1.551-.407-2.047Z" transform="translate(-844.205 715.604)" fill="#fff"/><path d="M899.494-710.583a16.985,16.985,0,0,1-2.53,8.15,14.334,14.334,0,0,1-6.27,4.755l-1.455-1.82a12.511,12.511,0,0,0,5.482-3.756,21.72,21.72,0,0,0-3.969-2.159l1.138-1.732a20.67,20.67,0,0,1,3.951,1.98,12.28,12.28,0,0,0,1.152-4.127l-4.992.582a13.343,13.343,0,0,1-3.81,4.775l-1.653-1.425a11.8,11.8,0,0,0,4.432-7.079l2.277.251c-.088.351-.178.7-.365,1.32l5.247-.61Z" transform="translate(-835.863 714.078)" fill="#fff"/><path d="M901.278-706.363a24.028,24.028,0,0,1-4.787,2.518l-1.38-1.986a23.174,23.174,0,0,0,10.283-7.424l1.993,1.206a29.451,29.451,0,0,1-3.756,3.86L903.99-699l-2.422.094Z" transform="translate(-827.234 713.255)" fill="#fff"/><path d="M909.149-712.624l-.1,2.855c-.114,3.16-.291,4.569-.791,5.947a8.377,8.377,0,0,1-3.549,4.115l-1.555-1.9c2.841-1.8,3.4-3.092,3.535-8.226l.1-2.871Zm4.121-.3-.361,10.315a10.139,10.139,0,0,0,4.035-5.638l1.778,1.571a11.642,11.642,0,0,1-6.73,7.263l-1.5-1.272.432-12.322Z" transform="translate(-819.138 713.501)" fill="#fff"/><path d="M923.676-711.247l1.206,1.362a21.885,21.885,0,0,1-3.567,5.01,46.164,46.164,0,0,1,4.266,4.888l-1.88,1.629a49.123,49.123,0,0,0-3.947-4.98,18.715,18.715,0,0,1-6.86,3.849l-1.059-2.219a16.513,16.513,0,0,0,10.11-7.634l-7.877-.885.233-2.073Z" transform="translate(-810.403 714.216)" fill="#fff"/><path d="M934.573-707.112a17.015,17.015,0,0,1-4.87,7.008,14.37,14.37,0,0,1-7.41,2.641l-.839-2.175a12.49,12.49,0,0,0,6.354-1.928,21.487,21.487,0,0,0-3.132-3.252l1.611-1.308a20.518,20.518,0,0,1,3.164,3.08,12.316,12.316,0,0,0,2.346-3.585l-4.934-.953a13.329,13.329,0,0,1-5.072,3.4l-1.146-1.856A11.786,11.786,0,0,0,927-711.452l2.095.929c-.191.307-.381.614-.746,1.148l5.189,1Z" transform="translate(-801.534 715.07)" fill="#fff"/><path d="M928.956-699.274c6.693,1.354,9.884-.132,12.851-5.985l1.555,1.89c-3.287,6.2-7.025,7.863-14.559,6.471Zm6.774-5.2a33.09,33.09,0,0,0-4.791-3.255l1.346-1.806a21.473,21.473,0,0,1,4.838,3.2Z" transform="translate(-793.323 717.001)" fill="#fff"/><path d="M948.637-703.148l1.322,2.654c-2.588,5.594-5.935,7.287-12.5,6.34l-.385-2.366c5.57,1.168,8.666-.225,10.592-4.765l-9.147-3.5.746-1.95Zm4.715,1.065a1.969,1.969,0,0,1-2.544,1.124,1.981,1.981,0,0,1-1.109-2.54,1.979,1.979,0,0,1,2.54-1.108A1.974,1.974,0,0,1,953.352-702.082Zm-2.7-1.017a.938.938,0,0,0,.542,1.186.932.932,0,0,0,1.2-.536.94.94,0,0,0-.538-1.2A.944.944,0,0,0,950.648-703.1Z" transform="translate(-785 719.817)" fill="#fff"/></g><g transform="translate(0 50.456)"><path d="M878.59-676.252l-.738.092h-.277l-.138.139-.461-.277h-.462l-.367-.508.044-.092-.459-.231-.092-.139-.323-.461-.279-.323-.092-.415-.092-.229V-679.8l.092-.187.046-.275.325-.141.183-.321.323-.231.233-.138h.367l.692-.092h.184l.277.231.738.046h.277l.369.046.277-.092-.046-.369.323-.369-.046-.415.092-.369v-.185l-.092-.185.046-.046-.185-.461-.231-.185-.277-.323-.325-.231h-.183l-.462-.185h-.692l-.415-.369-.785.046-.369-.046-.323.138h-.136l-.464.092-.185-.092h-.506l-.325.277-.092.046-.367.138-.464.092-.323.277-.415.092-.185.046-.367.277-.371.092-.229.138-.371.231-.136.138-.369.277-.369.231.092.046-.692.508-.277.139-.461.461v.138l-.508.508-.552.367-.187.371-.277.277v.185l-.459.277-.279.554.046.182-.6.554-.092.277-.233.277-.09.139.044.046-.415.738-.044.139-.325.323v.646l-.459.369-.187.046-.092.785-.508,1.015-.044.277-.092.231-.187.323v.6l-.275.554v.323l-.138.646-.187.415v-.046l-.136.783-.185.277.092.508-.046.325-.141.09.048.6.046.231-.046.415-.048.277-.182.092.138.831.139.462v.461l-.094.323.233.508.046.277.092.692.136.231.233.461-.046.138.277.415.185.229.09.092.464.6.185.321.459.323.187.138.044.277.6.092.231.092.369.046.092.187h.415l.415-.046.464.182.323-.046.092-.046h.506l.323.092.508-.136h.092l.461-.141.185-.138.092-.046.462-.092.277-.044.275-.187.141.094.415-.369.277-.141.369-.092.229-.182.092-.233.6-.321.231-.046.371-.369.229-.279.139-.09.277-.417.415-.275v-.138l.371-.369.229-.369.231-.231.233-.369.09-.277.415-.415.184-.323.277-.646.279-.185.183-.508.092-.323.185-.785.231-.277.277.046.369.231.092.369v.046l.138.462.046.462.277.323.092.415-.048.415.048.046-.092.415.138.323-.046.369v.277l-.048.231-.137.231-.046.646-.046.183-.139.417v.09l-.185.415v.233l-.231.367-.138.415-.369.554-.092.185-.277.323h-.046l-.369.462-.046.185-.415.369-.092.277-.321.231-.231.092-.233.323-.138.231-.461.139-.275.323-.279.231-.321.138-.187.092-.136.138-.786.323-.229.231-.508.092.044.046-.552.231-.508.092-.508.138-.415-.092-.277.231-.277.138-.554-.046-.6.138-.185.138-.692-.138-.554.046-.184.046-.508-.092-.323.092-.369-.046h-.323l-.277-.046-.6-.046-.092-.046H863.5l-.415-.138-.185-.092-.231.092-.508-.277-.141-.046-.229-.046-.508-.185-.094-.277-.508-.046-.229-.092-.277-.092-.323-.323-.277-.139-.185-.277-.552-.277-.187-.323-.321-.185-.094-.092-.046-.231-.508-.415-.182-.323-.187-.092-.229-.415-.14-.554-.138-.046-.321-.554-.048-.506-.138-.279-.092-.508-.044-.136-.185-.046-.048-.74-.044-.69.044-.969-.183-.415.044-.231v-.508l.046-.139-.138-.692.092-.554-.044-.138v-.462l.09-.277.092-.185.092-.6v-.369l.092-.6-.136-.138.275-.554v-.229l.092-.369.233-.325.183-.183.046-.508.094-.554-.14-.185.415-.6-.138-.046.371-.692-.048-.277.369-.462.139-.231.048-.185.09-.415.369-.508.048-.185.321-.6.138-.369.185-.277.139-.185.231-.323.139-.367.231-.046.277-.694.183-.092.233-.415.231-.321-.048-.231.325-.279.183-.183.233-.554.554-.323-.046-.092.554-.6.185-.046.275-.508.092-.323.508-.231-.092-.139.508-.277.323-.323.092-.277.508-.092.231-.323.461-.277.139-.185.323-.323.185-.092.415-.277.092-.046.369-.323.277-.092.369-.323.185-.185.508-.138.277-.185.046.046.415-.277.508-.185.139-.046.369-.323.415.046.323-.229.044-.046.508-.187.279-.092.508-.046.321-.183h.464l.415-.233.415.092.231-.092.321-.09.415.044h.279l.415-.044-.048.136.556-.136.736-.092.508.136.231-.044.462.09.6.279h.092l.462.229h.415l.508.279.183.136.556.461.459.185.233-.046.231.415.277.092.139.231.185.508.367.185.141.138.044.277.323.508.138.185.092.138.048.415.092.185.092.508.092.231v.462l.044.092-.044.646-.185.138.092.415v.415l-.185.369-.141.231-.138.369v.092l-.277.552-.182.233-.233.508H882.1l-.09.461-.369.275-.138.046-.092.323-.648.231-.323.185-.275.231-.277-.185-.692.231-.554.046Zm-22.1,9.92-.14-.092-.046.277.046-.046.185-.092Zm0,3.784-.092.139.044.277.092-.139Zm.044.462-.092.046v.046Zm.738-1.846-.367-.092.044.646-.138.231.461-.231Zm0-3.553-.415.231.048.185.185.231.275-.277Zm-.138-2.075-.185-.094v.094l-.044.275.275-.046Zm.323,4.751-.459-.046-.048.277.277.138.187-.046Zm.138,4.567-.323.094-.046.275v.187l.323-.094Zm.185-11.164h-.231l-.044.138h.182Zm.369,2.721h-.277l-.231.233.231.275.185-.185Zm.323-2.259-.6-.092-.044.367-.141.279.233.229.367-.09.185-.185Zm-.277,8.582-.231-.046v.046l-.136-.046-.048.231.092.046.231.138.277-.092Zm.508-2.954-.139-.415h-.508l-.136.323-.048.092.277.369-.277.323v.046h-.044v.231l.182-.092.231.231.323-.185.323-.138-.044-.462H858.8Zm-.692.646-.138.092.138.138h.046Zm.046,2.307h-.092l-.092.231h.092l.092-.092Zm.092,2.354-.277.09.138.046Zm.046-1.938-.185.092-.09.09.275.14.092-.094Zm.185-7.936-.185-.046-.231.183.323.187.185-.094Zm-.092,3.321v-.046l-.231.185.231.231.185-.092Zm.092,7.613-.231-.092-.046.371.092.044-.046.092.279.185.136-.185-.046-.277h-.138Zm-.044-6.736-.094.092v.231l.094.092Zm.321,2.354-.184.046-.136.184.275-.046Zm-.046,5.813-.138-.092h-.092l.277.323.138-.092Zm.277-10.056-.277-.048.046.277h.046l.231.092Zm.139-6.369-.092.046-.231.554.369-.046.231-.185.046-.415.092-.046-.231-.277Zm.508,11.489-.185-.184h-.415l-.185.415.415.323.185-.046h.231Zm-.277-8.674-.413.092-.048.323h.277l.092-.138Zm-.092-.6-.138-.092-.183.185.183.185.231-.138Zm.6,12.043.138.046v-.369l.462-.325v.046l.277.046.184-.046-.092-.182-.277-.185v.046l-.092-.141v-.046l.231.187.277-.141-.187-.413-.321-.184-.046.184-.461.046-.277.092-.277.183-.138.187v-.046l-.277.185.092.046-.046.229.185-.092.046.233.323.229.046.092v.277l.185-.046Zm-.277,2.628-.369-.046h-.231l.369.369.092-.139Zm-.185-9.412-.323.138.369.369.046-.369Zm.369,1.754-.461-.277-.185.462.092.092-.092.231.277.185.369-.046-.046-.277.139-.139Zm-.369,1.477-.185-.046-.092.323h.231Zm0-9.089-.231-.185.092.138.046.046.185.138Zm-.138,11.673-.092.092.046.229Zm.231-6.461-.092-.092-.138.185.185.138.277-.138Zm.6-3.6-.231.044.369-.321-.185-.369-.323-.138-.185-.138-.185.6.231.323.092.137.092-.046v.14l.185.138.092-.092Zm.275-1.569-.09-.231.277-.139-.092-.231.046-.185h-.185l.092-.092.459-.092-.092-.508-.367-.046h-.277l-.092.138-.138.185.185.323.231.092h-.092l-.046.138.046.139-.092.138.138.139-.461-.185-.323.461.231.231.231.277.413-.277Zm.094,8.489.231.277-.138.046-.138.185.092.046.138-.092.046-.185.046.046-.139-.415.046-.369-.323.323.044.092-.367-.138-.277.277-.231.184.508.231.139.092h.185Zm-.784.738-.139-.046-.046.092.138.185.138-.092Zm.092,4.936h-.092l-.185.185.092.092.185-.092Zm.6,1.061-.229-.415-.554-.138-.092-.092.185.415.138.231.369.185Zm-.6-2.677.092.048.092-.141-.415-.182.046.136Zm1.013-8.859.092-.046.141-.321v-.092l.092.046.139-.141.044-.275h-.275l.092-.325-.092-.044-.6-.231-.369.185-.184.277v.6l.046.462-.046.09.369.371.046-.046v.09l.09.138.279-.046-.046-.369.275-.092Zm-.367.141.367-.141-.09-.277-.369-.136h-.277v.183l-.138.325H860Zm-.277,3.182-.231-.046.092.139Zm.277-10.7-.277.046-.092.231.092.231.229-.138Zm.277,9.551h-.277l-.185.369.136.138.048.231.231-.046-.046-.185.139-.092Zm-.415-1.659.185-.14.138-.046v-.046l-.277.046Zm.09,4.244.094.046v-.046Zm.233,6.6-.185-.185-.048.231.094.138.185-.046Zm-.185-3.921v.321l.046.046.092-.367Zm.323-14.4-.185-.138-.092.369.277.139.136.092Zm-.185,4.753-.092.092.046.09Zm0,10.2-.092.275.185-.136Zm.138-6.645v-.138l-.092.138Zm1.936,8.03-.275-.279-.092-.046-.369.046-.094.046-.459.554-.323-.139-.092.231h-.092v.046l-.138-.046-.046.462h.046l.461.323.231-.229v-.141l.092-.092v-.461l.461.415.231-.277h.092l.185-.046.367-.138Zm-1.659-2.261-.046-.138-.14.367.279-.09Zm.184,2.536-.231.138v.046h-.092l.044.048h.187Zm.323-17.209.092-.138h-.646l-.048.554.279.046.277-.092Zm-.461,6.738-.092-.046-.048.367.141.048Zm.323,5.351-.415.185h.139Zm-.048,7.382h-.321l.184.138Zm.187-18.178h-.369l-.092.138.275.231.141-.046Zm-.187-.369-.229-.046.046.231.139.046.092-.046Zm.279,3-.415-.092-.046.046.183.231.233-.046Zm0,1.292-.462.092v.138l.139.277.231-.187Zm-.323-7.751H861.1l.046.277Zm.231,7.2-.277.138.369.185Zm0,14.21h-.187l.048.231.185-.046Zm-.046-6.366-.092.185.092.138.092-.046Zm.508-13.748-.233-.048-.321.277.321.138.187-.138Zm-.185,21.453-.231.092.092.231Zm.185-5.443-.323-.046.046.136-.046.279.369-.139Zm0-9.551-.233-.046.048.139v.229l.185-.136Zm.554,10.61-.461-.046-.092.092.231.323.277-.137Zm-.279-13.194-.182.231.231-.092Zm.415-.692h-.415l-.044.046h-.092l.092.092.136.092h.463l.415-.092v-.323l-.415.092Zm-.275-1.523h-.233l.048.185.185.139.092-.139Zm.185,18.224.231.231.231-.138.229-.323-.044-.461H863l-.646.139-.092.323.092.139-.14-.139-.185.508v.231l.556-.139Zm-.092.923-.185.092-.092.185.185.185.138-.231Zm.046-.923-.279.231.187.046Zm.092-20.3-.279-.092v.321l.187.187v-.187Zm.692,1.152v-.185h-.048v-.09l-.415-.094-.185.094-.182.136.092.323.323.462.367-.277.141-.092Zm-.831,19.055.092.092v-.046Zm.231-16.609h-.048l-.044.046Zm.044,19.332h.092l-.044-.046Zm.556-21.778-.048-.138v-.046H862.9l-.046.277.046.185-.046.231.275-.138.048-.138h-.048l.048-.138ZM863.273-659l-.277.046.044.138.092.231h.464Zm.138-18.686-.231.046-.092.233.092.229.415-.229Zm.415-1.475-.187-.092-.185.229-.136-.136-.046.369.138.229.277-.136v.044l.323.185.092.094.044-.094.323.323.141-.182.139-.233.136-.183-.092-.233-.275-.092-.092.092-.464-.321-.044.369Zm-.187,23.576-.136-.046-.141.138.277.092.139-.092Zm.508-.462-.277-.323-.182.554.231.277.136-.092.092.138.094-.277.136-.092Zm.738-25.191.048-.461-.415.046-.185.138-.138-.184-.141.092-.185.185.185.138h.048l-.048.046.187.046.369.277.323-.092Zm-.6.092h-.044l-.279.231.323.138.092-.138Zm1.523,23.853-.231-.046.279-.185-.187-.046-.785-.185H864.7l-.183.277.092.185.231.185-.738-.092-.141.277.141.185.415.046.367-.185-.185-.231.233.139.136-.231.371.646.323-.369Zm-1.8,1.615.044.046.187-.139.044-.138-.231.046Zm.323-25.837-.187.139-.044.092.275-.184Zm1.015,25.791L865.3-656l.092-.323-.277.046.046.185-.136-.046-.464-.139-.092.369-.092.277.048.092-.141.323.369.046.187.046v-.046l.321-.138.187-.138Zm-.923.185h.044v-.046Zm.459-26.3H864.7l-.231.185Zm-.044,23.578v.229l.275-.046Zm.367-24.085h-.183l-.141.046.277.277.094-.046Zm.233,2.446-.463-.138-.044.415.136.231.464-.094Zm-.185,24.868h-.187v.277Zm-.094-1.062.138.046v-.046Zm.462-26.76-.138-.092H865.3l.277.369.139-.231Zm-.046,25.514-.092-.139-.044.231-.048.092.277-.092Zm.323,1.477-.459-.139.044.369.231.231.233-.139Zm-.092-25.883h-.275l.044.323-.044.138.415-.184Zm.323,24.914h-.138v.231l.279.139Zm.415-.461-.231.461.277.139h.138l-.138.138.092.138.462.185.231-.139-.046-.461h-.323l.279-.184.044-.369-.136-.046-.048-.046h-.323l-.277.139-.323-.046Zm.185.6.185-.046h-.044l.136-.092h-.185Zm.6,1.015-.277.092v.138l.141.138.136-.138Zm.277-2.215-.369.046-.138.092.187.231.321.046Zm-.139,1.661h-.092l-.139.185.185.092.046-.046Zm.415.969h-.046l.138-.185v-.185l-.138-.092-.185.277.138.185-.231-.092-.275.231.229.092.323-.092Zm0-28.56-.277-.092-.092.415.139.092.369-.138Zm.508,26.944v-.231l-.554-.185-.323.6.231.277H867.7l-.141.138.185.092.415-.046-.185-.139.138-.092.231-.046Zm-.369-28.19h-.231l-.046.277.139.231.369-.185Zm-.277,28.652.092.092.138-.046-.092-.092Zm1.015-26.76-.415.046-.136.046-.371.323v.138l-.046-.046v.415l.138.092.046-.138v-.046l.462-.415.277-.139Zm-.923.554.046.369.092-.092v-.231Zm.738,24.5v-.092h-.138Zm.923-26.114-.231.138-.185.323.185.092.185-.184Zm0,25.837h-.138l-.046.141.092.136.046.369.185.139.092-.231-.092-.231-.139-.046.046-.136Zm.738,1.246h-.6l-.139.231.185.508.554-.277Zm-.138-28.514-.231-.092-.046.369.138-.046.369.046Zm.785,1.108-.325-.277-.229.369-.046.185.323.231.323-.369Zm-.231,29.437-.231-.092-.139.185.139.138.231-.138Zm.092-1.431H870.7l.275-.138-.09-.185.138-.046-.048-.138-.321-.092-.139.185-.048.185.141.231h-.141l-.136.184.415.046Zm-.092.046.046-.046h-.092Zm.461.877-.231.046-.046.323.185.138.185-.185Zm.367-28.606-.182.046-.325.231.415.092v-.231Zm0-.415h-.229l-.139.046.185.185.138-.046Zm.371-1.523-.279.092-.136.138.231.141.136-.094Zm.277,27.729-.233.138.185-.046Zm.415-.461-.233-.092-.136.231.229-.046h.14Zm-.048,2.123-.185.046-.09.138.09.139.048-.046Zm1.617-.831.044-.369-.323.185-.044.138h-.048l-.044.046v-.046l-.092-.415-.464.092H873.1v-.275l-.279.229-.136-.046-.094.138v.139l-.092.046-.092.139.092.461.092.139.415.323.323-.231.323-.277.14-.092.137.185.092.046Zm-.831-.139v-.231H873.1l-.138-.046h-.14l-.231.231v.185l.279.369.275-.138Zm.044-1.338-.275.139-.325.279.415.044.233-.185Zm-.092,2.446-.183.046-.048.092.048.231.275-.138Zm.6-3.367-.277-.279.141.369h.044Zm-.136,2.4-.048.138.14.185.092-.092Zm.136-3.23-.092.187.048.185Zm.464,3.784-.233.138-.138.139.187.046.229-.139Zm1.338-4.428-.279.046-.184.046.371.323.229-.046Zm.275-2.261-.046.046-.229.184.229-.138Zm.046.369-.138-.092-.183.277.136.092.371-.092Zm.694-23.07-.187-.046-.185.185.231.048.185-.094Zm.552,23.255-.369-.139-.231.461.415.185.277-.277Zm.138-14.489h-.554l.554.279Zm-.231,12.55-.092-.139-.185.185.139.092v.138l.231.092-.046-.138.138-.092Zm0-.646-.185.231.185.139Zm.323,1.431-.046-.185-.185-.046-.046.231-.139.277.139.138h.231Zm.231,2.538-.277-.046H877.3l.139.231.277.046Zm.185-1.754h-.277l-.231.185.231.185.046.185.277-.046v-.277l-.046.092Zm-.185-2.446-.231.046-.046.138.185.323.231-.138Zm.046-11.395-.185.136.323.185.046-.092Zm.277,11.118-.231.323.092-.046Zm.184-20.255-.046.092-.231.138.231.231.092-.277Zm.415,9.412.231.046-.138-.462h-.231l-.277.277.046.046Zm.231.046.231.092.138-.092-.092-.139h-.139Zm.277-2.259.277-.277-.139-.046h-.231Zm.736-5.168-.09.323.09-.046-.044.046.231.231h.229l-.044-.323-.231-.092Zm1.294,2.584-.323-.508-.185-.508-.046.508.046.831-.092.139.046.369-.092.323.185-.046.231-.277h.092l.275-.692Zm-.092-1.015-.187.092-.044.092.136.046Zm.508-1.615-.187.277.323.323.184-.138Z" transform="translate(-855.705 688.108)" fill="#fff"/><path d="M869.067-667.39l-.09-.415.138-.138-.092-.508.185-.094-.092-.69.229-.369-.136-.461.185-.554.138-.277.136-.415-.092-.369.14-.415.275-.461.185-.415.231-.185-.09-.138.275-.462.231-.554.325-.185.044-.231.415-.231.138-.554-.046-.046.461-.508.233-.275.229-.233.184-.137.415-.554.187-.187-.14-.136.692-.369.185-.185.415-.323-.046-.046.554-.415.231-.092.138-.138.508-.277.415-.185.185-.046.415-.369.321-.046.094-.323h.554l.183-.323h.556l.138.046.369-.139.09.046.833-.323.09-.046h.554l.738-.185.323.046.231.092.508-.092.323.046.554.046.231.092.323.092.554.092.185.046.461.277.231.092.323.185.139.092.461.323.185.277.184.092.183.323.048.185.367.508h-.231l.464.508.138.369.046.369.231.462.044.185.092.323-.136.461.044.644.092.462.138.092-.231.738v.277l-.044.231v.415l-.048.462-.092.323-.09.277-.046.185v.369l-.231.415-.185.646-.187-.046-.092.692-.092.277-.231.369-.044.092-.092.321-.415.6-.141.046-.183.461-.14.321-.229.461-.323.233-.139.275-.277.323-.277.277-.092.323-.462.138-.046.323-.508.323-.046-.046-.508.508-.323.231-.231.277.138.231-.831.092-.459.462-.325.138-.367.323-.323.092-.141.185-.508.139-.231.092-.277.139-.459.046-.279.138-.415.184h-.136l-.554.092-.277.185-.464-.046h-.182l-.462-.092-.415.185-.184.046-.323-.138-.738-.046-.369.046-.139.046-.646-.231-.046.046-.554-.185-.229-.231-.415-.185-.092-.046-.279-.092-.415-.277-.369-.369-.138-.277-.136-.092.044-.369-.508-.369.048-.138-.185-.554-.231-.277-.185-.092.044-.782-.136-.233-.046-.508.138-.323-.048-.321-.09-.461Zm.648-2.077-.048.046v.092Zm.875.646h-.136l-.187.275.048.279.323-.279Zm-.092,4.567-.092.185-.138.185.231.046Zm.323-6.413-.231.092-.044.138-.14.554h.185l.277-.323Zm.6,1.384-.275-.138v.138h-.141l-.231.092.323.277.092-.046v-.231l.279.092Zm-.183,5.028-.325-.092-.046.138.279.138h.092Zm-.185-1.385-.14.046v.139l.14.323.136-.138Zm.321-6.136-.046-.785-.275.323-.092.323Zm.6,3.369-.323-.187-.048.279.371.092Zm.044.829-.323.048-.092.185.415-.046Zm0-3.459-.092-.185-.138.415.187-.046h.182Zm.048,5.076-.233-.187.092.094v.136l.141.046Zm.09-2.077-.138.139-.136.046.136.136.185-.136Zm.185-6.184h-.185l-.138.046.231.415.141-.138Zm-.092,4.153-.183-.092-.048.323.231.092.092-.092-.092.231.277.185.323-.185-.139-.323-.277-.046-.044.092Zm.185-.6-.231-.231-.092.231.185.231.094-.046Zm.185,7.751h-.277l.048.046.044.185.048-.092Zm.138-5.536-.275.138-.092.277h.459Zm-.046-4.523-.136-.092-.092.277v.138l.321-.185Zm.279,2.307-.371.139.323.092.185.092Zm.09,8.212h-.231l-.185.138.046.138.415-.092Zm.415-.231-.138-.046-.139.092.231.415.092-.185Zm-.09-7.52-.14.277.277.231-.046-.415Zm10.195-4.753-.092-.646-.231-.323.046-.554-.138-.229-.185-.325-.138-.229-.323-.187-.275-.046-.325-.229-.231-.046h-.367l-.279-.046-.323.046-.229.092-.185.092-.463.136-.044.046-.231.187-.508.138.044.136-.508.187-.229.229-.279.046-.367.461-.185.187-.185.092-.187.275-.321.277-.415.508-.231.369h-.048l-.415.554-.136.138-.323.646-.185.277.092.046-.461.6-.277.231.046.508-.277.369-.092.415-.046.138-.182.692-.048.323-.092.369-.046.277-.138.136-.139.648.092.554v.092l.138.461-.092.6-.092.046.369.6.138.231.231.369.415.185.092.046.415.185.415-.046.554.138.044-.046.508.046.279-.138h.136l.464-.415.369-.044-.046-.048.462-.046.323-.415.092-.092.506-.367.325-.279.136-.09.231-.462.415-.279.141.092.367-.646.048-.183.323-.415-.048-.092.508-.508.231-.415v-.231l.277-.369.369-.554v-.554l.277-.554.231-.323.138-.6v-.323l.046-.231.046-.369.092-.369.046-.415.092-.277-.046-.646ZM873.59-664.023l-.092.046.323.277.277.046Zm.277-10.8h-.185l-.138.185.277.092.139-.046Zm.231,10.427.092.046-.369-.231Zm.6,2.077-.139-.277-.369.415v.231l.692-.138Zm-.369-1.292-.046.046.231.508.231-.231.046-.092Zm.692-12.412-.554-.046-.092.187.323.046.185.092Zm.277,12.6h.277l.508.139-.231-.185Zm.369.554-.231.046-.046.185.185.046.231-.138ZM875.713-678l-.185.185.323.277.231-.138.182.046-.136-.185.136-.369-.229.092-.046.046v-.092Zm.138,2.028-.094.277h.048l.231-.231Zm.277-1.844-.139-.231-.046.092.046.138.139.046ZM877-663.239l.505-.277v-.139l-.552.185Zm.138-16.194.367-.185h-.231Zm.185,15.132h.275l-.044-.138Zm.646-13.471.136.046L878.2-678l.556-.138v-.046l.046-.187h-.094l.279-.321v-.277l-.048-.092-.508-.185v.508l.233.367-.415-.136-.141.277-.136.138v-.092l-.464.046-.136.323.415.139h.229Zm-.279-.831-.229.139.044.138Zm.279.785v-.277l-.046.046Zm.185,15.225.323-.138-.279-.046Zm.459-.508-.229.046-.092.185.277-.092Zm.141-15.225-.325-.048-.044.094-.046.185.415-.092Zm.6,14.994-.323-.139-.044.369.092.139.275-.185Zm.14-1.015-.279-.046v.185l.279.092Zm-.048-.508-.185-.229.048.552.229-.046.141.415.231-.277-.048-.139-.275-.185v.046Zm.233-13.563-.141-.046-.044.09v.233l.367-.138Zm.921-1.384-.554-.092-.277.092Zm-.554,16.932-.185-.092v.138l.048.139.136-.092Zm.831-3.922-.185-.183-.275.413.229.141.279-.187Zm.048,1.709-.141-.048.092.138.231.092Zm.044.459-.136.046.092.139Zm.092-1.708-.184.092.092.139Zm.231,2.03h-.044l-.187.231h.231v.185l-.092.231.092.139.323-.231v-.092h-.275l.092-.139v-.138l-.092-.046Zm.277-1.659.046-.417-.415-.044-.092.415v.275l.046.092v.185l.094-.044.092.09.183.462.461-.231-.229-.462-.048-.138h-.138l.138-.046Zm-.046.136-.415-.046.092.092-.046.138.094.141.229-.141Zm.325-13.287-.141.092-.367.092-.048.139.556-.046Zm-.141,11.441-.184.046v.14l.092.092.092-.138Zm.185,3.507-.136-.046.044.231.138-.046Zm.185-.738.138-.139h-.138Zm.279-14.164-.14.231.092.046.231-.231Zm.875,12.089-.046-.141-.6.141-.229.508.229.136-.092.138.092.187.092-.141-.046-.092v-.092l.231.092.277-.369Zm-.646.644h.046v-.046Zm.508-2.905-.461-.139.046.231.185.046.046-.046ZM883-666.929l-.138-.046-.231.321.277.046.138-.046Zm.646-12.089-.277-.092-.231.231.231.139.277-.139Zm1.154,8.443-.369.185v.092l.046.323-.092-.046-.092.231H884.2l-.046.046.046.092-.139.046-.046-.138-.139-.231-.138.139-.092-.185H883.6l-.231.323.138-.046h.187l-.048.046-.184.046.138.092-.231.415.415.277.508-.185-.046.092.323.138.415-.046-.185-.461h-.139l.185-.046-.185-.554.277-.092Zm-.923-6.736-.369-.094.046.094.046.275.094.046.09-.183Zm.277,6.828-.185-.369-.092-.046-.231.461-.092.277.185.231.461-.277Zm-.092.877h-.046l-.321-.092-.094.139.185.092.046-.046.092.046h.185Zm-.323-.231-.044.092.09-.046Zm.6-3.738-.138-.231-.046.231.046.138-.139-.046-.231.046v.139l.092.092-.139.092.046.092.277-.092-.092-.231.185-.092.046.139.231-.231Zm-.369,6.23-.185.09h.092Zm.138-10.2-.185.09.046.14.185-.094Zm.462,9.6-.462-.187-.092.371-.092.044.277.371.323-.233Zm-.554-7.476v.277l.046-.046Zm.554,5.584-.277.046v.092h-.046l-.046.046.092.277.277-.185Zm1.567-2.907-.552-.277v.231l-.692-.231v.508l.046.277.046.046-.231.046-.141.369-.321.046.046.138.092.185.369-.092-.046-.092.277.231.277-.231.229-.185.187-.092.046-.277-.046-.185.413-.138Zm-1.613,5.49h-.185v.092l.138.092h.092Zm-.046-2.721.046.046h.138v-.046Zm.508-3.6-.371-.092-.09.323.277.092.231-.092Zm-.371-1.015v.277l.094-.046Zm.786,3.323h-.231l-.231.139.231.138.323-.046Zm-.092,2.215-.187-.184-.183.831Zm.185.692-.231.046.046.229.092.094.136-.046.092-.048Zm.044-8.489-.136-.046-.092.185.185-.046Zm.371,4.013-.323-.092.044.138h-.044v.092l.044.231.187-.092Zm-.231,1.431-.048-.046-.044.185Zm.046-.969h-.046v-.046Zm-.046.046h.046v-.046Zm.367,3.092h-.275l-.046.092-.046.139.046.277.229-.139-.044-.092.136-.092Zm.508-5.769-.415-.046.094.277.185.092Zm0-1.569-.229.279-.138-.046.459.508.187-.187h-.046l-.092-.6Zm.14,6-.277-.046-.046.323.183.092.187-.323Zm.554-3.692-.279-.046.092.231.141.046Z" transform="translate(-842.348 694.935)" fill="#fff"/><path d="M879.854-657.5l-.136-.508.136-.185-.136-.321.185-.415v-.141l.136-.508.092-.275.094-.371.184-.183.231-.462.275-.831.461-.923.231-.139.139-.461.231-.462.138-.231.185-.461.185-.323-.046-.138.277-.185.231-.646.092-.046.185-.415-.046-.231.413-.415.187-.6.229-.415.187-.231v-.231l.369-.369.138-.415-.231.185.6-.875.092-.279.138-.137.229-.369.187-.462.092-.323.185-.139.092-.323.182-.323.092-.138.323-.6.185-.323.092-.323.094-.231.277-.646.185-.231.046-.231.136-.231.233-.369.231-.6.229-.185.187-.369v-.462l.508-.6.136-.279.048-.183.182-.462.462-.371.138-.462v-.275l.185-.369.231-.323.14-.371.09-.413.138-.277.046-.231.14-.369.09-.046.185-.692.046-.231-.046-.185.092-.415v-.323l.092.092-.277-.508.139-.6v-.277l-.321-.969-.094-.231-.092-.461v-.323l.139-.321.323.092.554-.187.692-.185.369-.09.459.183.371.187.277.092.092.136h.461l.415.461.229.092.233.187v.044l.323.417.367.736v.369l.185.461-.044.369.092.323v.415l-.141.231-.044.415-.092.277v-.092l-.185.738.092.046-.231.646-.233.413-.044.417-.231.369-.185.323-.187.092-.136.275-.185.694-.139.321-.141.231-.321.138-.094.692-.321.415v.323l-.277.323-.092.277-.323.415-.231.138-.092.508v.046l-.277.415-.138.323-.231.277-.138.369-.092.554-.323.323-.185.231-.185.323-.139.461-.046.461-.462.415-.185.046-.092.506-.185.415v.231l-.508.323.046.6-.229.231-.279.461-.185.231v.231l-.231.415-.136.277-.233.139-.092.415-.09.185-.277.323-.187.554-.136.185-.233.6-.138.138-.137.323-.277.554-.187.138-.183.461-.185.046-.048.506.323.556-.923.646v.046l-.275.552v.371l-.277.369-.139.046.046.367-.138.185.277.554.138.138.092.046.275.092.464.138.369.046.369-.092.644-.046.463-.092.367-.092.325.277.09.369-.09.138-.092.323-.185.231-.094.231-.229.323-.231.139-.277.231-.323.092-.092.323-.463.323-.367.231-.463.092-.413.184-.369.139-.277-.139-.692.323-.369.046h-.185l-.231-.046h-.738l-.415-.185v-.046l-.415-.185-.415-.139-.046-.184-.415-.046-.321-.508-.141-.231-.183-.231.136-.554-.321-.6v-.231Zm5.261-5.951.138.323.231-.323.044-.277-.229.046Zm.785-2.4-.464-.046-.092.092v.046l-.136.092.046.185h.046l.092-.231.277.277.138-.231Zm-.556.092.048.046.044-.092Zm.415-3.967.371.275.136-.275v-.141l-.367-.092-.141.187-.183.092v.183Zm0-.046v.046l.048-.046Zm.692,3.505-.092-.092-.229.277.185.046h.277Zm.464-1.523-.508-.092-.141.231.233.461.138-.231.229.046Zm1.059-2.259-.136.044-.092.046.136.092.138.048Zm-.044-2.584-.092-.185-.048.231Zm.415,1.938-.233-.046-.138.321.138.187.277-.187Zm-.233-3.738.092-.138-.092-.046-.092.138Zm1.063,1.477-.141-.092v-.046l-.367-.184-.092.415h-.048l-.046.231.046.046h.092l-.044.092.277.231.136-.046h.094l.136-.231.139-.138Zm.459-.6-.139-.6h-.369l-.415-.092-.044.415-.092.138.367.415v-.046l.6-.184Zm-.6.508-.183.046-.233.138.048.185-.048.092h.14l-.048-.138.14.046.183-.046Zm-.323,1.661v.277l.14.046.09-.279Zm.508.369-.136-.092-.14.229.233.14.136-.14Zm.277-5.4-.413-.185.185.323.182.046Zm.739.415-.369-.046-.275.185.183.323v.139l.185.092.092-.138.464-.046Zm-.462.461.046.092h.231l.092-.185-.369-.092Zm1.108.185-.185.046-.277.139v-.092l-.277.046h-.092l.231.277.139.231-.321.046-.092.092.275.369-.09-.046-.325.185.092.323.323.277.325-.185v-.277l-.14-.185-.139-.046.231-.277-.044-.369h.413Zm-.461.185-.185.046.046.185.185-.092Zm.046-1.708-.139.138.139.138Zm.692.692h-.231l-.321.462.136.046h.554Zm.323-1.982-.138-.233-.554.046v.279l.046.183-.184-.183v.321l.231-.046.092.187.6-.141Zm-.554-1.338-.231-.092v.185l.046.044.138.046-.092.046.138.094.185-.231h-.138Zm-.092,1.613.046.046v.046l.14-.046Zm.831,1.523-.415.231.185.323.277-.185Zm.277-3.136-.369-.139v.321l-.277.233.461.046-.323.462.323.182.231-.046-.046-.369h-.092l.415-.275Zm-.231-2.077-.231-.138-.092.369.092.046.185-.046Zm.323.831.046-.231-.046.046-.415.69-.046.187.138-.092.369-.185Zm-.185-.554-.046.046.046.277.138-.185Zm.185,1.661-.231-.048.046.094.138.092h.138Zm.508,1.659.139-.369-.369-.046.185-.09-.138-.046-.092-.138-.092.229v.046l-.185-.046-.185.508.277.185h.231l.415-.092Zm-.277-.369.046-.046h-.138Zm1.015-4.29h-.046v-.184l-.139.092-.092.092-.139-.138-.092.231-.138-.092-.139.369h-.231l.092.185-.139.369.231.415.369-.323.138.046.277-.277.046-.185.09-.092Zm-.369-2.077L893-685l-.462.231.046.415-.046.231.323-.092Zm-.369,8.4.046.138.138.046.046-.184Zm.415-7.474-.185-.046-.092.138.046.231.277-.046Zm0,2.03-.277-.138v.277h.092l.185-.046Zm-.138-.784h-.046v.092l.092.185.323-.139-.046-.092h.046l.046-.139Zm.967-3.138h-.367l.092-.323-.277.138-.185.185.138.092-.046.185-.138.138.231.461.323-.231.321-.277Zm-.367,0h-.184l-.046.092.231-.046Zm.738,2.907-.323-.046-.185.554h.185l.323.092-.046-.138.046.046.046.185.139.231L893.88-682l-.136.277-.185.277v-.046l-.092.461.092.046-.046.321v.279l.185-.046-.092.092.139.09h.415l-.279-.229.325-.092-.231-.369-.046-.138.185-.046-.092-.092.275-.092.187-.6h.321l-.092-.277.185-.138.094-.092-.094-.6-.459.185h-.185l-.138.415Zm-.461,2.354.183-.046v-.046l-.136.046Zm.323-1.431h-.092l-.141.277.417-.092Zm.69-2.215-.367-.092v-.138h-.277l-.187.415.14.231.231-.185v.046l.231.231.413-.185Zm-.275-1.062-.277.092-.046.046.182.277h.187Zm.092-.508-.092-.046-.141.369.187.139.185-.185Zm0-.738-.185.231.231.139.136-.092v-.092h.092Zm.323,1.8-.323-.184-.092.277.275.138.141-.092Zm.6,1.661h-.325l-.09.139.183.231.092-.139Z" transform="translate(-831.537 688.363)" fill="#fff"/><path d="M886.457-657.658l-.094-.323.14-.323.092-.185-.139-.552.277-.279-.138-.046.183-.508.233-.369.138-.323.185-.367h.139l-.046-.415.415-.646.138-.323v-.092l.369-.508.275-.461.141-.415.09-.231L889-664.3l.092-.415.136-.138.187-.646.367-.231.092-.369.185-.277.185-.369.369-.646.185-.185.092-.461h.092l.185-.508.187-.275.136-.371.092-.183.279-.369.183-.554-.046-.046.461-.461.138-.554.185-.092.139-.554.231-.139v-.415l.231-.138.231-.692-.046-.092.277-.277-.046-.415.413-.461.233-.277.046-.231.136-.369.141-.231.367-.323.092-.508.048-.554.459-.552.231-.325.233-.277v-.554l.554-.736.092-.046.044-.508.048-.323.508-.508.092-.231v-.138l.044-.277v-.184l.371-.646v-.277l.092-.184v-.692l.092-.323.231-.462-.279-.738v-.092l-.136-.415-.048-.323-.092-.369-.231-.323v-.138l-.229-.321.415-.6.321.046.6.048.415-.141.554-.046.323.187.277-.094.646.277.092.138.508.233.323.137.138.185.187.277.229.138.092.231.046.369.277.231.092.231.046.184.046.462.231.369-.185.508.046.277-.138.277v.277l-.046.231-.092.415-.092.277-.231.138v.508l-.138.552-.231.325-.046.231-.185.459.092.141-.461.69-.231.371-.138.136v.554l-.369.231-.092.138-.277.462-.138.462-.138.277-.092.323-.369.462-.231.415-.277.554v.231l-.323.323-.185.415-.046.138-.185.369-.185.277-.138.277-.277.6-.231.369.092-.092-.413.785-.279.231-.092.415-.044.183-.323.508-.138.233v.09l-.233.508-.367.231-.048.461-.092.094-.321.367-.046.554-.185.231-.554,1.108-.138.231-.138.369-.138.139-.185.461-.323.554h-.046l-.185.554-.092.231-.277.461-.277.323-.138.185-.138.6-.138.413-.369.461-.138.369-.185.415-.046.231v.141l-.185.508.048.229.136.323.092.138.323.139.371.185h.321l.415.184.461-.277h.369l.231.046.277-.323.6.138.09.277.092.185-.092.323-.229.231-.138.231-.231.462-.325.138-.09.277-.277.277-.415.138-.185.277v.138l-.738.231-.185.277-.369-.138-.462.231h-.231l-.369.415-.923-.185h.092l-.738-.046L889-654.52l-.371-.092-.092-.139h-.459l-.092-.138-.508-.323h-.231l-.323-.554-.092-.138-.048-.185-.229-.646.046-.369-.139-.462Zm3.413-5.628-.231-.046-.185.185.048.046h.367Zm.971.738-.323-.415-.694-.092-.185.738-.092.275.048.556.459.046.323-.046.231-.094.185-.321.462-.277Zm.875-3.323-.275-.092-.325-.046-.138.369-.185-.277-.138-.138.092.369.094.185.137-.046-.044.231.321.369.094-.184.413-.185Zm-.738.231v.092l.048-.046Zm.554.554-.139.138.139.185.046-.046Zm.277,1.015-.323.092-.092.138.092.138.277-.046Zm.969-1.938h-.231l.046-.046-.415-.046.092.139-.092.138.187.139.183-.092Zm-.231,0-.231-.046-.046.092.094.185h.044Zm2.031-3.553-.323-.229-.277-.046.046-.187-.415-.229-.415-.046-.092.229-.139.508-.138.279.277.046.092.136h.738l.231.233.369-.094Zm-.738,1.938h-.369l.184-.275-.369-.048-.046.231h.185v.138l.046-.046.138.138Zm.092-.783-.231.183-.185.138.415.139.275-.139Zm-.277,1.105.046.139-.139.138.185.046h.092l.046.046.046-.092h.092v-.092l.092-.138-.092-.046h-.046l-.092-.046Zm.323-2.307-.277.233.231.275.138-.092Zm-.277,2.446.138.185.092-.046.092-.092v-.185h-.046l-.185.046Zm.277-2.582v-.092l-.046-.046Zm0,.136v-.136l.046.09Zm.831-4.336-.231-.046-.138.277.231.185.277-.092Zm.508,1.938-.508-.046-.046.415.367.229.279-.183Zm.829-1.615-.044-.231-.323-.092.092-.138-.277-.138-.048.231.185.138v.138l-.092.139-.459-.139-.048.323.325.462.369-.369-.094-.231.323.138.187-.138Zm-.321-1.154-.231-.138-.092.185Zm-.187,1.2.092.046v-.046Zm.092,3.136-.092.187v.138Zm.323-3.321-.182-.092-.141.138.141.046.275.046Zm.694.738-.279-.046-.275.092-.048.323-.185.231.325.092.182.046.464-.092Zm-.787,1.754.141.139.231-.046.046-.508-.139-.138Zm.787-4.292-.415-.277.092.323h.277Zm.092-1.2-.187-.185-.229.461.092.277.277-.184Zm.136,4.569-.183-.139v.323l.139.185.092-.185Zm.648-6.92h-.185l.044.183.279-.09Zm.367,2.121-.185-.138-.323.138.323.277.277-.046Zm-.044.738-.185-.092-.231.185.185.184.183-.184Zm-.279,1.523-.136-.046.044.231.187.046Zm.323-3.23-.323.046.048.323.183-.046Zm-.092,4.384-.231.046.138.092Zm.092.046h-.044l-.048.277.092-.231Zm.141-7.889-.092.277.092.046Zm.231,1.8-.279.182-.044.138.136.141h.046v.183l.048.279.321-.187v-.229l-.277-.092h.048Zm.136,1.384-.229-.141-.138.233.138.183.136-.138Zm.092,2.075-.277-.092-.092.231.141.185.321-.092Zm-.229,1.384-.141.231.048.092Zm.508-11.348h-.508l-.048.229.092.138.185.092.187-.046Zm0,7.241-.187-.046-.277.325.6.09Zm-.14,2.077-.092-.138-.046.185.092.092.094.046Zm.6-.738-.231-.183-.369.367.325.277h.136l.187-.323Zm-.323-7.52-.229-.138v.138l.044.138.277-.092Zm0-2.028.092-.094-.229-.092Zm.185.6v-.185h-.229l-.048.369Zm-.046,4.384-.138-.138-.092.231Zm.277,2.63h-.277l-.046.182.231.233Zm-.136-4.753-.094.046-.046.092v.046l.185-.046Zm.415-1.661h-.187l-.136.138.183.046.14-.046Zm.275,4.938h-.462l-.136.369.136.275.371-.044.136.277.508-.277.139.138.231-.048.138-.321-.369-.277-.046.09-.046-.275-.508.092-.183.183Zm.233-.692h-.187l.046-.138-.275-.046-.092.185h-.094l-.185.185.231.323.415-.046Zm-.694-4.615v.231l.092.046.138-.046Zm.415,2.4h-.185l-.092.138.185.185h.138Zm.092,2.215-.136-.046-.185.046-.048.046.048.185.321-.138Zm.415-4.522-.415.092-.321.369.044.231.369.277.508-.508Zm-.369,8.4-.323-.092-.044.231.136.231.231-.046Zm.692-6.782-.044-.092.275-.184v-.6l-.138.138.092.185-.323.046v-.277h-.231l-.138.277.231.138h.092l.046.139v.046h-.231l-.277.231.277.323.325-.092-.187.323.231.092.092-.092v-.185l-.136-.139.044-.046Zm-.508,2.123-.138-.046.046.139Zm.831.046-.461-.092-.185.139.371.323.09-.139Zm-.461-1.385-.092.092-.046.092.092.277.046-.277Zm.094-.877v-.138l-.094.046Zm.229,4.984.138.046v-.508l-.367.092v.183l.183.14-.231.046-.046.185.277.09.231-.046Zm.323-5.215-.185-.092-.046.277-.185.323.277.092.046-.092v-.185l.277-.046Zm-.369-.646.325.138h.136l-.185-.461-.138-.139Zm0,5.815.046.046v-.046Zm.092-5.4h-.046l.046.046Zm.369,2.169-.323-.046.187.277Zm-.046,2.446h-.139l.048.323.136-.141Zm.415-5.4-.323.046-.092.231.046.092.231-.046Zm.046,2.077L901.59-684l-.092.462.184.092.139-.185Zm.554,1.108-.092.092.092.092.046-.185Zm.138-.969-.138-.092v.231l.138.046h.046Z" transform="translate(-824.85 688.431)" fill="#fff"/><path d="M900.645-660.378l-.646-.185-.229-.138-.233.184-.782-.231-.187-.092-.369.046-.323-.231-.229-.139h-.554l-.369-.323-.187-.092-.185-.139-.459-.231-.231-.185-.231-.323-.325-.323-.044-.185-.277-.323-.138-.138-.231-.415-.046-.185-.231-.462L894-664.9l-.092-.231-.046-.321-.046-.094-.139-.782-.046-.371-.046-.277.092-.275-.231-.461.092-.508.092-.415h-.046l.046-.738.185-.323v-.277l.046-.323.185-.554-.046-.185.231-.6.139-.323.138-.138-.092-.369.415-.508.092-.277.231-.462-.048-.092.325-.323.138-.508.367-.415.14-.229.092-.233.367-.136.14-.508.367-.415.231-.185.277-.231.138-.277.325-.323h.231l.367-.462.141-.185.415-.323.044.092.415-.554.415-.231.369-.231h.279l.321-.231.277-.323.325-.092.321.092.323-.369v-.231l.692-.185.415-.046-.046-.046.6-.138.044-.092.325-.046.646-.138.185-.046h.415l.275-.046.508.092h.415l.323.046.463-.092.413.046.187.185.552.046h.184l.508.323.323.046.231.231.185.046.371.231.275.138.277.415.277.092.138.415h.185l.185.6.185.231.046.461.185.323-.046.323.138.367-.046.094.138.275.185.508-.185.646.092.048-.277.829-.046.415-.092.323-.184.323-.046.369-.277.415.139.138-.462.369-.138.138-.092.277-.369.185-.462.323-.185.231-.277.185-.183.138-.648.231-.231.138-.136.092-1.11.185-.321-.046.044.092-1.2-.046h-.877l-.369-.092-.462-.046-.279-.138-.459-.277h-.323v-.277l-.461-.369-.323-.323h.046l-.323-.369-.046-.369-.092-.138v-.323l-.092-.369.046-.046.092-.461.277-.139.277.139.462.046.231.277.554.138.136.139.464-.046.044.185.556-.138.275-.092.233-.092.69-.185.648-.323.323-.231.229-.231.323-.231.185-.46.231-.048v-.462l.141-.508-.048-.459-.044-.277-.185-.415-.094-.185-.277-.462-.137-.187-.508-.09-.187-.323-.415.185-.367-.092-.233-.046h-.229l-.323.138-.231-.092-.415.321-.233.048-.459.231h-.277l-.231.277-.369.321-.092-.09-.323.415-.323.275-.185.323-.184.279-.508.183-.229.371-.14.229-.323.554-.323.231-.046.323-.415.369-.138.369.092.277-.415.462L899.4-672l-.277.415-.046.185-.092.185-.185.415-.185.508-.046.138-.229.554v.877l-.048.185-.231.277.231.6v.69l.185.461.187-.092-.048.694.325.367-.141-.138.464.508v.277l.644.138.092.046.461.277h.323l.369-.046.554.046h.277l.185.092.554-.139.138-.046.323-.046.231.092.646-.461.185-.138.092.094.6-.6.323-.185.459-.323.325-.185-.092-.09.783-.554h.6l.279.092.185.508.136.275-.092.6v.046l.092.136-.229.6-.092.277v.184l-.323.415-.092.231-.092.185-.231.323-.556.554-.092-.185-.508.6-.137.138-.369.138-.185.369h-.461l-.323-.046-.508.554-.554.046-.277.046-.231.046-.738.092-.185.092-.277-.231-.875.231Zm-6.274-8.628-.139.046-.092.231.092-.046Zm0-.508-.139.046-.046.277h.092Zm.323,4.567-.138.046-.185-.09.229.321.094-.092Zm.554-7.612-.14.092-.092.185.092.046.094-.046Zm.462,1.708-.508-.138-.187.323.048.415.231.046.462-.277Zm-.462,7.243H895.2v.046Zm.923-5.12-.233-.185-.275-.092-.415.277v.275l.138.187.136.369.279-.046.229-.231.233-.092.138-.139Zm-.6,4.8h-.138l-.139.277.139.046.09-.046Zm0-.369-.185-.185-.046-.138.046.185.185.185Zm.508.185-.323-.138h-.141l.187.323.229.323.048-.046.092.231.415.046.138.092.184-.092.231.231.321-.092-.229-.554-.138.138-.185-.415h-.323v.138l-.415-.185-.048.277Zm.323-7.566-.231-.185-.185.461.323.046h.323Zm-.138,1.846-.233.092.048.046Zm.783-.323-.367-.092-.277.138-.092.139.184.508.185.185.323-.138.275-.185Zm.279,4.246-.554-.279-.092.415-.277-.09-.048.367.279.277.046-.183.183.183.371.323.229-.138h.323l-.182-.367-.092-.233v.046Zm-.464-8.214-.183-.092-.046.323-.231.231.136.185h.371Zm.415,2.077-.459-.231-.185.415.229.277.415-.277Zm-.09,2.907-.14.184.187.139v-.323Zm.462,3h-.323l-.048.139.141.048v.046Zm.044-1.105-.231.183.231.187.185-.141-.137-.321Zm.233,2.813-.277-.046v.277l.136.046.233.046Zm.738-9.689h-.231l-.233-.231-.183.323v.092l-.048.139.231.185.369.046.046-.185.141-.185Zm-.646,9.828.139.369.185.323.136-.369.048-.323Zm.275-12.043-.183-.138v.279l.09.136.277-.044Zm.048,5.122v.092l.136-.277-.092.046Zm.185,9.689.044.046v.138l.046.046.141-.277Zm1.428-1.8-.231-.184.092-.231-.644.046v-.046l-.094.046-.136-.092-.325.231.325.323.323.092.185-.231.231-.046-.094.138v.046l-.046.046-.09-.046.183.185.048-.046v-.138l.092.046.415.277.275-.185v-.323Zm-.782-.369h-.094l-.136.092-.141.231.277.092.187-.046Zm-.141.646H898.8l.048.138.136.092Zm0-13.381-.183-.046.044.233h.138Zm.508,15-.323-.185-.139.277.139.046.369-.092Zm0,.139-.231.046v.046h.141Zm.325-13.2-.141-.092-.185.185.092.046.233.048Zm-.185,10.335-.094.277.279-.092Zm-.094.923h.094v-.092Zm.138-.231v-.046l-.044.092Zm.738-14.994-.183-.231.09.413.277-.09Zm.185,14.533h-.138l-.185.138.371.185Zm-.092,2.307h-.138l-.046.092h.277Zm1.2-.692-.461-.139-.183-.6-.325-.046-.231.462.369.415.369-.092v.092l.277.277.185-.092Zm-.6.923-.415-.231v.185l.092.231.279-.138v.138l.229.046.092.046v-.369l-.277.046Zm.185-.692-.277.092.14.231.275-.046Zm-.046-.369v.139l.046-.046Zm1.248-15.365-.187.233.231-.415.369-.231v-.092l-.323-.138-.138-.185-.046.046.046-.139h-.277l.046.231v.046l-.185.092-.231.231-.229.369.275.413.461-.229.231.046.231-.279Zm-.417,14.673H901.8l-.092.046.277.277.046-.092Zm.323-15.456-.185.138.046.182.139-.182Zm.323-.462-.092-.092-.092.231.138.046.138-.046Zm1.246,7.566-.277.092-.046.139.231.138.185-.092.184.092.046-.138h-.231Zm1.431,7.935h-.277l-.092-.277-.138-.231-.185-.046-.6.461.277.139.044.138.279-.046.323-.092-.046.138-.048.369.508-.185Zm-1.154-.969.323.138.138-.323Zm.369-6.413-.092.046-.138.185.185.138h.231Zm.321,6.92.187.231.321-.185-.044-.415h-.092Zm.879,1.108h-.277l-.046.138v.092l.367-.138Zm.459-1.661-.136.046.229.231Zm.323-7.243-.183-.323-.184.646h.044l-.092.277.092.277.233-.323.09-.185.185.046Zm-.275.323.275.046.048-.046Zm.508-.692h-.185v.138l.185.139.092-.092Zm-.185,5.261h.044l.092-.048Zm.508-6.276-.092.046h-.138l-.092.231.231-.139Zm-.141,1.846-.138.231h.048Zm.233,5.674-.233-.275-.044.459.092.094.185-.187Zm.044.646-.044-.185-.092.092Zm.831-7.843-.044-.185v.046l-.463.323-.275.231.367.277.231-.139h.141Zm.646.923-.415-.323-.367.092-.187.138-.092.508-.136.323.229-.092h.092l-.462.184.556-.184h.092v.092l.459-.138.323-.277.092-.139Zm-.877.646h.094l.136-.046.092-.046Zm.371.277-.233-.046-.044.231.136.277.323-.231Zm1.105-1.754-.231-.138.231-.231.048-.092.229.138.323-.185.185.138.231-.323.092-.231-.044-.277-.141-.231h-.323l-.185-.09-.139.506-.044-.046v-.646h-.279l-.277.092-.092.138-.139.185v.092l.415.231h-.462l-.183.231-.184.323.229.185.279.185H909l-.139.231.371.046.275-.046Zm-.231-1.385-.185-.092-.044.185.413.092Zm0,1.246-.092-.046-.092.138Zm.464-2.259-.325-.092.046.275-.229.187.459.136.139-.185Zm-.185,1.8.136-.185h-.415l.048.185.044.139.092-.092.094.092.044-.046Zm-.094-.231-.046-.138-.046-.046.092-.139Zm.694-4.428-.325.092-.139.046.371.277.044.092Zm.829,4.567-.231-.092.046.092.139.184.14-.092Z" transform="translate(-817.719 694.842)" fill="#fff"/><path d="M923.267-675.558l-.185.417.046.183.046.6-.277.277-.415.323-.092.554-.323.184v.185l-.508.277-.277-.092-.415.277-.231.046-.415.138h-.367l-.462.092-.371-.323-.323-.138-.275-.092-.277-.323-.185-.139-.187-.369-.044-.277-.092-.369-.092-.554v-.277l.046-.229.046-.371.415-.461.185-.136.136-.233.279-.275.277-.369.182-.325-.6-.6-.6-.092-.185.046-.464-.138-.275-.046-.323.231-.462-.046-.554.185-.323.092-.554.231.046.183-.692.094-.092.185-.092.136-.554.325-.277.183-.369.141-.231.367-.092.187-.6.508h.044l-.461.6-.183.138-.141.369-.183.323-.092.369-.371.369-.136.323-.279.277-.185.508v.231l-.229.415-.187.138v.323l-.184.554v.138l-.231.6.14.323-.14.323-.092.508-.136.277.229.369-.044.461-.092.275.136.369.14.279-.046.229.461.6h.09l.417.323.183.323.323.185.14.046h.415l.508.139.321.138h.138l.323.092.415-.139.277-.046.415-.092.139-.092.508-.138.185-.046.415-.046.369-.369.415-.323.367-.138.233-.136.508-.74.323-.321.231-.141.46-.415.233.048.415.231-.092.182.185.785.046.461-.046.185.139.277-.279.508-.044.231.044.092-.229.415-.138.138-.141.369-.275.323-.092.092-.415.554-.462.185-.231.369-.323.185-.185.092-.461.138-.415.323-.646.323-.369.138-.413.046-.371.139-.415-.046h-.738l-.461.184-.323-.092h-.46l-.323-.046-.6.046-.371-.138-.184-.184h-.183l-.692-.139-.371-.092-.183-.277-.415-.092-.185-.046-.369-.185-.323-.323-.092-.231-.369-.139.046-.092-.462-.554-.231-.138-.185-.323-.09-.231-.233-.277-.092-.415-.183-.415-.048-.231-.185-.231-.046-.369.092-.277v-.413l-.185-.556-.138-.321.231-.415-.136-.508-.14-.279.231-.413h.138l-.138-.461.231-.462-.092-.323.138-.369.141-.415.229-.508.046-.369v-.185l.185-.277.277-.369-.092-.415.369-.508.092-.185-.092-.277.554-.462.092-.369.183-.138.233-.323.369-.321.231-.462.231-.138.231-.415.092-.139.508-.277.139-.369.138-.231.369-.231.136-.231.464-.369.692-.461h.044l.371-.277.323-.369.275-.138.554-.231.094-.046.321-.277.369.092.508-.369h.233l.183-.185h.277l.185-.277.969-.139h.277l.369-.138h.182l.464-.046h.231l.415-.092.554.046.183-.046.464-.046.415.277.185-.046.508.185.139.092.321.138.508.231.138.046.369.185.231.138.277.277.187.231.229.323.415.277-.046.046.369.462.138.323.185.323.092.462.277.229-.092.556v.046l.185.828-.092.323Zm-18.317,8.307-.229.046v.323l.275-.233Zm-.046-.646-.138.185h.185l.231-.046Zm.6.413-.367-.092-.141.233.185.229h.185Zm-.046,2.261h-.231v.092l-.046.369.046.046v-.229l.277-.094Zm.185-5.582-.231-.277-.138.369.138.092h.139Zm.877,1.8-.231.046-.139.139.046.046h-.138l-.185-.554-.369.046v.277l.092.139.369.138h-.185l-.277.369.046.046.461.231.092-.138.508-.046-.139-.508.046-.046Zm-.6.508-.092-.138-.277.323.092.046.139.046h.231Zm-.277,2.767h-.092l.092.231Zm.323-.277-.231-.092-.092.187.185.275.138-.092Zm.369-3.782-.323-.092-.231.415.231.092v.092l.185.138.231-.138-.046-.092h.046Zm-.277,1.015-.092.046h.092Zm-.046-.6h.369l-.046-.092-.323-.046Zm.552,5.72-.229.046-.323.092.277.231.323.092Zm.048-6.782-.369-.231-.138.323v.185l.415-.185Zm-.185,5.213-.323.046.138.277Zm0-3.505.046-.046-.092-.046-.185.046Zm.877,3.967-.231-.046-.094-.369-.229-.046-.277.185v.231H906.2v.231l.277.185h.185l-.046-.046.323-.046h.138l.231-.046Zm-.6.877h-.046l-.277.092.277.139.185-.092Zm.092-3.6-.233.046-.136.279h.092l.231-.139Zm0-6.274-.184-.231-.139.277.231.046.275.046Zm.046,1.2-.185-.092-.185.185.277.139.139-.046Zm-.369,7.751v.046l.046.323h.092l-.092-.369Zm.415-4.844h-.325v.138l.187.185.139-.046Zm.6,6.228.094.046.092-.046.046-.277-.139-.092-.277.231-.138-.046v-.092l-.139.046h-.048l-.275.323.275.185.187.092.321-.138Zm.508-7.382-.092-.323-.182-.046.182-.231-.321-.508H907.3l.183-.092.415.092-.275-.508-.369-.138h-.231l-.138.323.323.323-.323.323-.139.323.462.323h.046l-.046.138-.138.231.413.277.279.092.323-.323Zm-.136,1.8-.231.046-.185.185h-.092v.046l-.138-.046-.092-.231-.185-.185-.185.461v.462l.462-.231-.046.09.277.279.277-.325.046-.321h-.046l.138-.139Zm-.784,3.275-.277-.09v.183l.092.184.185-.092Zm.184-7.8h.092l-.231-.369-.141.139v.231h.048l-.184.323.136.092.325-.231Zm-.092,3.138-.187-.092-.136.138v.231l.415-.185Zm0,6.782-.139-.046-.048.138h.094l.138.046Zm-.139-9.92h.231v-.046l-.184-.046Zm.369-1.154-.277-.138v.277l.231.185.185-.046Zm-.185,5.907h-.046v.231l.277.277.044-.187.14-.275h-.277l-.092.092Zm.185,1.384h-.231l.092.185.092.09.136-.09Zm.646,2.167-.277-.092-.231-.139-.231.185-.046.277.046.092-.046.046.229.185-.321.277.092.046.229-.323.14.092.323-.092.138-.275Zm-.785-6.643.046-.046h-.092Zm.462.277-.323.138v.138l.09.092-.09-.046-.139.323h.277l.185-.231-.185-.046.092-.046Zm-.415,8.028.183.139.048-.092Zm.183-2.584-.09.415.138.231.459-.185-.044-.277-.092-.185Zm.233-2.582v-.046h-.277Zm.046-.461h-.046l.046.046Zm.092-.185-.046.046-.046.138.185-.046Zm.277.508h-.185l-.185.231.185.229.185-.09Zm.092,6.551h-.415l.09.185h.233Zm.046-11.535H907.9l-.044.277.044.277.556-.231Zm-.231,1.292-.141.046v.185l.141.046Zm.231,9.089h-.279l-.092.277.233.046.138-.046Zm.923,1.477.508.046-.048-.323-.367.046.229-.323.094-.415.044-.508-.367-.046.044-.138-.275.046v.046l-.092-.046-.323.092-.092.369-.092.277-.048-.092-.092.231-.323-.046-.044.277h.277l.138.185.277-.046.046.138.229-.046v.231Zm-.879-13.335h-.323l.048.141.046.182.185-.136Zm.417,3.277.046-.139v-.323l.184-.092.139-.231-.139-.185-.231-.277-.325.554-.136-.046-.092.369v.138l.092.185v.046l.092.138-.277-.046-.046.369.323.185h.092l.139-.231.046-.231.367.138h.186l-.046-.277h-.277l-.185.092V-672Zm-.508,1.569-.139.092.046.184.231-.046.231.092.046-.046v-.092l-.277-.046Zm.369-3.969-.323-.138-.138.325h.182l.279-.094Zm.046,2.169h-.092v-.231l-.092.138v.046l-.231-.092.046.323.044.092h.279l-.187.092h-.044l-.092.046.044.046.092-.046h.092l.187-.139v-.046h.046Zm-.325,9.551-.09.185v.046Zm.371-1.8H908.5l-.044.138-.092.231.415-.231Zm.046-11.672-.185.046-.092.183.185.092.183-.182Zm.506,1.015-.644-.233.092.415-.046.139.183.094.556-.048Zm-.6,3.275v.046l.046-.046Zm.554,9.828.092-.139-.048-.185h-.275l-.048.139h.092Zm.277-1.2-.233-.092.048-.139-.138-.046h-.092v.092l.092.138-.046.231.185.138.136-.138Zm.875.877.092-.369-.415-.092-.277.323v.046h-.183v.092l.275.231v-.046l.279.277.415-.323Zm-.552-10.843-.14.138-.044.092Zm.136-2.538H909.7v.14l.136.183.141-.183Zm.231,13.243-.415.046.092.231v.046l.092-.185Zm.092-14.625-.459.231.229.136h.323l-.367.369.459.371.279-.233.229-.182.371-.046-.14-.371-.367-.09-.048.09-.044-.09-.14.046-.044.044-.279-.044Zm.323-.738-.231-.046-.044.231.136.231.139-.185Zm.185,1.013h-.229l-.046.046.138.279.321-.185Zm.556,15.088h-.14l.092-.277.139.092.184-.046v-.277h-.231l-.184.185.092.046-.229.231-.231-.046-.141-.046.048.092.367.139h.233Zm-.092-16.24-.464.138.279.323.092-.277Zm-.048,16.24-.136-.046-.048.092.14.046Zm.323-1.108-.415-.092.092.277.048.185.229-.231Zm1.108.692-.367-.046h-.185l-.141.323-.138.185-.092.185.508-.277.508.139Zm.185-.969-.369-.185v.231l.277.231.185-.092Zm.046,1.846-.138.139.508-.046ZM913.024-678l-.185.092-.092.231.092.139.233.046Zm.508-1.431-.508.185-.138.231.415.508.279-.277Zm-.138,15.5h-.046l-.139.046-.044.185.136.092.279-.092Zm.187,1.2-.233-.138-.183.185.229.092Zm.044-17.394h-.136v.138l.229-.046Zm.415,18.271-.277-.046-.046.277.046.277.233-.138Zm.323-16.978-.367-.185-.048.369-.092.138.092.046.461-.092Zm-.185,15.271.277-.046-.092-.138Zm.646-.277h-.462l.141.231.229.139v-.092h.046Zm-.138.6-.231-.046.092.139Zm.646-.785-.277.092-.185.185.323.138.323.046Zm-.046-16.1-.277.277.138.046Zm0,15.732-.185.092.092.138Zm.831-14.948-.369.046-.185.231.046.046.461-.092.138-.046Zm.092-.923-.554.231.231.138.415-.046.185-.092-.046-.092Zm0,15.133-.279-.046-.136.092H915.7l.277.369.185-.138Zm.323,1.708-.277-.046.231-.185.231-.369h-.046l-.462.092-.231.231-.048.277.048.277.231-.277.136.277.233-.139Zm-.323,0,.046-.046h-.046Zm.415-17.209-.231.092.046.138.092.185.229-.185Zm.461,14.533v-.138l-.138.138Zm.554-.092-.508-.183.092.275.136.233v.367l.371-.367Zm-.461.738h.046l.092-.138Zm.6.369-.092-.185-.09.231.139.046.044.092Zm.508-14.856h-.459l-.14.323.048.185.6-.139Zm.508,5.215.279-.187.136-.185.187-.323-.094-.321-.229.275-.279.369-.092.325Zm1.015-1.431-.136.092-.141.136.233.279.138-.14Zm.048-1.292h-.048l-.044.231v.092l.231-.092Zm.738-.692-.092.092-.323-.138.136.508.094.231.044-.325Zm.092,2.907-.233-.14-.138.187.279.182h.092Zm.875-.094-.136-.367-.187.554.092.183.462-.138Z" transform="translate(-807.026 694.796)" fill="#fff"/><path d="M920.029-672.913l-.6-.09-.092.139-.692-.092-.231-.092h-.138l-.369-.092-.277-.323v-.323h.139l.277-.508.092-.508.185-.139.092-.277.369-.092.415-.369.831-.185.092.046h1.061l.139.139.508-.092.646-.046.185-.554.323-.185-.139-.461.415-.415.275-.323.048-.554v-.185l.415-.554.092-.183.136-.371.092-.231.187-.6.044-.183.141-.233-.092-.367.136-.461v-.046L924.69-682l.044-.279.092-.506-.136-.415-.048-.508-.044-.323-.092-.415.044-.461-.183-.231-.233-.046.141-.646.415-.369.367-.046.277.138.461-.185.692.046.231.323.648-.092.321-.092.415.415.231.046v.138l.508.277.092.138.277.323.046.138.277.738.092.369.046.231v.277l.046.415-.046.092v.554l-.046.277-.138-.046v.829l-.139.279-.048.321-.136.233-.046.415-.231.367-.092.415-.046.369-.138.138-.092.277-.277.185.092.6-.369.369-.046.508-.369.231.092.138.092.323.6-.046h.185l.462-.046h.554l.415.092.461-.092.185-.046.369.138.182.461-.044.277-.138.231-.138.369-.231.185.044.369-.415.369-.09.046-.323.092-.415.369-.277-.046h-.323l-.508.09-.231-.229-.461.229-.369-.09H926.9l-.138.046-.554-.185-.323.369-.275.231-.279.323-.136.229-.092.279-.092.229-.323.233-.371.369-.092.554-.184.415-.092.046-.231.413-.044.323-.279.185-.229.461.044.139-.459.6-.048.323-.275.323-.048.092-.275.231-.092.508-.185.185-.231.323v.277l-.415.508-.231.415-.046.277-.185.277-.092.277-.508.644-.138.141-.092.367-.092.323-.138.371v.136l-.092.325.092.275.046.692.046.277.277.138.138.369.231.046.369.138.554.046h.369l.046.092.459-.046.279-.092.508-.185.277-.046.323-.046.229.231.048.554-.048.185-.136.277h-.415l-.415-.231-.092-.185-.092.046-.092.277-.279.231.092.046.323-.092.325.139.646-.185h.092l-.371.554-.092.092-.275.323-.092.231-.415.277h-.277l-.138.231-.325.092-.644.415-.138.185h-.6l-.369.092-.462.138-.646-.046-.185-.092-.461-.092-.275.046-.6-.092-.185-.046-.644-.323-.371-.231-.231-.185h-.185l-.044-.277-.508-.508.044-.092-.415-.461-.044-.323-.141-.323.141-.415-.185-.461v-.185l-.092-.552.185-.6.044-.277.048-.323v-.275l.136-.6.231-.321.277-.461v-.415l.279-.277.092-.277.092-.185.044-.138.371-.646.137-.139.323-.508.092-.323h-.136l.459-.508.092-.046.184-.415.138-.092.231-.508.046-.323.369-.461.046-.231.323-.415.046-.184.231-.369.185-.323.323-.369-.046-.185.415-.277-.046-.461.369-.367.092-.233.185-.275.138-.14.046-.462-.139-.136Zm-4.246,11.952-.277-.046-.231.182.279.231.136.185.092-.136.048-.279-.141-.046Zm-.044,1.336-.14-.046-.092.277-.09-.046-.048.277.092.046.279.046-.185-.277.136.046Zm.552,1.384h-.229l-.094.185.231.092.092.046Zm.279-3.415-.371.046-.092.231.141.185.182-.138Zm-.187,4.338-.277-.138.277.277Zm2.217-2.031v-.415l-.417.046h-.277l.046-.046-.092-.185.141-.046v-.415l-.415-.277-.187.277v-.046l-.369.046-.415.046-.275.185-.092.369v.092l.044.415.092.277.231.185-.092.138.415.415.277-.092.231-.369.046.046.138-.092.277.092.415-.046.231.185-.044.277.136.185.508-.092-.185-.461.139-.092-.046-.092.046-.092-.139-.046-.185-.369Zm-.648-.323-.554.138-.415.139.231.277-.323-.046-.277.323.369.092.231-.092h.231v.092l.046-.046-.046-.046h.141l.044.046.323-.277Zm-.831-5.351-.185-.046.092.138h.233Zm0,2.813-.138-.09v.182l.187.141.183-.187Zm.185,5.215-.229.092h-.094l.323.185.138-.092Zm.279-1.154-.233-.092-.046.092.092.185.231-.046Zm.092-3.874-.279.092-.046.046.046.369.187-.048Zm.044.782-.231-.092-.092.325.187.136.229-.136Zm-.323.831.139.508.323-.046-.046-.092-.092-.231Zm.231-6.043-.138.231h.094l.044.046Zm-.044.554.367.185h-.046l-.185.092-.184.508h.092L918-665.3l.275.185.369-.323-.044-.646-.233.092-.323.092-.044.092-.048-.277-.323.046Zm1.105,2.03-.09-.508-.6.092-.187.323.279.367.136.14v-.14l.6-.136Zm-.69-1.938-.048.092h.092Zm0,.461v.046l.044-.046Zm.6,6-.092-.046-.048.138-.185.185h-.046l-.092.092v.046l.185.185.415-.231-.092-.231Zm-.141-14.671.092-.092-.044-.046h-.325Zm.048,7.059-.187.046-.046.046.046.277.231-.185Zm-.094-.738.046-.231-.138.231Zm.923.831-.554-.046-.275.323.229.415.739-.415Zm-.415-7.889h-.277v.046l-.044.046.275.092Zm.094,8.766-.371-.092.046.185.185.185.14-.138Zm-.048,7.012-.138.092-.139-.046-.046.185.138.231.139-.092v-.139l.094.046.044-.138Zm-.092-2.075-.185.046v.229l.139.092v-.092Zm-.046-1.938-.092.139.231.183.139-.046Zm.369-.923-.092-.139-.185.323.231.136.092-.183Zm-.092-11.212h.231l-.046-.092Zm.369,10.2-.231-.231v.461h-.092l.185.323.231-.185-.046-.139h.046Zm.046,6.32-.277-.046v.139l.369.138Zm.277-5.259-.415-.138-.046.323.231.09h.139Zm.139-3.369-.323-.185-.138.092.323.369.046.046Zm-.185,1.154-.277.138.138.138Zm.046-2.954-.092.046-.046.184.046.092.092-.092Zm.185,10.935-.277.231.092.231.139-.185Zm-.139-5.767-.046.092.185-.138-.185-.139Zm.415-6.276.185-.092-.138-.277-.277-.092-.046.185v.185l-.092.325h.231l.231.046Zm.185-4.105-.185-.138v.277l.138.185.138-.092Zm1.108,3.136-.415-.136-.046.09-.139.184v-.046l-.277.323-.138.325.185-.14.136-.185.141.092h.092l.046.092.508-.275Zm-.969,6.184.092-.138v-.046Zm.138-.231v-.046h-.046Zm.323,7.566-.277.185.138.092Zm-.092-13.381-.094.233v.044l.187-.183Zm.969,1.431-.092-.046h.139l.046-.369-.092-.185h-.415l-.323.369.323.277h.046l-.046.138.185.277.415.092Zm-.323-5.3-.277-.277.044.323.187.092.277-.046Zm.046,1.615-.279.046-.044.092.185.183.139.048Zm.046,5.074.138-.184.139.138.046-.185.092-.323h-.415l.09.277-.09-.138-.139.415-.092-.138-.094.323.141-.046v.046l.139.046v-.138Zm-.185.139.139-.046-.092-.092Zm.185,9.5-.185.231.046.185h.139Zm.461-13.333-.231.138-.141.137.048.138.323-.092Zm-.371,3.413.048.092.044-.046Zm.648-4.8-.185-.141.092.187.044.138.187-.138Zm.275-.831h-.229l-.138.138h.231l.046.046Zm-.182,3.6-.046.277.092.046.185-.182Zm.182,1.477-.09.092-.138.185.185.046.044-.092Zm.325-3.923-.185-.044-.277.369.277.136.139-.046Zm-.415-1.89.09.138.371-.231-.046-.046Zm.323,16.378-.048-.231.141.139Zm.367-12.181h-.229l.092.138-.048.094.233-.048Zm.048-.183-.14-.046-.092.183h.233Zm-.048.923-.185.229.092.092.092-.138Zm.739-4.569-.137-.277-.415-.277-.279.646.233.138.323.277.231-.185-.092.139.092.323.136.139.371-.139.277-.231-.092-.415h-.323l-.233-.046-.044.092Zm-.367,15.917v.046l.092-.046Zm.644-17.948-.092-.046-.277.277-.231.277.371.231.323-.231.044.231.325-.231.044-.138-.321.092.044-.046Zm.094.461v.046l.092-.046Zm1.292-.831-.325-.138v.369h-.415l-.183.139.415.508.183-.184.092-.046.048.231.367.046h.277l-.044-.415-.325-.231Zm0,.415-.14-.185-.044.231Zm.831-8.12-.325-.092-.183.323-.187.092.187.231.323.323.092-.046-.092.415.275.277.325-.139.183-.185.046-.184-.185-.462-.369.139.138-.323Zm-.415,6.182-.233-.046-.046.185.094.231.321-.138Zm1.106,3.553-.323-.092-.323.415.185.277.187.046h.459l.048-.508Zm-.231-6.6-.277-.046.092.277.092.229Zm.785,1.936h.094l.136-.323.092-.508v-.321l.369-.369-.554-.231-.092.046-.459.046-.187-.046-.046.367-.09.187-.14.321.231.233-.09.369.229.229h.508l-.046.046-.231.187.138.046h.185Zm-.185-1.613-.229-.046-.141.182-.092.138.138.094.277-.141Zm.508-1.569-.046-.231-.461-.185-.415.508.092.231.462.09.323-.09Zm-.415,4.428-.369-.046v.369l.14-.046h.275Zm.554,3.092.185-.138v-.046l-.323-.046Zm.877,1.246h-.231l-.185.139.185.277.138-.277Zm.415-.461.046-.185h-.046l-.139-.046v-.323l-.323.092-.046.046-.046-.046v.138l-.046.092.092.046v.092l-.138-.092-.046.092.046.231.092-.046.046-.092.046.185.185-.046.231-.185Zm-.139-.231-.369-.185-.046.092.046.139.231.138.185-.092Zm-.369.138v.092l.092-.092Zm.508-.092.046-.046h-.046Zm.6-.231-.185-.092-.092.138-.231.092.554-.046Z" transform="translate(-796.492 689.936)" fill="#fff"/><path d="M931.056-675.7l.415-.138h.415l.461.138h.508l.369-.092.139.231.644-.092v-.092l.415.692-.092.138-.275.462-.185.323-.046.138v.415l-.508.508-.092.275v.048l-.323.367-.277.833-.277.277-.185.138-.231.644H931.7l-.231.6-.046.369v.277l-.462.508-.092.231-.231.231-.092.462-.185.092-.185.461-.185.323v.046l-.231.692-.323.277-.092.046-.136.369-.094.461-.369.323-.092.277-.183.415-.233.277.185.369-.552.413.182.141-.738.782-.092.325-.09.275-.048.369L927-660.8l.048.046.092.325-.048.506.139.231.277.323h.464l.183-.092.369.323.646-.231.14.138.459-.323.323-.231.508.231.092.277.046.277v.138l-.138.277h-.139l-.138.092h.138l.092-.046-.046.092-.092.138-.277.139-.138.461-.138.139-.092.277-.185.185-.461.277-.369.231-.367.046-.464.369h-.044l-.738.138-.325.139-.646.138-.321-.046-.323-.092-.323.138-.323-.092-.277-.185-.231.139-.6-.369-.277-.092-.046-.092-.415-.323-.323-.231.046-.046-.323-.323-.185-.6-.277-.138-.046-.831.138-.369h.185l-.138-.738-.092-.138.185-.461.09-.275.048-.369-.048-.141.187-.459.046-.323.231-.279.231-.229.046-.554.277-.415h-.046l.323-.738.277-.323.046-.092.277-.231.367-.692.048-.323.092-.461.367-.369-.044-.231.508-.554.092-.323.092-.277.231-.231h.092l.323-.415.136-.415.048-.554.275-.139.14-.415.136-.183.323-.415.092-.279.138-.321.277-.187.231-.508v-.459l.508-.554-.092-.185.325-.415v-.277l.367-.323.277-.277.138-.277.231-.231.277-.185.139-.139.508-.092Zm-8.166,14.765-.138-.048-.046.323h.046l.231-.046Zm.321-.969-.09-.048.046.048-.277.554h.092l.229-.046-.137-.094.323-.046Zm.694,2.075-.231-.136-.185.413.046.231.461-.185Zm.092-2.4-.138.183-.141.233.048.137-.231.325v.415l.182-.14.048-.185.459-.323Zm-.138,5.4-.141-.046.141.092Zm.782-1.754-.092-.277-.136.139-.508-.139-.092.369-.046.277.323.369-.092-.046h-.046l-.185-.046v.138l.046.138.046.092.231.138.415.185.044.046-.09-.046-.092.139v.046l-.14-.092-.044.231.185.185.138-.092.185-.185-.048-.185.187.092.229.092.092-.462-.459-.185h-.141l-.136.185-.187-.323-.136-.046.415-.277v-.092Zm-.644.692h-.046l-.185.092.046.138.138.046v-.092Zm.277-1.338-.231-.138-.139.277.185.092h.136Zm.185-5.259-.138-.046-.187.231.187.092h.092Zm0,5.9-.138-.092-.094.231.048.046h-.048l-.092.277.233.046.092-.046-.046-.231h-.046l.138-.092Zm.877-.784h-.046l-.048-.508-.508.092-.275.415.183.184.371.046.137-.138.092.046Zm-.508-4.29-.279-.046-.044.185.185.138.231-.138Zm.461,1.892-.369-.325v.508l.229.187.323-.279Zm-.277,2.4.137.092.14-.092Zm.415-1.013-.279.229.14.138Zm.229-2.492-.185.046-.136.184.185.09.092-.09Zm-.092,4.059-.229.046.229.138Zm.187-1.061.046.138-.277.323.367.369.415.138-.275-.738-.185-.415Zm.136,1.246-.323.092.141.139Zm.464-3.969H926.3l.185-.275v-.094l-.275.094-.185-.184-.323.369-.092.136v.415l.092.138v.094l.046.046.092.229.185.046.044-.275.092-.094h-.044l.092-.185.183-.183Zm-.187.233.138-.233-.182-.136v.275l-.277.323.044.092h-.136l-.046.092.046.094.229.183.092-.183.048-.046V-662l.092-.138.046-.044Zm-.092-.969-.229.092.092.229Zm.464,5.305-.464-.277-.092.369.233.231.367-.185Zm-.277-9.828-.231.185.185.092Zm.229,7.843-.229-.046.092-.138-.187.185.048.048v.09l.139.092.184-.139Zm.048,2.307-.092.046-.185.277h.229l-.092.092.048.092.092-.185.136.046Zm-.048-6.459-.185.092.092.138Zm.185,2.261h-.044l-.141.092.092.046h.14Zm-.044-6.784v-.092l-.048.138Zm.367,4.846-.229.046v.231l.092.046v-.138Zm0,.692-.185.046.14.277H927Zm.415-.231-.508-.138.048.138.275.277.092-.231ZM927-668.136l.323-.046.048-.415h-.14l-.231.139-.044.369Zm.231.369-.183-.138-.048.231.092.231.092-.138Zm.184,9.32-.184-.046-.139.046.187.185.185-.046Zm.231-9.781-.182.231.092.277Zm-.046-.692-.044.415.044.277.371-.231Zm0,3.876.092-.138-.046.046Zm.646,7.336-.323.092.185.231Zm.141-10.335-.279.185-.046.139.138.046Zm.044-1.569-.185-.092-.138.231.323.231.185.046Zm.415-1.431-.185-.09-.183.229.275.141h.048Zm.048,3.369v-.231h-.233v.277l.141.046-.048.046-.185-.092-.09.369.136.139.279-.185-.048-.138.185-.231.139-.231h-.092Zm-.279.785.092-.139h-.046Zm.046,8.72v.138l.185-.138Zm.461-13.425-.229.046-.187.229.277.233.138-.279.046-.229.14.323.09-.187.6-.09-.415-.461-.461-.138-.092.554Zm-.092.923-.185-.046-.138.136.094.138.275-.182Zm-.277,3.136-.046.092h.138v-.046Zm.556,9.135-.325-.185-.231.369.6.092Zm-.415-9.274-.092.092.092.046Zm.415,9.735-.279.138.187.185Zm0-12.92-.092-.092-.048.325.092.182.138-.182Zm.367.508-.277-.185-.183.185.229.323.231-.182Zm.323,11.858h.185l-.277-.139h-.09l-.187-.554h-.046l-.092.139-.183.323.136.138.231-.092.092.277-.044.138Zm-.6-10.058v.138l.092-.046.325-.6-.279-.185Zm.646-4.844-.229.046-.141.323.277.229.231-.136Zm.738,2.123-.415-.231.046.044-.461.371.279.323.183.139.323-.187.092-.138Zm-.692,12.225.092.046.092-.092Zm.923-11.766-.461.14-.046.229.369.092.138-.138Zm.692-2.905-.046-.277-.277.092h-.323l-.046.092-.277.415.323.231.185.185.185-.138.461-.092Zm-.6,1.844.231.187.092-.369.138-.185-.231-.141Zm.508-.967.092.138.323-.415-.138-.046Zm1.475-2.307-.136-.046-.092-.046-.046.231.183.185.233-.046Zm5.768-9-.046.277-.092.646.046.323-.323.277-.138.323-.092.277-.136.461-.279.413-.185.141-.231.321-.277.094-.183.321-.277.141-.694.046-.321.092-.323-.092-.279.092-.552-.092-.141-.187-.415-.229-.229-.138-.046-.14-.14-.229-.044-.508-.277-.14.046-.644-.046.046.185-.877-.046-.092.231-.554.185-.323.046-.369.6-.6.277-.323.138-.092.369-.231.367-.323.048-.046.69-.231h.141l.323-.046.367-.046.6.185.139.138.277.231.141.046.182.231.141.415-.048.323.092.277.185.646Zm-2.815,2.49-.044-.09-.415-.231-.277.554.092.369.552-.14.279-.229Zm.464-.736-.417-.138-.046.184.279.323h.229Z" transform="translate(-789.063 689.82)" fill="#fff"/><path d="M929.12-667.944l.046-.323.046-.185-.046-.554.136-.231v-.185l.048-.6.136-.231.048-.231-.092-.369.367-.6.14-.369.231-.415-.046-.554.323-.462.183-.138.048-.277.415-.554.044-.415.325-.275.231-.187.092-.138.415-.462.136-.415.231-.183.185-.279.185-.183.279-.369.044-.138.6-.462v-.138l.6-.369.139-.323.371-.092.044-.046.415-.508.461-.138-.046.138.6-.554.369-.092.323-.323.415-.092.367-.046.415-.323.464-.139.231-.046.185.046.459-.138.415-.185.141-.046.552-.046.094-.092.692.046.367-.092.185.138h.831l.415.092.556.046.229-.092.231.092.508.277.139.046.369.231.323.138.323.231.277.138.092.231.323.231.231.323.229.415.187.184.046.277.275.508.141.277.139-.138.185.877-.092.828.092.369.138.138-.138.556-.092.275.137.462h.094l-.094.877-.229.323-.046.369.046.231-.185.508-.094.415.141.092-.325.6-.09.185-.185.554v.138l-.323.231-.092.554-.231.323-.092.138-.325.369-.044.508v.137l-.277.461-.461.369-.185.371-.139.229-.369.277-.231.371-.136.09-.187.231-.462.554-.275.231-.141.046-.367.461-.279.139-.185-.046-.415.508-.092.185-.459.231-.323.185h-.092l-.463.415-.46.092-.185.231-.323-.046-.415.277-.415.046-.185.092h-.461l-.417.323-.323.092-.321.046-.046.231-.6-.092-.231.092-.554-.185-.369.231-.185.046-.508-.092-.185.046-.6-.231-.369.092h-.185l-.692-.323-.138.046-.229-.185-.556-.231-.231-.231.048.138-.6-.461-.185-.277-.323-.323-.092-.231h-.048l-.275-.415-.184-.231-.185-.6-.094-.231-.185-.277-.136-.229.046-.694-.139-.139.046-.552.138-.415-.138-.461Zm1.29-3.553h-.136l-.048.323.048.046.185-.139Zm.694-.508h-.187l-.136.138.185.139.182-.092Zm.369,1.246h-.325l-.231.369.415.415.415-.369Zm.646-2.4v-.461l-.14.185-.046.139H931.8l-.092.323-.048.046.092.323-.415.415.464-.185.136-.046.186-.369.136-.138Zm-.14-.184-.046.046-.092.138-.136.185.229.185.186-.185Zm.233-1.292-.279-.046v.185l.046.185.277-.138Zm0,6.322-.187.046-.046.231Zm1.106-1.477-.046-.231-.092.046-.044-.092.092-.046-.141-.231v-.646l-.415.185-.044.277.136.231.138.277.277.138Zm-.275,1.754-.323.185.229.183.231-.09v-.325Zm0-1.984.092-.046-.048-.277v-.046h-.138l-.092.185Zm.552-5.215-.092-.506-.231.182-.277.508.141.14h.044l.464-.233Zm-.415,5.261-.092.046.092.046Zm10.335-5.722.046-.552-.231-.279-.046-.415-.231-.229-.323-.369-.277-.092-.367-.046-.14.046-.323-.139h-.6l-.231.092-.321.138-.187.09-.459.094-.233.138-.136-.138-.508.461-.094.185-.644.462-.371.229-.183.092-.233.14-.183.415-.325.136-.46.554-.138.279-.231.367-.461.692.046.138-.369.462-.046.323-.462.231-.092.692-.136.231.044.139-.323.415-.046.323-.231.692h.185l-.277.739-.092.277-.092.185-.046.738h.138l-.183.6.275.046-.046.923.092.323.046.277.141.139.229.461.554.277.462.185v-.092l.554.138.185-.138.508.092.139-.046.277.139.323-.369.367-.092.048-.092.323-.138.277-.367.554-.187.229-.138.048.046.367-.462v-.138l.6-.415.184-.229.371-.415-.14-.187.648-.413.323-.231.136-.461.279-.323.092-.369v-.323l.367-.415h-.044l.321-.461.092-.461.369-.415v-.508l.139-.369-.185-.323.369-.508.092-.185.046-.738-.139-.185.139-.461v-.692Zm-9.828,5.261.092-.185-.136-.092Zm.323-.877-.277.092.185.092Zm.971-6.043-.233.046h-.092v.367l.277-.136Zm.644.738.046-.325-.231.048-.277-.048-.231.508.185.369.646-.136Zm-.231-1.015-.277.229.185.233Zm1.2-.231.092-.048-.184-.183v-.046l-.094.092-.044-.325-.185.094v.138l-.092.092L935.9-678l.139.231-.139.092.461.508.231-.461Zm-.231-.51-.185.233v.046h.139Zm.044.51h.187v-.092h-.187v-.092l-.183.136Zm.094-.923-.185-.185-.046.185Zm.413,1.477h-.46l.046.138.138.323.185-.187Zm0-.831-.183-.185-.046.413.139.14.231-.092Zm1.063,14.717-.415.092.046.185h.277Zm.275-15.086-.229.185-.369.092.508.646.277-.231.229-.231V-678l.092.046h.323l-.136-.231-.187-.046v.046l-.044-.323h-.139l.046-.415-.231.046v.277l.185.092Zm-.275-.415.462-.277-.094-.138-.092.092-.508.231Zm.923,14.763-.185.138-.139.092-.138.046-.139.461.277.415.231.231.275-.092.092-.092.325-.092v-.139l.367-.184-.136-.508h-.323l-.048-.138h-.136l-.14-.046.277-.277.14-.185-.508.185-.141.092Zm-.048.277-.136-.138-.139.323h.09l.279-.046Zm-.092-14.3-.092.138.092-.092Zm.74,14.394-.092-.092-.14-.046-.044-.092-.371.415.141.184-.185.092-.14.369v.046h.415l.092-.046.233-.139.092-.092.09-.277Zm-.325-14.948-.323-.185-.044.415.138.136.136-.136Zm1.2-.831-.092.046v-.092l-.092-.277-.275-.046-.14.185-.644.046-.185.277.046.185.275.323.464.277.185-.092.231.092.367-.138.048-.185.552.046.092-.231h-.229l.044-.046-.092-.185-.182-.092-.14.185-.231-.092Zm-1.292,15.548v-.046l-.136-.046Zm1.2-14.948v-.554l-.415.092-.092.323.14.139-.185.138.185.092Zm-.092,14.117-.092-.461-.275.369Zm.831-.461-.508-.229-.231.367.556.369.231-.185.136-.185Zm-.275,2.215-.185-.046.092-.046-.048-.138h-.092l-.044.046.044.185h.092l.14.046Zm-.14-16.194.048.046v-.046Zm.048.046.136.092-.092.138Zm.415,15.133-.185-.185-.231.185.231.185.229-.092Zm-.185-14.994.092-.046-.138-.046-.048.046Zm2.813-.369-.231-.092.231-.046.138-.046-.138-.231-.231-.092h-.323l-.369-.092.184.184-.044.231.229.139h-.229l-.14.138-.183-.092.323-.046-.233-.462h-.415l-.046.277.092.185h.231l-.323.231-.046-.092.138-.046-.138-.231.046-.277-.046-.231h-.323l-.182.046.044-.092-.229-.046-.048.185.092.092-.092.139-.092.277.141.138.044.138-.092-.046-.092.277h.233l.044.138.092.046.415-.185.092.138-.046.092.461.046.185.092.046-.046.141-.185.044.092.138.092-.046.092.185.231.046.138.415-.461.141-.323-.141-.185-.367-.046-.048-.138-.138-.092.231-.046.046.185.139.046.138-.092Zm-2.028-.646-.141.138h.048l.092-.092Zm.136.923-.277-.092.048.231.136-.046Zm.323,10.981H941.9l-.231.277.231.184.185-.138Zm0-11.535-.185-.185-.092.369.185.231.139-.046v-.277Zm.279,11.858-.371.183.139.092Zm0,.183-.279.279.092.092h.187v.275l.229.14-.136.046v.09l.136.092h.139l-.046-.229.279-.092-.092-.277.092-.325-.415-.092-.048-.183H942.5v-.046Zm0,3.461.229-.277h-.323l-.046.277.046.046-.138.046.046.092ZM942.5-679.8l-.092.138.137.046h.092Zm.136,12.873h.092v-.046Zm.877.6-.461-.136-.044.09h-.092l-.14.417.046.044.231.323.185-.092v-.092l.046.046.141-.321Zm-.692.415.187.046.044-.046.185.139-.046-.275-.275-.094Zm.187-.921-.092.136-.048.139Zm.136-1.938-.046-.046-.139.185v.044l.323.094Zm.092-1.523-.138-.139-.09.231v.185l.275-.139Zm.046-8.582-.092.139h.046l.092.323.277-.231Zm.508,8.351-.231.092-.185.139.323.231.185-.092Zm-.138,2.354-.092-.092-.185.092.231.277.138-.139Zm.323-10.058-.185-.185.231.554Zm.185,11.258-.092.046-.136.092.09-.185-.185.046v.229l.046.279Zm-.229.138-.094.09.046.092Zm.183-11.627-.139-.092-.092.231.231.138.138-.138Zm.323,7.751-.231.138.185.046Zm.138-7.7-.277.044-.046.141.094.138.136-.138Zm-.092-1.984-.136.277.321.046-.046-.231Zm1.108,1.708h-.139v-.092l.046-.092.046-.231-.508-.231-.508.138.231.692.415.136.092-.182.092-.046-.046.092.092.136.323-.09Zm-.923,6.089-.046-.046-.046.277h.092Zm.461-2.4.277-.367-.231-.369-.185-.417-.369-.183.092.183.138.417-.046.321v.323l.046.138-.046.185.323-.185Zm-.369,4.615-.139.277.231-.139Zm1.384.508-.092-.046-.046.046v-.046l.092-.277-.092-.277-.369-.138-.277-.046-.185.369-.461.231.277.554.277.231.231.046.185-.092.231-.323.185.092.323-.046ZM945.13-675v-.046l-.231-.046-.046.092v.094Zm.046-3.505.092-.046.185-.231-.092-.323-.231-.138-.231.508Zm.185,4.151-.323-.138-.046.461.185.046.461-.231Zm.046,1.984-.323-.046-.092.139.185.323.185-.185Zm-.323-7.8.046.277h.277Zm.508,9.689h-.231l-.138.277.046.185.323-.139Zm.138-6.874h-.415l-.046.321.231.233.369-.233Zm-.185,8.166-.277.231.185.046.139-.231Zm-.046-3.369-.185-.046v.139l.046.046.185-.046Zm.046,1.431-.138-.046-.092.277.092.138.277-.185Zm-.092-7.566-.092.092.138-.046Zm.231,3.551-.277.139-.046.185.231.138.138-.229Zm.831,3.784.046-.185.231-.554v-.231l-.138-.046-.371.092-.321.046v.277l-.231.046-.323.369.323.462.323-.139.185.139.044.092Zm-.6-8.166-.141-.185-.044.092Zm.046,9.781.046-.138-.233.138.141.092Zm1.292-3.553-.185-.046-.138-.415-.233-.046h-.275l-.092.139-.141-.461-.321.231v.231l.138.277.275-.138-.044.092-.048.185.092.277.233.277.323-.231.046-.138.184.138.231-.092Zm-1.108,1.661v-.369l-.185.046-.092.6.185.138.136-.046Zm.415-6.182-.371-.046.092.185.325.092Zm-.231,4.151-.048.138.094-.046Zm.323,3.646-.323-.231-.048.369.187.138.092.046h.046l.046-.277Zm.323-1.061h-.508l-.092.138.277.185.231-.185Zm-.554-7.659v.231l.139-.139.231.139-.094-.185v-.046Zm.6,2.354h-.046v-.277l-.323-.092v.183l.185.138v.048l-.092-.048-.092.187.277.136.138-.046Zm.046,3.044-.138-.046-.092.277.046.046Zm.415-3-.323.046.092.092.231.09Zm.185,2.675H947.3l-.138.092.231.184.136-.046Zm-.185-1.659.092.046.092-.046-.048-.141Zm.229.923h-.229l.229.136Z" transform="translate(-781.864 694.935)" fill="#fff"/><path d="M952.111-663.331v-.185l-.092-.277.092-.462.092-.231v-.277l.048-.138.09-.415H952.3l.277-.644.138.046.138-.6.046-.321.415-.415.185-.508-.092-.279.323-.461.508-.6.139-.277.136-.323v-.323l.464-.461.231-.323.277-.323.044-.231-.044-.277.459-.277.187-.231.185-.369.092-.415.323-.323v-.046l.323-.508.185-.277.136-.369.371-.277.185-.646.044-.277.139-.461.048-.136h.044l-.136-.554v-.231l-.231-.508-.141-.231-.459.046-.371-.185-.275.092h-.277l-.323.046-.048-.046-.415.185h-.367l-.415.461v-.092l-.785.782h-.323l-.415.233-.092.183-.508.415-.092.092-.6.646-.231.138-.185.417-.508.321-.231.415-.092.277-.231.323-.369.369-.139.415-.092.184-.136.415-.279.369H949.3l-.231.692-.185.231-.092.369-.187.092-.092.415-.459.692v.046l-.369.508-.139.277-.277.321-.138.371-.185.415-.046.321-.277.277-.139.233-.325.459v.277l-.183.233-.231.229-.139.462-.277.369-.185.185-.185.369-.092.277-.277.508-.046.138-.231.369-.323.415-.138-.046-.6.369-.323-.046-.369.185-.461-.185-.321.092-.231-.046-.508.046-.14.138-.69-.138-.14-.139-.644-.185-.092-.323.044-.138.184-.323.279-.185.136-.554-.044-.369.415-.323h.044l.277-.6v-.231l.371-.461.136-.231.092-.277.369-.462.092-.138.369-.738-.046-.413.417-.323.044-.279.231-.183.231-.231.277-.6.048-.138.275-.323v-.415l.233-.092.321-.646.094-.231.183-.415.138-.185.277-.415.138-.277.138-.415.139-.508.554-.415.275-.369.048-.508.277-.185-.046-.369.229-.367.048-.14.044-.229.094-.233.046-.275h.138l-.231-.831v-.138l-.323-.369-.415-.277H945.7l-.231-.092-.462.092-.323.046-.277.092-.462.229-.323-.275.046-.185v-.277l.141-.415.136-.092.092-.323.138-.231.415-.462.231-.138.369-.231.231-.369.415-.323.092-.138.415.185.554-.461.182-.092.556-.046.6.138v.092l.6-.046.648.185.231.231v-.185l.644.646.092.231.231.184.092.185.231.415-.046.231.323.554.185.554.046.415.14.185.229-.323.231-.046.323-.187.554-.644.323-.138.046-.092h.415l.323-.508.369-.046.277-.415.369-.231.046-.092h.508l.554-.554.277-.046v-.092l.6.092.461-.369h.136l.508-.092.371-.046.413-.092.415-.138.371.231.136-.092.508.092.323.092.323.277.277.046h.231l.554.692.231.231.094.138.321.6-.046.692.323.415-.139.369.092.415v.229l-.138.325-.046.277-.092.459v.231l-.185.508-.09.092-.279.369-.136.369-.141.554-.046.139-.369.369-.046.323-.277.462h-.092l-.231.462-.046.138-.323.554-.415.692-.275.323-.048.277-.277.277-.138.415-.137.139-.14.415-.275.369-.233.508-.231.275-.185.14-.275.646-.048.09-.229.325-.138.321-.092.415-.14.277.048.277.185.185.092.323.182.231.415-.046h.369l.279.046h.323l.415-.092h.367l.325-.185.229.369.187.508-.092.138-.094.231-.139.369-.046.092-.277.369-.092.139-.275.092-.231.415-.325.139-.275.231-.464.277-.415.138h-.321l-.415.231-.6-.046-.554-.046-.556.046-.415.138v.092l-.783-.277.092-.092-.646-.092-.415-.138-.092-.139-.554-.323-.323-.646h-.044Zm-11.858.646-.092.184h.048l-.048.185.139.231.185-.138-.092-.323h-.044l.092-.046Zm.694-.462h-.323v.231l.044.092.231-.185Zm.367.462-.275.092-.14.231.14.231.459-.277Zm.692-.6.046-.185-.506.046-.14-.138-.275.6.09.092.325.277.323-.185.183.046Zm.786.508-.094-.231-.369-.323-.185.415.141.369.092.046.415-.092Zm.275-2.492-.275-.138-.094.415.094.139.321-.277Zm-.046-2.261-.277.369h.048l.367.092Zm.369,2.307-.369.277.231.046.185-.092Zm1.385-2.354-.231-.137-.277-.046-.138.323-.092-.094-.229-.046-.187-.046-.092.554-.323.187-.046.321h.092l.185.277.139.279.323-.094.415-.275.231-.233-.138-.461.046-.138h.092l.369.046Zm-1.108,3-.367-.092-.048.231.138.138.185-.138Zm.415-2.63-.231.046-.092.046.464.141Zm0,3.692-.231-.046-.092.184.138.139.185-.185Zm.785-14.994.185.046.046-.231.277-.231h-.323v.046l-.185.046h-.277l-.277-.092-.277.231.046.138.323.185.138.044Zm-.738,11.073v.092l.323.136v-.044Zm.831-1.2-.231-.138v.229l.139.325.323-.046Zm.185,1.521-.277.141-.046.229.277-.09Zm.554-3.044-.415-.323-.185.692.323.277.277-.139-.185.231.277.231.367.138-.092-.461-.415-.185.094-.046Zm-.185,4.474-.369.046-.046.141.231.182h.139l.092-.046Zm-.092-.877-.184.231.092.138.321-.644-.183-.046Zm.323-12.594h-.231l-.139.231h.046l.277-.046Zm0-.369-.277.046.046.185-.046.046.183.046Zm.185,12.6-.279.092-.136.369h.231l.138-.141Zm-.279,1.059.094.139.138-.275-.185-.094Zm1.986-6.966h-.277l-.092-.138-.187-.046-.044-.277.044-.139-.415.554.048.046.092.231.046.185-.139.231-.048.046-.367-.231-.141.508v-.046l-.136.277.231.138.046.092.184-.184v.092l.277.185.092.323.321.231v-.323l.786-.139.092-.323.138.092.092-.277-.187-.046-.044.046L948-672l-.182-.462h-.277l-.231.046.139-.092.092-.046-.048-.046.141-.092Zm-1.108,3.923-.139.092-.369.275.231.371.277-.277Zm-.415-2.723.231-.231V-672l.046.046.139.046-.046.323.323-.277-.141-.277-.092.138-.09-.138h-.092v-.046l-.046.046v.046l-.187.231v-.046Zm1.108-7.659-.415-.277v.323l.092.092h-.185v.185h.185v-.185l.09.092.185-.092Zm-.141,6.274-.229.092-.139.092h.046l.321-.092Zm-.136-6.643-.138-.046.046.139.185-.046Zm.692,1.061v-.369l-.369.046-.415.277.229.185.371.369.136-.233Zm-.556,5.028.141-.092-.092-.185Zm.279,1.015.136-.046-.136-.231h-.138l-.092.138Zm0-7.612h-.092v.185l-.046.092.231-.185Zm.323,4.43H947.4l-.183.09.183.277.185-.231Zm.092-1.108-.371.139.185.138.279.136Zm.046,7.151-.277-.138-.092.277.185.231.185-.046Zm1.106-4.892V-675H948.6l-.044-.092-.048.092-.185-.046-.323.233-.229.09.092.323-.185.415.321.185h.371l.185-.092.275-.231.092-.185v-.138l.048-.046Zm-.783-1.105-.415-.092.092.367.231-.231Zm-.092,3.967-.092.092.092.092.044-.185Zm.415.692-.277.046-.094.185.094.046.321.092Zm.044-3.321.415-.094v-.138l-.092-.229L948.6-675h-.092l-.275.369Zm.415,1.336-.136.092-.187.231.323.185.092-.369Zm.14-2.907-.277.094.277.046Zm.183-1.89-.139-.048-.229.094.229.185.094-.046Zm.14,1.382-.092-.229-.048.183v.233l.277-.092Zm.229-.644-.277-.092.14.229Zm.138-2.031-.231-.231-.092.046.323.508.048-.046Zm.277-.277-.136.046-.048.231.185.185-.044-.231Zm.231,3.646-.323.136.279.046Zm.048.644h-.233l-.09.185h.044l.187-.046Zm-.048.877-.185-.046.185.277.048-.092Zm.323-4.567v.139l.092.138.092-.046Zm.233,1.154v.229l.136.325v-.138l-.092-.323Zm.552,1.431-.229-.046.092.136.229.092Zm2.077,13.056-.046-.231-.138.139v.138l.185.323h.046Zm.185-14.948-.231.046-.092.092.185.09.185-.136Zm.231,14.348-.231-.139-.185.231.369.139Zm.185-.969.231-.138.323-.231-.046-.231.185-.046.092.277.139-.231-.046-.092.231.231.139-.185.277-.231.092-.461-.692-.092-.231.554.092.046v.048h-.092l-.046.046v.044l-.138-.231.046-.092-.646-.092-.092.371.092.09-.046.277.138.369-.459-.046-.094.369.369.323.462-.369Zm.785-.782.092.09-.046-.139Zm1.013-2.033h-.229l-.415-.092-.323.461.415.325.185-.046.459-.046Zm-.6,2.677-.185-.139-.048.185.094.231.231-.185Zm.369-13.979-.094.092.094-.046Zm1.152-.692-.183.185-.554.138h.508l.369.046.323-.462-.048.046Zm.092,11.535v-.185l-.275.046-.233-.046-.275.6.508.187.415-.233Zm-.136-2.492-.323.092-.185.185.229.277h.233Zm.136,3.921h-.229l-.046.094.092.183.231-.136Zm.233-12.087-.233-.092v.277l.233.092Zm.183,9h-.136l-.092.277.092.092.092-.185Zm.371-1.707-.371.138-.044.092Zm.044.554-.231-.046-.185.323h.233l.275-.046Zm-.136,1.292-.046-.092v.323l-.14.185.186.139.046.046.09.046.233-.323.275-.231-.6-.139Zm.136-9.781-.136.046-.094.092v.046l.048.046v.092l.231-.046-.048-.046.048-.046-.048-.046Zm-.044,11.4-.138.046.046.229.092.046.092-.092Zm.692-6.876-.185.185.277.138v-.277Zm.552,3.138-.508-.046-.092.231.323.369.277-.369Zm-.185-6.459-.231-.046-.044.185.182.139.092-.139Zm.923-.785.141-.138-.556-.185v.185l-.136.138-.556.231.556.277.277-.138h.09l.325-.138Zm-.782,2.813-.277.092v.187l.136-.046.14-.094Zm.231-3.6-.048-.046-.138.185.187.231.044-.092Zm.692,6.874-.508-.185-.371.738.279.231.185.092.231-.185.092-.046Zm-.185-3.646-.415-.046.044.233.279.136.277-.136Zm.321-.736-.369-.233-.231.233.323.183h.185Zm-.136,2.905-.371.046.094.277.092.092.185-.046Zm.644-1.89-.413-.185-.187.229-.136.325.136.046-.185.462.048.136.183.325-.046.09h.092l.046.046.048-.046h.044l.231.092.046-.323-.092-.046.138-.139-.182-.461h.323Zm-.785,5.259.048-.138-.048.046Zm.231-3.921.046.09H960l.229-.277-.185-.092Zm.415,1.982-.231-.046-.139.277.094.138.275-.092Zm.092-5.213h-.046l-.277.092.231.185.092-.138.233.369.044-.185.048-.277h-.233l-.092.046Zm.508-.877-.183-.277-.279-.369-.277.738.415.277.369-.231Zm.369,1.108-.229-.048-.14.233.14.092.183-.185Zm.092.921-.369-.046v.325l.185-.046Zm-.185-2.352-.136.508.275.231.415-.092-.183-.185-.048-.323Zm.371,1.015-.187.092v.231l.187-.092Z" transform="translate(-771.54 694.888)" fill="#fff"/></g><g transform="translate(53.878 26.954)"><path d="M906.577-699.821l2.109,4.284,4.725.691-3.422,3.33.8,4.707-4.224-2.226-4.228,2.218.812-4.705-3.416-3.336,4.726-.682Z" transform="translate(-865.27 699.821)" fill="#fff"/><path d="M894.74-698.664l1.35,2.742,3.024.442-2.19,2.131.514,3.012-2.7-1.424-2.706,1.42.519-3.011-2.186-2.135,3.025-.437Z" transform="translate(-874.704 700.986)" fill="#fff"/><path d="M915.941-698.644l1.35,2.741,3.024.442-2.19,2.131.514,3.012-2.7-1.424-2.706,1.42.519-3.011-2.186-2.135,3.024-.437Z" transform="translate(-853.367 701.005)" fill="#fff"/><path d="M885.36-697.925l.864,1.755,1.935.283-1.4,1.364.329,1.928-1.73-.912-1.732.908.333-1.927-1.4-1.366,1.936-.28Z" transform="translate(-882.557 701.729)" fill="#fff"/><path d="M923.738-697.89l.864,1.755,1.935.283-1.4,1.364.329,1.928-1.73-.912-1.732.909.332-1.927-1.4-1.366,1.936-.279Z" transform="translate(-843.933 701.765)" fill="#fff"/></g></svg>