<svg xmlns="http://www.w3.org/2000/svg" width="326.035" height="187.45" viewBox="0 0 326.035 187.45"><g transform="translate(-1171.641 -222.39)"><g transform="translate(1221.177 313.149)"><path d="M1201.643,287.053l2.334,5.455a34.635,34.635,0,0,0,6.017-6.185l2.7,1.507a56.358,56.358,0,0,1-7.629,7.213l1.624,3.795c.417.971.867.914,4.257-.538,2.081-.889,4.378-2.008,6.8-3.312l1.143,2.668c-2.312,1.192-4.078,2.017-6.5,3.052-4.2,1.794-5.331,2.145-6.333,1.966a2.9,2.9,0,0,1-2.019-1.979l-5.3-12.394Zm10.938-.8a18.664,18.664,0,0,0-3.179-2.52l1.264-1.216a20.415,20.415,0,0,1,3.2,2.42Zm2.076-1.948a19.6,19.6,0,0,0-3.175-2.568l1.237-1.116a13.92,13.92,0,0,1,3.13,2.361Z" transform="translate(-1198.728 -264.886)" fill="#fff"/><path d="M1223.687,278.479l1.964.861a11.326,11.326,0,0,1-3.257,9.48l-2.493-1.474a7.77,7.77,0,0,0,2.776-5.7l-13.38,4.4-.843-2.562Zm-4.861,6.536.532,1.617c1.79,5.569,1.366,8.2-1.915,11.571l-2.809-1.5a7.228,7.228,0,0,0,2.641-4.385c.188-.958-.08-2.507-.819-4.753l-.525-1.6Z" transform="translate(-1190.667 -266.663)" fill="#fff"/><path d="M1231.254,276.15l2.067,1.117a28.067,28.067,0,0,1-2.1,7.666,59.747,59.747,0,0,1,7.35,4.036l-1.554,2.814a63.742,63.742,0,0,0-7.006-4.29,24.154,24.154,0,0,1-6.613,7.721l-2.271-2.22A21.352,21.352,0,0,0,1230,279.232l-9.954,2.432-.64-2.621Z" transform="translate(-1181.592 -268.594)" fill="#fff"/><path d="M1246.018,275.794a21.988,21.988,0,0,1-2.739,10.676A18.521,18.521,0,0,1,1235.5,293l-2-2.253a16.14,16.14,0,0,0,6.828-5.2,27.9,27.9,0,0,0-5.259-2.529l1.362-2.31a26.764,26.764,0,0,1,5.219,2.3,15.978,15.978,0,0,0,1.223-5.4l-6.4,1.068a17.23,17.23,0,0,1-4.609,6.4l-2.222-1.732a15.243,15.243,0,0,0,5.263-9.416l2.954.181c-.1.457-.187.914-.386,1.726l6.73-1.125Z" transform="translate(-1173.109 -270.419)" fill="#fff"/><path d="M1248.077,281.344a30.926,30.926,0,0,1-6,3.583l-1.919-2.465a29.978,29.978,0,0,0,12.743-10.3l2.654,1.417a38.162,38.162,0,0,1-4.572,5.241l1.11,11.832-3.12.293Z" transform="translate(-1164.388 -271.898)" fill="#fff"/><path d="M1256.971,272.729l.089,3.69c.1,4.084-.02,5.912-.556,7.732a10.843,10.843,0,0,1-4.259,5.581l-2.152-2.333c3.526-2.535,4.146-4.252,3.919-10.883l-.09-3.712Zm5.292-.711.329,13.332c2.081-1.337,4-4.393,4.771-7.586l2.412,1.889a15.054,15.054,0,0,1-8.116,9.89l-2.03-1.527-.391-15.923Z" transform="translate(-1156.158 -272.018)" fill="#fff"/><path d="M1267.846,278.138a2.531,2.531,0,1,1-2.432-2.606A2.567,2.567,0,0,1,1267.846,278.138Z" transform="translate(-1145.639 -269.107)" fill="#fff"/><path d="M1282.7,273.884l1.6,1.723a28.193,28.193,0,0,1-4.453,6.576,59.841,59.841,0,0,1,5.653,6.183l-2.378,2.162a63.479,63.479,0,0,0-5.245-6.315,24.129,24.129,0,0,1-8.743,5.177l-1.434-2.833a21.342,21.342,0,0,0,12.827-10.163l-10.2-.905.24-2.683Z" transform="translate(-1141.567 -271.364)" fill="#fff"/><path d="M1296.46,278.705a21.994,21.994,0,0,1-6,9.246,18.531,18.531,0,0,1-9.46,3.714l-1.174-2.772a16.129,16.129,0,0,0,8.131-2.75,27.925,27.925,0,0,0-4.181-4.075l2.026-1.752a26.635,26.635,0,0,1,4.215,3.846,15.941,15.941,0,0,0,2.878-4.726l-6.41-1.028a17.259,17.259,0,0,1-6.41,4.6l-1.556-2.35a15.24,15.24,0,0,0,7.99-7.247l2.743,1.112c-.234.4-.468.806-.917,1.512l6.736,1.079Z" transform="translate(-1132.597 -270.862)" fill="#fff"/><path d="M1288.872,288.9c8.7,1.386,12.739-.7,16.254-8.414l2.1,2.354c-3.9,8.171-8.637,10.521-18.427,9.133Zm8.454-7.07a42.533,42.533,0,0,0-6.353-3.937l1.637-2.4a27.735,27.735,0,0,1,6.412,3.866Z" transform="translate(-1124.076 -269.139)" fill="#fff"/><path d="M1313.521,282.508l1.889,3.328c-2.948,7.39-7.143,9.8-15.671,9.04l-.658-3.021c7.258,1.119,11.15-.893,13.317-6.878l-12.031-3.875.827-2.564Zm6.15,1.044a2.528,2.528,0,1,1-1.611-3.175A2.543,2.543,0,0,1,1319.671,283.552Zm-3.555-1.123a1.2,1.2,0,1,0,1.518-.8A1.22,1.22,0,0,0,1316.116,282.43Z" transform="translate(-1115.557 -266.614)" fill="#fff"/><path d="M1317.626,284c.995-.71,1.516-1.1,2.026-1.514l2.566,1.5c-.426.318-.648.474-1.595,1.132l-.126.082,6.046,2.527-.975,2.335-7.673-3.208a29.9,29.9,0,0,1-2.769,1.518,6,6,0,0,1,3.217.311,3.078,3.078,0,0,1,2.052,3.105l.516.059,1.366.121,1.384.13,1.423.144.393.029.1,2.718c-2.5-.371-4.025-.536-5.757-.7-.289.913-.545,1.569-1.1,2.91l-2.707-.951.071-.172c.448-1.072.561-1.339.8-1.979-2.749-.093-4.151.2-4.462.944-.322.766.637,1.436,3.985,2.835,1.895.792,3.456,1.355,5.441,1.982l-.774,2.666c-2.228-.752-3.82-1.35-5.927-2.229-4.993-2.088-6.567-3.8-5.6-6.119.87-2.087,3.257-2.842,8-2.568,0-.7-.2-1.03-.735-1.253-1.244-.519-3.93-.225-7.114.781l-.8-2.447a29.13,29.13,0,0,0,6.163-3.021l-3.387-1.416.974-2.335Z" transform="translate(-1107.421 -263.811)" fill="#fff"/></g><g transform="translate(1225.329 343.075)"><path d="M1221.885,327.23a14.755,14.755,0,0,1-5.183,2.169,12.734,12.734,0,0,1-5.106.007,12.508,12.508,0,0,1-4.634-2.019,13.931,13.931,0,0,1-3.734-3.925l-.038-.06a13.23,13.23,0,0,1,.117-14.771,13.766,13.766,0,0,1,3.987-3.84,19.193,19.193,0,0,1,2.785-1.518,15.075,15.075,0,0,1,2.588-.863,12.35,12.35,0,0,1,2.527-.316,16.915,16.915,0,0,1,2.562.146l-.656,5.58a14.551,14.551,0,0,0-1.844-.126,9.669,9.669,0,0,0-1.73.152,9.023,9.023,0,0,0-1.726.5,10.541,10.541,0,0,0-1.805.951,6.625,6.625,0,0,0-2.083,2.121,7.831,7.831,0,0,0-1.041,2.745,7.963,7.963,0,0,0,.053,3,8.508,8.508,0,0,0,1.218,2.933l.042.062a9.015,9.015,0,0,0,2.26,2.434,7.767,7.767,0,0,0,2.782,1.3,7.4,7.4,0,0,0,3.014.1,7.97,7.97,0,0,0,2.984-1.207,9.008,9.008,0,0,0,3.654-4.219l-2.011-3.1-4.81,3.118-2.672-4.126,9.429-6.114,6.114,9.431a18.908,18.908,0,0,1-2.409,5.02A15.622,15.622,0,0,1,1221.885,327.23Z" transform="translate(-1200.998 -277.021)" fill="#fff"/><path d="M1214.535,301.445l18.114-7.174,1.865,4.707-12.889,5.106,1.933,4.881,11.342-4.493,1.865,4.709-11.342,4.493,2,5.053,13.061-5.176,1.864,4.709-18.284,7.244Z" transform="translate(-1189.779 -283.501)" fill="#fff"/><path d="M1236.825,298.7l-7.672,1.776-1.183-5.113,20.89-4.837,1.183,5.115-7.67,1.776,4.651,20.1-5.547,1.284Z" transform="translate(-1178.644 -286.604)" fill="#fff"/><path d="M1248.978,289.015l1.525,18.712c.245,2.988,2.42,4.656,5.7,4.389,4.567-.373,6.948-3.705,8.1-11.373l4.349,2.138c-.742,3.976-1.68,6.772-2.979,8.721a11.537,11.537,0,0,1-9.162,5.117c-6.364.518-10.281-2.657-10.77-8.668L1244.22,289.4Z" transform="translate(-1165.176 -287.857)" fill="#fff"/><path d="M1278.742,288.744l-.271,3.407,9.548.753-.305,3.857-9.548-.753-.231,2.924,9,.713-.305,3.855-9-.71-.314,3.985a50.965,50.965,0,0,1,10.525,6.4l-2.685,3.669a54.81,54.81,0,0,0-8.2-5.858c-.8,4.433-3.127,6-8.27,5.589-5.369-.422-8.537-2.906-8.257-6.441.285-3.6,4.089-5.5,10.133-5.022a20.859,20.859,0,0,1,2.273.309l.234-2.99-10.737-.847.306-3.859,10.737.849.231-2.926-11.443-.9.305-3.857,11.443.9.271-3.407Zm-6.393,20.323a16.058,16.058,0,0,0-2.743-.474c-2.765-.219-4.568.479-4.675,1.829-.1,1.255,1.412,2.182,3.791,2.37,2.507.2,3.551-.722,3.784-3.292l.033-.386Z" transform="translate(-1151.76 -288.382)" fill="#fff"/><path d="M1288.918,291.632l-4.616,18.185c-.735,2.906.783,5.186,3.969,5.995,4.438,1.125,7.769-1.256,11.342-8.133l3.42,3.429c-1.99,3.52-3.78,5.859-5.64,7.282a11.521,11.521,0,0,1-10.318,1.873c-6.186-1.569-8.862-5.839-7.379-11.682l4.6-18.123Z" transform="translate(-1136.107 -286.661)" fill="#fff"/><path d="M1308.888,300.46c1.013-1.3,1.664-2.207,2.86-3.886l3.908,2.515c-1.028,1.4-1.522,2.061-2.579,3.376l8.813,4.221-1.754,3.663-9.689-4.636a112.53,112.53,0,0,1-14.967,15.364l-3.5-3.286A112.074,112.074,0,0,0,1306.23,303.7l-5.616-2.688,1.754-3.665Zm8.714,30.2a50.334,50.334,0,0,1-5.434-2.173,31.194,31.194,0,0,1-6.852-4.352,4.84,4.84,0,0,1-1.039-5.609,6.3,6.3,0,0,1,2.954-2.805l2.366,3.422a1.938,1.938,0,0,0-.792.763,1.448,1.448,0,0,0,.009,1.4,13.212,13.212,0,0,0,3.576,2.388,55.071,55.071,0,0,0,6.722,2.683Zm-6.723-20.989a125.528,125.528,0,0,1,12.8,5.3l-1.639,3.793a121.729,121.729,0,0,0-12.45-5.137Z" transform="translate(-1125.596 -281.593)" fill="#fff"/><path d="M1315.947,326.479l-3.3,4.543-4.544-3.3,3.3-4.543Zm13.313-18.072-12.331,15.4-3.29-2.388,10.819-16.5Z" transform="translate(-1112.23 -274.675)" fill="#fff"/></g><g transform="translate(1283.91 271.584)"><path d="M1249.281,257.71l-.525.066h-.2l-.1.1-.327-.2h-.329l-.261-.36.033-.066-.327-.163-.064-.1-.23-.327-.2-.23-.064-.294-.066-.165v-.785l.066-.132.033-.2.228-.1.132-.23.229-.163.165-.1h.261l.492-.066h.13l.2.165.527.031h.2l.262.035.2-.066-.035-.263.23-.262-.033-.294.066-.262v-.132l-.066-.13.033-.035-.132-.327-.165-.132-.2-.229-.229-.163h-.13l-.329-.132h-.492l-.295-.261-.556.031-.263-.031-.229.1h-.1l-.327.064-.132-.064H1246l-.229.2-.066.033-.263.1-.325.064-.229.2-.3.066-.132.031-.261.2-.262.066-.165.1-.261.163-.1.1-.263.2-.26.165.064.033-.492.36-.2.1-.327.327v.1l-.36.36-.393.262-.131.262-.2.2v.132l-.327.2-.2.393.033.132-.424.393-.068.2-.163.2-.066.1.033.033-.294.525-.033.1-.23.23v.457l-.325.263-.134.033-.064.556-.36.721-.035.2-.064.165-.132.229v.426l-.2.393v.229l-.1.459-.132.294v-.033l-.1.558-.132.2.066.36-.033.23-.1.064.033.426.033.165-.033.294-.033.2-.13.066.1.589.1.327v.327l-.066.23.164.36.033.2.066.492.1.165.161.327-.031.1.2.3.132.163.066.066.327.426.132.229.326.229.133.1.031.2.428.066.163.064.261.033.066.132h.294l.3-.033.325.132.23-.033.064-.033h.362l.23.066.358-.1h.066l.329-.1.13-.1.066-.033.327-.066.2-.033.2-.132.1.066.3-.262.2-.1.261-.066.164-.13.066-.165.426-.229.165-.033.26-.263.165-.2.1-.066.2-.294.295-.2v-.1l.263-.263.165-.261.165-.165.163-.261.066-.2.294-.3.13-.229.2-.459.2-.13.13-.36.066-.23.132-.556.163-.2.2.033.261.165.066.262v.033l.1.327.034.327.2.23.064.294-.031.294.031.033-.064.294.1.23-.035.262v.2l-.031.165-.1.163-.031.459-.035.132-.1.294v.066l-.13.294v.165l-.165.261-.1.295-.261.393-.064.132-.2.229H1248l-.262.327-.033.132-.294.263-.068.2-.229.163-.163.066-.163.23-.1.163-.329.1-.2.23-.2.163-.229.1-.132.064-.1.1-.556.229-.163.163-.36.066.031.033-.393.163-.36.068-.36.1-.294-.066-.2.165-.2.1-.393-.033-.424.1-.134.1-.49-.1-.393.033-.13.033-.362-.066-.23.066-.26-.033h-.231l-.2-.033-.424-.031-.066-.033h-.36l-.3-.1-.13-.066-.165.066-.36-.2-.1-.035-.163-.033-.36-.13-.066-.2-.36-.031-.163-.066-.2-.066-.23-.23-.2-.1-.13-.2-.393-.2-.132-.23-.229-.13-.066-.066-.033-.165-.36-.294-.132-.229-.132-.066-.165-.294-.1-.393-.1-.033-.229-.393-.033-.36-.1-.2-.066-.36-.033-.1-.132-.031L1233.2,268l-.031-.492.031-.688-.13-.294.031-.165V266l.033-.1-.1-.492.066-.393-.031-.1v-.327l.064-.2.066-.13.066-.426v-.261l.064-.426-.1-.1.2-.393v-.165l.066-.262.165-.229.13-.132.033-.36.066-.393-.1-.13.294-.426-.1-.033.261-.492-.031-.2.26-.329.1-.163.035-.132.064-.294.261-.36.033-.132.231-.426.1-.261.13-.2.1-.13.163-.23.1-.261.165-.033.2-.492.132-.064.164-.3.163-.229-.033-.163.231-.2.13-.132.165-.393.393-.229-.033-.066.393-.426.13-.033.2-.36.066-.229.36-.165-.066-.1.36-.2.229-.229.066-.2.362-.066.163-.229.327-.2.1-.13.229-.229.132-.068.294-.2.066-.033.262-.229.2-.066.264-.229.13-.132.362-.1.2-.132.033.035.3-.2.359-.132.1-.033.262-.229.294.033.231-.163.033-.035.36-.13.2-.066.36-.033.228-.132h.327l.3-.163.295.064.163-.064.231-.066.294.033h.2l.295-.033-.031.1.393-.1.523-.066.36.1.165-.033.327.066.426.2h.064l.329.165h.294l.36.2.132.1.391.327.329.132.163-.033.164.294.2.066.1.165.132.36.261.13.1.1.035.2.228.362.1.13.066.1.031.294.068.132.064.36.066.163v.327l.033.068-.033.457-.13.1.064.294v.3l-.132.261-.1.163-.1.262v.068l-.2.391-.131.165-.165.36h-.295l-.066.327-.261.2-.1.033-.064.229-.459.165-.23.13-.2.165-.2-.132-.492.165-.391.031Zm-15.693,7.044-.1-.068-.031.2.031-.033.132-.066Zm0,2.685-.066.1.033.2.066-.1Zm.033.329-.066.033v.031Zm.525-1.311-.263-.066.033.459-.1.163.329-.163Zm0-2.524-.3.165.033.132.13.163.2-.2Zm-.1-1.472-.132-.066v.066l-.033.2.2-.033Zm.229,3.372-.328-.031-.033.2.2.1.13-.033Zm.1,3.244-.229.066-.033.2v.132l.229-.066Zm.132-7.928h-.165l-.033.1h.132Zm.26,1.933h-.2l-.163.163.163.2.132-.132Zm.23-1.606-.426-.066-.033.263-.1.2.165.165.26-.066.131-.132Zm-.2,6.094-.164-.033v.033l-.1-.033-.031.165.064.031.165.1.2-.064Zm.36-2.1-.1-.294h-.362l-.1.229-.035.066.2.261-.2.229V266h-.033v.165l.132-.066.165.163.23-.13.229-.1-.033-.327h-.035Zm-.492.457-.1.066.1.1h.033Zm.033,1.639h-.066l-.066.163h.066l.066-.064Zm.064,1.671-.2.064.1.033Zm.035-1.377-.132.066-.064.066.2.1.064-.066Zm.13-5.634-.13-.033-.164.132.229.132.131-.066Zm-.066,2.359v-.033l-.163.13.163.165.131-.066Zm.066,5.406-.165-.066-.031.262.066.033-.035.066.2.132.1-.132-.035-.2h-.1Zm-.031-4.784-.066.066v.165l.066.066Zm.229,1.672-.132.033-.1.132.2-.035Zm-.033,4.128-.1-.066h-.066l.2.229.1-.064Zm.2-7.141-.2-.033.033.2h.033l.163.064Zm.1-4.521-.066.033-.163.391.261-.033.165-.13.031-.294.066-.033-.163-.2Zm.362,8.156-.134-.13h-.294l-.13.294.294.229.13-.033h.165Zm-.2-6.159-.294.066-.035.229h.2l.066-.1Zm-.066-.426-.1-.064-.13.132.13.13.164-.1Zm.424,8.551.1.033v-.261l.329-.23v.033l.2.033.132-.033-.066-.13-.2-.132v.033l-.066-.1v-.033l.165.132.2-.1-.132-.294-.229-.132-.033.132-.327.033-.2.066-.2.13-.1.132v-.033l-.2.13.066.035-.035.163.132-.066.033.165.229.163.035.066v.2l.13-.031Zm-.2,1.867-.261-.033h-.163l.261.263.064-.1Zm-.13-6.682-.229.1.26.262.035-.262Zm.261,1.245-.327-.2-.131.327.066.066-.066.163.2.132.261-.033-.033-.2.1-.1Zm-.261,1.048-.132-.033-.066.229h.164Zm0-6.454-.165-.132.066.1.033.033.132.1Zm-.1,8.288-.066.066.033.163Zm.164-4.587-.066-.066-.1.132.13.1.2-.1Zm.424-2.557-.165.035.263-.23-.13-.262-.231-.1-.131-.1-.13.424.163.229.066.1.066-.031v.1l.132.1.066-.066Zm.2-1.112-.064-.165.2-.1-.066-.165.031-.132h-.13l.066-.066.327-.064-.066-.362-.261-.033h-.2l-.064.1-.1.132.13.229.165.066h-.066l-.033.1.033.1-.066.1.1.1-.329-.132-.229.329.163.163.165.2.295-.2Zm.066,6.028.165.2-.1.033-.1.132.064.033.1-.066.035-.132.031.033-.1-.294.031-.262-.229.229.033.066-.264-.1-.2.2-.163.13.359.165.1.064h.132Zm-.558.523-.1-.031-.031.064.1.132.1-.066Zm.066,3.506h-.066l-.13.132.064.066.132-.066Zm.426.754-.165-.294-.393-.1-.064-.066.13.294.1.165.262.132Zm-.426-1.9.064.033.068-.1-.3-.13.033.1Zm.72-6.289.066-.033.1-.23v-.066l.066.035.1-.1.031-.2h-.2l.066-.229-.066-.033-.426-.163-.261.13-.133.2v.424l.035.327-.035.066.263.263.035-.033v.066l.064.1.2-.033-.031-.262.2-.066Zm-.261.1.261-.1-.064-.2-.263-.1h-.2v.13l-.1.229h.13Zm-.2,2.262-.163-.033.064.1Zm.2-7.6-.2.035-.064.163.064.165.165-.1Zm.2,6.781h-.2l-.132.263.1.1.033.163.163-.031-.031-.132.1-.066Zm-.295-1.178.13-.1.1-.033v-.033l-.2.033Zm.064,3.014.066.033v-.033Zm.164,4.684-.132-.13-.033.163.066.1.13-.033Zm-.132-2.783v.229l.033.033.066-.261Zm.229-10.221-.13-.1-.066.261.2.1.1.066Zm-.13,3.374-.066.064.031.068Zm0,7.24-.066.2.13-.1Zm.1-4.718V264l-.066.1Zm1.375,5.7-.2-.2-.066-.031-.261.031-.066.035-.327.391-.229-.1-.066.165h-.066v.031l-.1-.031-.035.327h.035l.325.229.165-.165v-.1l.064-.066V270l.329.294.165-.2h.064l.132-.035.262-.1Zm-1.18-1.606-.033-.1-.1.262.2-.066Zm.13,1.8-.163.1v.031h-.066l.033.033h.13Zm.229-12.22.067-.1h-.459l-.033.393.2.033.2-.066Zm-.326,4.782-.066-.033-.033.262.1.033Zm.229,3.8-.294.132h.1Zm-.033,5.241h-.229l.13.1Zm.13-12.908h-.26l-.066.1.2.165.1-.033Zm-.13-.262-.165-.033.035.165.1.031.064-.031Zm.2,2.131-.3-.066-.031.033.13.163.165-.033Zm0,.916-.327.066v.1l.1.2.161-.13Zm-.229-5.5h-.035l.035.2Zm.161,5.111-.2.1.263.132Zm0,10.089h-.13l.033.165.132-.033Zm-.031-4.519-.066.13.066.1.066-.033Zm.36-9.764-.165-.033-.229.2.229.1.132-.1Zm-.13,15.234-.165.066.066.163Zm.13-3.866-.229-.031.033.1-.033.2.262-.1Zm0-6.781-.165-.033.035.1v.165l.13-.1Zm.393,7.535-.328-.033-.066.066.165.23.2-.1Zm-.2-9.369-.13.165.163-.068Zm.3-.492h-.3l-.031.033h-.066l.066.066.1.066h.325l.294-.066v-.23l-.294.066Zm-.2-1.081h-.165l.035.132.13.1.066-.1Zm.13,12.94.164.163.165-.1.165-.229-.035-.329h-.066l-.457.1-.066.23.066.1-.1-.1-.134.358v.165l.393-.1Zm-.064.655-.132.066-.064.132.13.132.1-.165Zm.033-.655-.2.163.132.033Zm.066-14.414-.2-.066v.23l.13.13v-.13Zm.492.819v-.132h-.033v-.066l-.3-.066-.13.066-.132.1.064.229.23.327.263-.2.1-.066Zm-.591,13.529.064.066v-.033Zm.163-11.794h-.031l-.033.033Zm.035,13.727h.064l-.033-.033Zm.393-15.462-.033-.1v-.033h-.165l-.033.2.033.13-.033.165.2-.1.033-.1h-.033l.033-.1Zm.066,12.547-.2.033.035.1.066.163h.327Zm.1-13.268-.163.031-.068.165.068.165.294-.165Zm.3-1.048-.134-.068-.13.165-.1-.1-.031.262.1.165.2-.1v.033l.229.132.066.066.033-.066.23.23.1-.132.1-.163.1-.132-.066-.165-.2-.066-.066.066-.327-.23-.033.263Zm-.134,16.739-.1-.033-.1.1.2.066.1-.066Zm.362-.327-.2-.229-.13.393.163.2.1-.068.068.1.066-.2.1-.066Zm.525-17.887.031-.327-.295.033-.132.1-.1-.132-.1.066-.13.132.13.1h.035l-.035.033.133.033.262.2.229-.064Zm-.428.066h-.031l-.2.163.229.1.066-.1Zm1.081,16.936-.163-.031.2-.132-.133-.033-.554-.13h-.134l-.13.2.066.13.163.132-.523-.066-.1.2.1.132.294.031.263-.13-.134-.165.165.1.1-.165.263.459.229-.262Zm-1.276,1.147.031.033.133-.1.031-.1-.165.033Zm.229-18.344-.13.1-.033.064.2-.13Zm.721,18.313-.031-.2.064-.229-.2.033.033.13-.1-.031-.327-.1-.064.262-.068.2.033.068-.1.229.263.033.13.033v-.033l.23-.1.13-.1Zm-.655.132h.035v-.035Zm.329-18.674h-.134l-.161.13Zm-.035,16.739v.165l.2-.033Zm.264-17.1h-.132l-.1.033.2.2.064-.033Zm.164,1.737-.329-.1-.033.294.1.165.328-.066Zm-.134,17.657h-.13v.2Zm-.064-.754.1.033v-.033Zm.327-19-.1-.068h-.13l.2.263.1-.165Zm-.033,18.116-.066-.1-.031.163-.035.066.2-.066Zm.229,1.048-.325-.1.031.262.164.165.163-.1Zm-.066-18.379h-.2l.033.23-.033.1.294-.13Zm.23,17.692h-.1v.163l.2.1Zm.295-.329-.165.329.2.1h.1l-.1.1.066.1.327.13.163-.1-.031-.327h-.23l.2-.132.035-.262-.1-.033-.033-.033h-.229l-.2.1-.229-.033Zm.132.426.132-.031h-.035l.1-.066h-.13Zm.426.721-.2.066v.1l.1.1.1-.1Zm.2-1.571-.261.033-.1.066.13.163.23.033Zm-.1,1.178h-.068l-.1.132.132.066.033-.033Zm.294.689h-.033l.1-.132v-.132l-.1-.064-.132.2.1.132-.163-.066-.2.165.164.064.231-.064Zm0-20.279-.2-.066-.066.3.1.064.261-.1Zm.36,19.133V271.3l-.393-.132-.231.426.165.2h-.033l-.1.1.13.066.295-.035-.13-.1.1-.066.161-.033Zm-.263-20.016h-.163l-.033.2.1.163.262-.13Zm-.2,20.343.066.066.1-.033-.066-.066Zm.72-19-.3.033-.1.033-.261.229v.1l-.033-.033v.294l.1.066.035-.1v-.033l.327-.294.2-.1Zm-.655.393.033.262.066-.066v-.163Zm.523,17.4v-.066h-.1Zm.656-18.542-.164.1-.13.229.13.066.132-.132Zm0,18.346h-.1l-.033.1.066.1.033.263.13.1.068-.163-.068-.165-.1-.033.031-.1Zm.523.883h-.426l-.1.165.13.36.393-.2Zm-.1-20.245-.163-.066-.033.262.1-.033.263.033Zm.558.785-.229-.2-.165.263-.033.13.229.165.231-.263Zm-.163,20.9-.165-.066-.1.13.1.1.165-.1Zm.064-1.017h-.031l.2-.1-.066-.13.1-.033-.033-.1-.229-.066-.1.132-.033.132.1.163h-.1l-.1.132.295.033Zm-.064.033.033-.033h-.068Zm.327.622-.165.033-.033.23.132.1.132-.132Zm.261-20.31-.132.033-.229.163.294.066v-.163Zm0-.294h-.165l-.1.031.13.132.1-.031Zm.262-1.083-.2.066-.1.1.163.1.1-.066Zm.2,19.69-.165.1.132-.031Zm.294-.329-.165-.064-.1.163.165-.031h.1Zm-.033,1.509-.132.033-.066.1.066.1.033-.033Zm1.147-.591.033-.262-.231.132-.031.1h-.033l-.033.033v-.033l-.066-.294-.328.066h-.033v-.2l-.2.165-.1-.033-.066.1v.1l-.066.033-.064.1.064.327.066.1.295.229.23-.163.229-.2.1-.066.1.132.068.033Zm-.591-.1v-.165h-.13l-.1-.033h-.1l-.165.165v.13l.2.261.2-.1Zm.035-.951-.2.1-.229.2.294.033.165-.13Zm-.066,1.735-.132.033-.033.066.033.165.2-.1Zm.424-2.39-.2-.2.1.261h.033Zm-.1,1.7-.033.1.1.13.066-.064Zm.1-2.293-.064.132.033.132Zm.329,2.687-.165.1-.1.1.131.033.165-.1Zm.951-3.146-.2.035-.132.031.261.23.165-.033Zm.2-1.6-.035.033-.161.13.161-.1Zm.033.261-.1-.066-.13.2.1.068.262-.068Zm.49-16.38-.13-.033-.132.132.163.033.134-.066Zm.393,16.51-.262-.1-.165.327.3.132.2-.2Zm.1-10.285H1248l.393.2Zm-.163,8.91-.066-.1-.132.13.1.066v.1l.163.064-.033-.1.1-.066Zm0-.459-.134.165.134.1Zm.229,1.017-.033-.132L1248.3,266l-.033.165-.1.2.1.1h.165Zm.165,1.8-.2-.033h-.066l.1.165.2.031Zm.13-1.245h-.2l-.163.132.163.13.033.132.2-.033v-.2l-.033.066Zm-.13-1.736-.165.033-.033.1.13.23.165-.1Zm.031-8.092-.13.1.229.132.033-.066Zm.2,7.895-.165.23.066-.033Zm.132-14.382-.034.066-.163.1.163.163.066-.2Zm.295,6.684.163.033-.1-.327h-.163l-.2.2.031.033Zm.163.033.165.064.1-.064-.066-.1h-.1Zm.2-1.606.2-.2-.1-.033h-.165Zm.525-3.669-.066.229.066-.033-.031.033.163.163h.164l-.033-.229-.165-.066Zm.918,1.832-.23-.358-.13-.362-.033.362.033.589-.066.1.033.262-.066.229.132-.031.165-.2h.066l.2-.492Zm-.066-.721-.13.068-.035.064.1.033Zm.36-1.147-.132.2.23.229.13-.1Z" transform="translate(-1233.031 -249.29)" fill="#fff"/><path d="M1254.8,252.165l.064.36.066.165-.033.2-.1.294-.035.262-.13.263-.1.327.033.2-.1.2v.1l-.163.393-.1.294-.132.2.035.2-.329.393.066.033-.23.294-.033.2-.229.391-.163.165-.068.36-.2.294-.1.2.134.1-.459.424-.068.3-.13.13-.066.2v.2l-.262.329-.033-.068-.1.393-.164.3.1.033h.132l.393-.329v-.1l.558-.2.13-.2.263-.066.326-.1.132-.1.36-.132.2-.033h.165l.165-.132.426-.163.294.064h.1l.329-.031.294.031.066-.031.294.163.327-.033.2.1.1.033.165.1.492.2.13.2.035.1.163.229.3.294.161.1v.949l.068.492.066.2.064.066-.13.2-.068.424-.031.2-.165.229-.033.329-.1.2-.1.066v.294l-.2.36-.164.263-.1.2-.13.132-.165.49-.165.2-.13.165-.035.229-.163.163-.165.263-.13.393-.132.2-.033.165-.261.163.1.3-.325.391-.23.263-.1.163-.1.033-.163.558-.2.36-.132.262v.066l-.066.327v.066l.033.2.165.362.327.13.261-.066.362.1.325-.033.2-.033.262-.1h.1l.36.294-.033.229-.1.294-.1.2-.1.165-.131.13-.2.165-.132.229-.033.066-.327.2-.132.165h-.295l-.36.163-.2.165-.49.066-.393.066-.294-.033-.294.1-.3-.033-.294.064-.4-.13-.161-.1-.23-.066-.2.066-.1-.2-.261-.262-.231-.163v-.066l-.2-.263-.068-.229-.13-.165.066-.589.033-.229.031-.1v-.459l.1-.163v-.2l.035-.165.064-.229.165-.2v-.229l.261-.36.066-.262-.066-.033.328-.591.36-.424.2-.23.066-.424v.064l.262-.426.1-.163.064-.165.131-.426.2-.2.1-.165.261-.2v-.393l.2-.327.2-.165v-.2l.13-.2.066-.2.2-.165.163-.393-.064-.2.2-.23.13-.36v-.1l-.1-.263V261.7l-.165-.2-.163-.163-.132-.066-.3-.165h-.294l-.1-.064-.229.1-.1.033-.165.066h-.263l-.294.23h-.2l-.2.2-.1.066-.2.165-.391.294-.165.1h-.165l-.1.294-.327.3-.327.261-.1.23-.1.13-.393.36-.13.165-.066.1-.262.362-.163.2-.165.263-.2.229-.1.393-.033.2-.165.165-.2.066v.49l-.164.132-.2.1v.393l.031.1-.327.329-.13.033-.164.49-.066.23-.165.327-.1.163-.163.294v.1l-.231.327-.132.2-.163.262-.066.294v.066l-.2.3v.13l-.327.327-.066.23-.1.261-.161.2-.067.295-.2.031-.132.492-.163.1-.294.2-.295.066-.23-.066h-.362l-.2.1-.359-.132h-.362l-.1.132-.393-.1-.23.066-.229-.163-.132-.165-.033-.327.165-.229.2-.295v-.1l.165-.3.163-.229.034-.2.2-.358.163-.1-.064-.23.325-.391v-.165l.2-.165.165-.393.031-.163v-.23l.263-.229.066-.132.13-.2.132-.23.261-.294.035-.393h.13l.1-.492v-.033l.261-.326.064-.329v-.13l.2-.23.1-.229.132-.229.229-.327.132-.165.13-.36.066-.165.132-.163v-.033l.13-.624.23-.163.033-.066.131-.2.064-.327.23-.2.13-.261.1-.3.13-.2.066-.2.263-.294-.066-.36.262-.2.1-.13.1-.165.164-.2.1-.393.1-.165-.065-.031.294-.492.165-.23.13-.294.035-.163.163-.263.066-.066.13-.294v-.2l.329-.525.2-.262.164-.261.1-.3.13-.163-.033-.262.261-.494.165-.064.033-.327.1-.263.13-.229.033-.132.131-.2.033-.36.066-.23.033-.2-.033-.066.064-.36.066-.165-.031-.163.064-.132v-.36l-.033-.36v-.2l.033-.2-.163-.36-.165-.165v-.229l.033-.229-.229-.3.031-.229.2-.229.786-.033h.655l.165.066.262-.033.294.1.294.2.393.132.1.262.263.13.066.165.2.033.033.426.066.165.064.2.132.23-.066.13.033.294.033.2Zm-10.974,18.509-.035.033-.163.1.1.1.1-.033Zm1.766-1.67-.325.033-.068.163.23.23.132-.1Zm-.031.622h-.164l-.033.066.033.13h.164Zm.066-2.555-.035-.033-.031.066Zm.2,1.212v-.066l-.164.1.1.132.13-.066Zm.688-1.606.033-.1-.36-.066-.2.229-.1.1.2.165.23.132.2-.033Zm-.525,1.8-.064.261.1.132.13-.262Zm.329.984-.164.031-.066.066v.165l.2-.066Zm.459-4.259v-.3h-.034l-.064.2-.2.2v-.031l-.163.064v.165l.163.033.132-.066h-.033l.163-.1.2-.066Zm-.23.262h.033l-.1-.165-.064.1Zm.36,3.145-.13.1.064.1Zm.393-5.144h-.1l-.1.132.1.033h.131Zm-.2,4.751.031.1.165-.294-.165.066Zm.2-5.013-.165-.066v.132l.1.13.1-.031Zm.263-.819-.068-.033-.1.165h.23Zm.163-.393-.033-.033-.064.1Zm.261,2.851h-.163l-.2.13.2.066.163.1Zm-.163-2.59-.164.066.033.066.131.132Zm.523.23-.13-.033-.329.066-.228.13.327.36.165.033.13-.066-.031-.031.13-.066Zm-.165-.918-.228.1-.1.132.261.1v-.165Zm.068,2-.2-.132-.165.1.264.163Zm-.263-.558h.035l.229-.064-.068-.165h-.1Zm.492.721-.033.068-.165.064.2.132-.033-.165Zm-.163,2.262v.031l.064-.13-.1-.066Zm.325-2.458-.1.033-.066.066.131.064.165-.064Zm0-.294-.13.132.033.064Zm.23.622-.131.1-.1.033.1.163.165-.13Zm.033-.688-.229.033.13.132Zm.294-3.178h-.13l-.1.132.064.033h.165Zm0,3.08-.165-.1-.064.23.064.132.231-.132Zm.327-1.474h-.064l.031-.066-.1.033-.13-.033-.165.362-.031.031.326.36.329-.2Zm-.163-1.015-.131.033v.1l.1.132.1-.132Zm.2-1.672h-.294l.261.165Zm.033.885-.229.033-.066.229.066.165.229-.1Zm-.13,1.8-.068-.033-.066.033.134.1Zm0,1.507h-.1l-.035.066.1.1h.132Zm.688-1.9-.1-.229-.459.033-.1.2.131.165.2.163.163-.1-.1.2.165.132.13.132.393-.165-.13-.329.13-.031-.163-.36-.132.033Zm-.362,2.26-.1.1-.164.1.066.163.2-.2Zm-.064-4.521-.066.165-.033.13.262.033Zm.162,3.767.426-.229-.426-.066-.064.262.031.132Zm.329-3.473-.2-.064-.132.1.165.066.165-.033Zm.163-1.147-.262-.163-.1.327.132.066-.165-.066-.064.1.13.165.066-.165.033-.031.1.1.165.031.033-.262h-.066Zm.033,2.164-.262.033-.132.327-.033-.033-.033.033.033.1.131.035v-.035l.229.066.2-.163Zm-.231-.852-.2.033.033.064.033.132.2.066Zm-.163,1.212v.033l.1.064.064-.1Zm.229.754-.165-.033.134-.033Zm.228-2.425-.163.033-.066.2.131.1.163-.033Zm.134.72-.035.2-.229.165.229.326.36-.2V259.9Zm.13,2.719h-.1l-.165.163h.2l.1-.064Zm.132-4.587-.132.033.033.132.066.1Zm.2,2.524-.1-.066h-.035l-.13.066.1.064v.066l.066.2.229-.132Zm.229-4.556-.132.033-.033.2.066.066.261-.033Zm-.1,5.243-.033.163.163.165.132-.1-.033-.261Zm.589-7.077h-.261l.033.132.033.033.23-.033Zm-.031,7.666-.134-.1-.064.165.165.163.1-.163Zm.2-5.013h-.13l-.2.2.165.033h.2Zm0,14.219-.13-.132-.165.23.2.1h.229Zm-.13-.492-.133.033v.263l.164.031Zm.064-14.972h-.064l-.1.165.13-.033.033-.064Zm0-4.29h-.033l-.1.132.066.163.2-.066Zm.165,1.933h-.1l-.2.2.2.132.1-.066Zm.066-2.785-.164-.033-.066.132.2.165.066-.068Zm.13.655-.229-.033.1.23.064.2.23-.132Zm0,6.75-.2.031.1.132Zm.294-3.113-.066-.033.1-.132-.033-.1.13-.3-.391.066-.2-.066v.327l.2.2-.033.327.13.165.263-.066Zm-.424-4.521.1.2.228-.1h-.066Zm.393,4.192-.165-.031-.131.229.131.132.165-.1Zm.36-3.405-.3-.132-.1.165-.064.393h.358l.165-.23Zm-.36,10.056-.1-.033v.263l.064-.1Zm.26-4.521-.13-.132-.066.3.1.066.068.1.162-.064-.031-.033.1.033Zm.035,11.925-.23-.066v.261l.033.033.229-.033Zm-.134-18.118-.031.132.13.066.131.033-.066-.2Zm.3,4.556h.1v-.23l-.231-.132-.066.2-.031.13.131.329.163-.2Zm-.068,0h.068l-.035-.132-.165-.033v.066Zm.068,5.9.064.033-.033-.033.033-.033.132-.066v-.033h-.1l-.1.066-.035-.132-.064.132.031.033-.1.066.066.066Zm.523-6.814-.393-.1-.13.132-.134.163.1.1.2.165.133-.066.1.1.2.031v-.294l-.035-.033Zm-.327-.492h-.23l-.064.132.163.163.294-.163Zm-.1,2.063h-.165v.165l.068.066.1-.066Zm-.1,5.243H1253l-.031-.066-.068.033Zm1.21-8.584-.131-.031-.066-.327-.2-.132-.1-.327v-.1l-.031-.1-.264-.163.033.1.033.263.163.033-.13.033-.165-.033.066-.033v-.23h-.294l-.1.165.229.163.1-.064.033.1.132.132v.066l.031.262.066.033.033.36.035.033.1.2.131-.033.2.1v-.36Zm-.982,3.473-.1.033-.1.132.1.033Zm-.033-.785-.066-.035-.033.165.033.132.2-.1Zm.393,13.463-.132-.1-.131.165.066.1.2-.033Zm-.035-16.9h-.031v.2h.031Zm.656,17.657h-.131l-.262-.1-.2.459.329.23.163-.066.2-.263Zm-.557-17.69h.066v-.033Zm.426.753-.36-.165-.031.36v.033l.229.165.2-.066V252.1Zm-.2,15.069v-.1l-.2.2Zm.066-13.235-.2.033.033.064.066.23.1-.132Zm.163.523-.261.066.033.1.066.033.1-.066Zm-.064-1.309-.165.229.1.2Zm.2,6.518-.066.132.033.066.132-.13Zm.1,6.618-.1-.066-.066.165.066.066.163-.1Zm0-13.235-.066.132.229.033v-.1Zm1.7,10.746-.035-.426-.165.066v-.033l-.1-.033-.1.132v.033h-.033l-.1.262v.064l-.066.165-.13.1-.13.262-.1.229-.23.165-.031.329v.064l-.23.327-.132.2.263.1.262-.2-.066-.229.066-.033.1-.1v-.13l.1-.035.13.1.229-.064-.13-.165-.1-.066-.1-.2.2-.068.2-.327.1-.13.23-.2.163-.132Zm-.918,2.849-.23-.2-.163.163-.132.2.36.294.328-.261Zm-.132-.885-.2.068v.13l.231-.033Zm.492-5.667-.2.066.1-.066.13-.163-.031-.1-.525-.064.066.1v.066l.066.033.13.2-.1-.033-.2.3.328.13h.23Zm-.558,4.883.132-.165-.033-.066Zm.328-5.144-.228-.033v.066l.066.1.064-.033Zm-.2,4.881.131-.031-.066-.1-.033.031Zm0,3.08.2-.36-.13-.1Zm.294-2.489-.163.033.1.163v.033l.1.132.13-.1-.13-.13h-.033Zm.066,1.213-.229-.066.064.229.131.033.064.066Zm-.033-.23-.165-.1.033.1.033.165.163-.132Zm.229-3.963-.1-.033.033.066-.033.163.2-.033Zm-.1,1.538v.033l.165.263h.033v-.165l-.164-.229Zm.3-2.324-.165.1-.064.1.1.165.033-.1Zm.031,1.9-.2.1.066.031.13-.064Zm.428,1.573-.3-.165-.1.36-.1.066.393.36.13-.36Zm-.165-2.2.165-.13-.229-.327v-.362l-.165.033.1.263.033.294-.064.2-.1.229Zm.36-2.26-.294-.064-.13.358.13.1.294-.1Zm.165,2.326-.36-.132-.068.393.165.263.523-.1.231.132.033-.263.066-.294-.426-.033-.033.165-.031-.1h-.068v-.066Zm-.035-.688-.163.033-.033.165.132.064.13-.033Zm.1.721h-.033l-.031-.033-.132.23.163.064.132-.13-.033-.033Zm.459-1.213-.1-.033.133-.1-.1-.2-.23-.033-.1.132.2.165-.327.064-.1.165.294.393.131-.132.294-.064Zm-.459-2.162-.13.066.066.1Zm.2,4.718.231-.362h-.262l-.066.068-.2.326.294.2Zm-.229,1.505.068-.1h-.068Zm.132-6.289.1.165.068-.066Zm.59,1.212h-.165l.13.1Zm.262.163-.229-.064v.294l.2.033.13-.033Zm0,.624h-.163l-.066.165.2.064.066-.064v-.033l.163.064h.066l.033-.229h-.163l-.132.066Zm-.132,2.719v.033l.066-.132Zm.362-.918-.035.033.066.066.033-.132Z" transform="translate(-1225.634 -249.052)" fill="#fff"/><path d="M1257.155,269.442l-.459-.132-.165-.1-.163.132-.558-.165-.132-.064-.26.033-.23-.165-.163-.1h-.4l-.261-.229-.132-.066-.13-.1-.327-.163-.165-.132-.165-.229-.229-.23-.033-.132-.2-.229-.1-.1-.165-.294-.033-.132-.163-.326-.1-.3-.064-.163-.035-.23-.031-.064-.1-.558-.033-.261-.033-.2.066-.2-.165-.327.066-.36.066-.294h-.033l.033-.523.132-.23v-.2l.031-.23.132-.393-.033-.13.165-.426.1-.23.1-.1-.066-.262.3-.362.064-.2.165-.327-.033-.066.229-.23.1-.36.263-.294.1-.163.068-.165.26-.1.1-.36.262-.295.165-.13.2-.165.1-.2.229-.229h.165l.263-.327.1-.132.3-.229.031.064.295-.391.294-.165.264-.165h.2l.231-.163.2-.229.228-.068.23.068.229-.263v-.163l.49-.132.3-.033-.033-.033.424-.1.035-.066.229-.031.459-.1.13-.033h.294l.2-.033.36.066h.295l.23.033.327-.066.294.033.132.13.393.033h.13l.362.23.229.033.163.163.132.033.261.165.2.1.2.3.2.066.1.294h.133l.13.426.13.163.035.327.13.23-.033.229.1.261-.031.068.1.2.132.36-.132.459.064.033-.2.589-.033.294-.066.23-.13.229-.035.262-.2.3.1.1-.327.262-.1.1-.066.2-.26.13-.329.23-.13.163-.2.132-.132.1-.459.165-.163.1-.1.066-.786.132-.229-.033.031.064-.852-.031h-.62l-.263-.066-.327-.033-.2-.1-.329-.2h-.229v-.2l-.327-.261-.229-.23h.031l-.229-.262-.031-.262-.068-.1V260.7l-.066-.262.034-.033.064-.329.2-.1.2.1.329.033.161.2.4.1.1.1.327-.033.031.132.4-.1.2-.064.163-.068.492-.13.459-.229.23-.165.163-.165.23-.163.13-.327.165-.033v-.327l.1-.362-.033-.326-.035-.2-.13-.294-.066-.132-.2-.327-.1-.132-.36-.064-.132-.23-.294.132-.261-.066-.165-.033h-.163l-.23.1-.163-.066-.3.229-.162.033-.329.165h-.2l-.163.2-.261.23-.068-.066-.229.295-.23.2-.13.229-.13.2-.36.13-.165.261-.1.165-.229.393-.23.163-.033.23-.294.262-.1.263.064.2-.294.327-.066.263-.2.294-.035.13-.064.132-.132.294-.13.36-.035.1-.163.393v.622l-.033.132-.163.2.163.426v.492l.132.327.13-.066-.031.492.229.263-.1-.1.329.36v.2l.457.1.066.033.329.2h.229l.261-.031.393.031h.2l.132.066.393-.1.1-.033.23-.033.164.066.457-.329.132-.1.064.064.428-.426.229-.13.329-.229.229-.132-.068-.066.558-.393h.428l.2.066.13.36.1.2-.064.426v.033l.064.1-.163.426-.066.2v.132l-.23.294-.064.165-.066.13-.165.23-.393.393-.066-.132-.358.426-.1.1-.263.1-.13.263h-.329l-.229-.033-.36.393-.393.033-.2.033-.165.033-.523.064-.131.066-.2-.163-.622.163Zm-4.457-6.126-.1.033-.066.163.066-.031Zm0-.36-.1.033-.033.2h.064Zm.23,3.242-.1.033-.134-.066.165.23.066-.066Zm.393-5.406-.1.068-.066.13.066.033.066-.033Zm.327,1.212-.36-.1-.132.229.033.294.165.033.326-.2Zm-.327,5.144h-.033v.033Zm.656-3.637-.165-.13-.2-.066-.294.2v.2l.1.13.1.263.2-.033.165-.163.163-.068.1-.1Zm-.428,3.407h-.1l-.1.2.1.033.068-.033Zm0-.262-.13-.13-.035-.1.035.13.13.132Zm.36.132-.23-.1h-.1l.132.229.165.23.031-.033.068.163.294.033.1.066.131-.066.165.165.229-.066-.165-.393-.1.1-.13-.294h-.229v.1l-.294-.13-.035.2Zm.229-5.373-.161-.132-.133.327.23.033h.229Zm-.1,1.311-.163.064.031.033Zm.556-.23-.262-.066-.2.1-.064.1.132.36.13.13.231-.1.2-.132Zm.2,3.014-.393-.2-.066.294-.2-.066-.031.262.2.2.033-.132.132.132.262.229.165-.1h.23l-.134-.262-.064-.165v.033Zm-.327-5.832-.132-.066-.033.23-.165.165.1.13h.263Zm.295,1.476-.327-.165-.132.294.164.2.295-.2Zm-.066,2.063-.1.132.132.1v-.23Zm.329,2.131h-.231l-.033.1.1.033v.033Zm.031-.788-.163.132.163.132.132-.1-.1-.229Zm.164,2-.2-.031v.2l.1.033.161.033Zm.523-6.88h-.163l-.163-.163-.134.229v.066l-.031.1.164.13.26.033.035-.13.1-.132Zm-.459,6.979.1.262.132.23.1-.263.033-.229Zm.2-8.55-.13-.1v.2l.066.1.2-.033Zm.033,3.636v.066l.1-.2-.066.033Zm.132,6.88.031.033v.1l.035.033.1-.2Zm1.015-1.278-.165-.13.068-.165-.459.033v-.033l-.068.033-.1-.066-.229.165.229.229.23.066.13-.165.164-.033-.066.1v.033l-.033.033-.066-.033.13.132.035-.033v-.1l.064.033.294.2.2-.132v-.23Zm-.556-.262h-.068l-.1.066-.1.163.2.066.134-.033Zm-.1.459h-.165l.035.1.1.064Zm0-9.5-.13-.033.031.163h.1Zm.36,10.647-.231-.132-.1.2.1.033.263-.064Zm0,.1-.165.035v.031h.1Zm.229-9.369-.1-.066-.13.132.064.033.165.033Zm-.13,7.339-.066.2.2-.066Zm-.066.655h.066v-.066Zm.1-.163v-.033l-.031.064Zm.526-10.649-.133-.163.066.294.2-.064Zm.13,10.32h-.1l-.132.1.261.132Zm-.066,1.639h-.1l-.033.066h.2Zm.852-.492-.327-.1-.132-.426-.229-.033-.165.327.262.294.263-.066v.066l.2.2.132-.066Zm-.426.657-.294-.165v.132l.064.163.2-.1v.1l.163.033.068.033v-.262l-.2.033Zm.13-.492-.2.066.1.163.2-.033Zm-.031-.262v.1l.031-.033Zm.883-10.91-.13.165.163-.294.262-.165V256.7l-.229-.1-.1-.13-.035.033.035-.1h-.2l.033.165v.031l-.13.068-.165.163-.165.262.2.3.329-.165.163.033.165-.2Zm-.294,10.419h-.229l-.066.033.2.2.033-.064Zm.229-10.975-.13.1.031.132.1-.132Zm.23-.327-.066-.066-.066.163.1.033.1-.033Zm.883,5.371-.2.066-.033.1.163.1.133-.066.13.066.031-.1h-.161Zm1.017,5.636h-.2l-.066-.2-.1-.163-.13-.033-.428.327.2.1.031.1.2-.033.229-.064-.033.1-.035.263.362-.132Zm-.819-.688.229.1.1-.229Zm.261-4.555-.066.033-.1.132.13.1h.165Zm.229,4.914.133.165.229-.132-.033-.294h-.066Zm.624.788h-.2l-.035.1v.066l.263-.1Zm.327-1.18-.1.033.165.163Zm.23-5.144-.132-.229-.131.457h.033l-.066.2.066.2.165-.229.066-.13.13.031Zm-.2.229.2.035.033-.035Zm.358-.49h-.13v.1l.13.1.066-.064Zm-.13,3.734h.031l.066-.033Zm.36-4.455-.066.031h-.1l-.066.165.165-.1Zm-.1,1.309-.1.165h.033Zm.163,4.031-.163-.2-.033.327.066.066.13-.132Zm.035.457-.035-.13-.064.066Zm.589-5.569-.033-.13v.031l-.327.23-.2.165.264.2.164-.1h.1Zm.459.655-.294-.229-.263.066-.13.1-.066.358-.1.23.165-.066h.064l-.327.132.393-.132h.066v.066l.327-.1.229-.2.066-.1Zm-.624.459h.066l.1-.033.066-.033Zm.263.2-.165-.033-.033.163.1.2.229-.165Zm.785-1.245-.165-.1.165-.165.035-.064.163.1.23-.132.13.1.164-.229.064-.163-.033-.2-.1-.165h-.229l-.134-.064-.1.36-.033-.033v-.459h-.2l-.2.066-.066.1-.1.132v.064l.295.165h-.326l-.132.163-.132.23.165.13.2.132h.033l-.1.165.264.031.2-.031Zm-.165-.984-.13-.064-.033.132.3.064Zm0,.885-.064-.033-.066.1Zm.329-1.606-.229-.064.033.2-.165.132.327.1.1-.132Zm-.13,1.278.1-.132h-.3l.035.132.031.1.068-.066.066.066.031-.033Zm-.066-.165-.033-.1-.035-.033.068-.1Zm.49-3.144-.229.066-.1.033.262.2.035.066Zm.589,3.242-.161-.066.031.066.1.132.1-.066Z" transform="translate(-1217.273 -244.97)" fill="#fff"/><path d="M1264.967,269.275l-.261.066-.426-.066-.1.066-.428-.1-.13-.163-.492-.033.132-.1-.591-.033-.163-.1-.3-.163-.1-.066-.261-.163-.1-.066-.229-.2-.165-.1-.064-.2-.3-.23-.132-.229-.2-.163-.064-.3.064-.1-.294-.36-.033-.165v-.1l-.164-.459.033-.1-.2-.327.035-.165.031-.327-.031-.393-.2-.132.163-.459v-.1l.1-.261.066-.263.033-.262-.033-.492.066-.163.064-.2.035-.2.033-.3.2-.393.035-.2-.035-.066.294-.492h.1l.1-.457.163-.23.1-.064.165-.3.2-.327.165-.033.13-.459-.066-.033.329-.294.229-.262.13-.165.066-.1.23-.163.36-.426.1-.1.2-.1.132-.1.2-.36.294-.1.2-.2.1-.066.294-.165.36-.229h.1l.36-.2.163-.163-.064-.132.557.033.229-.229.13.033.165-.165.327-.165.327-.033.2-.033.261-.064.2-.066h.294l-.066-.132.49.033.494.165.229-.2h.391l.329.165v-.1l.294.1.36.2.36.132v.033l.165.132.393.2.2.23.261.1.132.1.132.13.1.23.2.262.163.1.035.23.13.391.132-.033v.426l.033.327.031.066.1.393-.064.261-.1.1.064.525-.064.165-.1.229v.295l-.066.261-.132.2-.13.327-.033.132-.165.327-.229.294-.23.2-.1.1-.263.132-.13.1-.165.163h-.2l-.3.327-.294.165h-.295l-.327.033-.231-.132-.326.229h-.133l-.295.1-.2-.066-.687-.13-.558-.066-.2-.033h-.165l-.358-.2-.23-.263-.165-.13-.2-.066v-.2l-.161-.229-.1-.1-.1-.261-.033-.23-.066-.229-.066-.1-.033-.2.23-.294v-.033l.262.033.457.229h-.031l.49.2.164.033.033-.1.49.066.362.13.163-.2.327.031.132-.163h.165l.163-.229.459-.2.165-.1.262-.327.131-.2.031-.2.1-.033.066-.294-.066-.36-.064-.2-.035-.426-.064-.2-.066-.163-.329-.263-.1-.13h-.3l-.2.033-.425-.1-.035-.033-.393.132-.2-.033-.2.066-.229.13-.163.033-.033-.033-.393.263-.655.391-.133.263-.229.163-.163.066-.165.132-.229.229-.228.393-.132-.13-.163.523-.066.132-.068.163-.325.426-.134.1-.064.36-.132.229-.163.362-.066.2-.228.294v.263l-.165.294-.033.163-.066.2-.033.262-.13.426v.1l-.033.393-.165.13.2.263-.033.294-.066.1.2.589-.031.2.13.2.231.294.2.2.229.066.165.229.1.165.295.1h.393l.1-.031.36.064h.393l.031.033.295-.066.23-.1.264.033.294-.132.13-.1.165-.1.393-.262.229-.1.1-.13.262-.033.294-.327.2-.1.36-.36.165-.033.327.066.2.229.033.163.132.068-.066.457.066.393-.132.263-.064.033-.035.2v.163l-.2.23-.132.229v.066l-.36.36-.1.132-.229.163-.066.1-.393.23-.229.163-.3.165-.064.033-.36.064-.263.066-.13.132-.459.066-.424.13-.1.033-.165.165-.753-.033-.229-.066Zm-4.095-7.043h-.163l.1.066.13.066Zm.1.753.033-.132-.066.165Zm.393,1.639-.163-.035-.2.3.229.1.131-.066Zm.1-3.932-.229-.033-.13.23.1.13.294-.1Zm-.2,2.719h-.163v.1l.033.13.13-.1Zm.721.622.068-.033-.494-.064-.064.1V263.9l-.165.035.033.294.1-.066.2.262.23.23.1-.3-.031.132v.066l.294-.132-.035-.165-.229.066.033-.1Zm-.2-.36-.329-.1-.031.262.13.066.2-.033Zm-.294.36-.035.132.068-.066Zm.163-4.062-.064-.066-.1.163.13.1.033-.066Zm.261,4.98-.261-.033-.13.327.2.132.1-.068h.391Zm-.13-3.473-.131.1h-.064l.031.035.033.064.2.066-.066-.1Zm.229.426h.035l.064-.033.033-.132-.2.066h-.035v.033l-.1.229-.066.165.033.163.13.393.558-.229-.229-.36h.064Zm-.033-2.229-.163.068.163.1Zm.688,1.935.2-.165-.064-.2-.1-.163-.132-.033-.1-.033.033-.033v-.36l-.393-.066-.131.132-.13.262.163.033.2.132-.031.066-.066.229.231.261h.064l-.229.23.1.064.1.329.329-.329Zm-.719.262.064.033-.064-.1-.035.033Zm.457-2.686-.163-.033-.1.229.163.132.165-.132Zm-.2,1.933.1.033.165-.132-.1-.1Zm.23,1.9-.163-.033-.068.13.134.165.1-.132Zm.132,2.063-.228-.033-.035.2-.1.165.2.2.164-.1-.066-.2.1-.064v-.132Zm-.263.165.2.064v-.031l-.163-.066Zm.294-3.572.066-.064h-.2l-.066.064Zm.165-3.242-.13-.033-.1.165.064.2.231-.165Zm.035.721h-.165l.13.262Zm.163,2.39h-.2l-.031.23.066.132.13-.2Zm-.1.525.033-.066-.1.1Zm.261-1.212-.163.035v.1l.2.033Zm-.13,4.064.033.1.031.2v-.261Zm.358-3.539-.2-.1-.13.033.229.2.132-.066Zm.2-3.374-.1-.033.066.1-.1.1-.068.2-.294.2h.035l.327-.165.1-.066.066-.132.066.1.132-.163-.034-.132.1-.066-.066-.1-.066.031-.033-.066Zm-.492,4.683.066.068.068-.165-.068-.066Zm.525-2.522.1-.033.064-.163-.031-.066v-.263l-.229-.031-.23-.066-.132.2V260l-.031.163.064.1.1.1v.066l.066.033h.031l.263-.132-.033-.132Zm-.1,0h.1l.066-.163-.3-.132-.161-.033-.068.165.033.064.23.132Zm-.329,2.163.066.1.066-.2h-.033l.2-.327-.163-.033-.066.033-.1.13.1.2-.066-.033Zm.1-.1h-.033l.033.033Zm.1-1.966h-.1v.1l.066.1.1-.068Zm.231,6.553-.163-.132-.1-.033.36.294.064.033Zm-.132-5.243v.132l.066-.1Zm.263-3.7-.1.033.066.1h-.132l-.033.066.066.13.2-.294Zm.556,9.665-.49-.033-.165.261-.066.1v.066l.459.2.262-.263Zm-.36.261h-.1l-.1.1.132.13.13-.1Zm.263-9.206.031.033h.2v-.163l-.2-.033-.064.132.033.031h-.229l-.035.263.066.163.327-.2Zm-.033.786v.066h.033l.066-.033.2-.033.033-.13-.229.066.064-.132.066-.1-.031-.165Zm0,.033.033.033.066-.13Zm.294-2.588-.23-.033.1.1.165.033Zm.1.982v.23h-.034l-.064.1-.066-.066v.229l.066.066-.033.033.1.1.1.2v-.165l.4-.163-.1-.294h.033l-.13-.1.229.165.2-.066.2-.2-.2-.261-.165.066-.229.165Zm.1.426-.2-.1-.066.13.066.1.033.033.031.1.1.033.066-.13Zm.164-1.768-.133.066-.066.1h.1v.033Zm.818,0-.131-.033-.229.1-.132.2.1.1.1.229.229-.163h.132Zm.426.36.033-.033-.23-.066-.033.033h-.065l-.13.393.165.327.064-.064.23-.068-.066-.13.163-.132-.031-.229-.066-.033Zm-.3.591h.1l.033-.068.132-.13-.066-.165-.2.033-.033.2Zm.3-.591-.2-.1v.033h-.033l-.031.132.031.1.1-.033Zm.523,3.866-.229.163.064-.033Zm-.031-4.587-.1-.033v.294l.1-.033Zm.2,11.139-.165-.066.033.2.1-.033Zm.294.459-.2.031-.034.165.1.066.064-.1Zm.263-6.585-.2-.1-.132.132.132.066.163.031Zm.031.262-.066.033-.13.1h.264v.229l.294-.262-.066-.066-.2-.132-.066.165Zm.263-5.079-.329.1.034.132.064.066.165-.1Zm-.23,10.845-.1.066.034.1.394-.1-.1-.165Zm.624-11.073-.2.066.066.033h.132Zm-.066.294-.033.066-.033.132.066.033.031-.066Zm.589.033-.295-.13.131.294-.2.132.294-.165.064-.033Zm-.1,4.521-.064.033h-.033l-.1-.064-.064.1.064.066h.262Zm.393,5.57-.13-.165-.2.23-.1.2.229.2.2.066-.033-.36Zm-.033-10.975-.261-.068.1.2.132.132.163-.165Zm-.1,5.569h-.066l-.1.1.164.033.031-.066Zm.36-5.144-.165-.033-.229-.1-.066.2.327.066.132-.033Zm.327-.622-.131.066h-.13l-.132.262.295.033.164-.066.066-.033Zm-.033,5.536-.066.035-.1.1.066.066.131-.033Zm.13.591-.13-.1-.165.165.165.163.13-.1Zm.068-.294-.1-.132-.066.229.132.066.1-.033.064.132.2-.033-.13-.262-.13-.066-.034.132Zm.523.622-.229.132.2.033Zm.36-6.748h-.2l-.1.163.2.033Zm.035,6.551h-.264v.329l.264-.1Zm.457-4h-.229l.031.1.066.066.2-.132Zm.327-.327-.13-.36.229.033-.229-.36-.2-.033-.2.262.263.2.132.294Zm-.23-1.671h-.228l-.031.23.163.033.132-.066Zm.3,3.866-.2-.229-.132.327-.066.2.261.13.294-.2Zm-.262,1.147-.066.132.1.165.068-.068Zm.066,1.18-.066-.163-.066.262.031.1.165-.1Zm.294-4-.23-.064-.1.2.23.132.132-.1Zm-.066.984-.033-.066-.163.36.261-.1Zm-.033-.327v-.1l.1-.033-.066-.262-.1.1.033.163-.033.229Zm.2-1.834-.165-.2-.066.261.132.165.064-.033Zm-.2,1.735V258.2l-.033.1Zm.525,1.41-.393.031-.033.327.262.23.2-.1.2-.132Zm-.2,1.67-.165-.066-.064.1.13.13.1-.033Zm.229-3.08-.13-.033.165-.1-.1-.2-.231-.1.035.23.13.163h-.033l.132.1Zm-.064,2.293-.1.033-.1.262.1.033.328.1Zm.13-4.029-.13-.066-.132.262.132.066.294-.033Zm.329.786v.2l.031.066-.031.066.1.033.064.064h-.229l-.066.132-.066.2.229.13.164.066.1-.163v-.362h-.035l-.1-.262-.033-.163Zm.424,2.816-.066-.066-.13.262h.13Z" transform="translate(-1210.798 -244.999)" fill="#fff"/><path d="M1274.707,260.909l-.3.23-.064.358.033.033-.1.263-.229.327-.066.2-.23.2-.033.327-.1.165.031.033-.393.622-.064.2-.165.2-.031.2-.165.23-.1.033-.132.294-.13.163-.1.395-.033.064-.327.721-.2.263v.1l-.13.2-.132.327-.132.165-.13.261-.131.294-.13.2-.033.294-.3.294-.229.1.033-.066-.525.23-.163-.035h-.885l-.231.132-.358-.165-.426-.031-.2.064-.2-.1-.066-.2-.066-.327.263-.229.1-.262.1-.3.163-.163.066-.23.066-.2.2-.165.031-.327.2-.132-.033-.36.328-.229.066-.3-.031-.031.229-.263.031-.2.23-.393.064-.066.034-.294.064-.165.3-.391.13-.3.164-.2v-.23l.033-.1.262-.457.1-.263.13-.163.1-.1.165-.459.066-.064.163-.393.165-.3.229-.13-.033-.426.165-.426.2-.525v-.1l.068-.3.031-.066v-.229l.1-.36-.164-.393-.165-.229-.26-.066-.068-.033-.325-.1-.165.033-.263-.1-.424.23h-.132l-.2.163-.294-.229-.031-.2.1-.263-.033-.132.2-.262.163-.229.1-.23.066-.033.1-.2.229-.294.1-.066.395-.165.294-.294.1-.066h.358l.263-.163h.459l.228.066h.2l.23.064.164.1.294.1v-.033l.426.393.261.1v-.033l.228.294.2.3.229.294.1.031.1.327v.3l.13.459h.2l.163-.263.132-.1v-.165l.4-.36.229-.262.13-.165.165-.033.1-.2.362-.294h.1l.327-.263.035-.1.326-.2.23.033.262-.2.23-.066.064-.2.492.163.231-.064.294.033.165.031.229-.1.459.262v.066l.294.2.393.132h.1l.263.36.2.229.1.263.2.393v.327l.033.294v.2l.066.3-.165.393-.13.327-.165.066-.1.36-.064.1-.165.031-.294.362-.165.064-.294.033-.229.132-.132-.1-.424.066-.035-.066-.523-.033-.263-.13-.2-.132-.229-.132-.132-.2-.2-.2v-.1l-.163-.13-.2-.655-.033-.294-.1-.068-.393-.1-.229.294-.2.066-.031.163-.36.23-.1.066-.13.2.031.132-.459.492-.229.163-.066.1-.1.36-.2.261-.262.2-.066.13-.2.459-.066.165Zm-6.748,7.141-.066.1.066-.033Zm.982.035-.2-.068-.066.23.132.066.13-.066Zm0-.426h-.165l.066.2.229-.066Zm.852-.2-.164-.36-.36.132v.163l.132.263.1.064.229-.132.1-.064Zm0-1.474-.295-.1v.1l-.066.163.1.165.329-.165Zm.36,1.768-.2-.033.1-.064v-.132l-.23-.033.033.132v.1l-.132-.033-.2.263h.558l.1-.066Zm-.393-1.867.229-.066.131-.132-.131-.294-.2-.1-.2.391Zm.132-1.441.066-.2-.2.132Zm.294,1.768h-.2l.033-.033.066-.294-.2.033v.294l-.066.033-.033.132v.066l.13.1v-.1l.066.033.164-.1Zm-.36-.951.131-.064-.066-.262-.033.229Zm.066,2.491.066-.033h-.1Zm.883-1.867.066-.294-.2.033-.165-.1-.1.033-.2.426.1.13.066.033-.035.1.066.1h.164l-.1-.165.132.066.327-.261Zm-.523-1.408.13-.033.066-.165Zm.1,1.67.1.033-.033-.13Zm.326,1.147-.031-.033-.231.165.262.066.068-.033Zm.885-2.326.066-.1-.066.033v-.132l-.36.066-.2.294-.2.033-.1.132.132.13.165-.033.064-.163.165.2.13.066.2-.327Zm-.492-.721-.229.426.295.033.229-.165Zm-.064,1.8-.033.1-.033.132.2-.294-.13.033Zm.393-2.851-.165.066v.066l.033.064.132.035Zm.424-.393-.36-.165-.064.3.064.327.426-.229Zm0,1.507-.229-.1-.2.2.294.262h.165l.031-.2Zm-.261.655v-.064h-.1l-.033.064.068.1Zm.72-.883-.229-.066v.165l.033.13.13-.2Zm-.2.852.066.13.13-.36-.13-.066Zm.261-8.945-.033-.064-.064.163.1.1.1-.132Zm.163,1.245-.229-.033.033.1.033.068.2.031Zm.165,4.98.033-.033-.294-.1-.066-.066v.033l-.033-.033v.426l.132.132.229-.23Zm0,0-.328-.165-.033.132.033.066.1.1.13.033Zm-.294,1.147v.031l.229-.163Zm.066-7.666.2.163.031.132.393-.262-.327-.2-.132-.1Zm.261,5.766-.064-.066-.2.165.2.031.064-.031Zm-.064,2.1-.035-.066-.163.132.13.163.165-.1Zm.392-3.08-.262-.163-.165.229-.13.2h.325l.3-.033Zm-.262-2.882-.165-.033-.064.2.163.066.1-.1Zm.13,2.1-.1-.035-.064.165.064.1.1-.033Zm.23-.2h-.295l.1.13.1.1Zm0,1.966v.064l-.031.035-.165.031-.1.263.229.163.132-.033.064-.163.068-.2h-.033l.064-.1Zm-.031-4.914-.2-.1v.229h.23Zm.161,5.667-.161-.033v.2l.13.1.13-.066Zm-.13-.689.033.035v.2l.132-.132-.1-.132Zm.426-3.733-.163.13.064.132h.132Zm-.033.424-.13.1.064.2Zm.459,2.359-.558-.1.066.327.261.23.066-.263.066-.13Zm-.2-4.259v.1h-.035l.035.033-.035.2.132.13-.1.033-.165.033.294.066v-.1h.033l.066.1.163-.165-.031-.294-.1-.165-.132-.2Zm.1,0-.1.1v.033l.163.1Zm0,.459.033.033v-.066Zm.164.655-.132.066.033.1h.1Zm0,.459-.066.1h.066Zm.328.459-.328-.033-.033.229.132.132-.066.033.229.2.1-.13v-.165h-.1l.033-.033Zm.295-.624-.165.3-.1.1.2.326-.1.329-.031.033.2.261h.033l.066-.132.228-.13.132-.263-.033-.066-.164-.064.229-.033-.064-.2-.066-.064v.031l-.2-.13-.2-.2Zm-.1-.2-.066-.1-.031.165h.031l.1.033Zm.033.916.2-.064.035.033h.1l-.132-.066h-.1Zm1.573-.752.066-.1-.2-.2-.263.066-.165.426-.163.066-.1.262.033.066.2-.1.163-.163.3-.132.1-.132Zm.492-.459-.132.064-.066.165h.132l.1-.033Zm.589-.558-.263-.13.068.229.031.033.165-.1Zm1.441,1.017-.294-.033.066.229.066.132h.033Zm1.213-1.573-.229-.263-.132.426.261.1.2-.066Zm-.066.294-.163.033-.066.13.066.132h.2Zm.035,2.293-.231.132-.033.1.13.1.2.066.066-.066Z" transform="translate(-1204.546 -244.955)" fill="#fff"/><path d="M1274.222,265.428v.132l-.066.132Zm.132.755-.033.163v.165l.033.36.165.229.229.263.1.163.165.229.1.165.2.262.2.165.132.066.393.229.229.066.131.2.13.1.295.132.131.066h.262l.263.163.2.1.459-.033.393.165h-.033l.525.229.295-.229.1.066.393-.1.329.064.033.035.326-.066.263-.066.294-.165.165.066h.294l.394-.1.1-.163.229-.165h.229l.362-.2.1-.1.393-.132.1-.229.2-.132.133-.1.2-.294.393-.3.033-.033.066-.163.2-.263.064-.2.1-.2.163-.23.165-.262-.066-.165.066-.229-.033-.262.13-.165-.1-.393.066-.229.031-.329-.326-.426.13-.229-.165-.294v-.2l-.064-.391-.459-.393v-.066l-.165-.3-.2-.294-.033-.1-.329-.525-.294-.294-.2-.327-.066-.033-.163-.2-.23-.165-.2-.326-.066-.165-.163-.36-.033.066-.163-.329-.066-.163-.033-.033.033-.23-.1-.163v-.229l-.031-.263.13-.327.13-.229.231-.36.393-.1.2-.163.2-.068h.36l.229-.1.165.033.327.132.2-.035.066.035.229.13.395.327h.033l.1.263.263.294h.031l.068.327.2.525.033.064.033.36.064.2.1.163.294.327.23-.064H1287l.229-.165.231-.066.1-.064.163-.132.3-.165.1-.294.1-.2.064-.261v-.229l.035-.393V257.6l-.067-.393-.031-.163-.1-.3-.1-.163-.132-.262-.294-.393-.13-.066v-.1l-.1-.066-.36-.262-.131-.229h-.2l-.457-.165-.132-.132-.2-.163h-.228l-.261-.066-.492-.2-.261-.1-.1.1h-.393l-.425-.165-.2.1H1283l-.327-.1-.163.2h-.393l-.1.1-.558.229.033-.031-.424.13-.3.2h-.033l-.2.2-.229.132-.328.229-.261.263h-.033l-.393.294.066.1-.1.13-.165.36-.165.132-.031.2-.1.2-.261.229.1.23-.13.36.1.066-.066.229.033.163.13.591-.162.2.066.294.066.1.064.329.2.163.133.36.13.1.165.262.13.2.329.36.031.163.165.165.132.2.326.3.035.13.165.262.13.329.36.13.033.2.1.2.23.263-.068.262.068.262.064.1.066.294v.132l-.2.558.1.031-.066.393-.13.1-.134.2-.1.294-.163.132-.1.13-.294.262-.165-.066-.23.132-.2.1-.162-.033-.36.066h-.459l-.264.1-.162-.033h-.2l-.327-.066h-.523l-.035-.2-.13-.13-.294-.165v-.13l.163-.23.2-.132.064-.1.068-.2.2-.132.2-.326.1-.132v-.459l.13-.163-.031-.4-.033-.13-.1-.132-.1-.262-.263-.229-.13-.165-.165-.165-.132-.1h-.2l-.294-.2-.424-.066-.23.165-.262-.033-.165.066-.229.033-.327.261-.1.2-.066.064-.163.23-.131.064-.163.23-.035.49-.161.068.064.457-.132.327v.132Zm.589.426-.1.13-.031-.1-.066-.066-.033-.2.165.132Zm.132-.951-.1.033-.1-.1.031-.262.229.066Zm.13-1.408-.2.13v-.229l.13-.033Zm.035,3.047-.1.066-.1-.23-.033-.033.2.1Zm.687-1.278-.164.2-.328-.263.1-.262.294.033Zm0,1.147-.294.1-.2-.132.132-.294h.294Zm.261-2.458-.261.23-.2-.132.13-.36.261.066Zm-.2.132-.13.033-.066-.13h-.033l.164-.066Zm.295-.523-.064-.1h-.131l-.163-.132.229-.132-.066-.031-.13-.132.13-.1.066.1.13.163h-.031l.066.23.165-.033Zm.133,1.18-.2.13-.131-.13.033-.23.3.033Zm.13,2.293h-.033v.033l-.031.031v.23l-.1-.1-.3-.23.2-.2.23.033v.066h.033Zm-.36-3.866.033.031h-.066Zm.163.294h-.13v-.033h.1Zm.134,3.636-.1.132-.131-.2Zm-.035-.556-.13-.033.229-.033Zm.36-1.048-.1.13h-.131l-.163-.1.163-.163h.3Zm-.392,1.408h.1v.132l-.066-.066Zm.392,1.114-.163-.066.066-.033.1.033Zm.164-1.474-.261-.033.1-.1.1.066Zm.393-2.851.033.3v.033h.132V265h-.066l-.1-.1-.031-.1-.133.165-.1.1-.165-.165-.163-.2.229-.358Zm-.23,1.245h-.2l-.1-.132.035-.163.161.2Zm.2-.949.064.033-.064.031Zm.916,3.831-.132.2-.2-.066v-.033l-.165-.033-.424-.163h.295l.26.13.035.033v-.1Zm-.525-.426-.261.1v-.068l-.1-.229.263.066Zm-.23-4.225-.1.031.033-.1Zm.624,5.011-.132.132-.1-.2.066-.066.2.033Zm-.165-.261h-.031v-.033Zm.753-.033-.031.033-.1-.033.13-.2h.1Zm.327-.459.132-.064.328-.033.165.327-.2.066-.263.13-.263-.262Zm.361.788-.163.064-.1-.132.165-.064.1-.066Zm.362-1.214-.2.068.033.163-.13-.066.031-.165.035.035.031-.1.066-.033h.066Zm-.132,1.41-.131-.033.035-.163h.1Zm.262-9.632h-.1l-.229-.2.2-.066h.13Zm-.064-2.489-.066-.033-.132-.1.1-.132.2-.064Zm.294.883-.066.035-.165-.132.165-.132.066.066Zm.13,10.845-.1.033.1.033.033.064-.13.1-.165-.1.033-.031-.066-.066.1-.033-.033-.033.064-.165h.1Zm.033-11.236-.163.064-.1-.1.033-.165.2-.066Zm.492,2.326-.393.031-.262-.066-.1-.13.229-.327h.294Zm-.689-3.178.134-.2.2-.163.1.229-.36.263Zm.494,1.736-.3.2-.2-.064.1-.426.329.1Zm-.165,1.867-.165.066-.165-.229.134.033h.064Zm1.081,7.732-.2.1v-.066l-.068-.165v.165l-.1.294h-.2l-.325-.132.031.263-.2.033-.066-.262.2-.068.13-.163.1-.294.165.1.26.031v.033l.134.132Zm-.424-11.007-.23.229-.262-.2.13-.426.229-.033h.1Zm-.459,11.17v.033l-.033-.033Zm.2-5.83-.13-.2.229-.066Zm.424-2-.031.066v-.033l-.229.1-.1.031-.033-.358-.066-.294.36.064.066.23v.13l.066-.066.1-.033Zm-.161-2.129-.134.1-.13-.2v-.163l.2.031Zm.161,2.129-.031.033v-.1Zm.263-1.8-.13-.1.1-.033.033.033Zm.066,3.963-.1.033-.066-.064.066-.1Zm.033-4.716-.033.165h-.132Zm-.064,1.015.031.2-.066.064v-.163l-.066-.1Zm.523,3.539-.229.033-.035-.066.066-.262-.2-.165.13-.2.231.035-.131.229-.033.1h.228Zm-.362,4.782.133-.2.163.064Zm.393-.852h-.1l.033.033-.2.033-.035-.066-.064-.031.033-.165.066-.033h.064l.033-.033.132.1Zm0-2.293-.1.068-.132-.132.1-.132h.1Zm.2-3.831-.2.031-.162-.163.2-.066Zm.231-4.129-.165.165h-.165l-.1.033-.031-.13-.066-.1.36-.064.031.064Zm-.134,7.994-.13.165-.2-.1.163-.229.163.066Zm-.1-3.242-.2-.066.295-.1Zm.231,7.273-.263-.033-.033.066.033-.2-.1-.033.131-.2.1-.033-.064-.066.228-.132.394.1-.064-.033.229-.033.031-.033.067.066-.2.1-.165.2-.2.064h-.033l-.23-.229.164.2-.164.064h-.13l.1.066Zm-.165.393-.132-.033.066-.2.066.035Zm.228-6.357-.163.1-.066-.163h.066l.13-.066Zm-.064,4.358-.1.033v-.2l.2.1Zm.62-11.236-.064.327-.2.163-.4-.294.132-.033.228-.033Zm-.359,5.667-.033.064-.2-.163.132-.066Zm0,7.372-.1.064-.1-.064-.033-.165.264.033Zm.327-5.472-.164-.033-.294-.1.1-.229.23.033Zm-.327,4.062-.131.066.033-.033-.033-.165Zm.261-2.13h-.064l-.134-.1.066-.132.068.066Zm.1-3.177-.1.066-.1-.262.034-.066h.2Zm-.031,4.391-.13.163-.034-.163v-.132l.131.064Zm.165-.362-.165.066-.033-.033.033-.1.165-.1Zm.064,2.1-.13.1-.067-.1.1-.132.066-.033Zm-.1-4.652v-.033l.2-.132Zm.558-7.961h-.1l-.165-.165.035-.033.228.165Zm.49,10.909-.13.132-.066-.163.035-.2.26.229Zm1.7-10.68h.1v.2l-.033.1-.13-.2Zm.294.591-.2-.033h-.064l.13-.23.165.165Zm.492,2.227-.294.033-.1-.262-.13-.23.13-.033.231.066Zm.4-1.474-.068-.132.229-.033Z" transform="translate(-1198.947 -245.118)" fill="#fff"/><path d="M1286.811,270.073l-.033.2-.1.457-.033.23-.1.2-.033.2-.294.327-.066.165-.132.132-.229.163-.262.2-.132.23-.231.132-.393.1-.1.033h-.263l-.294.165-.393-.132-.228.033-.066-.033-.393-.066-.13-.165-.329-.229-.031-.033-.23-.13-.1-.426-.064-.329-.066-.2.031-.261v-.36l.065-.294.033-.2.23-.229.033-.459.031-.066.035-.36.393-.165.066-.13.259-.2.2-.2.165-.1.2-.2.329-.1.229-.033.2-.163.327.064.033.066.459-.066.132.033.36.132.165.066.2.262.163.132.1.163.2.229v.23l.132.49-.033.23Zm-3.57,1.114-.2-.064-.1.163.229.1.1-.066Zm.523,1.278-.163-.033-.066.132h.228Zm.033-2.555-.163-.132-.068.132.068.066h-.033l.033.1-.033.1.1-.033v-.066l.1.066.068-.1Zm.492.754-.2.033-.264-.033v.36l.066.163.328-.163Zm.2-.525-.325-.066v.165l.064.262.328-.295Zm.1-.916h-.294l-.066.261.165.066.294-.1Zm.294.358-.327-.064-.1.163-.2.1.294.229.1.165.426-.229Zm-.229,1.869-.327-.132-.066.23.066.326.327-.13Zm.558-.689-.066-.1v.13l.066.132-.066-.033-.1.23-.066-.132v-.033l.033-.132-.2-.1-.13.165v.033h-.033l-.165.165.033.13.2.165h.3l.066-.165.163.1h.328l-.229-.393h-.1v-.1Zm-.23.2-.165-.1-.13.066.1.132.2.1Zm.393-1.474-.327-.2-.033.263.066.13.23-.163Zm-.163-.753-.035-.033-.13-.033Zm.1,1.245-.23-.033-.033.163.033.23.262-.132Zm-.263,1.147v.064l.033.033.033-.033Zm.393-2.425-.13-.066.031.1-.1.163.263-.13Zm.425,1.639h-.294l-.229.262.294.163.229.033Zm.165-4.817-.262-.163-.163-.165.064-.294.066-.2.13-.294.165-.393.035-.2.031-.066.165-.459.13-.1v-.36l.132-.327.033-.066.064-.327.164-.13.1-.393.13-.23V261.1h.133l.1-.426.1-.294.065-.327.13-.263-.066-.1.23-.294.1-.132.031-.393.23-.165v-.36l.163-.1.035-.424.13-.066.033-.36.1-.327.2-.459.1-.132.066-.327.1-.327.033-.066.132-.13.033-.395v-.2l.2-.23.2-.49v-.23l.131-.393.163-.229.033-.163.132-.3.164-.424.1-.165v-.262l.132-.329.1-.066.066-.426.3-.358.031-.068.36-.163.23-.294.163-.132-.031-.229h.36l.229-.033.294-.1.2-.033.1-.033.294-.064.395.1.328.1.228.033.329.13.163.132.033.165.294.2.033.263.033.2.1.1.031.262-.163.294-.033.362-.1.229-.031.13-.1.329-.262.294-.068.2-.2.263-.165.229-.2.165-.064.294-.035.033-.13.294-.165.327-.164.2-.229.23-.033.229-.231.132-.064.327v.132l-.262.327-.132.229-.1.132-.261.2-.033.358-.132.132-.165.263-.1.13-.033.165-.2.393-.131.393-.3.261-.1.066-.2.393-.031.2-.228.261-.035.13-.2.165-.165.262-.033.2-.2.262-.229.132-.066.391-.1.033-.2.329-.134.358-.1.165-.1.1-.2.295-.031.2-.13.262-.23.23.033.064-.3.426-.1.2.035.163-.36.327-.066.1-.3.393.035.066-.4.163-.294-.1Zm-.13,5.274-.066.1-.165.066.2.165.066-.132Zm.2-5.634.2-.033-.033-.064h-.1l-.1.064Zm.165,4.718h-.2l.031.13.066.1.066.033Zm.359-5.274-.13-.1-.066.262.165.1.165-.066Zm1.181-4.1-.132.035-.1.163.1.066.1-.1Zm.229,1.245-.328-.2-.131.393.23.163.2-.1Zm-.328.951h-.131l.033.163Zm.523-2.065-.163-.066v.066l.2.1Zm1.05-1.18-.263-.064.066-.165-.262-.165-.261.1-.066.13v-.1l-.164-.066-.163.2.2.068h.161l-.031-.068.229.329-.1.064.329.165h.1l.36-.165Zm-.492.786h.033l.066-.033-.132.329.163.163.2-.393.132-.1.066-.1h-.36l-.035.064v-.13l-.064.066-.1.064-.033-.229-.229-.033-.1.132-.13.13.13.393.033-.1.361-.13Zm-.295,1.9-.1-.163-.031.229-.035.066Zm.262-1.966-.066.033.1.033v-.033Zm.492-1.834.066-.066.163-.033-.13-.163.165-.327-.134-.261-.229.064.033.2-.165.391-.13.068-.033.261.294-.066.033-.033h.066Zm-.329,1.834-.031.033h.031Zm.134-1.8h.13l.066-.033-.033-.163h-.132l-.066.033Zm.391-.1-.163.066-.033.165.066.1.163-.13Zm.362.558-.294.132-.035.13.132.165.2-.1Zm-.066-3.539-.132-.1-.1.2.064.1.165-.132Zm.525,1.245-.066-.132v.066h-.2v-.13l-.1.031-.066-.13.1.066.13-.066v-.2l-.228-.066-.066.132.035.066-.165.033.031.1.034.064-.034.132h.034l-.1.2.163.033.035.23.294-.132Zm-.165,3.08-.294-.066-.133.229.3.035.033.031.064-.163Zm-.1-3.146-.261-.033-.033.066.13.033.164.033Zm-.261,3.7.031.132.1-.261-.064-.066Zm.784-5.5-.163-.1-.033.165.066.1.165-.064Zm.428-1.18-.263.033-.031.163-.165.262.261.165.229-.229Zm-.1,1.245-.165-.066-.13.229.1.033.1-.033Zm-.231,3.08.132-.165v-.066Zm.525-.821.229-.391-.261-.033.1-.132.066-.165.035-.229-.165.1-.294-.132-.066.1-.066.163.132.362-.132.262.328.2.1-.031Zm1.342-1.7-.066-.066-.1.132-.033.2.229-.2Zm.165-.819.033-.1-.13.165.031.033Z" transform="translate(-1192.368 -248.844)" fill="#fff"/></g><g transform="translate(1171.641 222.39)"><path d="M1284.839,260.478a.915.915,0,0,1-.808-1.346l17.37-32.569a.915.915,0,0,1,1.615.86l-17.37,32.571A.915.915,0,0,1,1284.839,260.478Z" transform="translate(-1078.582 -219.331)" fill="#fff"/><path d="M1297.378,238.271a.915.915,0,0,1-.695-1.509l1.759-2.054a.915.915,0,0,1,1.39,1.191l-1.759,2.052A.913.913,0,0,1,1297.378,238.271Z" transform="translate(-1068.191 -212.444)" fill="#fff"/><path d="M1292.34,246.12a.916.916,0,0,1-.695-1.511l5.486-6.4a.915.915,0,0,1,1.39,1.191l-5.486,6.4A.916.916,0,0,1,1292.34,246.12Z" transform="translate(-1072.366 -209.544)" fill="#fff"/><path d="M1323.479,262.964a.915.915,0,0,1-.49-1.686l25.124-15.987a.914.914,0,1,1,.982,1.542l-25.124,15.989A.925.925,0,0,1,1323.479,262.964Z" transform="translate(-1046.557 -203.528)" fill="#fff"/><path d="M1326.479,264.038a.916.916,0,0,1-.32-1.772l13.648-5.117a.915.915,0,0,1,.642,1.714l-13.648,5.117A.933.933,0,0,1,1326.479,264.038Z" transform="translate(-1044.071 -193.63)" fill="#fff"/><path d="M1344.313,281.667a.914.914,0,0,1-.176-1.81l10.095-2.019a.922.922,0,0,1,1.075.717.912.912,0,0,1-.717,1.075l-10.1,2.019A.847.847,0,0,1,1344.313,281.667Z" transform="translate(-1029.29 -176.451)" fill="#fff"/><path d="M1329.477,285.558a.915.915,0,0,1-.175-1.812l20.274-4.054a.915.915,0,1,1,.357,1.794l-20.274,4.054A.844.844,0,0,1,1329.477,285.558Z" transform="translate(-1041.585 -174.916)" fill="#fff"/><path d="M1343.976,303.078c-.027,0-.058,0-.088,0l-14.493-1.359a.915.915,0,1,1,.17-1.821l14.495,1.359a.915.915,0,0,1-.084,1.825Z" transform="translate(-1041.585 -158.159)" fill="#fff"/><path d="M1343.3,317.325a.942.942,0,0,1-.289-.048L1339,315.939a.914.914,0,1,1,.578-1.734l4.014,1.339a.914.914,0,0,1-.291,1.781Z" transform="translate(-1033.458 -146.334)" fill="#fff"/><path d="M1341.628,316.767a.884.884,0,0,1-.289-.048l-12.149-4.049a.914.914,0,1,1,.58-1.734l12.147,4.049a.914.914,0,0,1-.289,1.781Z" transform="translate(-1041.585 -149.042)" fill="#fff"/><path d="M1347.6,330.692a.918.918,0,0,1-.437-.112l-20.116-10.973a.914.914,0,0,1,.876-1.606l20.117,10.973a.915.915,0,0,1-.439,1.717Z" transform="translate(-1043.242 -143.242)" fill="#fff"/><path d="M1260,234.5a.914.914,0,0,1-.9-.775l-.658-4.283a.914.914,0,0,1,1.807-.28l.659,4.285A.916.916,0,0,1,1260,234.5Z" transform="translate(-1099.715 -217.417)" fill="#fff"/><path d="M1262.166,248.606a.914.914,0,0,1-.9-.775l-1.829-11.887a.914.914,0,0,1,1.807-.28l1.829,11.887a.917.917,0,0,1-.765,1.044A.931.931,0,0,1,1262.166,248.606Z" transform="translate(-1098.886 -212.03)" fill="#fff"/><path d="M1236.435,235.192a.919.919,0,0,1-.8-.472l-6.095-10.973a.915.915,0,0,1,1.6-.887l6.1,10.973a.915.915,0,0,1-.355,1.244A.905.905,0,0,1,1236.435,235.192Z" transform="translate(-1123.75 -222.39)" fill="#fff"/><path d="M1244.277,249.3a.917.917,0,0,1-.8-.472l-8.687-15.634a.915.915,0,1,1,1.6-.887l8.687,15.634a.916.916,0,0,1-.355,1.244A.906.906,0,0,1,1244.277,249.3Z" transform="translate(-1119.399 -214.557)" fill="#fff"/><path d="M1228.5,240.379a.913.913,0,0,1-.647-.269l-7.16-7.16a.914.914,0,1,1,1.293-1.293l7.16,7.16a.915.915,0,0,1-.646,1.562Z" transform="translate(-1131.209 -214.931)" fill="#fff"/><path d="M1234.412,246.291a.912.912,0,0,1-.647-.269l-6.779-6.779a.914.914,0,1,1,1.293-1.293l6.779,6.779a.915.915,0,0,1-.645,1.562Z" transform="translate(-1125.994 -209.715)" fill="#fff"/><path d="M1208.1,261.117a.9.9,0,0,1-.366-.077l-11.009-4.817a.914.914,0,0,1,.733-1.675l11.007,4.817a.914.914,0,0,1-.366,1.752Z" transform="translate(-1151.301 -195.8)" fill="#fff"/><path d="M1211.648,262.667a.931.931,0,0,1-.366-.077L1206.5,260.5a.914.914,0,1,1,.731-1.675l4.788,2.094a.915.915,0,0,1-.368,1.752Z" transform="translate(-1143.207 -192.259)" fill="#fff"/><path d="M1194.339,268.761a1.053,1.053,0,0,1-.108-.005l-5.027-.592a.912.912,0,0,1-.8-1.015.925.925,0,0,1,1.015-.8l5.027.591a.915.915,0,0,1-.106,1.823Z" transform="translate(-1157.754 -185.964)" fill="#fff"/><path d="M1207.986,270.366a.725.725,0,0,1-.108-.007l-12.15-1.428a.914.914,0,0,1,.214-1.816l12.15,1.428a.915.915,0,0,1-.106,1.823Z" transform="translate(-1152.345 -185.328)" fill="#fff"/><path d="M1184.1,322.471a.915.915,0,0,1-.41-1.734l13.5-6.752a.915.915,0,0,1,.817,1.637l-13.5,6.752A.935.935,0,0,1,1184.1,322.471Z" transform="translate(-1162.076 -146.557)" fill="#fff"/><path d="M1172.556,303.986a.914.914,0,0,1-.132-1.818l7.95-1.169a.914.914,0,0,1,.265,1.809l-7.95,1.169A.821.821,0,0,1,1172.556,303.986Z" transform="translate(-1171.641 -157.248)" fill="#fff"/><path d="M1180.411,303.4a.914.914,0,0,1-.13-1.818l16.443-2.418a.914.914,0,1,1,.265,1.809l-16.445,2.418A.812.812,0,0,1,1180.411,303.4Z" transform="translate(-1165.129 -158.772)" fill="#fff"/></g></g></svg>